<svg width="300" height="400" viewBox="0 0 300 400" fill="none" xmlns="http://www.w3.org/2000/svg">
<rect width="300" height="400" fill="#D9D9D9"/>
<path d="M198.625 137.625H102.375C94.7811 137.625 88.625 143.781 88.625 151.375V247.625C88.625 255.219 94.7811 261.375 102.375 261.375H198.625C206.219 261.375 212.375 255.219 212.375 247.625V151.375C212.375 143.781 206.219 137.625 198.625 137.625Z" stroke="#969696" stroke-width="12" stroke-linecap="round" stroke-linejoin="round"/>
<path d="M129.875 192.625C137.469 192.625 143.625 186.469 143.625 178.875C143.625 171.281 137.469 165.125 129.875 165.125C122.281 165.125 116.125 171.281 116.125 178.875C116.125 186.469 122.281 192.625 129.875 192.625Z" stroke="#969696" stroke-width="11" stroke-linecap="round" stroke-linejoin="round"/>
<path d="M212.375 220.126L191.159 198.91C188.58 196.332 185.084 194.884 181.438 194.884C177.791 194.884 174.295 196.332 171.716 198.91L109.25 261.376" stroke="#969696" stroke-width="11" stroke-linecap="round" stroke-linejoin="round"/>
</svg>
