<svg width="102" height="136" viewBox="0 0 102 136" fill="none" xmlns="http://www.w3.org/2000/svg">
<path d="M68.0003 90.5C51.0008 81 34.7435 79.0231 32.9865 89L32.9863 128.801C46.6529 134.05 54.3302 133.821 68.0003 128.801C68.0058 100.625 67.9949 118.676 68.0003 90.5Z" fill="#900639"/>
<path d="M51.4555 133.125C45.1099 133.168 38.3557 132.448 32.5337 128.443C32.4462 127.417 32.5449 127.657 32.537 127.406C32.5492 126.819 32.5096 126.465 32.5125 126.036C32.5265 123.953 32.5322 122.004 32.5449 119.96C32.558 117.855 32.6624 118.851 32.6878 118.119C32.7376 116.69 32.6015 117.906 32.5709 117.344C32.5791 115.706 32.5938 114.053 32.6088 112.411C32.6215 112.812 32.6339 113.213 32.6457 113.618C32.6485 112.902 32.6695 111.879 32.7051 113.077C32.7149 112.812 32.7263 112.565 32.7359 112.292C32.6863 112.218 32.6824 110.951 32.653 110.835C32.6236 110.72 32.6303 111.432 32.6278 111.428C32.5911 111.38 32.6412 108.459 32.6453 108.248C32.6562 107.692 32.7176 108.18 32.7137 107.706C32.7069 106.891 32.5818 107.434 32.7481 106.331C32.6941 105.892 32.7221 105.854 32.7259 105.298C32.7263 105.225 32.6951 105.282 32.6942 105.25C32.671 104.408 32.7292 105.055 32.7323 105.051C32.7858 104.974 32.7621 104.072 32.7672 103.881C32.8311 101.495 32.8744 99.7472 32.8892 97.2294C32.8924 96.6852 32.8707 95.0275 32.8798 94.5009C32.8888 93.9814 32.9273 94.2601 32.9458 93.9883C32.8531 93.5525 32.8428 93.1368 32.9039 92.1585C32.8363 91.7942 32.8909 91.8411 32.8773 91.1433C32.8722 90.5547 32.7592 89.5831 32.8723 88.8877C32.8221 89.6768 32.8871 89.5602 32.9011 90.3931C32.9078 90.6678 32.9092 93.532 32.9783 93.3189C33.0144 93.2077 32.9813 92.2584 32.9879 92.2217C33.0267 92.0081 33.0743 92.5379 33.0576 93.0076C33.0498 92.8905 33.0418 92.7495 33.034 92.6237C32.9856 93.6785 33.1715 92.9531 33.009 93.7548C32.9891 93.8539 32.9683 93.8155 32.9472 93.9789C32.9559 94.0125 32.9776 93.8126 32.9815 93.9848C32.9854 94.1604 32.9442 94.4939 32.979 94.5436C33.0295 94.6179 33.0096 93.8903 33.0125 93.8356C33.0122 93.835 33.0119 93.8344 33.0116 93.8338C33.0384 93.3497 33.0415 94.3607 33.0463 94.409C33.0778 94.7217 33.102 94.5085 33.128 94.9778C33.1428 95.2455 33.1341 95.9275 33.1389 96.1791C33.1438 96.4291 33.1677 96.0401 33.1728 96.2084C33.1779 96.3766 33.1598 96.5861 33.1657 96.7836C33.1683 96.8681 33.195 96.8638 33.1959 96.9047C33.2062 97.3435 33.1507 97.0556 33.1541 97.4536C33.1564 97.7113 33.208 98.5766 33.2234 97.9802C33.2288 98.2669 33.2327 98.5464 33.2369 98.8316C33.2449 98.6517 33.2503 98.4658 33.2596 98.2903C33.2469 98.827 33.2925 99.0698 33.2959 99.4062C33.2993 99.7427 33.2445 100.044 33.2712 100.414C33.328 101.204 33.3018 99.2482 33.3119 99.0054C33.3159 98.9107 33.3588 99.2742 33.36 99.3301C33.3654 99.5788 33.3347 99.8729 33.3361 100.065C33.3412 100.751 33.3817 101.171 33.3899 101.825C33.4176 104.051 33.4401 106.814 33.449 108.923C33.4523 109.709 33.4068 110.182 33.408 110.534C33.4111 111.359 33.4507 111.46 33.4528 112.18C33.4561 113.25 33.4215 114.759 33.414 115.653C33.4089 116.272 33.4472 116.832 33.4482 116.993C33.4619 119.23 33.4611 121.951 33.4615 123.805C33.4618 124.677 33.4186 125.091 33.4199 125.271C33.4253 126.044 33.4621 125.837 33.4584 126.464C33.4564 126.803 33.421 126.867 33.4196 126.912C33.408 127.311 33.4542 127.391 33.4557 127.703C33.0939 129.199 35.7578 129.173 37.2365 129.85C37.3559 129.889 37.3409 129.906 37.4205 129.93C37.7636 130.036 37.6153 129.955 37.9702 130.065C38.6996 130.289 39.4678 130.523 40.2552 130.741C40.3329 130.763 40.3611 130.798 40.5384 130.845C40.7176 130.892 40.8633 130.905 41.145 130.978C41.8754 131.166 42.6075 131.364 43.3959 131.523C43.526 131.549 43.6923 131.549 43.8902 131.587C44.5077 131.705 45.4144 131.876 45.9495 131.944C47.7046 132.175 49.3379 132.244 51.0015 132.209C51.3927 132.201 51.7398 132.216 51.9435 132.207C52.4023 132.184 52.0555 132.176 52.5191 132.147C56.3102 131.897 60.066 131 63.7506 129.82C65.0324 129.307 67.6516 128.938 67.556 128.099C67.5606 127.48 67.5982 127.351 67.5987 126.916C67.5993 126.132 67.5502 126.063 67.5454 125.194C67.5417 124.507 67.5909 123.847 67.588 123.118C67.585 122.412 67.5374 122.144 67.5317 121.352C67.5272 120.675 67.5489 119.829 67.5455 119.102C67.5147 112.7 67.4893 106.423 67.5281 99.9823C67.5415 97.714 67.535 95.1867 67.5823 92.8361C67.5868 92.6183 67.6328 92.9566 67.6233 92.2503C67.5828 91.9202 67.7305 91.0912 67.4476 90.7322C63.3259 88.3203 57.971 85.8562 52.9552 84.3896C45.7827 82.2369 35.0756 81.4425 33.2751 88.7722C33.1865 89.0982 33.1067 88.898 33.1169 88.6899C33.1795 88.5095 33.2476 88.3492 33.3247 88.1731C33.2592 87.9078 33.2482 87.9271 33.6141 87.0962C33.8616 86.5867 33.6115 86.9683 33.7311 86.6902C33.8379 86.3036 34.9714 84.8146 34.8171 85.1603C34.8833 85.0658 34.9464 84.9795 35.0158 84.8899C35.9755 83.9441 37.1606 83.3098 38.4134 82.8913C38.626 82.8212 38.6276 82.7894 38.8537 82.7228C39.4694 82.5465 39.9718 82.4707 40.6056 82.3806C40.9519 82.3341 41.0094 82.291 41.4642 82.2534C41.9193 82.2211 41.9215 82.2643 42.5458 82.1931C42.1359 82.1387 43.9575 82.1577 44.6193 82.2128C44.7128 82.2163 45.4822 82.2204 45.8997 82.2736C46.2988 82.3215 46.9351 82.435 47.5556 82.5146C47.8509 82.5525 48.0376 82.5423 48.3607 82.598C48.5855 82.637 48.8401 82.7222 49.1223 82.7806C49.4045 82.8378 50.0205 82.9417 50.1288 82.9666C50.5278 83.0558 50.0822 82.9798 50.3547 83.044C51.6853 83.3572 53.188 83.797 54.4609 84.1908C54.6172 84.2391 54.411 84.1408 54.432 84.1465C55.5033 84.4565 54.926 84.3109 55.2044 84.4317C55.4751 84.5419 57.481 85.2538 57.5114 85.2161C57.5489 85.3003 58.0101 85.424 58.1267 85.4679C58.5809 85.6385 58.4653 85.6538 58.9019 85.8109C59.0617 85.8688 58.7696 85.7089 58.9384 85.7785C59.3547 85.9506 59.7159 86.1669 60.2605 86.4069C60.3929 86.4655 60.447 86.4585 60.6837 86.5626C60.9222 86.6658 61.8975 87.1409 61.4668 86.8836C62.0431 87.1948 62.1734 87.2257 62.8699 87.5549C63.0454 87.6384 63.2482 87.7836 63.6252 87.9512C63.7526 88.0079 63.7677 87.9676 63.957 88.0599C64.3916 88.2723 64.7733 88.5122 65.3143 88.7915C66.2421 89.4362 67.7822 89.3441 68.2427 90.9426C68.2667 91.3438 68.204 91.2168 68.2069 91.7079C68.2069 91.7796 68.2439 92.3525 68.2404 92.6695C68.2383 92.8611 68.2119 93.8461 68.2098 94.0683C68.2064 94.4131 68.248 94.4719 68.2398 94.6564C68.2163 95.1841 68.1551 94.7665 68.2388 95.3877C68.1923 95.5833 68.1969 95.9711 68.1397 96.0959C68.2023 96.3209 68.1421 96.6108 68.163 97.0255C68.184 97.4372 68.3052 97.7725 68.1747 97.8858C68.1905 98.0973 68.2175 98.9377 68.2195 99.0692C68.225 99.4715 68.189 99.2449 68.1938 99.5753C68.1946 99.6326 68.2193 99.5759 68.2168 99.9402C68.2152 100.177 68.2136 101.895 68.2102 101.984C68.1715 103.123 68.1857 101.375 68.159 101.091C68.166 101.044 68.1731 100.997 68.18 100.947C68.1917 100.448 68.1359 100.725 68.123 100.959C68.11 101.209 68.1348 101.652 68.1165 101.841C68.1073 101.935 68.0404 101.88 68.0485 101.587C68.0279 101.9 68.0062 101.473 67.9868 101.596C67.9656 101.727 67.959 103.145 67.9959 103.144C67.9971 102.889 67.9959 102.556 67.9974 102.272C68.0615 101.932 68.2801 102.97 68.1928 103.968C68.1296 104.673 68.0792 103.481 68.1324 105.172C68.135 104.925 68.1409 104.688 68.1436 104.458C68.1916 104.425 68.1389 104.825 68.1542 105.016C68.1616 105.111 68.1956 104.53 68.207 105.034C68.1383 105.451 68.2074 105.785 68.2084 106.511C68.1961 106.302 68.1839 106.11 68.1716 105.912C68.122 107.1 68.1051 104.311 68.0776 106.668C68.0754 106.381 68.0759 106.099 68.0725 105.815C68.0473 105.954 67.9733 105.731 67.9577 105.856C67.9167 106.173 67.9415 106.665 67.938 107.054C67.9366 107.234 67.9166 107.122 67.9165 107.137C67.9143 107.38 67.9436 107.327 67.9455 107.529C67.9479 107.795 67.9198 108.557 67.9231 108.672C67.9315 108.995 67.989 108.464 67.9934 108.495C68.0214 108.691 67.9985 109.113 68.035 109.089C68.0093 108.096 68.0408 105.212 68.1022 107.82C68.1611 107.096 68.2426 107.314 68.2495 108.34C68.2552 109.183 68.2223 108.646 68.1866 109.085C68.1821 109.14 68.1656 110.285 68.191 110.341C68.1325 110.294 68.0808 110.67 68.0204 110.418C68.0115 110.38 68.0147 109.914 67.9663 110.078C67.942 110.16 67.889 110.392 67.858 110.354C67.8796 110.45 67.9039 110.558 67.9265 110.651C67.9331 111.349 67.9099 111.463 67.8698 111.834C67.8866 111.818 67.957 111.469 67.9357 111.999C67.9345 112.027 67.9092 112.05 67.8967 112.332C67.8716 112.864 67.8638 112.998 67.7893 112.568C67.832 113.721 67.7491 113.97 67.7734 115.135C67.869 114.909 67.8454 114.5 67.8268 113.412C67.8495 113.365 67.872 113.344 67.895 113.296C67.8436 114.747 67.8488 114.012 67.895 114.841C67.9064 115.016 67.8943 116.114 67.9587 115.751C67.9738 115.656 67.9721 114.993 67.9959 115.071C68.0005 115.075 68.0121 115.911 68.0059 115.963C67.9297 116.825 67.8767 115.274 67.9044 117.695C67.9052 117.763 67.933 117.786 67.9369 117.921C67.9441 118.173 67.9119 118.193 67.9193 118.405C67.9267 118.614 67.9701 118.91 67.93 119.247C67.8569 119.849 67.815 118.466 67.8538 117.786C67.7584 117.546 67.7559 122.115 67.764 122.36C67.7994 123.587 67.7791 121.567 67.8056 121.455C67.8168 121.41 67.9587 121.425 67.8667 120.897C67.8394 120.74 67.8034 121.396 67.7884 121.004C67.7734 120.615 67.8151 120.77 67.8181 120.741C67.8281 120.645 67.8126 120.244 67.8186 120.195C67.9086 119.412 68.0445 119.479 67.8436 120.526C67.8889 120.99 67.9614 119.928 67.9921 120.502C68.0295 121.204 67.9647 121.757 67.9617 121.83C67.9271 122.873 68.0217 121.647 67.9914 122.962C67.9745 123.712 67.9286 121.839 67.9346 123.555C67.9396 124.892 67.9726 124.175 68.0474 124.27C68.0649 124.294 68.0862 125.043 68.0787 124.024C68.0592 123.995 68.0335 123.942 68.0156 123.878C68.0298 123.641 68.1274 123.202 68.1308 123.062C68.1471 122.387 68.0965 122.426 68.1562 122.044C68.0909 122.315 68.1303 121.874 68.1165 121.713C68.0659 121.091 68.0469 121.895 68.1123 120.479C68.0817 120.66 68.0517 120.827 68.0212 121.01C68.0202 120.836 68.0191 120.666 68.0181 120.499C68.0854 120.245 68.0769 119.392 68.1446 120.169C68.1639 119.203 68.1493 118.776 68.097 118.578C68.087 118.535 68.083 118.414 68.082 118.223C68.0673 118.258 68.0218 118.302 68.0162 118.273C67.9672 118.013 68.052 117.632 68.0843 117.762C68.0859 117.64 68.0877 117.545 68.0885 117.511C68.0935 117.3 68.1227 117.716 68.1328 117.543C68.136 117.481 68.1297 116.912 68.1416 116.885C68.2178 116.827 68.1628 117.775 68.2071 115.812C68.1377 115.758 68.153 116.672 68.0793 116.436C68.0001 116.175 68.1063 115.681 68.0091 115.551C68.0251 115.507 68.0384 115.488 68.0566 115.45C68.0143 114.639 68.0952 114.64 68.113 114.384C68.1479 113.919 68.1422 111.713 68.0725 113.686C68.0654 113.377 68.0621 113.123 68.0559 112.811C68.2009 112.742 68.1433 112.926 68.165 111.536C68.1698 111.224 68.2336 111.136 68.1577 110.831C68.232 110.872 68.1867 109.973 68.1956 109.887C68.254 109.349 68.3367 111.345 68.2053 111.611C68.2566 111.948 68.189 111.937 68.1981 112.329C68.2111 112.855 68.2243 112.945 68.1745 113.593C68.245 114.232 68.2049 111.092 68.2987 113.005C68.3319 114.948 68.7021 125.683 68.2742 128.79C63.6215 131.455 61.429 131.488 57.216 132.468C56.8082 132.573 53.6628 133.01 54.307 132.838C54.4021 132.819 55.7443 132.613 54.5805 132.699C54.8205 132.707 54.1422 132.814 54.0845 132.823C52.778 133.038 53.5435 133.026 51.4555 133.125ZM45.381 132.056C48.028 132.418 46.0884 132.112 46.6513 132.058C46.3137 132.021 45.976 131.978 45.636 131.931C45.7237 131.951 45.8114 131.97 45.8996 131.99C45.9 131.99 45.9004 131.99 45.9008 131.99C45.7275 132.013 45.5535 132.035 45.381 132.056ZM33.3016 97.5173C33.3178 97.6223 33.334 97.726 33.3498 97.8398C33.3448 98.1952 33.3399 98.5493 33.3348 98.9047C33.3239 98.8623 33.3128 98.8214 33.3018 98.7789C33.3023 98.3584 33.3028 97.9393 33.3016 97.5173ZM67.836 117.411C67.881 116.928 67.8008 116.955 67.8373 116.284C67.7782 116.365 67.7204 116.457 67.6618 116.545C67.6705 117.078 67.693 117.163 67.6785 117.719C67.6976 117.654 67.7167 117.588 67.7358 117.526C67.7317 117.435 67.7271 117.339 67.7235 117.253C67.7767 117.113 67.7846 117.982 67.8362 117.413C67.8361 117.412 67.8361 117.411 67.836 117.411ZM67.8118 112.271C67.8194 111.981 67.848 110.93 67.8234 110.779C67.7402 110.285 67.794 113.296 67.7193 111.082C67.7077 111.092 67.6963 111.082 67.6847 111.082C67.6808 111.479 67.6774 111.875 67.6743 112.305C67.7202 112.281 67.7656 112.297 67.8118 112.271ZM55.0102 132.087C55.4256 132.048 57.3554 131.669 56.7146 131.729C56.5287 131.749 55.671 131.969 55.3425 132.011C55.1272 132.04 55.362 131.966 54.9403 132.039C54.9614 132.055 54.9757 132.073 55.0114 132.087C55.011 132.087 55.0106 132.087 55.0102 132.087ZM54.2697 132.423C54.6952 132.366 55.1283 132.299 55.5532 132.227C55.2369 132.228 54.6216 132.34 54.5784 132.277C54.6946 132.258 54.8096 132.238 54.926 132.217C55.0176 132.22 55.108 132.222 55.1986 132.224C55.5631 132.134 55.3342 132.153 56.0182 132.055C55.5896 132.02 55.5085 131.992 54.3542 132.237C54.5678 132.155 54.3402 132.01 53.7059 132.202C53.5869 132.238 54.0953 132.201 54.1017 132.204C54.1851 132.241 53.9061 132.301 53.9948 132.336C54.0345 132.352 54.3461 132.316 54.3955 132.338C54.4192 132.348 54.1265 132.421 54.2697 132.423ZM53.396 132.277C53.525 132.236 53.0684 132.213 52.6799 132.253C52.0735 132.315 53.0366 132.316 53.396 132.277ZM33.3016 97.515C33.3016 97.5158 33.3016 97.5166 33.3016 97.5173C33.3016 97.517 33.3015 97.5166 33.3015 97.5162C33.3015 97.5158 33.3015 97.5154 33.3016 97.515ZM67.7796 113.66C67.7556 113.326 67.759 112.88 67.721 112.906C67.7284 112.744 67.7358 112.588 67.7432 112.438C67.7318 112.44 67.7203 112.443 67.709 112.444C67.702 112.905 67.695 113.359 67.6878 113.848C67.7183 113.794 67.749 113.73 67.7796 113.66ZM67.8042 108.587C67.8078 108.005 67.7563 108.494 67.7313 108.366C67.7063 108.23 67.7264 107.719 67.6906 107.777C67.6893 108.124 67.6881 108.477 67.687 108.829C67.7259 108.735 67.7655 108.669 67.8042 108.586C67.8042 108.587 67.8042 108.587 67.8042 108.587ZM34.8508 129.205C35.2187 129.349 35.0597 129.336 35.8104 129.551C35.8098 129.551 35.8093 129.55 35.8087 129.55C35.153 129.276 34.0769 128.917 33.5458 128.656C33.7584 128.872 34.3102 128.978 34.8508 129.205ZM67.7196 118.801C67.7508 118.962 67.777 118.213 67.7479 118.019C67.7009 117.733 67.6721 118.561 67.7196 118.801ZM32.9833 114.446C32.8871 113.841 32.779 114.987 32.8257 116.188C32.8298 116.292 32.8604 115.517 32.8792 115.747C32.881 115.77 32.8787 116.195 32.8921 116.301C32.9055 116.406 32.9366 116.296 32.9497 116.468C32.9725 116.771 32.9302 117.456 32.9602 117.682C32.9642 117.712 33.0059 117.288 33.0074 117.261C33.0326 116.825 32.9782 116.405 32.9778 116.338C32.976 115.991 33.0187 116.043 33.0287 115.956C33.0476 115.79 33.0287 115.499 33.0301 115.479C33.0675 114.952 33.0568 116.155 33.0722 116.317C33.1137 116.755 33.1523 116.35 33.1758 117.399C33.178 117.498 33.1755 118.69 33.2233 117.188C33.3229 120.138 33.2799 115.705 33.258 115.224C33.2478 115.002 33.2072 115.338 33.1888 115.204C33.147 114.896 33.1396 114.373 33.0806 114.42C32.9565 114.521 33.0378 115.208 33.0169 115.682C32.99 115.633 32.9637 115.614 32.9373 115.521C32.9728 115.663 32.9905 114.49 32.9835 114.446C32.9834 114.446 32.9834 114.446 32.9833 114.446ZM33.125 121.915C33.0876 122.577 33.1659 122.531 33.1211 123.138C33.1915 123.673 33.1868 122.617 33.1907 122.494C33.2084 121.932 33.2849 121.945 33.2614 121.371C33.2161 121.568 33.1704 121.729 33.125 121.915ZM33.1574 116.15C33.197 116.594 33.1963 115.8 33.2039 115.768C33.2844 115.418 33.2687 117.793 33.1574 116.15ZM57.5714 131.812C57.7912 131.771 57.6444 131.762 57.8358 131.711C58.0279 131.661 58.6982 131.546 58.6755 131.526C58.6544 131.508 57.4299 131.714 58.6413 131.433C58.5975 131.429 58.6091 131.417 58.5867 131.409C58.2576 131.483 57.9129 131.556 57.5805 131.623C57.7711 131.624 57.9679 131.624 58.1534 131.622C57.9705 131.692 57.8567 131.675 57.8467 131.678C57.8467 131.678 57.8467 131.678 57.8467 131.678C57.4966 131.754 57.0791 131.904 57.5714 131.812ZM40.106 130.969C40.0173 131.044 40.5502 131.078 40.767 131.122C40.9815 131.165 41.261 131.271 41.1627 131.204C40.829 131.093 40.1152 130.961 40.106 130.969C40.106 130.969 40.106 130.969 40.106 130.969ZM33.1252 125.515C33.1483 126.071 33.173 125.983 33.1448 126.662C33.1678 126.636 33.1913 126.609 33.2139 126.583C33.2144 126.043 33.1477 126.081 33.1745 125.457C33.1789 125.354 33.2322 125.574 33.2151 125.111C33.1866 125.246 33.1551 125.382 33.1252 125.515ZM33.2198 128.233C33.1988 127.673 33.0023 127.146 33.1202 128.276C33.169 128.431 33.3189 128.587 33.2198 128.233ZM51.7528 132.546C52.8343 132.497 51.6044 132.532 51.3226 132.508C53.8348 132.372 51.0381 132.539 50.7864 132.433C50.4806 132.465 49.9049 132.526 50.5442 132.541C50.811 132.546 50.7133 132.518 50.7293 132.518C51.22 132.517 51.1629 132.566 51.7528 132.546ZM33.1205 120.763C33.1219 120.804 33.154 120.74 33.1604 120.87C33.1668 121.001 33.1443 121.296 33.164 121.325C33.1838 121.354 33.1992 120.762 33.1847 120.581C33.1702 120.399 33.1081 120.393 33.1205 120.763ZM33.0414 124.927C33.0645 125.469 33.1827 124.583 33.1822 124.465C33.176 123.429 33.0788 124.958 33.0414 124.927ZM49.2337 132.76C50.5468 132.73 49.5868 132.615 48.7747 132.515C48.6663 132.523 48.5545 132.53 48.448 132.536C48.9427 132.482 49.7997 132.463 47.8934 132.414C48.934 132.501 48.0605 132.465 48.0533 132.469C47.9278 132.608 49.4831 132.617 49.2325 132.76C49.2329 132.76 49.2333 132.76 49.2337 132.76ZM33.1543 119C33.1538 118.431 33.1293 116.951 33.0675 117.641C33.0964 118.095 33.1254 118.547 33.1543 119ZM68.1174 126.451C68.1529 125.996 68.1523 125.582 68.1501 124.986C68.0986 125.516 68.0927 125.167 68.0802 124.989C68.0612 124.719 68.0627 125.374 68.0592 125.378C68.0104 125.36 68.0028 124.966 68.0038 125.89C67.9869 125.677 67.9697 125.43 67.9529 125.195C67.9505 125.943 67.9186 126.06 67.8796 126.509C67.9748 126.082 67.9151 126.639 67.9624 127.168C67.9861 127.431 68.0993 126.68 68.1174 126.449C68.1174 126.449 68.1174 126.45 68.1174 126.451ZM50.59 132.796C50.725 132.777 50.8482 132.752 50.9783 132.73C51.1205 132.725 51.263 132.72 51.4052 132.714C51.4233 132.728 51.4385 132.743 51.4596 132.757C51.647 132.755 51.5732 132.736 51.6288 132.732C51.6288 132.732 51.6288 132.733 51.6288 132.733C52.4263 132.671 52.7501 132.649 53.3804 132.641C53.3762 132.595 53.372 132.549 53.3678 132.502C53.228 132.519 53.0868 132.536 52.9472 132.551C52.8748 132.581 52.8019 132.612 52.7292 132.642C52.5661 132.64 52.405 132.637 52.2415 132.632C52.1118 132.649 51.9558 132.666 51.8436 132.68C51.1903 132.58 52.6665 132.597 52.6748 132.536C52.682 132.507 51.2037 132.583 50.9904 132.603C50.9597 132.607 51.2822 132.699 50.7387 132.657C50.6532 132.65 50.6236 132.445 50.0393 132.611C49.9557 132.634 50.2459 132.768 50.59 132.796ZM55.9814 132.397C55.1346 132.407 58.2025 132.01 56.8697 132.141C57.2324 132.011 57.1621 132.025 56.777 132.04C56.7431 132.042 56.9993 131.977 56.9769 131.979C56.6204 132.016 56.2023 132.102 56.1893 132.049C56.0944 132.068 56.0051 132.085 55.9104 132.103C56.3156 132.089 55.6896 132.227 55.4529 132.305C55.3449 132.34 55.6007 132.309 55.5099 132.34C55.4771 132.351 55.1153 132.39 55.103 132.41C55.0775 132.454 55.3137 132.479 55.6982 132.451C55.6983 132.451 55.6983 132.451 55.6983 132.451C55.7935 132.433 55.886 132.416 55.9814 132.397ZM38.3323 130.767C38.2186 130.655 37.6752 130.469 38.7389 130.753C38.6912 130.724 38.6418 130.694 38.5939 130.664C38.4158 130.612 38.2443 130.56 38.0675 130.507C37.4682 130.55 36.5687 129.993 37.1403 130.343C37.2037 130.382 37.6305 130.5 37.2009 130.409C37.2015 130.409 37.202 130.41 37.2026 130.41C37.7873 130.584 37.8629 130.58 38.3323 130.767ZM42.2485 131.76C43.6309 131.913 40.403 131.235 40.9293 131.397C40.9757 131.417 42.3704 131.714 42.2485 131.76ZM32.8021 127.202C32.7994 127.825 32.8834 127.866 32.9136 127.803C32.9439 127.74 32.9133 127.309 32.9181 127.253C32.9338 127.072 32.9442 127.456 32.9658 127.221C32.9728 127.143 33.0027 126.058 32.9991 126.008C32.979 125.732 32.9098 126.135 32.9018 126.056C32.8758 125.799 32.9119 125.449 32.875 125.375C32.7964 125.214 32.8789 125.866 32.8803 125.976C32.884 126.308 32.8398 126.279 32.8309 126.528C32.8221 126.776 32.8372 126.938 32.8341 127.158C32.833 127.231 32.8024 127.17 32.8021 127.202ZM33.5759 129.031C32.9435 128.796 34.4113 129.504 34.5894 129.534C35.12 129.679 33.8839 129.121 33.5759 129.031ZM53.8801 132.473C53.2924 132.581 54.6774 132.473 55.0683 132.395C54.992 132.388 54.0828 132.439 53.8801 132.473ZM48.8699 132.746C49.4195 132.753 48.6942 132.624 48.241 132.596C47.9696 132.647 48.222 132.651 48.5195 132.67C48.8179 132.688 48.4409 132.737 48.8699 132.746ZM32.878 120.443C32.8769 120.561 32.9333 122.464 32.9567 121.371C32.9585 121.287 32.9485 119.955 32.938 119.854C32.9168 119.651 32.881 120.139 32.878 120.443ZM46.2342 132.631C46.5295 132.607 46.8137 132.638 46.5554 132.54C46.555 132.54 46.5546 132.54 46.5542 132.54C47.289 132.598 47.3077 132.736 47.4661 132.747C48.0212 132.782 47.5043 132.639 47.8539 132.633C47.0446 132.6 47.2845 132.551 46.6726 132.484C46.535 132.469 45.9858 132.444 45.9016 132.458C45.8182 132.473 46.0889 132.584 46.2342 132.631ZM32.8633 117.755C32.8407 118.398 32.9363 118.986 32.9515 118.095C32.9589 117.66 32.877 117.363 32.8633 117.755ZM68.1482 111.339C68.1231 111.436 68.0982 111.539 68.0734 111.649C68.0672 111.398 68.061 111.183 68.0547 110.935C68.0627 111.13 68.0706 111.303 68.0785 111.497C68.087 111.05 68.1326 110.864 68.1482 111.338C68.1482 111.339 68.1482 111.339 68.1482 111.339ZM68.1656 95.5212C68.1897 95.3322 68.115 94.9486 68.1092 94.9971C68.0657 95.3654 68.1321 95.7838 68.1656 95.5212ZM54.7827 132.597C55.5224 132.508 54.9968 132.459 54.5468 132.506C54.825 132.495 54.3641 132.644 54.7827 132.597ZM68.159 101.091C68.1486 101.16 68.1381 101.23 68.1276 101.306C68.1422 101.065 68.152 101.02 68.159 101.091ZM32.7706 120.746C32.7613 120.859 32.7536 121.694 32.7651 121.807C32.7894 122.041 32.8565 121.389 32.8359 121.006C32.8336 120.964 32.7799 120.633 32.7706 120.747C32.7706 120.747 32.7706 120.746 32.7706 120.746ZM68.1943 110.342C68.1931 110.344 68.192 110.343 68.191 110.341C68.1921 110.342 68.1932 110.341 68.1943 110.342ZM57.5073 85.2086C57.5109 85.212 57.5125 85.2146 57.5114 85.2161C57.5103 85.2138 57.5077 85.2108 57.5073 85.2086ZM32.6674 126.636C32.5516 126.914 32.6132 127.555 32.6704 127.048C32.6734 127.02 32.6672 126.703 32.6674 126.636Z" fill="#900639"/>
<path d="M44.847 1.51525C45.06 1.47618 45.3393 1.51796 45.5515 1.57531C45.618 1.5931 45.5843 1.67261 45.6302 1.68847C45.72 1.71939 45.8037 1.68039 45.8924 1.71722C45.9218 1.72981 45.8852 1.85576 45.9161 1.86608C46.085 1.92175 46.2449 1.88966 46.4161 1.91644C47.2593 2.04853 48.0881 2.09581 48.9416 2.15319C49.223 2.17201 49.5651 2.28631 49.8558 2.23632C49.8897 2.23037 49.8695 2.11982 49.876 2.11071C49.9772 1.97122 49.9435 2.1944 50.0097 2.22405C50.2721 2.34113 50.5639 2.35131 50.8164 2.30865C50.9238 2.29017 50.8161 2.07059 50.9243 2.19384C50.9318 2.20217 50.9045 2.31956 50.934 2.33209C51.0008 2.36025 51.1276 2.33926 51.1794 2.34857C51.2792 2.36709 51.2957 2.3659 51.3901 2.36724C51.5191 2.37009 51.6726 2.42845 51.8111 2.40185C51.8406 2.39582 51.8015 2.27548 51.8486 2.255C51.8958 2.23455 52.0206 2.24476 52.0627 2.27313C52.1048 2.30151 52.0869 2.3961 52.0943 2.41778C52.1556 2.60077 52.2999 2.34733 52.3185 2.34106C52.6572 2.23426 52.9476 2.37864 53.2655 2.37823C53.5068 2.37761 53.7649 2.32994 53.9945 2.33648C54.2681 2.34473 54.4999 2.40995 54.7657 2.39874C54.7938 2.39769 54.7609 2.25619 54.7951 2.25463C55.1591 2.23817 55.5205 2.25359 55.8829 2.34911C55.9193 2.35882 55.8724 2.48305 55.9088 2.50018C56.1485 2.60856 56.4026 2.81997 56.741 2.3354C56.9878 2.39844 57.2715 2.55993 57.3698 2.77968C57.4297 2.91969 57.2451 2.93733 57.3951 2.99798C57.4287 3.01337 57.4795 2.89601 57.5262 2.92917C57.7341 3.08051 57.7985 3.3159 57.9206 3.41123C57.9469 3.4339 58.0367 3.37648 58.0579 3.37576C58.2312 3.37273 58.0638 3.6096 58.059 3.64227C58.0297 3.89704 58.1431 4.01407 58.2173 4.20374C58.2345 4.24844 58.3454 4.14207 58.3669 4.18391C58.4756 4.3996 58.5483 4.65246 58.5461 4.90727C58.5451 4.96365 58.4152 4.94403 58.4085 4.97187C58.3792 5.09268 58.6088 5.0694 58.5807 5.19025C58.5749 5.2153 58.4701 5.22021 58.4596 5.22638C58.294 5.31978 58.5527 5.33528 58.5608 5.35296C58.6661 5.56404 58.4096 5.72214 58.4443 5.9225C58.4484 5.94743 58.5815 5.8932 58.585 5.96495C58.6092 6.44728 58.4423 6.9468 58.1768 7.31142C58.136 7.36788 58.0632 7.28511 58.0502 7.28453C57.849 7.27243 58.0658 7.41267 58.0652 7.43767C58.0571 7.62552 57.7944 7.66861 58.0067 7.91523C57.798 8.50351 56.4146 9.24188 55.8844 8.83723C55.8759 8.83407 55.8912 8.7084 55.8741 8.70264C55.6685 8.63208 55.708 8.8274 55.5719 9.06629C55.5376 9.12628 55.4334 8.83786 55.4241 8.81672C55.3905 8.73881 55.4254 8.55184 55.4141 8.53675C55.321 8.41828 55.3362 9.03661 55.2105 9.03681C55.2066 9.03578 55.2231 8.92197 55.2126 8.91065C55.1798 8.87512 55.1473 8.92035 55.1153 8.88117C55.0419 8.79052 55.0157 8.49006 54.9037 8.66493C54.8895 8.68762 54.9111 9.03837 54.799 9.0218C54.7542 9.01489 54.5563 9.02091 54.5008 8.99818C54.4454 8.97547 54.4834 8.86245 54.4795 8.85755C54.3302 8.70809 54.3868 8.64615 54.312 8.42487C54.2372 8.20444 54.2579 8.7302 54.2274 8.78889C54.1969 8.8474 54.0874 8.72409 54.0605 8.68122C54.0336 8.63833 54.0672 8.56651 54.0433 8.54224C53.8847 8.38368 53.9737 8.80322 53.9215 8.88667C53.7983 9.08425 53.7024 8.69434 53.5896 8.65614C53.5591 8.64582 53.584 8.73462 53.5569 8.74293C53.4493 8.77464 53.3846 8.65298 53.2622 8.76453C53.2422 8.78271 53.1432 9.01714 53.0792 8.8451C53.0701 8.82029 53.0959 8.72313 53.05 8.70136C52.9815 8.6687 52.8581 8.64746 52.7845 8.67994C52.7301 8.70397 52.7925 8.86407 52.724 8.81434C52.6936 8.79213 52.75 8.69847 52.6928 8.66456C52.636 8.63066 52.4907 8.63477 52.4354 8.63801C52.3803 8.64131 52.4105 8.76276 52.406 8.77094C52.379 8.81781 52.2731 8.87637 52.2637 8.87623C51.7916 8.89105 51.3563 8.68634 50.8966 8.7541C50.8606 8.75924 50.8846 8.88731 50.8791 8.88941C50.7556 8.94307 50.853 8.60257 50.7667 8.4886C50.7792 8.74848 50.7282 8.70143 50.6413 8.72993C50.5993 8.74387 50.6222 8.8445 50.6184 8.85481C50.5562 9.00765 50.5129 8.81023 50.5018 8.76984C50.4606 8.62128 50.4158 8.79682 50.3878 8.69752C50.3598 8.59896 50.4242 8.45285 50.3408 8.45472C50.3174 8.54775 50.3793 8.79087 50.316 8.83027C50.077 8.97931 49.6309 8.78856 49.4388 8.76875C49.247 8.74895 49.1851 8.76611 49.0733 8.73249C48.8715 8.6717 48.9454 8.85208 48.8201 8.93464C48.6944 9.01719 48.7555 8.57338 48.7375 8.47798C48.7197 8.38261 48.7003 8.48078 48.6783 8.42835C48.6563 8.37594 48.7039 8.31107 48.6522 8.29139C48.6004 8.27173 48.4589 8.44139 48.4406 8.54115C48.4018 8.75249 48.4656 8.97431 48.3286 8.89637C48.3208 8.89174 48.3463 8.77505 48.3162 8.76325C48.0767 8.67341 47.8278 8.66785 47.5886 8.58839C47.5557 8.57728 47.5851 8.44746 47.566 8.43952C47.3666 8.35649 47.4379 8.57538 47.3286 8.81855C47.3531 8.49495 47.2927 8.29696 47.1414 8.29505C47.0504 8.29379 47.0661 8.43513 47.0072 8.53474C46.9896 8.56477 46.9252 8.46772 46.9135 8.53419C46.8751 8.75146 46.9357 8.99468 46.7797 8.89783C46.7728 8.89323 46.7946 8.7743 46.771 8.7671C46.6181 8.71995 46.5998 8.94722 46.4345 8.97474C46.305 8.99633 46.0746 8.85775 45.9271 8.83521C45.9302 8.47139 45.7909 8.5547 45.7344 8.80555C45.6387 8.79528 45.5353 8.80946 45.4428 8.77479C45.4109 8.76297 45.4318 8.65763 45.4278 8.64625C45.3663 8.4677 45.3246 8.71175 45.304 8.72132C45.08 8.81433 44.8976 8.62936 44.6839 8.81013C44.6763 8.81664 44.664 9.06936 44.6069 8.88483C44.6032 8.87211 44.6738 8.75713 44.5732 8.74824C44.4757 8.73797 44.2758 8.61297 44.0875 8.67641C44.0458 8.69525 43.8536 8.84604 43.8395 8.65846C43.8389 8.6337 43.8826 8.5747 43.8873 8.53172C43.9076 8.39726 43.7489 8.60005 43.8222 8.38751C43.8926 8.17103 43.976 8.03301 43.7646 8.02028C43.7585 8.01999 43.5863 8.13146 43.5594 8.09631C43.5178 8.0415 43.4812 7.93429 43.4347 7.88004C43.4121 7.85383 43.3298 7.95162 43.3242 7.94844C43.1137 7.80244 43.0964 7.59449 42.999 7.3538C42.9819 7.31082 42.7615 7.27869 42.8362 7.13177C42.9209 6.97452 43.5066 6.76977 43.2944 6.66764C43.2141 6.63452 42.435 6.80539 42.7701 6.51725C42.5827 6.2416 42.7598 5.94586 42.6545 5.63592C42.6497 5.62236 42.4394 5.5464 42.4485 5.51006C42.4622 5.45733 42.568 5.4494 42.5821 5.41542C42.6436 5.27479 42.6014 5.11538 42.6666 4.98078C42.6913 4.92993 42.7829 4.98549 42.8124 4.92843C42.8421 4.87209 42.7332 4.77323 42.8321 4.72077C42.908 4.68022 43.1906 4.75038 43.2586 4.69305C43.0129 4.55824 43.045 4.50878 43.0353 4.3769C43.0334 4.35132 42.9374 4.32244 42.9323 4.30772C42.9099 4.24576 42.9982 4.25539 42.9714 4.19358C42.9651 4.17863 42.8833 4.12879 42.8736 4.11361C42.7888 3.98105 43.0306 4.00166 43.0721 4.00664C43.2309 4.0229 43.1442 3.92835 43.2213 3.91379C43.2981 3.89989 43.3114 4.00597 43.3746 3.97278C43.5058 3.90376 43.5863 3.76281 43.6682 3.65815C43.7005 3.61598 43.5763 3.56926 43.5786 3.56145C43.6183 3.45339 43.7839 3.45416 43.6329 3.24006C44.1751 3.62354 43.6292 3.13693 43.8611 3.12245C43.8799 3.12218 44.064 3.37282 44.0655 3.42857C44.0689 3.48266 43.9643 3.4452 43.9861 3.52766C43.9906 3.54686 44.1873 3.76874 44.1906 3.79417C44.245 3.9519 43.8652 3.68349 43.8416 3.6724C43.5873 3.55238 43.7758 3.82752 43.778 3.86183C43.7857 4.02181 43.672 4.0711 43.672 4.19867C43.672 4.28128 43.9243 4.4524 43.8883 4.49067C43.7728 4.61344 43.3743 4.45057 43.616 4.77156C43.6684 4.83937 43.9761 4.9691 43.6922 4.94472C43.6746 4.94237 43.4216 4.90983 43.5364 5.02114C43.551 5.03492 43.6386 5.0768 43.6426 5.08723C43.6684 5.1557 43.5842 5.15416 43.5969 5.21865C43.61 5.28236 43.6395 5.35859 43.5905 5.39981C43.561 5.42469 43.3754 5.41227 43.3279 5.41704C43.1907 5.43107 43.3807 5.53295 43.2238 5.527C43.0652 5.52585 42.8498 5.40401 42.7313 5.48154C42.9779 5.53436 43.2306 5.5911 43.479 5.64225C43.443 5.78366 43.356 5.91967 43.3858 6.0665C43.3898 6.08425 43.5218 6.04855 43.5294 6.06538C43.5609 6.13284 43.4821 6.22292 43.5451 6.29516C43.595 6.35213 43.7548 6.36692 43.8162 6.41429C43.5715 6.5744 43.7145 6.6417 43.7377 6.73223C43.7463 6.7648 43.679 6.80243 43.6697 6.83554C43.6378 6.96115 43.8321 6.79008 43.8786 6.78861C44.0771 6.77994 43.602 7.10875 43.6955 7.21426C43.7005 7.22051 43.9993 7.10658 44.0213 7.10353C44.1651 7.08576 43.9438 7.17862 43.9541 7.22904C43.973 7.32043 43.9559 7.41613 44.0916 7.43684C44.132 7.44317 44.3234 7.37153 44.2539 7.51631C44.2449 7.5354 44.1665 7.60031 44.1665 7.60924C44.1689 7.76122 44.44 7.57974 44.4831 7.47014C44.5393 7.37503 44.3926 7.5428 44.3691 7.60316C44.2951 7.7502 44.3289 7.66116 44.3207 7.67487C44.2094 7.83155 44.2453 7.81615 44.2576 7.84001C44.1215 8.12283 44.1859 8.12971 44.2723 7.86357C44.2826 7.83495 44.2554 7.85498 44.2576 7.84001C44.4141 7.57244 44.3804 7.52087 44.3561 7.81014C44.3478 7.94472 44.3132 8.1018 44.3938 8.04932C44.4392 8.0243 44.4297 7.80791 44.4874 7.74922C44.6267 7.61502 44.8078 7.81627 44.9514 7.78456C45.0036 7.77305 44.9528 7.65495 44.9884 7.64302C45.083 7.61097 45.1664 7.69958 45.2613 7.65419C45.2699 7.64992 45.2489 7.52631 45.2785 7.52473C45.5023 7.51037 45.6973 7.58955 45.931 7.59175C46.044 7.59275 46.2459 7.52457 46.3629 7.53828C46.5657 7.56131 46.8151 7.74107 46.9884 7.6974C47.1014 7.66945 47.0766 7.5458 47.125 7.46156C47.2184 7.29826 47.3838 7.59077 47.406 7.63606C47.4067 7.63756 47.3095 7.66671 47.3614 7.73017C47.3915 7.86242 47.4049 7.63663 47.406 7.63606C47.4207 7.66532 47.6149 7.69339 47.6534 7.66975C47.6744 7.65683 47.6627 7.53969 47.6736 7.53517C47.9333 7.43033 48.1934 7.40056 48.4568 7.45533C48.4615 7.4577 48.4545 7.58873 48.4654 7.59266C48.6179 7.65092 48.7155 7.49063 48.8413 7.39546C48.967 7.30033 49.0667 7.33219 49.1412 7.55714C49.2361 7.52882 49.3722 7.62827 49.4505 7.68861C49.5288 7.74895 49.5398 7.49388 49.5467 7.48884C49.7616 7.32745 49.8859 7.47345 50.1089 7.49617C50.2149 7.50741 50.4252 7.47041 50.54 7.44252C50.6308 7.42005 50.6854 7.47982 50.769 7.4416C50.7803 7.4365 50.7689 7.32293 50.7724 7.31856C50.8657 7.18268 50.8208 7.46031 50.8401 7.5099C50.9099 7.69022 50.9531 7.78625 51.0726 7.70143C51.1001 7.682 51.1804 7.28224 51.2306 7.25886C51.2959 7.2292 51.2713 7.37249 51.3397 7.33778C51.3455 7.33494 51.3443 7.24654 51.3865 7.25044C51.5824 7.26737 51.7961 7.31881 51.9997 7.30995C52.0275 7.30908 51.9918 7.16886 52.032 7.1653C52.2206 7.14868 52.4272 7.15386 52.6109 7.2195C52.6561 7.23609 52.6278 7.33427 52.6376 7.36342C52.6979 7.53979 52.7833 7.28352 52.7974 7.27864C53.1337 7.15549 53.3911 7.38741 53.7339 7.27699C53.7526 7.27051 53.8962 6.99578 53.9603 7.2314C53.9647 7.24707 54.0281 7.48813 54.0842 7.32332C54.0876 7.313 54.0481 7.1889 54.1171 7.20155C54.186 7.21417 54.297 7.1313 54.3917 7.26765C54.4218 7.31061 54.4927 7.55107 54.5822 7.35939C54.588 7.34601 54.7262 6.91258 54.7755 7.21162C54.7835 7.26085 54.7751 7.5773 54.8819 7.41505C54.9023 7.3836 54.8653 7.31301 54.919 7.26893C55.0014 7.201 55.1106 7.28576 55.2118 7.14479C55.2295 7.11983 55.3047 6.90504 55.365 7.06807C55.3744 7.0936 55.3565 7.19925 55.3883 7.21107C55.5398 7.26779 55.6983 7.19712 55.8521 7.27022C55.9066 7.2959 55.8787 7.46669 55.9355 7.51246C55.9923 7.55822 56.1067 7.60223 56.1661 7.52418C56.2255 7.4461 56.1606 7.17389 56.2496 7.15211C56.8653 7.05259 56.1934 7.22369 56.2201 7.39876C56.2235 7.40093 56.1343 7.35956 56.1703 7.29788C56.3164 7.05064 56.3983 6.68333 56.6544 6.57879C56.8628 6.48913 56.9146 6.71996 57.0201 6.62326C57.0712 6.57356 56.7867 6.41968 56.78 6.40653C56.7166 6.25957 56.8691 6.21157 56.8415 6.09894C56.8354 6.07655 56.7056 6.08045 56.7016 6.06278C56.6865 6.0038 56.7478 5.94865 56.7385 5.89286C56.734 5.86803 56.6359 5.87173 56.6435 5.85041C56.6602 5.7989 56.6993 5.75209 56.7855 5.68757C56.7933 5.68118 56.9182 5.70698 56.9183 5.66083C56.9183 5.58776 56.9922 5.47325 56.8807 5.40157C56.847 5.37998 56.6296 5.43175 56.7659 5.33911C56.7942 5.31974 57.0587 5.26627 56.8154 5.25724C56.7746 5.25336 56.4435 5.2382 56.6154 5.11831C56.6607 5.08656 56.8545 4.97383 56.8085 4.94923C56.8016 4.94639 56.6957 5.00685 56.6741 4.98215C56.6002 4.8961 56.5668 4.78235 56.4843 4.69128C56.462 4.6669 56.3679 4.76062 56.3383 4.72324C56.2568 4.62035 56.2165 4.46777 56.1885 4.33078C56.1781 4.27955 56.2851 4.26164 56.2934 4.25318C56.4264 4.11428 56.1925 4.19953 56.1703 4.18864C55.9997 4.05726 56.2115 4.19663 56.2041 4.21585C56.2082 4.23089 56.1214 4.31048 56.1165 4.32021C56.0769 4.42206 56.196 4.24589 56.2242 4.23917C56.3018 4.2169 56.3242 4.23715 56.3555 4.2622C56.3673 4.27128 56.315 4.39834 56.3306 4.40598C56.5512 4.45428 56.1401 4.4255 55.9231 4.35338C55.8775 4.339 55.9062 4.23414 55.8967 4.21019C55.8313 4.04264 55.7353 4.27118 55.7133 4.29296C55.6129 4.39236 55.5739 4.29964 55.4853 4.31694C55.0523 4.40311 54.5177 4.3417 54.1091 4.30376C53.5765 4.25493 53.1632 4.15518 52.6554 4.18108C52.6231 4.18259 52.6557 4.32209 52.6278 4.32518C52.2686 4.35881 51.9149 4.3043 51.555 4.34459C51.5254 4.34765 51.568 4.47989 51.5206 4.48924C51.4234 4.50936 51.3002 4.50217 51.2019 4.45995C51.1539 4.4396 51.2182 4.32613 51.17 4.30797C51.0576 4.26543 50.9371 4.25601 50.8216 4.27721C50.7725 4.28652 50.8466 4.42177 50.7828 4.42333C50.3477 4.43674 49.9205 4.46004 49.4809 4.2849C49.4508 4.27287 49.4243 3.998 49.3603 4.05071C49.3554 4.12699 49.3557 4.21673 49.3536 4.29827C48.7203 4.34219 48.0935 4.2469 47.4585 4.23217C47.4317 4.23158 47.478 4.37722 47.4261 4.37682C47.1261 4.37466 46.8348 4.41501 46.5279 4.27025C46.4974 4.25609 46.5131 3.99987 46.4233 4.03862C46.4075 4.04569 46.2724 4.07987 46.2374 4.13549C46.2327 4.14388 46.2573 4.26347 46.2138 4.26695C45.9607 4.28512 45.6955 4.25781 45.4429 4.18474C45.4021 4.17272 45.4455 4.04536 45.4165 4.03569C45.2105 3.96809 44.9864 4.0649 44.7896 3.94927C44.6578 3.87141 44.7066 3.65126 44.6366 3.43456C44.6267 3.40399 44.5451 3.39914 44.5408 3.27306C44.53 2.95602 44.5695 2.60886 44.5533 2.27093C44.5499 2.19814 44.4406 2.27654 44.5053 2.10064C44.5098 2.08887 44.5891 2.03049 44.6086 1.97082C44.6222 1.92956 44.5977 1.80134 44.6254 1.74853C44.6531 1.69577 44.6836 1.80325 44.7295 1.74121C44.7754 1.67839 44.7552 1.53252 44.847 1.51525ZM49.8032 7.95832C49.8757 8.08082 49.8864 7.63217 49.808 7.73951C49.8042 7.74523 49.7995 7.95231 49.8032 7.95832ZM43.0256 5.92692C42.8295 6.01062 43.125 6.042 43.2739 5.98421C43.4238 5.93469 43.0854 5.90548 43.0256 5.92692ZM43.0447 5.09458C42.862 5.13637 43.4579 5.36008 43.3697 5.22895C43.3648 5.22143 43.0553 5.09244 43.0447 5.09458ZM44.9613 3.37285C44.9603 3.3669 44.9016 3.36109 44.9002 3.36699C44.869 3.50948 44.9862 3.52099 44.9613 3.37285ZM43.3343 4.2043C43.2432 4.18694 43.2765 4.3218 43.3896 4.34256C43.4795 4.36055 43.447 4.22673 43.3343 4.2043ZM53.5866 8.43714C53.5877 8.44383 53.6298 8.44985 53.6289 8.41206C53.6261 8.29034 53.5676 8.32469 53.5866 8.43714ZM44.3719 3.16932C44.1959 3.16869 43.7748 2.7799 44.1407 2.71676C44.2012 2.71077 44.0656 2.91433 44.1506 2.93771C44.2824 2.98675 44.3315 2.64545 44.4824 2.8197C44.4987 2.85077 44.3746 3.16903 44.3716 3.17009C44.3717 3.16984 44.3718 3.16958 44.3719 3.16932ZM49.845 8.4972C49.8464 8.50313 49.9046 8.50876 49.906 8.50288C49.9375 8.36045 49.8203 8.34903 49.845 8.4972ZM56.0402 8.71455C56.0434 8.72719 56.1785 8.73901 56.1829 8.72736C56.2534 8.49445 55.9803 8.46986 56.0402 8.71455ZM45.9248 8.82551C45.8613 8.96879 45.7853 8.98567 45.7347 8.80573C45.7978 8.81528 45.8613 8.81669 45.9248 8.82551ZM30.9914 125.998C30.941 124.332 30.9679 122.148 31.014 120.489C31.0282 119.968 31.1095 120.231 31.1229 119.872C31.1491 119.17 31.1056 118.516 31.1377 117.822C31.1488 117.592 31.2767 117.877 31.2853 117.636C31.332 116.314 31.2914 115.064 31.3091 113.726C31.3963 107.132 31.3995 100.65 31.4115 93.9762C31.4154 91.7755 31.5115 89.0997 31.446 86.8271C31.4383 86.5618 31.3288 86.7208 31.3193 86.6704C31.1745 85.8795 31.3994 86.1413 31.4256 85.6241C31.5287 83.5714 31.5233 81.2897 31.4672 79.3153C31.4431 78.4754 31.2292 79.3192 31.3467 78.4724C31.3546 78.4136 31.4735 78.626 31.4844 78.3955C31.509 77.8729 31.4813 76.8818 31.4878 76.4768C31.5011 75.6963 31.499 75.5671 31.4953 74.829C31.4913 73.8199 31.5415 72.6193 31.5075 71.5369C31.4999 71.3058 31.3817 71.6126 31.3587 71.2442C31.3357 70.8755 31.3393 69.8995 31.3654 69.5704C31.3916 69.2411 31.4871 69.3806 31.5084 69.3222C31.6881 68.8418 31.427 67.7147 31.4197 67.5696C31.2949 64.9222 31.4239 62.6503 31.4065 60.1646C31.4643 58.4105 30.9817 55.7409 32.109 54.3139C33.1084 52.399 34.0567 50.8397 35.1485 49.0495C35.264 48.8611 35.0069 49.0069 35.1488 48.7758C36.6542 46.325 38.3366 44.0108 40.149 41.8142C40.3316 41.5931 40.2056 41.9601 40.3924 41.7459C41.4121 40.5344 43.9821 37.9676 43.3066 37.6207C43.3278 36.4432 43.3496 35.0137 43.4586 33.9602C43.5288 33.281 43.6641 33.9407 43.6064 33.1063C43.5935 32.9182 43.475 33.1629 43.4647 32.8807C43.4213 31.6925 43.4598 30.3944 43.3986 29.219C43.3858 28.98 43.2796 29.0452 43.2605 28.9775C43.1056 28.4082 43.3616 27.4605 43.3802 27.2539C43.519 25.6806 43.4644 24.5317 43.4678 23.0661C43.4686 22.7259 43.326 23.128 43.3216 22.8007C43.3012 21.1033 43.3135 19.3451 43.3768 17.683C43.3912 17.3134 43.5127 17.6533 43.5258 17.4767C43.5821 16.6977 43.3526 16.525 43.4022 15.778C43.4124 15.6204 43.5164 15.7092 43.5278 15.6804C43.7072 15.2308 43.4531 14.8401 43.4474 14.7245C43.3708 13.2615 43.6361 12.3265 43.5985 10.9132C43.5937 10.7441 43.4621 11.1254 43.4568 10.6501C43.2683 10.0749 44.0156 8.17385 45.1817 8.44307C45.9899 8.44299 46.8033 8.4474 47.6156 8.45623C49.2404 8.47388 50.8611 8.50924 52.4281 8.56188C52.9154 8.57807 52.5675 8.67695 52.5982 8.68914C53.098 8.87959 53.4213 8.62441 53.5802 8.6148C54.8523 8.67663 55.9044 8.19125 57.1664 8.98788C57.9742 15.0156 57.4836 19.7791 57.3372 25.143C57.3341 25.21 57.2084 25.09 57.2026 25.2236C57.1321 26.8316 57.3274 26.5228 57.5663 27.5868C57.6263 27.8548 57.3379 28.6702 57.3167 28.7423C57.2388 29.0051 57.0518 28.7325 57.0368 28.8206C56.9183 29.5488 57.5366 29.4302 57.5368 30.4127C57.5358 30.4434 57.422 30.3143 57.4107 30.3968C57.3751 30.653 57.4203 30.907 57.3812 31.1577C57.2905 31.7314 56.9901 31.9358 57.1649 32.8122C57.1876 32.9231 57.5384 32.7537 57.5218 33.6309C57.5149 33.9806 57.5209 35.5285 57.4982 35.9624C57.4755 36.3957 57.3624 36.0982 57.3576 36.1291C57.2081 37.2966 57.1461 36.8539 56.9249 37.4388C56.7051 38.0634 57.2669 37.8323 57.3693 37.9489C57.4359 38.0118 57.9977 38.7822 58.0884 38.9615C58.1947 39.1479 57.9681 38.9982 58.0728 39.1546C58.7688 40.1927 58.6275 39.3933 58.9579 39.6462C59.7408 40.2482 59.9324 41.0741 60.4664 41.7764C60.6111 41.9671 60.5551 41.7602 60.6975 41.9195C61.2573 42.5497 61.4826 43.0207 62.1592 43.7099C62.2704 43.8226 62.9306 44.2998 63.0904 44.8095C63.1126 44.8817 62.915 44.776 63.1098 45.0793C63.4015 45.5319 63.9389 46.336 64.2854 46.7997C64.5413 47.1416 64.4049 46.6444 64.6596 47.1223C64.7715 47.3346 64.4522 47.0153 64.6673 47.409C64.8837 47.8005 65.4858 48.7689 65.705 49.1405C65.9274 49.513 65.9121 49.2473 65.9369 49.2733C66.0851 49.4312 66.5465 50.1283 66.5811 50.1937C68.4454 53.3966 69.4805 56.8446 69.2239 60.4376C69.2271 60.7197 69.3565 60.5327 69.3583 60.5757C69.4054 61.5417 69.0701 60.778 68.9515 61.4518C69.2121 61.3561 69.1623 61.7539 69.1862 62.4343C69.1979 62.7622 69.2997 62.5843 69.3098 62.6143C69.4594 63.1014 69.2596 63.4385 69.2187 63.5254C69.0679 63.8463 69.2411 64.1978 69.1403 64.4162C69.0402 64.6345 68.8975 64.1297 68.895 64.782C68.9868 64.9656 69.2332 64.4829 69.2692 64.9785C69.4055 66.8481 69.191 70.335 69.161 71.8373C69.131 73.3367 69.1449 73.8211 69.1053 74.6947C69.0338 76.2725 69.2181 75.6954 69.294 76.6759C69.3699 77.6593 68.9293 77.1785 68.8329 77.3192C68.7366 77.4572 68.8338 77.6093 68.7802 77.7815C68.7266 77.9531 68.6643 77.5804 68.6418 77.9847C68.6194 78.3892 68.7815 79.4967 68.8803 79.6408C69.0896 79.9455 69.3148 79.4484 69.2296 80.5186C69.2245 80.5802 69.1092 80.3795 69.0958 80.6152C68.9932 82.4875 68.9744 84.4331 68.8822 86.3031C68.8694 86.5602 68.7411 86.3294 68.7322 86.479C68.6385 88.0375 68.8612 87.4817 69.0986 88.3379C68.7763 88.1438 68.5751 88.615 68.5651 89.7982C68.559 90.5095 68.7012 90.388 68.7977 90.8488C68.8268 90.987 68.7263 91.4897 68.7921 91.5813C69.0074 91.8835 69.2538 91.4111 69.1487 92.6304C69.1437 92.6839 69.0259 92.5127 69.0175 92.6976C68.9622 93.8927 69.1885 94.0373 69.2072 95.3298C69.2219 96.3428 69.0711 98.1433 69.0407 99.2965C68.677 99.2698 68.7529 100.36 69.0008 100.803C68.9854 101.552 68.9941 102.36 68.9545 103.084C68.941 103.332 68.8368 103.168 68.8252 103.199C68.6434 103.68 68.8852 104.007 68.8937 104.168C68.9747 105.92 68.7801 107.345 68.9495 109.018C68.9556 109.077 69.2076 109.175 69.0201 109.62C69.0072 109.649 68.8959 109.096 68.8817 109.883C68.8674 110.669 68.7219 112.15 68.8316 113.242C68.858 113.507 69.0586 114.176 68.8946 114.711C68.8724 114.783 68.8004 114.704 68.7594 114.807C68.6286 115.139 68.8828 115.323 68.6631 115.713C68.4435 116.104 68.2754 116.917 68.4176 118.019C68.4218 118.054 68.6224 118.316 68.6169 118.662C68.6078 119.215 68.5603 119.999 68.5577 120.576C68.5565 120.853 68.6835 120.677 68.6854 120.725C68.7433 122.583 68.6222 123.904 68.56 125.894C68.5484 126.258 68.7127 127.308 68.5723 128.013C68.3602 128.654 68.0565 128.57 67.755 129.171C67.4251 129.391 66.5968 130.507 65.2931 130.528C62.9476 131.432 60.6848 131.892 58.2603 132.562C58.1511 132.592 57.8475 132.879 57.5859 132.928C57.1937 133 56.9624 132.938 56.6856 132.981C55.5159 133.155 54.4569 133.383 53.3201 133.467C52.8877 133.497 53.0303 133.381 52.5179 133.409C52.004 133.434 51.667 133.591 50.9666 133.537C50.4378 133.494 49.9148 133.209 49.2265 133.151C49.1907 133.43 48.7117 133.414 47.856 133.424C47.691 133.426 47.8594 133.537 47.7808 133.543C47.459 133.568 47.1764 133.461 46.871 133.485C46.7967 133.49 46.7832 133.585 46.7215 133.595C46.1956 133.683 45.3862 133.354 45.2528 133.295C44.7306 133.073 44.4531 133.151 44.0489 133.023C43.6442 132.892 44.2764 132.936 43.7989 132.814C42.8107 132.56 41.532 132.285 40.5362 132.017C40.1351 131.91 40.3761 132.105 40.3179 132.093C39.4861 131.906 38.6974 131.53 38.1671 131.634C37.7881 130.827 37.6566 131.549 36.5307 131.038C36.4431 130.998 36.4284 130.665 36.7882 130.737C37.1523 130.809 37.6546 131.074 38.1622 131.156C38.2854 131.177 39.0302 131.096 39.1228 131.104C39.8674 131.177 39.8444 131.65 39.8751 131.685C40.2242 132.07 41.1342 131.979 41.3487 132.008C42.367 132.156 43.1839 132.395 44.0373 132.479C44.5893 132.531 44.6936 132.239 45.1176 132.315C46.5229 132.556 46.9905 133.033 48.3671 132.758C48.6605 132.695 48.3901 132.357 49.4087 132.656C49.4709 132.676 50.2385 132.932 50.6824 132.775C50.738 132.755 50.7353 132.658 50.8084 132.649C51.2981 132.59 51.6271 132.657 52.16 132.593C52.6932 132.528 53.328 132.424 53.937 132.392C54.3053 132.373 54.7962 132.494 54.9787 132.514C55.4962 132.573 55.9918 132.283 56.3262 132.382C56.6641 132.481 56.0952 132.822 56.9293 132.775C56.9143 132.521 56.9365 132.254 56.9378 131.996C58.7023 131.675 60.4449 131.318 62.1833 130.789C62.3985 130.723 62.139 130.66 62.3688 130.585C63.3406 130.269 64.2065 130.089 65.2004 129.708C65.9199 129.43 66.9183 128.915 67.4441 128.683C67.5511 129.15 67.5877 128.173 67.5967 127.158C67.608 126.832 67.6849 126.854 67.7117 126.622C67.8106 125.745 67.5528 126.154 67.5143 125.914C67.3501 124.881 67.9278 124.797 67.9219 123.58C67.9217 123.516 67.6194 122.726 67.601 122.618C67.4808 121.928 67.7089 122.504 67.7345 122.073C67.7814 121.286 67.8586 120.739 67.7748 119.815C67.7499 119.545 67.5626 118.897 67.7145 118.375C67.7344 118.306 67.8358 118.345 67.8421 118.29C67.9482 117.288 67.6289 117.259 67.5245 116.685C67.4202 116.111 67.6468 115.228 67.7116 115.048C67.8793 114.578 67.7795 115.41 67.7954 115.435C67.9855 115.736 67.9568 115.09 67.9764 114.597C68.2902 114.528 68.2761 113.838 67.9954 114.086C67.9648 114.114 67.9914 114.498 67.9764 114.597C67.6719 114.162 67.6377 113.404 67.9307 112.568C68.068 112.177 68.2224 112.549 68.1731 111.358C68.1509 110.817 67.9337 111.024 67.8781 110.547C67.7514 109.457 67.9622 108.042 67.9382 106.919C67.9294 106.511 67.8086 106.907 67.7986 106.628C67.7716 105.889 67.8646 105.237 67.8243 104.494C67.8205 104.427 67.6957 104.591 67.6957 104.36C67.6933 102.609 67.7828 101.085 67.7975 99.2574C67.8045 98.3743 67.747 96.7949 67.767 95.8802C67.8008 94.2947 67.9938 92.3453 67.9593 90.9905C67.9374 90.1068 67.8124 90.2998 67.7308 89.9207C67.5725 89.1891 67.8738 87.8981 67.9202 87.7243C67.9218 87.719 67.9457 88.4794 68.012 88.0742C68.1458 87.8392 67.9207 87.7329 67.9202 87.7243C67.9503 87.6101 67.9887 86.0917 67.9671 85.79C67.9553 85.626 67.8375 85.7169 67.8336 85.6314C67.7426 83.6 67.7266 81.5656 67.7954 79.5064C67.798 79.4702 67.9287 79.5257 67.9332 79.4404C67.9996 78.2485 67.8445 77.4839 67.756 76.4999C67.6675 75.516 67.7047 74.7365 67.9336 74.156C67.9103 73.4139 68.017 72.3502 68.0815 71.7381C68.146 71.1261 67.8916 71.0389 67.8869 70.985C67.7369 69.303 67.8895 68.3323 67.9241 66.5887C67.941 65.7597 67.9152 64.1149 67.8934 63.2171C67.8758 62.5075 67.9384 62.0805 67.9047 61.4265C67.9002 61.3381 67.786 61.4266 67.7818 61.3996C67.6509 60.6691 67.9261 61.0216 67.9767 60.8714C68.1608 60.3265 68.2591 59.9898 68.1806 59.0549C68.1627 58.8393 67.7672 58.2089 67.7465 57.8159C67.7203 57.305 67.8623 57.4987 67.8312 56.9637C67.8287 56.9179 67.7402 56.9269 67.7464 56.5968C67.9929 56.2706 66.7594 53.9827 66.157 52.7386C66.0595 52.5487 66.0584 52.8552 65.9158 52.5837C65.2469 51.311 64.4777 49.9367 63.7888 48.7194C63.6199 48.4201 63.8175 48.5497 63.8023 48.4711C63.7046 47.9854 63.1291 47.5814 63.0654 47.4964C61.5314 45.4435 60.4874 43.7607 58.6887 41.804C58.5903 41.6967 57.6581 41.031 57.5105 40.5039C57.5001 40.468 57.3591 39.939 56.9462 39.7185C56.9207 39.7052 57.0303 40.0178 56.6854 39.6062C56.3983 39.5548 55.4398 37.26 55.7677 36.8151C55.8106 36.5805 56.0511 36.026 55.8594 35.3262C55.846 35.2806 55.4126 34.2002 55.7116 33.8146C55.7608 33.7521 56.0773 33.8175 55.9151 32.9823C55.8836 32.8227 55.813 33.1124 55.7689 32.692C55.701 32.0478 55.7858 31.1943 55.6448 30.4025C55.6198 30.2644 55.405 29.6765 55.5681 29.205C55.5936 29.1311 55.6992 29.2714 55.7111 29.0224C55.7678 27.8382 55.6971 26.5983 55.7702 25.3959C55.7959 24.9701 55.9667 25.1878 56.0125 24.7439C56.0582 24.2999 56.1022 23.4054 56.0242 22.9409C55.9461 22.4762 55.6739 22.9838 55.6521 22.2877C55.5575 19.2615 55.7172 16.2637 55.7406 13.2419C55.744 12.7937 55.6466 13.1653 55.6448 12.5048C55.643 11.8961 55.6359 11.1767 55.6296 10.4072C55.3429 9.27919 56.7336 10.6582 55.5789 10.3813C53.9593 10.3792 52.3801 10.3503 51.3236 10.2468C49.6306 10.081 51.7611 9.95484 50.4674 9.88738C49.8432 9.8552 49.1678 10.1717 49.0171 10.1816C47.5449 10.2828 46.5218 10.1426 45.1967 10.1857C44.9346 10.1948 45.1423 10.322 44.9933 10.3296C45.365 10.3459 45.2976 9.79334 45.3045 10.8621C45.3095 11.2031 45.4075 11.1403 45.3999 11.4541C45.3829 12.2049 45.3417 12.8688 45.2499 13.6007C45.2416 13.6674 45.1197 13.2176 45.1152 13.7731C45.1082 14.6721 45.0176 15.788 45.1111 16.8224C45.1393 17.1293 45.3632 17.1413 45.2085 17.801C45.1762 17.9394 44.9074 17.7628 45.1397 18.5313C45.1783 18.6605 45.4916 19.9514 45.2897 20.5849C45.2365 20.752 45.0165 21.1786 45.0511 21.5477C45.0566 21.5977 45.1769 21.3972 45.1886 21.703C45.2278 22.7808 45.215 23.9104 45.2527 25.0176C45.263 25.3133 45.3874 24.8729 45.3988 25.3136C45.4302 26.5255 45.3986 28.0385 45.3596 29.2236C45.345 29.6605 45.2419 29.3585 45.2307 29.3903C45.0482 29.9015 45.2945 30.2038 45.3089 30.3734C45.3949 31.4287 45.2792 32.2323 45.3098 33.205C45.3179 33.4734 45.4354 33.2831 45.4458 33.3365C45.5482 33.8907 45.3373 33.4779 45.314 33.8287C45.2482 34.8114 45.2576 35.9069 45.2726 36.9006C45.2783 37.2657 45.4145 36.8554 45.418 37.183C44.6544 41.3495 43.0742 40.9863 41.9272 42.7905C41.701 43.0599 41.7531 42.8208 41.6894 42.8642C41.2444 43.1663 40.9796 43.894 40.8941 44.0444C40.5081 44.7237 40.2544 44.9113 39.8672 45.473C37.9607 48.2135 35.7569 51.6563 34.2664 54.4326C31.8583 57.4423 33.5206 61.0031 33.2418 64.9229C33.245 65.1753 33.3828 64.9198 33.3874 65.1374C33.4401 67.9461 33.4044 70.7119 33.4638 73.5262C33.4685 73.7572 33.5984 73.4234 33.6103 73.794C33.6356 74.5543 33.635 75.5175 33.598 76.2866C33.5802 76.6618 33.4633 76.1596 33.4477 76.5371C33.4111 77.4163 33.4081 78.3585 33.4355 79.2611C33.4474 79.6452 33.5787 79.0647 33.5837 79.564C33.6202 82.9654 33.6662 86.3059 33.5145 89.7445C33.5041 89.9802 33.2306 90.1888 33.2867 90.6895C33.3633 90.7267 33.453 90.7241 33.5346 90.74C33.6122 95.6914 33.5503 100.593 33.5693 105.559C33.5702 105.768 33.7133 105.406 33.7157 105.811C33.7295 108.157 33.7853 110.435 33.6569 112.835C33.6444 113.073 33.3873 112.953 33.4309 113.654C33.4388 113.778 33.4801 114.835 33.5376 115.108C33.5462 115.145 33.6645 114.951 33.6703 115.291C33.7019 117.27 33.6888 119.344 33.6291 121.32C33.6193 121.639 33.4896 121.3 33.4815 121.528C33.4248 123.139 33.5336 124.89 33.4284 126.43C33.3576 127.461 33.1348 127.081 32.9218 127.63C32.8918 127.708 32.8913 128.346 32.7654 128.38C32.449 128.466 32.0997 128.16 31.7627 128.289C31.6901 128.316 31.7743 129.17 31.5949 128.665C31.5829 128.63 31.5203 128.011 31.4596 127.859C31.4177 127.753 31.2907 127.945 31.2365 127.729C31.1822 127.512 31.2881 127.274 31.2236 126.915C31.1583 126.556 31.0135 126.715 30.9914 125.998ZM68.37 68.9822C68.4963 68.4159 68.0483 68.3292 68.1514 68.9433C68.157 68.973 68.3638 69.0114 68.37 68.9822ZM60.5184 131.621C61.2807 131.623 61.6854 131.203 61.1455 131.196C60.6107 131.187 60.2856 131.62 60.5184 131.621ZM53.0545 133.093C53.928 133.177 53.995 132.53 53.1003 132.737C53.0483 132.749 53.0038 133.088 53.0545 133.093ZM32.8429 125.092C32.837 125.099 32.8343 125.558 32.8403 125.569C32.9844 125.812 32.9897 124.895 32.8429 125.092ZM45.495 132.999C45.7522 133.125 46.533 133.12 46.2149 132.973C45.9601 132.857 45.18 132.846 45.495 132.999ZM60.313 41.9345C60.3128 41.9235 60.1077 41.668 60.0828 41.6972C60.0041 41.7925 60.3211 42.1202 60.313 41.9345ZM33.0881 129.543C34.8168 130.244 35.7757 131.119 33.8228 130.351C33.4738 130.211 34.6395 130.472 34.2086 130.264C33.5303 129.866 32.2777 130.103 32.3154 128.84C32.2684 128.729 32.9581 129.624 33.0909 129.543C33.09 129.543 33.089 129.543 33.0881 129.543ZM68.9111 68.6593C68.9171 68.648 68.9258 68.1929 68.92 68.1819C68.7793 67.9345 68.7616 68.8513 68.9111 68.6593ZM57.2145 23.9252C57.2272 23.9 57.239 22.8438 57.2274 22.8093C56.9945 22.2583 56.9699 24.3938 57.2145 23.9252ZM69.0309 99.3146C69.1708 99.8122 69.1836 100.406 69.001 100.801C69.0139 100.308 69.0187 99.8108 69.0309 99.3146Z" fill="black"/>
</svg>
