<svg width="102" height="136" viewBox="0 0 102 136" fill="none" xmlns="http://www.w3.org/2000/svg">
<path d="M68.0003 111C40.5 126.5 34.7434 105.523 32.9863 115.5V128.801C46.6529 134.05 54.3302 133.822 68.0003 128.801C68.0058 100.625 67.9949 139.176 68.0003 111Z" fill="#900639"/>
<path d="M62.1694 131.26C57.7865 132.561 52.7164 133.433 48.0799 133.069C47.5118 133.027 47.5526 132.993 47.3948 132.976C46.9634 132.926 46.6944 132.937 46.3808 132.899C44.8454 132.707 43.4263 132.445 41.9567 132.096C40.441 131.724 41.19 131.791 40.6705 131.635C39.6633 131.318 40.4948 131.679 40.0881 131.602C38.9193 131.277 37.7621 130.907 36.6214 130.511C36.9036 130.592 37.1875 130.672 37.4772 130.752C36.9691 130.587 36.273 130.333 37.1133 130.572C36.9318 130.502 36.7658 130.435 36.5791 130.363C36.5117 130.394 35.6247 130.095 35.5376 130.094C35.4486 130.094 35.9395 130.258 35.9378 130.26C35.8934 130.289 33.8918 129.518 33.7471 129.454C33.355 129.29 33.7626 129.404 33.363 129.221C32.8039 128.77 32.824 129.198 32.7494 128.172C32.6921 127.829 32.7225 127.817 32.7258 127.407C32.7263 127.353 32.695 127.395 32.6942 127.371C32.671 126.755 32.7291 127.229 32.7323 127.225C32.7858 127.17 32.762 126.508 32.7671 126.369C32.831 124.622 32.8743 123.341 32.8891 121.498C32.8923 121.099 32.8706 119.885 32.8797 119.499C32.8886 119.119 32.9272 119.323 32.9457 119.124C32.853 118.805 32.8427 118.5 32.9038 117.784C32.8362 117.517 32.8908 117.551 32.8772 117.04C32.8723 116.607 32.7581 115.906 32.8729 115.383C32.8209 115.974 32.8873 115.879 32.901 116.491C32.9077 116.692 32.9091 118.79 32.9782 118.634C33.0143 118.552 32.9812 117.857 32.9878 117.83C33.0265 117.674 33.0741 118.062 33.0575 118.406C33.0496 118.32 33.0417 118.217 33.0339 118.125C32.9855 118.897 33.1714 118.366 33.0089 118.953C32.989 119.025 32.9682 118.997 32.947 119.117C32.9558 119.142 32.9775 118.995 32.9814 119.121C32.9853 119.25 32.9441 119.494 32.9788 119.531C33.0294 119.585 33.0095 119.052 33.0124 119.012C33.0121 119.012 33.0118 119.011 33.0115 119.011C33.0383 118.656 33.0414 119.397 33.0462 119.432C33.0776 119.661 33.1019 119.505 33.1279 119.849C33.1427 120.045 33.134 120.544 33.1388 120.728C33.1437 120.911 33.1676 120.627 33.1727 120.75C33.1778 120.873 33.1597 121.026 33.1656 121.171C33.1682 121.233 33.1949 121.23 33.1958 121.26C33.2061 121.581 33.1506 121.37 33.154 121.662C33.1563 121.85 33.208 122.484 33.2234 122.047C33.2287 122.257 33.2326 122.462 33.2368 122.671C33.2448 122.539 33.2502 122.403 33.2595 122.275C33.2468 122.668 33.2924 122.845 33.2958 123.092C33.2992 123.338 33.2444 123.559 33.2711 123.83C33.328 124.409 33.3017 122.976 33.3119 122.798C33.3158 122.729 33.3587 122.995 33.3599 123.036C33.3653 123.218 33.3346 123.433 33.336 123.574C33.3412 124.076 33.3816 124.384 33.3898 124.863C33.6 126.461 32.6233 128.748 34.4928 128.873C35.0272 129.066 35.3414 129.226 35.5836 129.31C36.1491 129.505 36.2319 129.491 36.7298 129.657C37.4611 129.901 38.5043 130.265 39.126 130.454C39.5515 130.585 39.96 130.658 40.0719 130.688C41.6398 131.112 43.5679 131.532 44.8916 131.736C45.5161 131.835 45.8044 131.913 45.9351 131.93C46.4925 131.995 46.3447 131.94 46.7963 131.993C47.0403 132.02 47.0823 132.059 47.1149 132.064C47.4015 132.103 47.4615 132.061 47.6863 132.078C48.9774 132.172 50.2234 132.229 51.5058 132.188C51.5987 132.184 51.5912 132.205 51.6514 132.202C51.9096 132.186 51.788 132.159 52.0579 132.143C52.6201 132.108 53.1963 132.069 53.7885 132.012C53.8473 132.006 53.8764 132.03 54.0111 132.015C54.1457 132 54.2471 131.964 54.4567 131.94C55.0069 131.876 55.554 131.827 56.1377 131.731C56.2347 131.715 56.3485 131.664 56.4915 131.639C56.942 131.561 57.6153 131.458 58.0014 131.376C59.2727 131.108 60.429 130.792 61.6126 130.454C61.8872 130.376 62.1414 130.332 62.2865 130.289C62.6128 130.194 62.3637 130.239 62.688 130.141C65.3726 129.219 68.2305 128.955 67.5785 125.576C67.5779 124.395 67.5494 123.07 67.5575 122.008C67.561 121.53 67.5993 121.456 67.5997 121.153C67.6003 120.654 67.5511 120.428 67.5462 119.9C67.5424 119.384 67.5916 118.847 67.5886 118.369C67.8807 118.168 66.3261 117.648 68.4421 117.954C68.4549 118.121 68.4681 118.356 68.4708 118.629C68.4752 119.11 68.4532 119.763 68.4565 120.275C65.6397 124.639 70.2474 109.156 65.7362 112.749C64.2433 113.494 62.588 114.264 60.904 114.87C60.7504 114.925 60.9644 114.794 60.4833 114.989C60.223 115.093 59.8922 115.261 59.2571 115.483C55.6096 116.764 51.4502 117.503 47.5179 117.24C44.5439 117.065 41.5722 116.281 38.933 115.012C36.3394 113.732 33.719 112.072 33.2668 115.306C33.195 115.56 33.1074 115.398 33.1051 115.237C33.156 115.099 33.2097 114.979 33.2664 114.852C33.1678 114.66 33.1811 114.661 33.3965 114.05C33.5452 113.674 33.3721 113.954 33.4423 113.736C33.4235 113.411 34.5103 112.469 34.3381 112.738C34.4121 112.694 34.4889 112.66 34.5679 112.633C35.5983 112.545 36.4678 113.116 37.3243 113.496C37.4749 113.568 37.5044 113.55 37.6504 113.62C38.0542 113.814 38.3707 114.001 38.7953 114.209C39.0326 114.325 39.0706 114.306 39.3692 114.451C39.6679 114.595 39.6545 114.642 40.079 114.777C39.8335 114.606 41.0162 115.171 41.467 115.327C41.5376 115.354 42.064 115.489 42.348 115.588C42.637 115.689 43.0408 115.85 43.4971 115.952C43.7122 116 43.8462 115.992 44.0679 116.043C44.2243 116.079 44.4063 116.158 44.6108 116.202C44.8189 116.249 45.2553 116.3 45.3353 116.312C45.6243 116.36 45.3011 116.331 45.499 116.365C46.4784 116.536 47.5832 116.649 48.5524 116.653C48.6724 116.654 48.5071 116.62 48.5232 116.619C49.3422 116.596 48.9019 116.627 49.1174 116.656C49.3136 116.693 50.8707 116.612 50.8667 116.551C50.9173 116.613 51.2518 116.536 51.3406 116.526C51.6859 116.486 51.6234 116.549 51.963 116.494C52.088 116.473 51.839 116.463 51.9741 116.449C52.3023 116.413 52.5838 116.44 53.0188 116.38C53.1235 116.365 53.1529 116.333 53.3403 116.304C53.5338 116.275 54.3026 116.166 53.9427 116.174C54.4073 116.134 54.4948 116.091 55.0407 115.973C55.1785 115.942 55.3728 115.944 55.6633 115.859C55.7573 115.832 55.7441 115.791 55.8877 115.755C56.2163 115.671 56.5411 115.632 56.9726 115.511C57.8041 115.278 58.5714 114.999 59.4206 114.708C59.6505 114.629 59.6039 114.692 59.9169 114.578C59.9625 114.561 60.3261 114.386 60.5464 114.304C60.6774 114.256 61.3774 114.005 61.5205 113.946C61.7566 113.852 61.7761 113.799 61.8995 113.755C62.2561 113.629 62.0015 113.805 62.3881 113.547C62.5457 113.529 62.7923 113.414 62.8965 113.43C63.0154 113.308 63.2298 113.278 63.5066 113.127C63.7826 112.976 63.9707 112.752 64.089 112.84C64.2071 112.767 64.736 112.48 64.8277 112.431C65.0964 112.292 64.9676 112.396 65.1711 112.289C65.2071 112.27 65.1574 112.268 65.3922 112.151C65.5396 112.092 66.6933 111.427 66.8594 111.508C67.8852 111.592 66.2595 111.56 66.1874 111.805C66.1544 111.815 66.1217 111.824 66.0868 111.834C65.7384 112.003 65.9594 111.951 66.1212 111.881C66.2795 111.814 66.5745 111.616 66.7457 111.617C66.8261 111.617 66.7823 111.67 66.5675 111.738C66.8021 111.679 66.5023 111.806 66.5972 111.792C66.6992 111.668 67.6627 111.935 67.6528 111.993C67.5115 111.862 67.2874 111.756 67.0942 111.729C66.7695 111.629 67.9711 111.466 68.1549 112.447C68.1757 113.054 68.0702 112.124 68.1335 113.414C68.1361 113.22 68.1421 113.053 68.1448 112.87C68.1928 112.851 68.14 113.146 68.1552 113.294C68.1627 113.365 68.1968 112.924 68.208 113.307C68.1393 113.633 68.2083 113.883 68.209 114.392C68.1968 114.251 68.1846 114.108 68.1724 113.962C68.1225 114.838 68.1064 112.808 68.0782 114.501C68.076 114.303 68.0767 114.1 68.0733 113.891C68.0481 113.992 67.9741 113.83 67.9585 113.921C67.9174 114.159 67.9421 114.501 67.9384 114.771C67.9369 114.889 67.917 114.816 67.9168 114.826C67.9146 114.992 67.9439 114.968 67.9457 115.128C67.948 115.338 67.9194 115.903 67.9227 115.989C67.9309 116.218 67.9888 115.836 67.9931 115.857C68.021 116.007 67.9978 116.299 68.0344 116.283C68.0093 115.589 68.042 113.405 68.1022 115.352C68.1615 114.792 68.243 114.973 68.2493 115.744C68.2545 116.365 68.2219 115.966 68.1859 116.281C68.1814 116.309 68.1641 117.158 68.1895 117.208C68.131 117.174 68.0792 117.453 68.0188 117.266C68.01 117.24 68.0135 116.878 67.965 117.004C67.9406 117.068 67.8875 117.247 67.8565 117.218C67.8781 117.291 67.9023 117.366 67.9248 117.438C67.931 117.956 67.9078 117.978 67.8675 118.282C67.8843 118.267 67.9549 117.984 67.9334 118.414C67.9321 118.435 67.9068 118.457 67.8942 118.665C67.8689 119.076 67.8611 119.149 67.7867 118.846C67.8291 119.644 67.7461 119.822 67.7703 120.724C67.8659 120.536 67.8423 120.291 67.8239 119.438C67.8467 119.399 67.8692 119.381 67.8922 119.35C67.8405 120.475 67.8458 119.864 67.892 120.492C67.9032 120.66 67.8911 121.419 67.9555 121.153C67.9707 121.052 67.9689 120.635 67.9928 120.676C67.9974 120.689 68.0089 121.265 68.0028 121.323C67.9647 121.625 67.9324 121.495 67.9131 121.512C67.815 121.359 68.1861 122.464 68.0971 121.315C68.0963 121.265 68.0684 121.249 68.0646 121.144C68.0575 120.97 68.0897 120.969 68.0824 120.802C68.075 120.633 68.0318 120.415 68.072 120.17C68.1453 119.724 68.1867 120.78 68.1477 121.248C68.2431 121.44 68.2468 118.079 68.2391 117.875C67.2519 118.201 67.3401 118.115 68.215 117.858C68.2119 118.098 68.2103 118.535 68.197 118.56C68.1858 118.591 68.0439 118.567 68.1358 118.957C68.163 119.072 68.1992 118.589 68.2141 118.882C68.229 119.156 68.1873 119.048 68.1843 119.068C68.1743 119.136 68.1896 119.441 68.1837 119.478C68.0934 120.076 67.9576 120.02 68.1587 119.228C68.1135 118.878 68.0408 119.68 68.0102 119.246C67.9731 118.731 68.0381 118.335 68.041 118.276C68.076 117.723 67.9831 117.454 67.9919 118.25C67.9752 118.815 67.929 117.45 67.9352 118.667C67.9404 119.722 67.9734 119.129 68.0481 119.213C68.0656 119.231 68.087 119.744 68.0794 119.049C68.0599 119.035 68.0342 118.978 68.0163 118.926C68.0305 118.703 68.128 118.465 68.1314 118.325C68.2261 117.879 67.8086 117.819 67.8467 118.111C67.912 117.901 67.8725 118.245 67.8862 118.364C67.9366 118.845 67.9558 118.219 67.89 119.264C67.9207 119.124 67.9507 119.006 67.9813 118.877C67.9822 119 67.9832 119.12 67.9842 119.248C67.9168 119.437 67.9251 120.096 67.8576 119.497C67.838 120.219 67.8525 120.514 67.9048 120.667C67.9148 120.694 67.9187 120.81 67.9196 120.937C67.9343 120.913 67.9798 120.882 67.9854 120.902C68.0344 121.078 67.9494 121.363 67.9171 121.266C67.9155 121.357 67.9137 121.422 67.9129 121.445C67.9078 121.591 67.8787 121.304 67.8686 121.423C67.8653 121.444 67.8713 121.934 67.8594 121.915C67.658 121.656 68.3049 122.682 68.204 121.202C68.1346 121.175 68.1499 121.847 68.0762 121.673C67.9969 121.432 68.1032 121.101 68.006 121.003C68.022 120.976 68.0353 120.964 68.0535 120.941C68.0112 120.389 68.0921 120.313 68.11 120.164C68.1449 119.842 68.1399 118.197 68.0696 119.652C68.0626 119.413 68.0594 119.22 68.0532 119.018C68.1983 118.966 68.1406 119.121 68.1629 118.063C68.1678 117.856 68.2316 117.787 68.1559 117.571C68.2302 117.606 68.1854 116.929 68.1944 116.855C68.2532 116.441 68.3346 117.972 68.2032 118.112C68.2543 118.353 68.1866 118.379 68.1956 118.662C68.2085 119.081 68.2216 119.065 68.1716 119.582C68.2419 120.042 68.2028 117.782 68.296 119.147C68.3193 119.43 68.3399 120.294 68.3581 121.255C68.1144 121.45 69.4223 121.95 67.6266 121.882C67.6227 121.601 67.6187 121.327 67.6149 121.035C67.6074 120.45 67.6005 119.846 67.5942 119.232C67.5911 118.919 67.5881 118.638 67.5853 118.31C67.5839 118.173 67.5825 118.003 67.5814 117.862C69.6145 117.958 68.1447 118.143 68.4263 118.281C68.4317 118.872 68.4364 119.446 68.4405 119.979C68.4487 121.001 68.4545 121.895 68.4579 122.369C68.4703 124.021 68.4805 125.462 68.487 126.634C68.4372 127.273 68.7207 127.825 68.3075 128.798C67.7651 129.737 66.8696 129.667 66.1928 129.972C65.8998 130.08 63.7121 130.806 64.1424 130.579C64.203 130.548 65.1375 130.21 64.3084 130.413C64.4841 130.396 64.0178 130.572 63.9799 130.588C63.0794 130.966 63.6367 130.824 62.1694 131.26ZM57.646 131.642C59.5705 131.251 58.1483 131.499 58.5186 131.293C58.2772 131.347 58.028 131.4 57.7832 131.451C57.8492 131.445 57.9145 131.439 57.9808 131.433C57.981 131.433 57.9813 131.433 57.9816 131.433C57.8701 131.503 57.7576 131.573 57.646 131.642ZM33.3015 121.708C33.3177 121.785 33.3339 121.861 33.3497 121.945C33.3447 122.205 33.3398 122.464 33.3347 122.724C33.3238 122.693 33.3127 122.663 33.3017 122.632C33.3022 122.324 33.3027 122.017 33.3015 121.708ZM68.1653 121.521C68.2527 121.852 67.6972 122.106 67.8342 121.543C67.7751 121.621 67.7172 121.693 67.6587 121.749C67.8821 121.804 66.7239 121.975 68.3308 121.929C68.3278 121.857 68.3247 121.801 68.3223 121.736C68.3175 121.638 68.3155 121.491 68.3229 121.298C68.3039 121.346 68.2847 121.393 68.2656 121.436C68.2696 121.491 68.2742 121.586 68.2777 121.647C68.2245 121.752 68.217 121.103 68.1652 121.52C68.1652 121.52 68.1652 121.521 68.1653 121.521ZM67.8093 118.618C67.8171 118.394 67.8461 117.642 67.8216 117.533C67.7386 117.184 67.791 119.324 67.7174 117.747C67.7058 117.755 67.6944 117.747 67.6828 117.747C67.6787 118.026 67.6751 118.325 67.6718 118.643C67.7178 118.626 67.7632 118.637 67.8093 118.618ZM64.4885 129.775C64.7856 129.687 66.1371 129.183 65.6734 129.286C65.5341 129.318 64.9565 129.594 64.7172 129.669C64.5643 129.717 64.7213 129.622 64.4267 129.735C64.4456 129.748 64.4601 129.765 64.4893 129.774C64.489 129.775 64.4888 129.775 64.4885 129.775ZM64.0218 130.179C64.3169 130.076 64.6179 129.968 64.9202 129.859C64.6823 129.889 64.2591 130.059 64.2135 130.004C64.2941 129.973 64.3739 129.941 64.4549 129.91C64.5226 129.903 64.5895 129.896 64.6565 129.889C64.9046 129.769 64.7459 129.804 65.2239 129.654C64.9055 129.655 64.8298 129.627 64.0409 129.989C64.1776 129.888 63.9837 129.766 63.5625 130.032C63.4836 130.082 63.8476 129.983 63.8514 129.985C63.9198 130.012 63.7331 130.103 63.8046 130.126C63.8367 130.136 64.0525 130.067 64.0935 130.083C64.1125 130.091 63.9185 130.193 64.0218 130.179ZM63.3522 130.145C63.437 130.088 63.0984 130.125 62.8293 130.221C62.4097 130.37 63.0991 130.228 63.3522 130.145ZM33.3015 121.707C33.3015 121.707 33.3015 121.708 33.3015 121.708C33.3015 121.708 33.3014 121.708 33.3014 121.708C33.3014 121.707 33.3014 121.707 33.3015 121.707ZM67.7767 119.632C67.7528 119.361 67.7563 119.064 67.7183 119.083C67.7258 118.975 67.7332 118.862 67.7407 118.748C67.7292 118.749 67.7178 118.751 67.7065 118.752C67.6993 119.099 67.6921 119.395 67.6849 119.772C67.7154 119.728 67.7461 119.686 67.7767 119.632ZM67.8038 115.925C67.8078 115.497 67.756 115.856 67.7311 115.762C67.7061 115.669 67.7265 115.273 67.6907 115.319C67.6892 115.584 67.6878 115.85 67.6864 116.099C67.7254 116.033 67.7651 115.987 67.8038 115.925C67.8038 115.925 67.8038 115.925 67.8038 115.925ZM49.7125 132.373C50.0012 132.389 49.8834 132.43 50.454 132.383C50.4536 132.383 50.4532 132.383 50.4527 132.383C49.9094 132.354 49.2141 132.31 48.6136 132.31C48.9784 132.37 49.2581 132.347 49.7125 132.373ZM68.2823 120.501C68.2511 120.376 68.2247 120.959 68.2536 121.077C68.3005 121.277 68.3296 120.686 68.2823 120.501ZM38.1565 130.612C37.7054 130.571 38.4813 130.932 39.3346 131.127C39.4084 131.145 38.8748 130.958 39.0408 130.987C39.0583 130.99 39.352 131.078 39.4327 131.086C39.5115 131.095 39.4413 131.043 39.5676 131.065C39.7896 131.104 40.2609 131.277 40.427 131.29C40.449 131.291 40.1621 131.171 40.1437 131.165C39.844 131.057 39.5306 131.025 39.4825 131.011C39.2355 130.943 39.2876 130.913 39.2285 130.886C39.1187 130.834 38.9097 130.792 38.8957 130.787C38.5382 130.642 39.3737 130.9 39.4938 130.917C39.8149 130.964 39.5419 130.85 40.2841 131.028C40.3538 131.045 41.1887 131.271 40.149 130.942C42.2513 131.398 39.1184 130.61 38.7823 130.515C38.6238 130.478 38.8477 130.588 38.7481 130.577C38.5198 130.552 38.1511 130.446 38.1671 130.513C38.1974 130.653 38.7098 130.725 39.0345 130.841C38.9921 130.857 38.9714 130.878 38.8993 130.884C39.0103 130.881 38.185 130.614 38.1566 130.611C38.1565 130.611 38.1565 130.611 38.1565 130.612ZM43.4804 131.827C43.9467 131.955 43.9314 131.872 44.3581 131.993C44.753 131.989 43.9967 131.863 43.9083 131.842C43.5059 131.748 43.5341 131.676 43.1196 131.616C43.2513 131.689 43.3569 131.757 43.4804 131.827ZM39.3996 130.801C39.7214 130.852 39.1669 130.694 39.1471 130.679C38.9222 130.532 40.5892 131.023 39.3996 130.801ZM66.3274 129.316C66.4825 129.264 66.3718 129.263 66.5044 129.204C66.6366 129.146 67.1189 129.008 67.0994 128.99C67.0785 128.973 66.1952 129.223 67.0572 128.901C67.0232 128.899 67.0298 128.886 67.0115 128.88C66.7725 128.965 66.5332 129.049 66.298 129.131C66.4398 129.122 66.5862 129.113 66.7239 129.104C66.6008 129.18 66.5133 129.169 66.5062 129.171C66.5062 129.172 66.5062 129.172 66.5063 129.172C66.2601 129.262 65.98 129.431 66.3274 129.316ZM53.7537 132.276C53.7146 132.376 54.0886 132.23 54.2453 132.199C54.403 132.17 54.6211 132.178 54.5355 132.147C54.2803 132.151 53.7574 132.266 53.7537 132.276C53.7537 132.276 53.7537 132.276 53.7537 132.276ZM46.0742 132.245C46.4796 132.271 46.4151 132.24 46.907 132.32C46.8902 132.295 46.8735 132.27 46.8567 132.245C46.4643 132.203 46.4869 132.273 46.038 132.19C45.9645 132.176 46.1301 132.145 45.7933 132.118C45.887 132.159 45.9816 132.203 46.0742 132.245ZM48.078 132.353C47.6151 132.324 47.2306 132.481 48.0935 132.46C48.2212 132.456 48.4262 132.373 48.078 132.353ZM62.234 130.649C63.0015 130.427 62.1216 130.658 61.9173 130.686C63.6889 130.139 61.7153 130.757 61.5193 130.709C61.3072 130.798 60.9151 130.97 61.3741 130.86C61.5661 130.813 61.4891 130.805 61.5006 130.802C61.8477 130.711 61.8165 130.768 62.234 130.649ZM42.6553 131.662C42.6851 131.667 42.6458 131.626 42.7407 131.64C42.8358 131.654 43.0425 131.72 43.0674 131.704C43.0928 131.69 42.6696 131.585 42.539 131.571C42.4081 131.557 42.3886 131.617 42.6553 131.662ZM45.636 132.272C46.0332 132.302 45.4067 132.098 45.3232 132.085C44.5767 131.979 45.6626 132.24 45.636 132.272ZM60.513 131.338C61.4165 131.034 60.725 131.115 60.1216 131.205C60.0478 131.237 59.9722 131.269 59.8997 131.301C60.2304 131.136 60.8176 130.913 59.4814 131.315C60.2247 131.151 59.6107 131.324 59.607 131.329C59.5574 131.49 60.6471 131.143 60.5122 131.338C60.5125 131.338 60.5127 131.338 60.513 131.338ZM41.4099 131.34C41.0093 131.245 39.9564 130.989 40.4259 131.178C40.7542 131.236 41.0847 131.29 41.4099 131.34ZM68.1184 120.825C68.1538 120.441 68.1532 120.164 68.1509 119.747C68.0995 120.126 68.0936 119.905 68.081 119.749C68.062 119.542 68.0635 120.028 68.0601 120.017C68.0112 120.015 68.0037 119.713 68.0047 120.377C67.9877 120.208 67.9706 120.05 67.9537 119.9C67.9514 120.371 67.9195 120.513 67.8805 120.874C67.9758 120.525 67.9161 120.976 67.9634 121.327C67.9871 121.505 68.1003 121.01 68.1184 120.824C68.1184 120.824 68.1184 120.825 68.1184 120.825ZM61.4741 131.096C61.5657 131.053 61.6466 131.006 61.7318 130.961C61.8303 130.931 61.9294 130.901 62.0285 130.87C62.0451 130.881 62.0598 130.893 62.0783 130.903C62.211 130.869 62.1539 130.864 62.1924 130.85C62.1925 130.85 62.1925 130.851 62.1925 130.851C62.7492 130.658 62.9733 130.592 63.426 130.5C63.4121 130.456 63.3983 130.411 63.3844 130.367C63.2873 130.402 63.1894 130.437 63.0928 130.471C63.0481 130.511 63.0032 130.551 62.9586 130.591C62.8411 130.612 62.728 130.632 62.6077 130.654C62.5179 130.69 62.41 130.732 62.3329 130.764C61.8391 130.775 62.9043 130.551 62.8941 130.496C62.8938 130.461 61.8475 130.774 61.7073 130.837C61.6866 130.846 61.9379 130.876 61.5439 130.935C61.4813 130.944 61.403 130.75 61.0347 131.027C60.9821 131.066 61.2217 131.136 61.4741 131.096ZM65.2687 129.989C64.6467 130.06 66.8339 129.46 65.8708 129.676C66.1154 129.526 66.066 129.544 65.7819 129.584C65.7568 129.588 65.9352 129.508 65.9189 129.512C65.6594 129.57 65.3676 129.686 65.3479 129.635C65.2822 129.66 65.2206 129.683 65.1552 129.709C65.4475 129.664 65.0236 129.844 64.8617 129.944C64.7888 129.989 64.9728 129.934 64.9116 129.972C64.8888 129.987 64.6311 130.059 64.6265 130.079C64.6174 130.125 64.7957 130.125 65.074 130.063C65.074 130.064 65.074 130.064 65.0741 130.064C65.1395 130.039 65.203 130.014 65.2687 129.989ZM52.4977 132.682C52.3887 132.614 51.974 132.622 52.7675 132.532C52.7271 132.52 52.6855 132.509 52.6451 132.497C52.5112 132.507 52.3813 132.517 52.2444 132.526C51.845 132.769 51.0836 132.547 51.5701 132.685C51.6232 132.7 51.9428 132.668 51.6284 132.726C51.6288 132.726 51.6292 132.726 51.6297 132.726C52.0708 132.694 52.1252 132.664 52.4977 132.682ZM55.4347 132.317C56.4154 132.017 54.0306 132.422 54.4354 132.405C54.4707 132.407 55.5037 132.233 55.4347 132.317ZM47.2677 132.699C47.7228 132.742 47.7612 132.658 47.7171 132.624C47.673 132.591 47.3558 132.595 47.3157 132.586C47.1848 132.559 47.4661 132.574 47.2965 132.537C47.2407 132.527 46.4509 132.415 46.416 132.413C46.2135 132.41 46.4983 132.512 46.4401 132.514C46.2502 132.518 45.9998 132.451 45.9406 132.48C45.8132 132.543 46.2993 132.521 46.379 132.528C46.6206 132.552 46.595 132.594 46.7766 132.622C46.958 132.65 47.0784 132.646 47.2385 132.664C47.2917 132.67 47.2446 132.696 47.2677 132.699ZM48.7887 132.625C48.3083 132.667 49.4681 132.786 49.6071 132.77C50.0136 132.734 49.0177 132.608 48.7887 132.625ZM63.7524 130.273C63.3489 130.45 64.3263 130.178 64.5978 130.068C64.5389 130.068 63.891 130.213 63.7524 130.273ZM60.2531 131.405C60.6411 131.29 60.0949 131.325 59.773 131.407C59.6002 131.52 59.7747 131.463 59.9875 131.412C60.2003 131.361 59.9513 131.494 60.2531 131.405ZM42.3756 131.849C42.4554 131.872 43.8393 132.097 43.0583 131.914C42.9978 131.902 42.0432 131.704 41.9689 131.696C41.8187 131.683 42.1599 131.799 42.3756 131.849ZM58.4027 131.951C58.5983 131.848 58.7997 131.803 58.5954 131.777C58.5951 131.778 58.5948 131.778 58.5946 131.778C59.1114 131.639 59.1689 131.769 59.2816 131.74C59.6771 131.634 59.2783 131.626 59.5172 131.534C58.9474 131.703 59.0958 131.598 58.6586 131.693C58.5617 131.715 58.1753 131.841 58.1221 131.877C58.0695 131.915 58.288 131.946 58.4027 131.951ZM40.4538 131.397C40.9091 131.54 41.3493 131.552 40.719 131.375C40.4092 131.287 40.1819 131.31 40.4538 131.397ZM68.1461 117.93C68.121 117.998 68.096 118.066 68.0712 118.136C68.0652 117.978 68.059 117.815 68.0528 117.646C68.0607 117.78 68.0685 117.91 68.0763 118.037C68.0851 117.735 68.1308 117.589 68.1461 117.93C68.1461 117.93 68.1461 117.93 68.1461 117.93ZM62.5102 113.573C62.3686 113.609 62.1419 113.788 62.1769 113.779C62.4403 113.714 62.7069 113.523 62.5102 113.573ZM64.433 130.293C64.9542 130.133 64.5586 130.135 64.2411 130.23C64.4413 130.189 64.1385 130.382 64.433 130.293ZM66.1874 111.805C66.2366 111.791 66.2861 111.777 66.3408 111.76C66.1776 111.83 66.1462 111.835 66.1874 111.805ZM42.5688 132.001C42.6493 132.029 43.2509 132.161 43.3336 132.165C43.5062 132.174 43.0525 132.017 42.7711 131.978C42.7401 131.974 42.4893 131.975 42.5701 132.002C42.5696 132.001 42.5692 132.001 42.5688 132.001ZM68.1928 117.209C68.1916 117.21 68.1905 117.21 68.1895 117.208C68.1906 117.208 68.1917 117.208 68.1928 117.209ZM50.8617 116.545C50.8651 116.547 50.8669 116.549 50.8667 116.551C50.8653 116.549 50.8627 116.547 50.8617 116.545ZM46.8393 132.793C47.0327 132.929 47.5102 132.91 47.1432 132.819C47.1227 132.815 46.889 132.798 46.8393 132.793Z" fill="#900639"/>
<path d="M44.847 1.51525C45.06 1.47618 45.3393 1.51796 45.5515 1.57531C45.618 1.5931 45.5843 1.67261 45.6302 1.68847C45.72 1.71939 45.8037 1.68039 45.8924 1.71722C45.9218 1.72981 45.8852 1.85576 45.9161 1.86608C46.085 1.92175 46.2449 1.88966 46.4161 1.91644C47.2593 2.04853 48.0881 2.09581 48.9416 2.15319C49.223 2.17201 49.5651 2.28631 49.8558 2.23632C49.8897 2.23037 49.8695 2.11982 49.876 2.11071C49.9772 1.97122 49.9435 2.1944 50.0097 2.22405C50.2721 2.34113 50.5639 2.35131 50.8164 2.30865C50.9238 2.29017 50.8161 2.07059 50.9243 2.19384C50.9318 2.20217 50.9045 2.31956 50.934 2.33209C51.0008 2.36025 51.1276 2.33926 51.1794 2.34857C51.2792 2.36709 51.2957 2.3659 51.3901 2.36724C51.5191 2.37009 51.6726 2.42845 51.8111 2.40185C51.8406 2.39582 51.8015 2.27548 51.8486 2.255C51.8958 2.23455 52.0206 2.24476 52.0627 2.27313C52.1048 2.30151 52.0869 2.3961 52.0943 2.41778C52.1556 2.60077 52.2999 2.34733 52.3185 2.34106C52.6572 2.23426 52.9476 2.37864 53.2655 2.37823C53.5068 2.37761 53.7649 2.32994 53.9945 2.33648C54.2681 2.34473 54.4999 2.40995 54.7657 2.39874C54.7938 2.39769 54.7609 2.25619 54.7951 2.25463C55.1591 2.23817 55.5205 2.25359 55.8829 2.34911C55.9193 2.35882 55.8724 2.48305 55.9088 2.50018C56.1485 2.60856 56.4026 2.81997 56.741 2.3354C56.9878 2.39844 57.2715 2.55993 57.3698 2.77968C57.4297 2.91969 57.2451 2.93733 57.3951 2.99798C57.4287 3.01337 57.4795 2.89601 57.5262 2.92917C57.7341 3.08051 57.7985 3.3159 57.9206 3.41123C57.9469 3.4339 58.0367 3.37648 58.0579 3.37576C58.2312 3.37273 58.0638 3.6096 58.059 3.64227C58.0297 3.89704 58.1431 4.01407 58.2173 4.20374C58.2345 4.24844 58.3454 4.14207 58.3669 4.18391C58.4756 4.3996 58.5483 4.65246 58.5461 4.90727C58.5451 4.96365 58.4152 4.94403 58.4085 4.97187C58.3792 5.09268 58.6088 5.0694 58.5807 5.19025C58.5749 5.2153 58.4701 5.22021 58.4596 5.22638C58.294 5.31978 58.5527 5.33528 58.5608 5.35296C58.6661 5.56404 58.4096 5.72214 58.4443 5.9225C58.4484 5.94743 58.5815 5.8932 58.585 5.96495C58.6092 6.44728 58.4423 6.9468 58.1768 7.31142C58.136 7.36788 58.0632 7.28511 58.0502 7.28453C57.849 7.27243 58.0658 7.41267 58.0652 7.43767C58.0571 7.62552 57.7944 7.66861 58.0067 7.91523C57.798 8.50351 56.4146 9.24188 55.8844 8.83723C55.8759 8.83407 55.8912 8.7084 55.8741 8.70264C55.6685 8.63208 55.708 8.8274 55.5719 9.06629C55.5376 9.12628 55.4334 8.83786 55.4241 8.81672C55.3905 8.73881 55.4254 8.55184 55.4141 8.53675C55.321 8.41828 55.3362 9.03661 55.2105 9.03681C55.2066 9.03578 55.2231 8.92197 55.2126 8.91065C55.1798 8.87512 55.1473 8.92035 55.1153 8.88117C55.0419 8.79052 55.0157 8.49006 54.9037 8.66493C54.8895 8.68762 54.9111 9.03837 54.799 9.0218C54.7542 9.01489 54.5563 9.02091 54.5008 8.99818C54.4454 8.97547 54.4834 8.86245 54.4795 8.85755C54.3302 8.70809 54.3868 8.64615 54.312 8.42487C54.2372 8.20444 54.2579 8.7302 54.2274 8.78889C54.1969 8.8474 54.0874 8.72409 54.0605 8.68122C54.0336 8.63833 54.0672 8.56651 54.0433 8.54224C53.8847 8.38368 53.9737 8.80322 53.9215 8.88667C53.7983 9.08425 53.7024 8.69434 53.5896 8.65614C53.5591 8.64582 53.584 8.73462 53.5569 8.74293C53.4493 8.77464 53.3846 8.65298 53.2622 8.76453C53.2422 8.78271 53.1432 9.01714 53.0792 8.8451C53.0701 8.82029 53.0959 8.72313 53.05 8.70136C52.9815 8.6687 52.8581 8.64746 52.7845 8.67994C52.7301 8.70397 52.7925 8.86407 52.724 8.81434C52.6936 8.79213 52.75 8.69847 52.6928 8.66456C52.636 8.63066 52.4907 8.63477 52.4354 8.63801C52.3803 8.64131 52.4105 8.76276 52.406 8.77094C52.379 8.81781 52.2731 8.87637 52.2637 8.87623C51.7916 8.89105 51.3563 8.68634 50.8966 8.7541C50.8606 8.75924 50.8846 8.88731 50.8791 8.88941C50.7556 8.94307 50.853 8.60257 50.7667 8.4886C50.7792 8.74848 50.7282 8.70143 50.6413 8.72993C50.5993 8.74387 50.6222 8.8445 50.6184 8.85481C50.5562 9.00765 50.5129 8.81023 50.5018 8.76984C50.4606 8.62128 50.4158 8.79682 50.3878 8.69752C50.3598 8.59896 50.4242 8.45285 50.3408 8.45472C50.3174 8.54775 50.3793 8.79087 50.316 8.83027C50.077 8.97931 49.6309 8.78856 49.4388 8.76875C49.247 8.74895 49.1851 8.76611 49.0733 8.73249C48.8715 8.6717 48.9454 8.85208 48.8201 8.93464C48.6944 9.01719 48.7555 8.57338 48.7375 8.47798C48.7197 8.38261 48.7003 8.48078 48.6783 8.42835C48.6563 8.37594 48.7039 8.31107 48.6522 8.29139C48.6004 8.27173 48.4589 8.44139 48.4406 8.54115C48.4018 8.75249 48.4656 8.97431 48.3286 8.89637C48.3208 8.89174 48.3463 8.77505 48.3162 8.76325C48.0767 8.67341 47.8278 8.66785 47.5886 8.58839C47.5557 8.57728 47.5851 8.44746 47.566 8.43952C47.3666 8.35649 47.4379 8.57538 47.3286 8.81855C47.3531 8.49495 47.2927 8.29696 47.1414 8.29505C47.0504 8.29379 47.0661 8.43513 47.0072 8.53474C46.9896 8.56477 46.9252 8.46772 46.9135 8.53419C46.8751 8.75146 46.9357 8.99468 46.7797 8.89783C46.7728 8.89323 46.7946 8.7743 46.771 8.7671C46.6181 8.71995 46.5998 8.94722 46.4345 8.97474C46.305 8.99633 46.0746 8.85775 45.9271 8.83521C45.9302 8.47139 45.7909 8.5547 45.7344 8.80555C45.6387 8.79528 45.5353 8.80946 45.4428 8.77479C45.4109 8.76297 45.4318 8.65763 45.4278 8.64625C45.3663 8.4677 45.3246 8.71175 45.304 8.72132C45.08 8.81433 44.8976 8.62936 44.6839 8.81013C44.6763 8.81664 44.664 9.06936 44.6069 8.88483C44.6032 8.87211 44.6738 8.75713 44.5732 8.74824C44.4757 8.73797 44.2758 8.61297 44.0875 8.67641C44.0458 8.69525 43.8536 8.84604 43.8395 8.65846C43.8389 8.6337 43.8826 8.5747 43.8873 8.53172C43.9076 8.39726 43.7489 8.60005 43.8222 8.38751C43.8926 8.17103 43.976 8.03301 43.7646 8.02028C43.7585 8.01999 43.5863 8.13146 43.5594 8.09631C43.5178 8.0415 43.4812 7.93429 43.4347 7.88004C43.4121 7.85383 43.3298 7.95162 43.3242 7.94844C43.1137 7.80244 43.0964 7.59449 42.999 7.3538C42.9819 7.31082 42.7615 7.27869 42.8362 7.13177C42.9209 6.97452 43.5066 6.76977 43.2944 6.66764C43.2141 6.63452 42.435 6.80539 42.7701 6.51725C42.5827 6.2416 42.7598 5.94586 42.6545 5.63592C42.6497 5.62236 42.4394 5.5464 42.4485 5.51006C42.4622 5.45733 42.568 5.4494 42.5821 5.41542C42.6436 5.27479 42.6014 5.11538 42.6666 4.98078C42.6913 4.92993 42.7829 4.98549 42.8124 4.92843C42.8421 4.87209 42.7332 4.77323 42.8321 4.72077C42.908 4.68022 43.1906 4.75038 43.2586 4.69305C43.0129 4.55824 43.045 4.50878 43.0353 4.3769C43.0334 4.35132 42.9374 4.32244 42.9323 4.30772C42.9099 4.24576 42.9982 4.25539 42.9714 4.19358C42.9651 4.17863 42.8833 4.12879 42.8736 4.11361C42.7888 3.98105 43.0306 4.00166 43.0721 4.00664C43.2309 4.0229 43.1442 3.92835 43.2213 3.91379C43.2981 3.89989 43.3114 4.00597 43.3746 3.97278C43.5058 3.90376 43.5863 3.76281 43.6682 3.65815C43.7005 3.61598 43.5763 3.56926 43.5786 3.56145C43.6183 3.45339 43.7839 3.45416 43.6329 3.24006C44.1751 3.62354 43.6292 3.13693 43.8611 3.12245C43.8799 3.12218 44.064 3.37282 44.0655 3.42857C44.0689 3.48266 43.9643 3.4452 43.9861 3.52766C43.9906 3.54686 44.1873 3.76874 44.1906 3.79417C44.245 3.9519 43.8652 3.68349 43.8416 3.6724C43.5873 3.55238 43.7758 3.82752 43.778 3.86183C43.7857 4.02181 43.672 4.0711 43.672 4.19867C43.672 4.28128 43.9243 4.4524 43.8883 4.49067C43.7728 4.61344 43.3743 4.45057 43.616 4.77156C43.6684 4.83937 43.9761 4.9691 43.6922 4.94472C43.6746 4.94237 43.4216 4.90983 43.5364 5.02114C43.551 5.03492 43.6386 5.0768 43.6426 5.08723C43.6684 5.1557 43.5842 5.15416 43.5969 5.21865C43.61 5.28236 43.6395 5.35859 43.5905 5.39981C43.561 5.42469 43.3754 5.41227 43.3279 5.41704C43.1907 5.43107 43.3807 5.53295 43.2238 5.527C43.0652 5.52585 42.8498 5.40401 42.7313 5.48154C42.9779 5.53436 43.2306 5.5911 43.479 5.64225C43.443 5.78366 43.356 5.91967 43.3858 6.0665C43.3898 6.08425 43.5218 6.04855 43.5294 6.06538C43.5609 6.13284 43.4821 6.22292 43.5451 6.29516C43.595 6.35213 43.7548 6.36692 43.8162 6.41429C43.5715 6.5744 43.7145 6.6417 43.7377 6.73223C43.7463 6.7648 43.679 6.80243 43.6697 6.83554C43.6378 6.96115 43.8321 6.79008 43.8786 6.78861C44.0771 6.77994 43.602 7.10875 43.6955 7.21426C43.7005 7.22051 43.9993 7.10658 44.0213 7.10353C44.1651 7.08576 43.9438 7.17862 43.9541 7.22904C43.973 7.32043 43.9559 7.41613 44.0916 7.43684C44.132 7.44317 44.3234 7.37153 44.2539 7.51631C44.2449 7.5354 44.1665 7.60031 44.1665 7.60924C44.1689 7.76122 44.44 7.57974 44.4831 7.47014C44.5393 7.37503 44.3926 7.5428 44.3691 7.60316C44.2951 7.7502 44.3289 7.66116 44.3207 7.67487C44.2094 7.83155 44.2453 7.81615 44.2576 7.84001C44.1215 8.12283 44.1859 8.12971 44.2723 7.86357C44.2826 7.83495 44.2554 7.85498 44.2576 7.84001C44.4141 7.57244 44.3804 7.52087 44.3561 7.81014C44.3478 7.94472 44.3132 8.1018 44.3938 8.04932C44.4392 8.0243 44.4297 7.80791 44.4874 7.74922C44.6267 7.61502 44.8078 7.81627 44.9514 7.78456C45.0036 7.77305 44.9528 7.65495 44.9884 7.64302C45.083 7.61097 45.1664 7.69958 45.2613 7.65419C45.2699 7.64992 45.2489 7.52631 45.2785 7.52473C45.5023 7.51037 45.6973 7.58955 45.931 7.59175C46.044 7.59275 46.2459 7.52457 46.3629 7.53828C46.5657 7.56131 46.8151 7.74107 46.9884 7.6974C47.1014 7.66945 47.0766 7.5458 47.125 7.46156C47.2184 7.29826 47.3838 7.59077 47.406 7.63606C47.4067 7.63756 47.3095 7.66671 47.3614 7.73017C47.3915 7.86242 47.4049 7.63663 47.406 7.63606C47.4207 7.66532 47.6149 7.69339 47.6534 7.66975C47.6744 7.65683 47.6627 7.53969 47.6736 7.53517C47.9333 7.43033 48.1934 7.40056 48.4568 7.45533C48.4615 7.4577 48.4545 7.58873 48.4654 7.59266C48.6179 7.65092 48.7155 7.49063 48.8413 7.39546C48.967 7.30033 49.0667 7.33219 49.1412 7.55714C49.2361 7.52882 49.3722 7.62827 49.4505 7.68861C49.5288 7.74895 49.5398 7.49388 49.5467 7.48884C49.7616 7.32745 49.8859 7.47345 50.1089 7.49617C50.2149 7.50741 50.4252 7.47041 50.54 7.44252C50.6308 7.42005 50.6854 7.47982 50.769 7.4416C50.7803 7.4365 50.7689 7.32293 50.7724 7.31856C50.8657 7.18268 50.8208 7.46031 50.8401 7.5099C50.9099 7.69022 50.9531 7.78625 51.0726 7.70143C51.1001 7.682 51.1804 7.28224 51.2306 7.25886C51.2959 7.2292 51.2713 7.37249 51.3397 7.33778C51.3455 7.33494 51.3443 7.24654 51.3865 7.25044C51.5824 7.26737 51.7961 7.31881 51.9997 7.30995C52.0275 7.30908 51.9918 7.16886 52.032 7.1653C52.2206 7.14868 52.4272 7.15386 52.6109 7.2195C52.6561 7.23609 52.6278 7.33427 52.6376 7.36342C52.6979 7.53979 52.7833 7.28352 52.7974 7.27864C53.1337 7.15549 53.3911 7.38741 53.7339 7.27699C53.7526 7.27051 53.8962 6.99578 53.9603 7.2314C53.9647 7.24707 54.0281 7.48813 54.0842 7.32332C54.0876 7.313 54.0481 7.1889 54.1171 7.20155C54.186 7.21417 54.297 7.1313 54.3917 7.26765C54.4218 7.31061 54.4927 7.55107 54.5822 7.35939C54.588 7.34601 54.7262 6.91258 54.7755 7.21162C54.7835 7.26085 54.7751 7.5773 54.8819 7.41505C54.9023 7.3836 54.8653 7.31301 54.919 7.26893C55.0014 7.201 55.1106 7.28576 55.2118 7.14479C55.2295 7.11983 55.3047 6.90504 55.365 7.06807C55.3744 7.0936 55.3565 7.19925 55.3883 7.21107C55.5398 7.26779 55.6983 7.19712 55.8521 7.27022C55.9066 7.2959 55.8787 7.46669 55.9355 7.51246C55.9923 7.55822 56.1067 7.60223 56.1661 7.52418C56.2255 7.4461 56.1606 7.17389 56.2496 7.15211C56.8653 7.05259 56.1934 7.22369 56.2201 7.39876C56.2235 7.40093 56.1343 7.35956 56.1703 7.29788C56.3164 7.05064 56.3983 6.68333 56.6544 6.57879C56.8628 6.48913 56.9146 6.71996 57.0201 6.62326C57.0712 6.57356 56.7867 6.41968 56.78 6.40653C56.7166 6.25957 56.8691 6.21157 56.8415 6.09894C56.8354 6.07655 56.7056 6.08045 56.7016 6.06278C56.6865 6.0038 56.7478 5.94865 56.7385 5.89286C56.734 5.86803 56.6359 5.87173 56.6435 5.85041C56.6602 5.7989 56.6993 5.75209 56.7855 5.68757C56.7933 5.68118 56.9182 5.70698 56.9183 5.66083C56.9183 5.58776 56.9922 5.47325 56.8807 5.40157C56.847 5.37998 56.6296 5.43175 56.7659 5.33911C56.7942 5.31974 57.0587 5.26627 56.8154 5.25724C56.7746 5.25336 56.4435 5.2382 56.6154 5.11831C56.6607 5.08656 56.8545 4.97383 56.8085 4.94923C56.8016 4.94639 56.6957 5.00685 56.6741 4.98215C56.6002 4.8961 56.5668 4.78235 56.4843 4.69128C56.462 4.6669 56.3679 4.76062 56.3383 4.72324C56.2568 4.62035 56.2165 4.46777 56.1885 4.33078C56.1781 4.27955 56.2851 4.26164 56.2934 4.25318C56.4264 4.11428 56.1925 4.19953 56.1703 4.18864C55.9997 4.05726 56.2115 4.19663 56.2041 4.21585C56.2082 4.23089 56.1214 4.31048 56.1165 4.32021C56.0769 4.42206 56.196 4.24589 56.2242 4.23917C56.3018 4.2169 56.3242 4.23715 56.3555 4.2622C56.3673 4.27128 56.315 4.39834 56.3306 4.40598C56.5512 4.45428 56.1401 4.4255 55.9231 4.35338C55.8775 4.339 55.9062 4.23414 55.8967 4.21019C55.8313 4.04264 55.7353 4.27118 55.7133 4.29296C55.6129 4.39236 55.5739 4.29964 55.4853 4.31694C55.0523 4.40311 54.5177 4.3417 54.1091 4.30376C53.5765 4.25493 53.1632 4.15518 52.6554 4.18108C52.6231 4.18259 52.6557 4.32209 52.6278 4.32518C52.2686 4.35881 51.9149 4.3043 51.555 4.34459C51.5254 4.34765 51.568 4.47989 51.5206 4.48924C51.4234 4.50936 51.3002 4.50217 51.2019 4.45995C51.1539 4.4396 51.2182 4.32613 51.17 4.30797C51.0576 4.26543 50.9371 4.25601 50.8216 4.27721C50.7725 4.28652 50.8466 4.42177 50.7828 4.42333C50.3477 4.43674 49.9205 4.46004 49.4809 4.2849C49.4508 4.27287 49.4243 3.998 49.3603 4.05071C49.3554 4.12699 49.3557 4.21673 49.3536 4.29827C48.7203 4.34219 48.0935 4.2469 47.4585 4.23217C47.4317 4.23158 47.478 4.37722 47.4261 4.37682C47.1261 4.37466 46.8348 4.41501 46.5279 4.27025C46.4974 4.25609 46.5131 3.99987 46.4233 4.03862C46.4075 4.04569 46.2724 4.07987 46.2374 4.13549C46.2327 4.14388 46.2573 4.26347 46.2138 4.26695C45.9607 4.28512 45.6955 4.25781 45.4429 4.18474C45.4021 4.17272 45.4455 4.04536 45.4165 4.03569C45.2105 3.96809 44.9864 4.0649 44.7896 3.94927C44.6578 3.87141 44.7066 3.65126 44.6366 3.43456C44.6267 3.40399 44.5451 3.39914 44.5408 3.27306C44.53 2.95602 44.5695 2.60886 44.5533 2.27093C44.5499 2.19814 44.4406 2.27654 44.5053 2.10064C44.5098 2.08887 44.5891 2.03049 44.6086 1.97082C44.6222 1.92956 44.5977 1.80134 44.6254 1.74853C44.6531 1.69577 44.6836 1.80325 44.7295 1.74121C44.7754 1.67839 44.7552 1.53252 44.847 1.51525ZM49.8032 7.95832C49.8757 8.08082 49.8864 7.63217 49.808 7.73951C49.8042 7.74523 49.7995 7.95231 49.8032 7.95832ZM43.0256 5.92692C42.8295 6.01062 43.125 6.042 43.2739 5.98421C43.4238 5.93469 43.0854 5.90548 43.0256 5.92692ZM43.0447 5.09458C42.862 5.13637 43.4579 5.36008 43.3697 5.22895C43.3648 5.22143 43.0553 5.09244 43.0447 5.09458ZM44.9613 3.37285C44.9603 3.3669 44.9016 3.36109 44.9002 3.36699C44.869 3.50948 44.9862 3.52099 44.9613 3.37285ZM43.3343 4.2043C43.2432 4.18694 43.2765 4.3218 43.3896 4.34256C43.4795 4.36055 43.447 4.22673 43.3343 4.2043ZM53.5866 8.43714C53.5877 8.44383 53.6298 8.44985 53.6289 8.41206C53.6261 8.29034 53.5676 8.32469 53.5866 8.43714ZM44.3719 3.16932C44.1959 3.16869 43.7748 2.7799 44.1407 2.71676C44.2012 2.71077 44.0656 2.91433 44.1506 2.93771C44.2824 2.98675 44.3315 2.64545 44.4824 2.8197C44.4987 2.85077 44.3746 3.16903 44.3716 3.17009C44.3717 3.16984 44.3718 3.16958 44.3719 3.16932ZM49.845 8.4972C49.8464 8.50313 49.9046 8.50876 49.906 8.50288C49.9375 8.36045 49.8203 8.34903 49.845 8.4972ZM56.0402 8.71455C56.0434 8.72719 56.1785 8.73901 56.1829 8.72736C56.2534 8.49445 55.9803 8.46986 56.0402 8.71455ZM45.9248 8.82551C45.8613 8.96879 45.7853 8.98567 45.7347 8.80573C45.7978 8.81528 45.8613 8.81669 45.9248 8.82551ZM30.9914 125.998C30.941 124.332 30.9679 122.148 31.014 120.489C31.0282 119.968 31.1095 120.231 31.1229 119.872C31.1491 119.17 31.1056 118.516 31.1377 117.822C31.1488 117.592 31.2767 117.877 31.2853 117.636C31.332 116.314 31.2914 115.064 31.3091 113.726C31.3963 107.132 31.3995 100.65 31.4115 93.9762C31.4154 91.7755 31.5115 89.0997 31.446 86.8271C31.4383 86.5618 31.3288 86.7208 31.3193 86.6704C31.1745 85.8795 31.3994 86.1413 31.4256 85.6241C31.5287 83.5714 31.5233 81.2897 31.4672 79.3153C31.4431 78.4754 31.2292 79.3192 31.3467 78.4724C31.3546 78.4136 31.4735 78.626 31.4844 78.3955C31.509 77.8729 31.4813 76.8818 31.4878 76.4768C31.5011 75.6963 31.499 75.5671 31.4953 74.829C31.4913 73.8199 31.5415 72.6193 31.5075 71.5369C31.4999 71.3058 31.3817 71.6126 31.3587 71.2442C31.3357 70.8755 31.3393 69.8995 31.3654 69.5704C31.3916 69.2411 31.4871 69.3806 31.5084 69.3222C31.6881 68.8418 31.427 67.7147 31.4197 67.5696C31.2949 64.9222 31.4239 62.6503 31.4065 60.1646C31.4643 58.4105 30.9817 55.7409 32.109 54.3139C33.1084 52.399 34.0567 50.8397 35.1485 49.0495C35.264 48.8611 35.0069 49.0069 35.1488 48.7758C36.6542 46.325 38.3366 44.0108 40.149 41.8142C40.3316 41.5931 40.2056 41.9601 40.3924 41.7459C41.4121 40.5344 43.9821 37.9676 43.3066 37.6207C43.3278 36.4432 43.3496 35.0137 43.4586 33.9602C43.5288 33.281 43.6641 33.9407 43.6064 33.1063C43.5935 32.9182 43.475 33.1629 43.4647 32.8807C43.4213 31.6925 43.4598 30.3944 43.3986 29.219C43.3858 28.98 43.2796 29.0452 43.2605 28.9775C43.1056 28.4082 43.3616 27.4605 43.3802 27.2539C43.519 25.6806 43.4644 24.5317 43.4678 23.0661C43.4686 22.7259 43.326 23.128 43.3216 22.8007C43.3012 21.1033 43.3135 19.3451 43.3768 17.683C43.3912 17.3134 43.5127 17.6533 43.5258 17.4767C43.5821 16.6977 43.3526 16.525 43.4022 15.778C43.4124 15.6204 43.5164 15.7092 43.5278 15.6804C43.7072 15.2308 43.4531 14.8401 43.4474 14.7245C43.3708 13.2615 43.6361 12.3265 43.5985 10.9132C43.5937 10.7441 43.4621 11.1254 43.4568 10.6501C43.2683 10.0749 44.0156 8.17385 45.1817 8.44307C45.9899 8.44299 46.8033 8.4474 47.6156 8.45623C49.2404 8.47388 50.8611 8.50924 52.4281 8.56188C52.9154 8.57807 52.5675 8.67695 52.5982 8.68914C53.098 8.87959 53.4213 8.62441 53.5802 8.6148C54.8523 8.67663 55.9044 8.19125 57.1664 8.98788C57.9742 15.0156 57.4836 19.7791 57.3372 25.143C57.3341 25.21 57.2084 25.09 57.2026 25.2236C57.1321 26.8316 57.3274 26.5228 57.5663 27.5868C57.6263 27.8548 57.3379 28.6702 57.3167 28.7423C57.2388 29.0051 57.0518 28.7325 57.0368 28.8206C56.9183 29.5488 57.5366 29.4302 57.5368 30.4127C57.5358 30.4434 57.422 30.3143 57.4107 30.3968C57.3751 30.653 57.4203 30.907 57.3812 31.1577C57.2905 31.7314 56.9901 31.9358 57.1649 32.8122C57.1876 32.9231 57.5384 32.7537 57.5218 33.6309C57.5149 33.9806 57.5209 35.5285 57.4982 35.9624C57.4755 36.3957 57.3624 36.0982 57.3576 36.1291C57.2081 37.2966 57.1461 36.8539 56.9249 37.4388C56.7051 38.0634 57.2669 37.8323 57.3693 37.9489C57.4359 38.0118 57.9977 38.7822 58.0884 38.9615C58.1947 39.1479 57.9681 38.9982 58.0728 39.1546C58.7688 40.1927 58.6275 39.3933 58.9579 39.6462C59.7408 40.2482 59.9324 41.0741 60.4664 41.7764C60.6111 41.9671 60.5551 41.7602 60.6975 41.9195C61.2573 42.5497 61.4826 43.0207 62.1592 43.7099C62.2704 43.8226 62.9306 44.2998 63.0904 44.8095C63.1126 44.8817 62.915 44.776 63.1098 45.0793C63.4015 45.5319 63.9389 46.336 64.2854 46.7997C64.5413 47.1416 64.4049 46.6444 64.6596 47.1223C64.7715 47.3346 64.4522 47.0153 64.6673 47.409C64.8837 47.8005 65.4858 48.7689 65.705 49.1405C65.9274 49.513 65.9121 49.2473 65.9369 49.2733C66.0851 49.4312 66.5465 50.1283 66.5811 50.1937C68.4454 53.3966 69.4805 56.8446 69.2239 60.4376C69.2271 60.7197 69.3565 60.5327 69.3583 60.5757C69.4054 61.5417 69.0701 60.778 68.9515 61.4518C69.2121 61.3561 69.1623 61.7539 69.1862 62.4343C69.1979 62.7622 69.2997 62.5843 69.3098 62.6143C69.4594 63.1014 69.2596 63.4385 69.2187 63.5254C69.0679 63.8463 69.2411 64.1978 69.1403 64.4162C69.0402 64.6345 68.8975 64.1297 68.895 64.782C68.9868 64.9656 69.2332 64.4829 69.2692 64.9785C69.4055 66.8481 69.191 70.335 69.161 71.8373C69.131 73.3367 69.1449 73.8211 69.1053 74.6947C69.0338 76.2725 69.2181 75.6954 69.294 76.6759C69.3699 77.6593 68.9293 77.1785 68.8329 77.3192C68.7366 77.4572 68.8338 77.6093 68.7802 77.7815C68.7266 77.9531 68.6643 77.5804 68.6418 77.9847C68.6194 78.3892 68.7815 79.4967 68.8803 79.6408C69.0896 79.9455 69.3148 79.4484 69.2296 80.5186C69.2245 80.5802 69.1092 80.3795 69.0958 80.6152C68.9932 82.4875 68.9744 84.4331 68.8822 86.3031C68.8694 86.5602 68.7411 86.3294 68.7322 86.479C68.6385 88.0375 68.8612 87.4817 69.0986 88.3379C68.7763 88.1438 68.5751 88.615 68.5651 89.7982C68.559 90.5095 68.7012 90.388 68.7977 90.8488C68.8268 90.987 68.7263 91.4897 68.7921 91.5813C69.0074 91.8835 69.2538 91.4111 69.1487 92.6304C69.1437 92.6839 69.0259 92.5127 69.0175 92.6976C68.9622 93.8927 69.1885 94.0373 69.2072 95.3298C69.2219 96.3428 69.0711 98.1433 69.0407 99.2965C68.677 99.2698 68.7529 100.36 69.0008 100.803C68.9854 101.552 68.9941 102.36 68.9545 103.084C68.941 103.332 68.8368 103.168 68.8252 103.199C68.6434 103.68 68.8852 104.007 68.8937 104.168C68.9747 105.92 68.7801 107.345 68.9495 109.018C68.9556 109.077 69.2076 109.175 69.0201 109.62C69.0072 109.649 68.8959 109.096 68.8817 109.883C68.8674 110.669 68.7219 112.15 68.8316 113.242C68.858 113.507 69.0586 114.176 68.8946 114.711C68.8724 114.783 68.8004 114.704 68.7594 114.807C68.6286 115.139 68.8828 115.323 68.6631 115.713C68.4435 116.104 68.2754 116.917 68.4176 118.019C68.4218 118.054 68.6224 118.316 68.6169 118.662C68.6078 119.215 68.5603 119.999 68.5577 120.576C68.5565 120.853 68.6835 120.677 68.6854 120.725C68.7433 122.583 68.6222 123.904 68.56 125.894C68.5484 126.258 68.7127 127.308 68.5723 128.013C68.3602 128.654 68.0565 128.57 67.755 129.171C67.4251 129.391 66.5968 130.507 65.2931 130.528C62.9476 131.432 60.6848 131.892 58.2603 132.562C58.1511 132.592 57.8475 132.879 57.5859 132.928C57.1937 133 56.9624 132.938 56.6856 132.981C55.5159 133.155 54.4569 133.383 53.3201 133.467C52.8877 133.497 53.0303 133.381 52.5179 133.409C52.004 133.434 51.667 133.591 50.9666 133.537C50.4378 133.494 49.9148 133.209 49.2265 133.151C49.1907 133.43 48.7117 133.414 47.856 133.424C47.691 133.426 47.8594 133.537 47.7808 133.543C47.459 133.568 47.1764 133.461 46.871 133.485C46.7967 133.49 46.7832 133.585 46.7215 133.595C46.1956 133.683 45.3862 133.354 45.2528 133.295C44.7306 133.073 44.4531 133.151 44.0489 133.023C43.6442 132.892 44.2764 132.936 43.7989 132.814C42.8107 132.56 41.532 132.285 40.5362 132.017C40.1351 131.91 40.3761 132.105 40.3179 132.093C39.4861 131.906 38.6974 131.53 38.1671 131.634C37.7881 130.827 37.6566 131.549 36.5307 131.038C36.4431 130.998 36.4284 130.665 36.7882 130.737C37.1523 130.809 37.6546 131.074 38.1622 131.156C38.2854 131.177 39.0302 131.096 39.1228 131.104C39.8674 131.177 39.8444 131.65 39.8751 131.685C40.2242 132.07 41.1342 131.979 41.3487 132.008C42.367 132.156 43.1839 132.395 44.0373 132.479C44.5893 132.531 44.6936 132.239 45.1176 132.315C46.5229 132.556 46.9905 133.033 48.3671 132.758C48.6605 132.695 48.3901 132.357 49.4087 132.656C49.4709 132.676 50.2385 132.932 50.6824 132.775C50.738 132.755 50.7353 132.658 50.8084 132.649C51.2981 132.59 51.6271 132.657 52.16 132.593C52.6932 132.528 53.328 132.424 53.937 132.392C54.3053 132.373 54.7962 132.494 54.9787 132.514C55.4962 132.573 55.9918 132.283 56.3262 132.382C56.6641 132.481 56.0952 132.822 56.9293 132.775C56.9143 132.521 56.9365 132.254 56.9378 131.996C58.7023 131.675 60.4449 131.318 62.1833 130.789C62.3985 130.723 62.139 130.66 62.3688 130.585C63.3406 130.269 64.2065 130.089 65.2004 129.708C65.9199 129.43 66.9183 128.915 67.4441 128.683C67.5511 129.15 67.5877 128.173 67.5967 127.158C67.608 126.832 67.6849 126.854 67.7117 126.622C67.8106 125.745 67.5528 126.154 67.5143 125.914C67.3501 124.881 67.9278 124.797 67.9219 123.58C67.9217 123.516 67.6194 122.726 67.601 122.618C67.4808 121.928 67.7089 122.504 67.7345 122.073C67.7814 121.286 67.8586 120.739 67.7748 119.815C67.7499 119.545 67.5626 118.897 67.7145 118.375C67.7344 118.306 67.8358 118.345 67.8421 118.29C67.9482 117.288 67.6289 117.259 67.5245 116.685C67.4202 116.111 67.6468 115.228 67.7116 115.048C67.8793 114.578 67.7795 115.41 67.7954 115.435C67.9855 115.736 67.9568 115.09 67.9764 114.597C68.2902 114.528 68.2761 113.838 67.9954 114.086C67.9648 114.114 67.9914 114.498 67.9764 114.597C67.6719 114.162 67.6377 113.404 67.9307 112.568C68.068 112.177 68.2224 112.549 68.1731 111.358C68.1509 110.817 67.9337 111.024 67.8781 110.547C67.7514 109.457 67.9622 108.042 67.9382 106.919C67.9294 106.511 67.8086 106.907 67.7986 106.628C67.7716 105.889 67.8646 105.237 67.8243 104.494C67.8205 104.427 67.6957 104.591 67.6957 104.36C67.6933 102.609 67.7828 101.085 67.7975 99.2574C67.8045 98.3743 67.747 96.7949 67.767 95.8802C67.8008 94.2947 67.9938 92.3453 67.9593 90.9905C67.9374 90.1068 67.8124 90.2998 67.7308 89.9207C67.5725 89.1891 67.8738 87.8981 67.9202 87.7243C67.9218 87.719 67.9457 88.4794 68.012 88.0742C68.1458 87.8392 67.9207 87.7329 67.9202 87.7243C67.9503 87.6101 67.9887 86.0917 67.9671 85.79C67.9553 85.626 67.8375 85.7169 67.8336 85.6314C67.7426 83.6 67.7266 81.5656 67.7954 79.5064C67.798 79.4702 67.9287 79.5257 67.9332 79.4404C67.9996 78.2485 67.8445 77.4839 67.756 76.4999C67.6675 75.516 67.7047 74.7365 67.9336 74.156C67.9103 73.4139 68.017 72.3502 68.0815 71.7381C68.146 71.1261 67.8916 71.0389 67.8869 70.985C67.7369 69.303 67.8895 68.3323 67.9241 66.5887C67.941 65.7597 67.9152 64.1149 67.8934 63.2171C67.8758 62.5075 67.9384 62.0805 67.9047 61.4265C67.9002 61.3381 67.786 61.4266 67.7818 61.3996C67.6509 60.6691 67.9261 61.0216 67.9767 60.8714C68.1608 60.3265 68.2591 59.9898 68.1806 59.0549C68.1627 58.8393 67.7672 58.2089 67.7465 57.8159C67.7203 57.305 67.8623 57.4987 67.8312 56.9637C67.8287 56.9179 67.7402 56.9269 67.7464 56.5968C67.9929 56.2706 66.7594 53.9827 66.157 52.7386C66.0595 52.5487 66.0584 52.8552 65.9158 52.5837C65.2469 51.311 64.4777 49.9367 63.7888 48.7194C63.6199 48.4201 63.8175 48.5497 63.8023 48.4711C63.7046 47.9854 63.1291 47.5814 63.0654 47.4964C61.5314 45.4435 60.4874 43.7607 58.6887 41.804C58.5903 41.6967 57.6581 41.031 57.5105 40.5039C57.5001 40.468 57.3591 39.939 56.9462 39.7185C56.9207 39.7052 57.0303 40.0178 56.6854 39.6062C56.3983 39.5548 55.4398 37.26 55.7677 36.8151C55.8106 36.5805 56.0511 36.026 55.8594 35.3262C55.846 35.2806 55.4126 34.2002 55.7116 33.8146C55.7608 33.7521 56.0773 33.8175 55.9151 32.9823C55.8836 32.8227 55.813 33.1124 55.7689 32.692C55.701 32.0478 55.7858 31.1943 55.6448 30.4025C55.6198 30.2644 55.405 29.6765 55.5681 29.205C55.5936 29.1311 55.6992 29.2714 55.7111 29.0224C55.7678 27.8382 55.6971 26.5983 55.7702 25.3959C55.7959 24.9701 55.9667 25.1878 56.0125 24.7439C56.0582 24.2999 56.1022 23.4054 56.0242 22.9409C55.9461 22.4762 55.6739 22.9838 55.6521 22.2877C55.5575 19.2615 55.7172 16.2637 55.7406 13.2419C55.744 12.7937 55.6466 13.1653 55.6448 12.5048C55.643 11.8961 55.6359 11.1767 55.6296 10.4072C55.3429 9.27919 56.7336 10.6582 55.5789 10.3813C53.9593 10.3792 52.3801 10.3503 51.3236 10.2468C49.6306 10.081 51.7611 9.95484 50.4674 9.88738C49.8432 9.8552 49.1678 10.1717 49.0171 10.1816C47.5449 10.2828 46.5218 10.1426 45.1967 10.1857C44.9346 10.1948 45.1423 10.322 44.9933 10.3296C45.365 10.3459 45.2976 9.79334 45.3045 10.8621C45.3095 11.2031 45.4075 11.1403 45.3999 11.4541C45.3829 12.2049 45.3417 12.8688 45.2499 13.6007C45.2416 13.6674 45.1197 13.2176 45.1152 13.7731C45.1082 14.6721 45.0176 15.788 45.1111 16.8224C45.1393 17.1293 45.3632 17.1413 45.2085 17.801C45.1762 17.9394 44.9074 17.7628 45.1397 18.5313C45.1783 18.6605 45.4916 19.9514 45.2897 20.5849C45.2365 20.752 45.0165 21.1786 45.0511 21.5477C45.0566 21.5977 45.1769 21.3972 45.1886 21.703C45.2278 22.7808 45.215 23.9104 45.2527 25.0176C45.263 25.3133 45.3874 24.8729 45.3988 25.3136C45.4302 26.5255 45.3986 28.0385 45.3596 29.2236C45.345 29.6605 45.2419 29.3585 45.2307 29.3903C45.0482 29.9015 45.2945 30.2038 45.3089 30.3734C45.3949 31.4287 45.2792 32.2323 45.3098 33.205C45.3179 33.4734 45.4354 33.2831 45.4458 33.3365C45.5482 33.8907 45.3373 33.4779 45.314 33.8287C45.2482 34.8114 45.2576 35.9069 45.2726 36.9006C45.2783 37.2657 45.4145 36.8554 45.418 37.183C44.6544 41.3495 43.0742 40.9863 41.9272 42.7905C41.701 43.0599 41.7531 42.8208 41.6894 42.8642C41.2444 43.1663 40.9796 43.894 40.8941 44.0444C40.5081 44.7237 40.2544 44.9113 39.8672 45.473C37.9607 48.2135 35.7569 51.6563 34.2664 54.4326C31.8583 57.4423 33.5206 61.0031 33.2418 64.9229C33.245 65.1753 33.3828 64.9198 33.3874 65.1374C33.4401 67.9461 33.4044 70.7119 33.4638 73.5262C33.4685 73.7572 33.5984 73.4234 33.6103 73.794C33.6356 74.5543 33.635 75.5175 33.598 76.2866C33.5802 76.6618 33.4633 76.1596 33.4477 76.5371C33.4111 77.4163 33.4081 78.3585 33.4355 79.2611C33.4474 79.6452 33.5787 79.0647 33.5837 79.564C33.6202 82.9654 33.6662 86.3059 33.5145 89.7445C33.5041 89.9802 33.2306 90.1888 33.2867 90.6895C33.3633 90.7267 33.453 90.7241 33.5346 90.74C33.6122 95.6914 33.5503 100.593 33.5693 105.559C33.5702 105.768 33.7133 105.406 33.7157 105.811C33.7295 108.157 33.7853 110.435 33.6569 112.835C33.6444 113.073 33.3873 112.953 33.4309 113.654C33.4388 113.778 33.4801 114.835 33.5376 115.108C33.5462 115.145 33.6645 114.951 33.6703 115.291C33.7019 117.27 33.6888 119.344 33.6291 121.32C33.6193 121.639 33.4896 121.3 33.4815 121.528C33.4248 123.139 33.5336 124.89 33.4284 126.43C33.3576 127.461 33.1348 127.081 32.9218 127.63C32.8918 127.708 32.8913 128.346 32.7654 128.38C32.449 128.466 32.0997 128.16 31.7627 128.289C31.6901 128.316 31.7743 129.17 31.5949 128.665C31.5829 128.63 31.5203 128.011 31.4596 127.859C31.4177 127.753 31.2907 127.945 31.2365 127.729C31.1822 127.512 31.2881 127.274 31.2236 126.915C31.1583 126.556 31.0135 126.715 30.9914 125.998ZM68.37 68.9822C68.4963 68.4159 68.0483 68.3292 68.1514 68.9433C68.157 68.973 68.3638 69.0114 68.37 68.9822ZM60.5184 131.621C61.2807 131.623 61.6854 131.203 61.1455 131.196C60.6107 131.187 60.2856 131.62 60.5184 131.621ZM53.0545 133.093C53.928 133.177 53.995 132.53 53.1003 132.737C53.0483 132.749 53.0038 133.088 53.0545 133.093ZM32.8429 125.092C32.837 125.099 32.8343 125.558 32.8403 125.569C32.9844 125.812 32.9897 124.895 32.8429 125.092ZM45.495 132.999C45.7522 133.125 46.533 133.12 46.2149 132.973C45.9601 132.857 45.18 132.846 45.495 132.999ZM60.313 41.9345C60.3128 41.9235 60.1077 41.668 60.0828 41.6972C60.0041 41.7925 60.3211 42.1202 60.313 41.9345ZM33.0881 129.543C34.8168 130.244 35.7757 131.119 33.8228 130.351C33.4738 130.211 34.6395 130.472 34.2086 130.264C33.5303 129.866 32.2777 130.103 32.3154 128.84C32.2684 128.729 32.9581 129.624 33.0909 129.543C33.09 129.543 33.089 129.543 33.0881 129.543ZM68.9111 68.6593C68.9171 68.648 68.9258 68.1929 68.92 68.1819C68.7793 67.9345 68.7616 68.8513 68.9111 68.6593ZM57.2145 23.9252C57.2272 23.9 57.239 22.8438 57.2274 22.8093C56.9945 22.2583 56.9699 24.3938 57.2145 23.9252ZM69.0309 99.3146C69.1708 99.8122 69.1836 100.406 69.001 100.801C69.0139 100.308 69.0187 99.8108 69.0309 99.3146Z" fill="black"/>
</svg>
