<svg width="102" height="136" viewBox="0 0 102 136" fill="none" xmlns="http://www.w3.org/2000/svg">
<path d="M68 63C49.5 42.5 33.7571 46.6757 32 56.6526L32.986 128.801C46.6526 134.05 54.3299 133.821 68 128.801C68.0055 100.625 67.9945 91.1756 68 63Z" fill="#900639"/>
<path d="M43.8965 132.547C41.6875 132.147 39.4796 131.558 37.2784 130.851C36.1835 130.499 35.0696 130.11 33.9934 129.713C32.5746 129.65 32.4174 127.36 32.4541 126.423C32.389 121.781 32.3267 117.136 32.276 112.691C32.2635 111.6 32.2981 111.674 32.2983 111.368C32.2991 110.531 32.2526 110.027 32.2472 109.417C32.2207 106.451 32.1885 103.677 32.1614 100.767C32.1335 97.7698 32.2573 99.1861 32.2685 98.1444C32.2905 96.109 32.178 97.8415 32.1365 97.0422C32.1128 94.7095 32.0954 92.356 32.0784 90.0191C32.0989 90.5894 32.1191 91.1598 32.1388 91.7363C32.1276 90.7178 32.1287 89.2599 32.1876 90.965C32.1923 90.5878 32.1989 90.2358 32.2032 89.8483C32.1522 89.7427 32.1235 87.9396 32.0919 87.7751C32.0603 87.611 32.0809 88.6247 32.0782 88.6185C32.0407 88.5518 32.0339 84.3923 32.0339 84.0923C32.0339 83.2993 32.1048 83.9936 32.0917 83.3192C32.0691 82.1591 31.9546 82.9337 32.0993 81.361C32.0368 80.7371 32.0641 80.6822 32.057 79.891C32.0561 79.7869 32.0259 79.8681 32.0245 79.8223C31.9849 78.6252 32.0556 79.5448 32.0587 79.5386C32.1107 79.4291 32.0694 78.1444 32.0708 77.8737C32.0883 74.476 32.0975 71.9865 32.0634 68.4019C32.0559 67.6271 32.002 65.2675 32.0008 64.5176C31.9997 63.778 32.0437 64.1742 32.0569 63.7869C31.9557 63.1678 31.9373 62.5762 31.9794 61.1826C31.9047 60.6649 31.9602 60.7309 31.933 59.7376C31.9173 58.9026 31.7808 57.5063 31.8868 56.5349C31.8454 57.6388 31.9129 57.4866 31.9422 58.6693C31.9542 59.0603 32.0114 63.1379 32.0764 62.8335C32.1103 62.6747 32.0587 61.3237 32.0646 61.2714C32.0992 60.9668 32.1571 61.7204 32.1495 62.3892C32.1394 62.2227 32.1288 62.0221 32.1185 61.8431C32.0906 63.3454 32.2624 62.3102 32.1156 63.4537C32.0976 63.5951 32.076 63.5407 32.058 63.7736C32.0674 63.8213 32.0853 63.5364 32.0925 63.7815C32.0998 64.0314 32.0651 64.5067 32.1008 64.577C32.1528 64.6822 32.1187 63.6466 32.1206 63.5686C32.1203 63.5678 32.12 63.5669 32.1197 63.5661C32.1371 62.8766 32.1598 64.3159 32.1655 64.3845C32.2031 64.8293 32.2232 64.5254 32.2583 65.1931C32.2783 65.5741 32.2829 66.545 32.2925 66.9032C32.3023 67.2591 32.3186 66.705 32.327 66.9444C32.3354 67.1838 32.3214 67.4823 32.3311 67.7634C32.3354 67.8837 32.362 67.8772 32.3637 67.9354C32.3825 68.5599 32.3215 68.1509 32.3326 68.7174C32.3399 69.0843 32.4084 70.3154 32.4122 69.4662C32.4231 69.8742 32.4325 70.2721 32.4422 70.6781C32.4466 70.4219 32.4484 70.1572 32.4543 69.9072C32.4521 70.6714 32.5024 71.0165 32.5124 71.4953C32.5223 71.9743 32.4734 72.4044 32.5073 72.931C32.5795 74.0549 32.5152 71.2703 32.5206 70.9245C32.5228 70.7896 32.5727 71.3065 32.575 71.3861C32.5852 71.74 32.5603 72.1591 32.5654 72.4319C32.5839 73.4086 32.6325 74.0062 32.6534 74.937C32.7245 78.1066 32.8007 82.0386 32.8506 85.0418C32.8692 86.1603 32.8329 86.8339 32.841 87.3358C32.8601 88.5101 32.9017 88.6534 32.9178 89.6777C32.9419 91.2022 32.9367 93.3505 32.9466 94.6232C32.9535 95.5042 33.0028 96.3012 33.0069 96.5304C33.0641 99.7147 33.1162 103.589 33.1527 106.228C33.1699 107.469 33.1349 108.059 33.1396 108.315C33.1601 109.417 33.1929 109.121 33.2014 110.014C33.206 110.496 33.1718 110.587 33.1713 110.652C33.1674 111.22 33.2152 111.333 33.2228 111.777C33.2664 114.328 33.2697 116.786 33.2998 119.312C33.302 119.495 33.2813 119.479 33.284 119.598C33.2959 120.108 33.325 119.87 33.3346 120.403C33.3547 121.511 33.365 122.649 33.3769 123.823C33.3781 123.94 33.3525 123.992 33.3561 124.259C33.3598 124.525 33.3875 124.727 33.3918 125.146C33.4148 126.187 33.3386 127.542 33.4372 128.319C33.4781 128.423 33.5863 128.523 33.7239 128.594C34.4514 128.882 35.7696 129.38 36.4847 129.623C38.8835 130.439 41.14 131.062 43.469 131.522C44.0155 131.63 44.4983 131.742 44.7855 131.789C45.4342 131.893 44.9503 131.792 45.6037 131.886C50.9726 132.679 56.4689 131.979 61.7468 130.43C63.5813 129.805 67.3431 129.078 67.5547 128.132C67.5616 127.296 67.5976 127.099 67.5985 126.489C67.5991 125.401 67.55 125.182 67.5452 124.022C67.5415 123.111 67.5908 122.018 67.5878 121.069C67.5849 120.107 67.5372 119.64 67.5316 118.551C67.527 117.616 67.5487 116.362 67.5452 115.355C67.5134 106.243 67.4919 97.2548 67.5282 88.0812C67.541 84.8443 67.5339 81.2504 67.5809 77.9045C67.5853 77.5893 67.6314 78.0669 67.6217 77.0594C67.6165 76.5313 67.5768 75.7456 67.5749 74.5148C67.5593 70.8349 67.6305 66.7836 67.5765 63.2044C65.3819 60.5357 62.3359 57.7035 59.4016 55.4572C54.9315 52.0626 49.6734 49.3144 44.2045 48.9192C38.7897 48.3861 33.4055 51.5255 32.305 56.3444C32.1884 56.8051 32.1224 56.5323 32.1513 56.2421C32.232 55.9853 32.3195 55.7586 32.4261 55.4986C32.4045 55.1263 32.3589 55.1651 32.9245 53.9911C33.3034 53.2814 32.9478 53.8204 33.1424 53.4355C33.3294 52.89 35.0697 50.8909 34.7972 51.3395C34.9036 51.2154 35.0065 51.1009 35.1153 50.9856C36.553 49.726 38.3028 48.9317 40.1331 48.5328C40.4563 48.4641 40.456 48.4337 40.7872 48.3768C41.6876 48.2311 42.3941 48.2087 43.3199 48.2183C43.8322 48.2297 43.8896 48.1939 44.5515 48.2504C45.2222 48.3193 45.1756 48.3531 46.0841 48.4485C45.5232 48.2792 48.0615 48.8088 48.957 49.1234C49.075 49.1551 50.1614 49.4611 50.6895 49.6791C51.2315 49.8946 52.0433 50.272 52.8718 50.652C53.267 50.8335 53.5096 50.9096 53.9161 51.1197C54.2007 51.2673 54.5343 51.4895 54.8896 51.6927C55.236 51.8877 56.0131 52.3191 56.1545 52.4081C56.6617 52.7213 56.0942 52.3976 56.4326 52.611C58.0531 53.6329 59.8482 54.9734 61.3345 56.1858C61.5125 56.3306 61.2874 56.1048 61.3115 56.1235C62.5371 57.0992 61.8709 56.5966 62.1785 56.8932C62.4937 57.1758 64.744 59.2334 64.7769 59.2111C64.7966 59.3206 65.3102 59.7521 65.4364 59.8758C65.9259 60.3535 65.794 60.3015 66.2722 60.7655C66.4422 60.9312 66.148 60.5735 66.325 60.7571C66.7626 61.2121 67.1137 61.6693 67.6977 62.3131C67.8288 62.4782 67.9456 62.4557 68.1552 62.8777C68.4038 63.4026 68.1963 64.8799 68.2874 64.178C68.2407 65.1212 68.2662 65.2786 68.2647 66.3804C68.2643 66.6585 68.2199 67.0163 68.2335 67.5974C68.2382 67.7937 68.2809 67.7883 68.2813 68.0819C68.2821 68.7514 68.2377 69.4198 68.2359 70.2708C68.2323 71.8854 68.2633 73.6206 68.2522 75.2879C68.2491 75.7515 68.2061 75.6377 68.2052 76.3043C68.2052 76.4052 68.2424 77.1892 68.2389 77.661C68.2368 77.9465 68.2107 79.3616 68.2086 79.6622C68.2052 80.1449 68.2468 80.2295 68.2387 80.4913C68.2152 81.2474 68.154 80.6339 68.2378 81.5497C68.1914 81.853 68.196 82.3865 68.1389 82.5563C68.2015 82.8653 68.1414 83.2635 68.1624 83.8703C68.1834 84.4744 68.3048 84.9624 68.1743 85.1067C68.1902 85.3927 68.2173 86.5906 68.2193 86.7894C68.225 87.383 68.1889 87.0673 68.1938 87.5177C68.1946 87.5969 68.2193 87.5147 68.2169 88.0221C68.2153 88.3528 68.2141 90.7921 68.2107 90.9409C68.1723 92.6062 68.1861 90.0336 68.1594 89.676C68.1664 89.6125 68.1734 89.5496 68.1803 89.4818C68.1919 88.7448 68.1362 89.1647 68.1233 89.4985C68.1104 89.8331 68.1353 90.4496 68.117 90.7295C68.1078 90.8686 68.0409 90.7797 68.049 90.3647C68.0284 90.8089 68.0066 90.2023 67.9873 90.378C67.9661 90.5718 67.9598 92.5777 67.9966 92.5897C67.9979 92.2128 67.9965 91.7502 67.998 91.3706C68.062 90.8749 68.2809 92.3802 68.1937 93.7602C68.1306 94.7602 68.0801 93.1108 68.1335 95.4801C68.136 95.1159 68.142 94.8077 68.1446 94.4764C68.1926 94.4411 68.1399 94.9785 68.1552 95.2553C68.1627 95.3883 68.1966 94.5686 68.208 95.2803C68.1394 95.8923 68.2086 96.3626 68.2096 97.3901C68.1973 97.1045 68.185 96.8188 68.1727 96.5335C68.1232 98.2685 68.1062 94.2385 68.0788 97.6125C68.0765 97.2067 68.077 96.8022 68.0736 96.3944C68.0484 96.5921 67.9744 96.2757 67.9588 96.4527C67.9179 96.9169 67.9427 97.6045 67.9392 98.1699C67.9377 98.4176 67.9177 98.2639 67.9176 98.2847C67.9154 98.6241 67.9447 98.5491 67.9466 98.8473C67.949 99.2241 67.9206 100.303 67.9239 100.479C67.9323 100.934 67.9899 100.177 67.9943 100.221C68.0223 100.51 67.9991 101.104 68.0357 101.072C68.0104 99.6453 68.0421 95.5487 68.1032 99.2589C68.1622 98.233 68.2438 98.5348 68.2504 100C68.2559 101.217 68.2231 100.432 68.1873 101.067C68.1828 101.146 68.1658 102.776 68.1912 102.861C68.1327 102.796 68.081 103.323 68.0206 102.969C68.0117 102.92 68.0151 102.247 67.9666 102.481C67.9423 102.599 67.8893 102.934 67.8582 102.88C67.8798 103.017 67.9041 103.159 67.9266 103.298C67.933 104.297 67.9098 104.449 67.8696 104.991C67.8864 104.966 67.957 104.462 67.9356 105.227C67.9343 105.266 67.909 105.3 67.8964 105.69C67.8713 106.482 67.8635 106.65 67.789 106.04C67.8316 107.674 67.7487 108.026 67.773 109.701C67.8687 109.364 67.845 108.786 67.8264 107.243C67.8492 107.177 67.8717 107.146 67.8946 107.077C67.8432 109.123 67.8484 108.113 67.8947 109.267C67.906 109.551 67.8939 111.062 67.9583 110.559C67.9735 110.446 67.9717 109.498 67.9956 109.607C68.0001 109.629 68.0117 110.771 68.0056 110.869C67.9294 112.127 67.8763 109.884 67.9041 113.35C67.9049 113.446 67.9327 113.48 67.9366 113.668C67.9438 114.022 67.9116 114.03 67.919 114.344C67.9265 114.654 67.9699 115.085 67.9297 115.56C67.8567 116.423 67.8148 114.4 67.8535 113.478C67.7581 113.119 67.7558 119.597 67.7638 119.998C67.7992 121.769 67.779 118.825 67.8054 118.688C67.8166 118.627 67.9586 118.659 67.8665 117.912C67.8392 117.691 67.8032 118.615 67.7882 118.063C67.7732 117.513 67.815 117.732 67.8179 117.692C67.8279 117.555 67.8124 116.977 67.8184 116.903C67.9084 115.76 68.0443 115.858 67.8434 117.383C67.8888 118.051 67.9612 116.52 67.9919 117.348C68.0293 118.362 67.9645 119.099 67.9616 119.224C67.9269 120.744 68.0216 118.981 67.9912 120.857C67.9743 121.878 67.9285 119.326 67.9344 121.663C67.9395 123.645 67.9725 122.578 68.0472 122.721C68.0647 122.755 68.086 123.852 68.0785 122.359C68.059 122.317 68.0334 122.238 68.0154 122.144C68.0297 121.78 68.1272 121.182 68.1307 120.993C68.147 120.054 68.0964 120.091 68.156 119.539C68.0908 119.934 68.1301 119.29 68.1164 119.052C68.0657 118.164 68.0468 119.336 68.1121 117.315C68.0815 117.577 68.0515 117.815 68.0211 118.072C68.02 117.828 68.019 117.585 68.0179 117.344C68.0853 116.983 68.0767 115.719 68.1444 116.865C68.1637 115.477 68.1491 114.898 68.0967 114.599C68.0867 114.54 68.0827 114.338 68.0818 114.086C68.067 114.133 68.0215 114.194 68.016 114.154C67.9669 113.801 68.0517 113.261 68.084 113.445C68.0856 113.272 68.0874 113.136 68.0882 113.088C68.0932 112.783 68.1225 113.381 68.1325 113.134C68.1357 113.05 68.1294 112.2 68.1413 112.181C68.2175 112.08 68.1625 113.49 68.2068 110.644C68.1374 110.574 68.1527 111.896 68.0789 111.556C67.9997 111.189 68.106 110.451 68.0088 110.292C68.0248 110.232 68.0381 110.204 68.0563 110.151C68.0139 108.99 68.0948 108.981 68.1126 108.631C68.1475 107.945 68.142 104.815 68.0721 107.625C68.0651 107.211 68.0618 106.795 68.0556 106.386C68.2007 106.294 68.143 106.531 68.1649 104.565C68.1698 104.127 68.2336 103.985 68.1577 103.559C68.2321 103.616 68.187 102.331 68.196 102.21C68.2546 101.44 68.3366 104.297 68.2052 104.67C68.2564 105.149 68.1888 105.147 68.1978 105.686C68.2108 106.469 68.224 106.574 68.1742 107.497C68.2446 108.408 68.2048 103.932 68.2984 106.649C68.2633 109.434 68.9917 124.813 68.0695 129.085C61.4651 131.883 58.2449 132.598 52.1287 133.098C51.5303 133.198 47.0012 133.038 47.9481 132.989C48.0837 132.994 50.0235 133.053 48.3646 132.909C48.6998 132.967 47.7227 132.931 47.6395 132.925C45.7578 132.831 46.8266 133.03 43.8965 132.547ZM35.6828 129.545C39.2839 130.786 36.6485 129.835 37.4401 129.971C36.9739 129.819 36.5166 129.665 36.0519 129.504C36.1678 129.553 36.2895 129.602 36.4089 129.651C36.4094 129.651 36.4099 129.652 36.4104 129.652C36.1651 129.616 35.9241 129.581 35.6828 129.545ZM32.4813 68.8062C32.4995 68.9554 32.5177 69.1028 32.5358 69.2645C32.5377 69.7706 32.5396 70.2748 32.5415 70.7809C32.5297 70.7206 32.5179 70.6625 32.5061 70.6022C32.4984 70.0036 32.4907 69.4068 32.4813 68.8062ZM67.8357 112.943C67.8806 112.232 67.8005 112.295 67.837 111.339C67.7779 111.456 67.72 111.586 67.6615 111.709C67.6702 112.444 67.6927 112.595 67.6783 113.384C67.6973 113.292 67.7164 113.198 67.7355 113.109C67.7314 112.978 67.7268 112.839 67.7232 112.713C67.7764 112.512 67.7843 113.765 67.8359 112.945C67.8358 112.944 67.8358 112.943 67.8357 112.943ZM67.8116 105.603C67.8192 105.219 67.848 103.691 67.8235 103.484C67.7404 102.777 67.7935 107.086 67.7194 103.91C67.7077 103.925 67.6963 103.91 67.6848 103.91C67.6807 104.492 67.6773 105.065 67.6741 105.649C67.72 105.617 67.7654 105.638 67.8116 105.603ZM49.1096 132.392C49.6972 132.448 52.4967 132.329 51.5825 132.305C51.3148 132.304 50.0671 132.397 49.591 132.378C49.2834 132.368 49.6293 132.338 49.0226 132.332C49.0486 132.351 49.0645 132.372 49.1112 132.392C49.1107 132.392 49.1101 132.392 49.1096 132.392ZM47.9922 132.574C48.6029 132.609 49.2233 132.626 49.8397 132.627C49.3906 132.576 48.5068 132.566 48.4591 132.495C48.6265 132.5 48.7938 132.503 48.9618 132.504C49.0898 132.524 49.2158 132.543 49.3419 132.561C49.8699 132.537 49.5512 132.521 50.5323 132.531C49.9382 132.428 49.8333 132.404 48.1531 132.409C48.4724 132.373 48.186 132.19 47.2539 132.233C47.079 132.242 47.799 132.32 47.8078 132.323C47.9161 132.378 47.5105 132.376 47.627 132.429C47.6795 132.454 48.1233 132.486 48.1878 132.517C48.2177 132.532 47.7924 132.542 47.9922 132.574ZM46.8007 132.233C46.9903 132.225 46.3606 132.094 45.8048 132.032C44.9397 131.934 46.2913 132.189 46.8007 132.233ZM32.4812 68.8028C32.4813 68.8039 32.4813 68.8051 32.4813 68.8062C32.4813 68.8056 32.4812 68.8051 32.4811 68.8045C32.4812 68.8039 32.4812 68.8034 32.4812 68.8028ZM67.7792 107.589C67.7553 107.134 67.7587 106.468 67.7207 106.517C67.7282 106.297 67.7355 106.07 67.7429 105.849C67.7315 105.851 67.7201 105.855 67.7088 105.857C67.7017 106.529 67.6946 107.179 67.6874 107.848C67.718 107.765 67.7486 107.687 67.7792 107.589ZM67.8051 100.354C67.8088 99.5192 67.7572 100.219 67.7322 100.036C67.7072 99.8526 67.7274 99.1112 67.6916 99.1979C67.6903 99.6887 67.689 100.2 67.6877 100.699C67.7267 100.567 67.7663 100.476 67.8051 100.353C67.8051 100.353 67.8051 100.354 67.8051 100.354ZM33.0819 115.786C33.0785 116.353 33.0359 116.122 33.0974 117.24C33.0973 117.239 33.0973 117.238 33.0973 117.237C33.1151 116.173 33.1252 114.802 33.0778 113.628C33.0461 114.347 33.0873 114.895 33.0819 115.786ZM67.7193 114.923C67.7506 115.16 67.7767 114.058 67.7477 113.805C67.7007 113.404 67.6719 114.566 67.7193 114.923ZM32.4924 92.9105C32.3844 92.0501 32.2987 93.6843 32.3688 95.3934C32.3749 95.5413 32.3904 94.437 32.4136 94.7638C32.4159 94.7968 32.4219 95.4028 32.4373 95.5525C32.4528 95.7023 32.4818 95.5444 32.4982 95.7899C32.5269 96.2209 32.498 97.196 32.5323 97.5184C32.5369 97.5608 32.5703 96.9559 32.5714 96.9179C32.5881 96.297 32.5255 95.6997 32.5238 95.6038C32.5152 95.1102 32.5589 95.1842 32.5672 95.0591C32.5829 94.8235 32.5583 94.4093 32.5593 94.3802C32.5865 93.6305 32.5992 95.3424 32.6178 95.5733C32.6678 96.1954 32.6985 95.6184 32.7424 97.1114C32.7465 97.2531 32.7672 98.9506 32.7857 96.8108C32.9428 101.01 32.8136 94.6996 32.7823 94.0147C32.7678 93.699 32.7336 94.1778 32.7127 93.9865C32.6649 93.5496 32.6473 92.8042 32.5892 92.8717C32.4671 93.0172 32.5618 93.9952 32.5501 94.6702C32.5222 94.5998 32.4956 94.5731 32.4674 94.4422C32.5056 94.6438 32.5005 92.9729 32.4927 92.9105C32.4926 92.9105 32.4925 92.9105 32.4924 92.9105ZM32.7795 103.542C32.755 104.486 32.8324 104.418 32.7994 105.283C32.8802 106.044 32.8549 104.54 32.8565 104.365C32.8633 103.565 32.94 103.583 32.9053 102.765C32.8639 103.047 32.8213 103.276 32.7795 103.542ZM32.6997 95.3348C32.7479 95.9652 32.7318 94.8361 32.7388 94.7901C32.8124 94.2904 32.843 97.6718 32.6997 95.3348ZM52.7671 132.482C53.0862 132.46 52.8809 132.438 53.1611 132.404C53.443 132.372 54.4039 132.3 54.3779 132.278C54.3488 132.261 52.5877 132.387 54.3483 132.182C54.2869 132.176 54.3059 132.164 54.2756 132.155C53.7907 132.211 53.3049 132.258 52.8196 132.294C53.088 132.312 53.366 132.328 53.6242 132.34C53.3557 132.397 53.1977 132.37 53.1834 132.372C53.1834 132.372 53.1834 132.372 53.1834 132.372C52.6748 132.419 52.0518 132.524 52.7671 132.482ZM33.1162 123.706C33.0198 123.612 33.1363 124.366 33.1524 124.676C33.1683 124.986 33.139 125.413 33.1777 125.253C33.1991 124.75 33.127 123.716 33.1161 123.706C33.1161 123.706 33.1162 123.706 33.1162 123.706ZM32.8498 108.667C32.8836 109.458 32.9066 109.332 32.8917 110.3C32.9141 110.262 32.9371 110.224 32.9592 110.186C32.9492 109.418 32.8832 109.473 32.8979 108.583C32.9003 108.437 32.9579 108.749 32.9317 108.091C32.9059 108.283 32.877 108.477 32.8498 108.667ZM32.9885 112.586C32.9726 111.678 32.7768 110.96 32.8835 112.631C32.8995 112.879 33.0005 113.268 32.9885 112.586ZM44.4419 132.067C45.9643 132.318 44.239 132.015 43.8502 131.907C47.3912 132.477 43.4404 131.864 43.1203 131.676C42.6849 131.615 41.8718 131.498 42.758 131.708C43.1306 131.794 42.9995 131.737 43.022 131.742C43.7047 131.887 43.6155 131.919 44.4419 132.067ZM32.7525 101.902C32.7547 101.96 32.7856 101.869 32.7945 102.054C32.8034 102.24 32.7867 102.66 32.807 102.701C32.8274 102.742 32.8312 101.9 32.8132 101.641C32.7951 101.383 32.733 101.375 32.7525 101.902ZM32.7545 107.831C32.7881 108.603 32.8891 107.339 32.8863 107.171C32.8599 105.697 32.7925 107.874 32.7545 107.831ZM40.8929 131.513C42.7151 131.897 41.4157 131.487 40.3044 131.124C40.1538 131.097 39.9987 131.068 39.8487 131.039C40.5416 131.145 41.7376 131.41 39.1021 130.736C40.5286 131.165 39.3191 130.84 39.3117 130.842C39.1094 130.94 41.2681 131.455 40.8913 131.513C40.8918 131.513 40.8924 131.513 40.8929 131.513ZM32.752 99.3917C32.7405 98.5813 32.6872 96.4748 32.6388 97.4586C32.6766 98.1037 32.7143 98.7466 32.752 99.3917ZM68.1172 125.828C68.1527 125.176 68.1522 124.54 68.1499 123.735C68.0984 124.465 68.0926 123.984 68.08 123.739C68.0611 123.366 68.0625 124.269 68.059 124.273C68.0102 124.258 68.0027 123.671 68.0036 125.001C67.9867 124.671 67.9696 124.348 67.9527 124.022C67.9503 125.023 67.9184 125.291 67.8793 125.912C67.9746 125.302 67.9149 126.101 67.9621 126.843C67.9858 127.213 68.0991 126.158 68.1172 125.826C68.1172 125.827 68.1172 125.827 68.1172 125.828ZM42.7666 131.97C42.9592 131.994 43.1362 132.006 43.3213 132.023C43.5185 132.06 43.7192 132.097 43.9194 132.131C43.9413 132.151 43.9591 132.17 43.9853 132.19C44.2475 132.241 44.1486 132.202 44.227 132.214C44.227 132.214 44.2269 132.214 44.2269 132.214C45.3515 132.378 45.8145 132.44 46.6937 132.585C46.6987 132.539 46.7036 132.493 46.7085 132.447C46.5077 132.43 46.3098 132.411 46.1106 132.391C46.0021 132.403 45.8929 132.414 45.7837 132.424C45.5538 132.38 45.3318 132.334 45.1047 132.286C44.9204 132.267 44.6964 132.241 44.5372 132.223C43.6519 131.944 45.7031 132.368 45.7318 132.307C45.7466 132.285 43.6652 131.951 43.3661 131.903C43.3224 131.897 43.7506 132.083 43.0044 131.881C42.888 131.847 42.8858 131.64 42.0417 131.622C41.922 131.618 42.2901 131.839 42.7666 131.97ZM50.4046 132.864C49.2119 132.757 53.6131 132.767 51.7117 132.732C52.2492 132.646 52.1475 132.653 51.6029 132.621C51.5551 132.619 51.9289 132.586 51.897 132.585C51.3892 132.58 50.778 132.605 50.7733 132.55C50.6364 132.555 50.5076 132.559 50.3706 132.562C50.9417 132.611 50.034 132.652 49.6803 132.686C49.5193 132.702 49.8884 132.715 49.753 132.73C49.7025 132.736 49.1877 132.71 49.1659 132.727C49.1207 132.766 49.4423 132.835 49.9938 132.871C49.9938 132.871 49.9938 132.871 49.9938 132.871C50.1321 132.87 50.2665 132.867 50.4046 132.864ZM32.7818 121.206C32.853 121.003 32.8631 120.193 32.9205 121.748C32.9341 121.671 32.9474 121.592 32.9609 121.514C32.9561 121.252 32.9513 120.998 32.9465 120.731C32.7177 119.935 32.9436 118.472 32.8019 119.409C32.7865 119.511 32.8138 120.133 32.7598 119.519C32.7597 119.52 32.7597 119.521 32.7597 119.522C32.7854 120.379 32.8131 120.487 32.7818 121.206ZM32.9119 126.948C33.0945 128.924 32.9613 124.212 32.9308 125C32.928 125.071 32.9892 127.101 32.9119 126.948ZM32.5595 111.072C32.5689 111.96 32.6537 112.017 32.6827 111.927C32.7118 111.837 32.6727 111.224 32.6764 111.144C32.6886 110.886 32.7065 111.433 32.7235 111.098C32.729 110.987 32.7378 109.441 32.7333 109.37C32.7078 108.978 32.6464 109.553 32.6369 109.441C32.6059 109.075 32.6351 108.577 32.5969 108.471C32.5151 108.243 32.6103 109.17 32.6138 109.326C32.624 109.799 32.5792 109.758 32.5752 110.112C32.5712 110.466 32.5895 110.697 32.5906 111.01C32.591 111.113 32.5591 111.027 32.5595 111.072ZM32.7769 114.003C32.7006 113.078 32.6624 115.334 32.6809 115.602C32.7359 116.388 32.8132 114.446 32.7769 114.003ZM47.4346 132.538C46.5867 132.511 48.552 132.717 49.1207 132.706C49.0158 132.688 47.7254 132.553 47.4346 132.538ZM40.3893 131.382C41.1509 131.566 40.1773 131.208 39.5487 131.03C39.1593 130.99 39.5134 131.078 39.9226 131.194C40.3306 131.309 39.803 131.236 40.3893 131.382ZM32.5038 101.45C32.5051 101.618 32.5985 104.326 32.6006 102.769C32.6007 102.65 32.5649 100.754 32.5524 100.611C32.5273 100.322 32.501 101.017 32.5038 101.45ZM36.7747 130.402C37.1801 130.474 37.575 130.601 37.2307 130.417C37.2302 130.417 37.2296 130.417 37.2291 130.417C38.2374 130.72 38.2312 130.859 38.4522 130.924C39.2143 131.142 38.5254 130.831 39.0081 130.939C37.8952 130.64 38.2365 130.671 37.4023 130.401C37.2107 130.339 36.4627 130.134 36.3432 130.119C36.2259 130.106 36.5832 130.307 36.7747 130.402ZM32.4368 97.6238C32.4267 98.5384 32.5338 99.3741 32.5316 98.1058C32.5306 97.4871 32.443 97.0655 32.4368 97.6238ZM68.1481 104.286C68.1231 104.426 68.0981 104.573 68.0733 104.721C68.0672 104.384 68.061 104.042 68.0547 103.706C68.0627 103.972 68.0705 104.24 68.0784 104.511C68.0871 103.874 68.1326 103.584 68.1481 104.285C68.1481 104.285 68.1481 104.286 68.1481 104.286ZM68.1646 81.7496C68.1887 81.4623 68.114 80.9075 68.1081 80.9782C68.0647 81.5002 68.1311 82.1476 68.1646 81.7496ZM48.6729 132.849C49.733 132.903 49.0068 132.758 48.3617 132.713C48.7556 132.758 48.0725 132.812 48.6729 132.849ZM68.1594 89.676C68.1489 89.7705 68.1385 89.8657 68.128 89.9713C68.1425 89.6389 68.1523 89.5808 68.1594 89.676ZM32.4024 101.882C32.3952 102.043 32.4038 103.232 32.4175 103.392C32.4463 103.725 32.5008 102.797 32.4727 102.252C32.4696 102.191 32.4095 101.722 32.4024 101.884C32.4024 101.884 32.4024 101.883 32.4024 101.882ZM68.1945 102.864C68.1934 102.865 68.1923 102.864 68.1912 102.861C68.1923 102.862 68.1934 102.862 68.1945 102.864ZM64.7743 59.2008C64.7776 59.2066 64.7787 59.2103 64.7769 59.2111C64.7764 59.2081 64.7741 59.2033 64.7743 59.2008ZM32.4138 110.269C32.3034 110.666 32.3774 111.577 32.4249 110.856C32.4273 110.816 32.4149 110.365 32.4138 110.269Z" fill="#900639"/>
<path d="M44.847 1.51525C45.06 1.47618 45.3393 1.51796 45.5515 1.57531C45.618 1.5931 45.5843 1.67261 45.6302 1.68847C45.72 1.71939 45.8037 1.68039 45.8924 1.71722C45.9218 1.72981 45.8852 1.85576 45.9161 1.86608C46.085 1.92175 46.2449 1.88966 46.4161 1.91644C47.2593 2.04853 48.0881 2.09581 48.9416 2.15319C49.223 2.17201 49.5651 2.28631 49.8558 2.23632C49.8897 2.23037 49.8695 2.11982 49.876 2.11071C49.9772 1.97122 49.9435 2.1944 50.0097 2.22405C50.2721 2.34113 50.5639 2.35131 50.8164 2.30865C50.9238 2.29017 50.8161 2.07059 50.9243 2.19384C50.9318 2.20217 50.9045 2.31956 50.934 2.33209C51.0008 2.36025 51.1276 2.33926 51.1794 2.34857C51.2792 2.36709 51.2957 2.3659 51.3901 2.36724C51.5191 2.37009 51.6726 2.42845 51.8111 2.40185C51.8406 2.39582 51.8015 2.27548 51.8486 2.255C51.8958 2.23455 52.0206 2.24476 52.0627 2.27313C52.1048 2.30151 52.0869 2.3961 52.0943 2.41778C52.1556 2.60077 52.2999 2.34733 52.3185 2.34106C52.6572 2.23426 52.9476 2.37864 53.2655 2.37823C53.5068 2.37761 53.7649 2.32994 53.9945 2.33648C54.2681 2.34473 54.4999 2.40995 54.7657 2.39874C54.7938 2.39769 54.7609 2.25619 54.7951 2.25463C55.1591 2.23817 55.5205 2.25359 55.8829 2.34911C55.9193 2.35882 55.8724 2.48305 55.9088 2.50018C56.1485 2.60856 56.4026 2.81997 56.741 2.3354C56.9878 2.39844 57.2715 2.55993 57.3698 2.77968C57.4297 2.91969 57.2451 2.93733 57.3951 2.99798C57.4287 3.01337 57.4795 2.89601 57.5262 2.92917C57.7341 3.08051 57.7985 3.3159 57.9206 3.41123C57.9469 3.4339 58.0367 3.37648 58.0579 3.37576C58.2312 3.37273 58.0638 3.6096 58.059 3.64227C58.0297 3.89704 58.1431 4.01407 58.2173 4.20374C58.2345 4.24844 58.3454 4.14207 58.3669 4.18391C58.4756 4.3996 58.5483 4.65246 58.5461 4.90727C58.5451 4.96365 58.4152 4.94403 58.4085 4.97187C58.3792 5.09268 58.6088 5.0694 58.5807 5.19025C58.5749 5.2153 58.4701 5.22021 58.4596 5.22638C58.294 5.31978 58.5527 5.33528 58.5608 5.35296C58.6661 5.56404 58.4096 5.72214 58.4443 5.9225C58.4484 5.94743 58.5815 5.8932 58.585 5.96495C58.6092 6.44728 58.4423 6.9468 58.1768 7.31142C58.136 7.36788 58.0632 7.28511 58.0502 7.28453C57.849 7.27243 58.0658 7.41267 58.0652 7.43767C58.0571 7.62552 57.7944 7.66861 58.0067 7.91523C57.798 8.50351 56.4146 9.24188 55.8844 8.83723C55.8759 8.83407 55.8912 8.7084 55.8741 8.70264C55.6685 8.63208 55.708 8.8274 55.5719 9.06629C55.5376 9.12628 55.4334 8.83786 55.4241 8.81672C55.3905 8.73881 55.4254 8.55184 55.4141 8.53675C55.321 8.41828 55.3362 9.03661 55.2105 9.03681C55.2066 9.03578 55.2231 8.92197 55.2126 8.91065C55.1798 8.87512 55.1473 8.92035 55.1153 8.88117C55.0419 8.79052 55.0157 8.49006 54.9037 8.66493C54.8895 8.68762 54.9111 9.03837 54.799 9.0218C54.7542 9.01489 54.5563 9.02091 54.5008 8.99818C54.4454 8.97547 54.4834 8.86245 54.4795 8.85755C54.3302 8.70809 54.3868 8.64615 54.312 8.42487C54.2372 8.20444 54.2579 8.7302 54.2274 8.78889C54.1969 8.8474 54.0874 8.72409 54.0605 8.68122C54.0336 8.63833 54.0672 8.56651 54.0433 8.54224C53.8847 8.38368 53.9737 8.80322 53.9215 8.88667C53.7983 9.08425 53.7024 8.69434 53.5896 8.65614C53.5591 8.64582 53.584 8.73462 53.5569 8.74293C53.4493 8.77464 53.3846 8.65298 53.2622 8.76453C53.2422 8.78271 53.1432 9.01714 53.0792 8.8451C53.0701 8.82029 53.0959 8.72313 53.05 8.70136C52.9815 8.6687 52.8581 8.64746 52.7845 8.67994C52.7301 8.70397 52.7925 8.86407 52.724 8.81434C52.6936 8.79213 52.75 8.69847 52.6928 8.66456C52.636 8.63066 52.4907 8.63477 52.4354 8.63801C52.3803 8.64131 52.4105 8.76276 52.406 8.77094C52.379 8.81781 52.2731 8.87637 52.2637 8.87623C51.7916 8.89105 51.3563 8.68634 50.8966 8.7541C50.8606 8.75924 50.8846 8.88731 50.8791 8.88941C50.7556 8.94307 50.853 8.60257 50.7667 8.4886C50.7792 8.74848 50.7282 8.70143 50.6413 8.72993C50.5993 8.74387 50.6222 8.8445 50.6184 8.85481C50.5562 9.00765 50.5129 8.81023 50.5018 8.76984C50.4606 8.62128 50.4158 8.79682 50.3878 8.69752C50.3598 8.59896 50.4242 8.45285 50.3408 8.45472C50.3174 8.54775 50.3793 8.79087 50.316 8.83027C50.077 8.97931 49.6309 8.78856 49.4388 8.76875C49.247 8.74895 49.1851 8.76611 49.0733 8.73249C48.8715 8.6717 48.9454 8.85208 48.8201 8.93464C48.6944 9.01719 48.7555 8.57338 48.7375 8.47798C48.7197 8.38261 48.7003 8.48078 48.6783 8.42835C48.6563 8.37594 48.7039 8.31107 48.6522 8.29139C48.6004 8.27173 48.4589 8.44139 48.4406 8.54115C48.4018 8.75249 48.4656 8.97431 48.3286 8.89637C48.3208 8.89174 48.3463 8.77505 48.3162 8.76325C48.0767 8.67341 47.8278 8.66785 47.5886 8.58839C47.5557 8.57728 47.5851 8.44746 47.566 8.43952C47.3666 8.35649 47.4379 8.57538 47.3286 8.81855C47.3531 8.49495 47.2927 8.29696 47.1414 8.29505C47.0504 8.29379 47.0661 8.43513 47.0072 8.53474C46.9896 8.56477 46.9252 8.46772 46.9135 8.53419C46.8751 8.75146 46.9357 8.99468 46.7797 8.89783C46.7728 8.89323 46.7946 8.7743 46.771 8.7671C46.6181 8.71995 46.5998 8.94722 46.4345 8.97474C46.305 8.99633 46.0746 8.85775 45.9271 8.83521C45.9302 8.47139 45.7909 8.5547 45.7344 8.80555C45.6387 8.79528 45.5353 8.80946 45.4428 8.77479C45.4109 8.76297 45.4318 8.65763 45.4278 8.64625C45.3663 8.4677 45.3246 8.71175 45.304 8.72132C45.08 8.81433 44.8976 8.62936 44.6839 8.81013C44.6763 8.81664 44.664 9.06936 44.6069 8.88483C44.6032 8.87211 44.6738 8.75713 44.5732 8.74824C44.4757 8.73797 44.2758 8.61297 44.0875 8.67641C44.0458 8.69525 43.8536 8.84604 43.8395 8.65846C43.8389 8.6337 43.8826 8.5747 43.8873 8.53172C43.9076 8.39726 43.7489 8.60005 43.8222 8.38751C43.8926 8.17103 43.976 8.03301 43.7646 8.02028C43.7585 8.01999 43.5863 8.13146 43.5594 8.09631C43.5178 8.0415 43.4812 7.93429 43.4347 7.88004C43.4121 7.85383 43.3298 7.95162 43.3242 7.94844C43.1137 7.80244 43.0964 7.59449 42.999 7.3538C42.9819 7.31082 42.7615 7.27869 42.8362 7.13177C42.9209 6.97452 43.5066 6.76977 43.2944 6.66764C43.2141 6.63452 42.435 6.80539 42.7701 6.51725C42.5827 6.2416 42.7598 5.94586 42.6545 5.63592C42.6497 5.62236 42.4394 5.5464 42.4485 5.51006C42.4622 5.45733 42.568 5.4494 42.5821 5.41542C42.6436 5.27479 42.6014 5.11538 42.6666 4.98078C42.6913 4.92993 42.7829 4.98549 42.8124 4.92843C42.8421 4.87209 42.7332 4.77323 42.8321 4.72077C42.908 4.68022 43.1906 4.75038 43.2586 4.69305C43.0129 4.55824 43.045 4.50878 43.0353 4.3769C43.0334 4.35132 42.9374 4.32244 42.9323 4.30772C42.9099 4.24576 42.9982 4.25539 42.9714 4.19358C42.9651 4.17863 42.8833 4.12879 42.8736 4.11361C42.7888 3.98105 43.0306 4.00166 43.0721 4.00664C43.2309 4.0229 43.1442 3.92835 43.2213 3.91379C43.2981 3.89989 43.3114 4.00597 43.3746 3.97278C43.5058 3.90376 43.5863 3.76281 43.6682 3.65815C43.7005 3.61598 43.5763 3.56926 43.5786 3.56145C43.6183 3.45339 43.7839 3.45416 43.6329 3.24006C44.1751 3.62354 43.6292 3.13693 43.8611 3.12245C43.8799 3.12218 44.064 3.37282 44.0655 3.42857C44.0689 3.48266 43.9643 3.4452 43.9861 3.52766C43.9906 3.54686 44.1873 3.76874 44.1906 3.79417C44.245 3.9519 43.8652 3.68349 43.8416 3.6724C43.5873 3.55238 43.7758 3.82752 43.778 3.86183C43.7857 4.02181 43.672 4.0711 43.672 4.19867C43.672 4.28128 43.9243 4.4524 43.8883 4.49067C43.7728 4.61344 43.3743 4.45057 43.616 4.77156C43.6684 4.83937 43.9761 4.9691 43.6922 4.94472C43.6746 4.94237 43.4216 4.90983 43.5364 5.02114C43.551 5.03492 43.6386 5.0768 43.6426 5.08723C43.6684 5.1557 43.5842 5.15416 43.5969 5.21865C43.61 5.28236 43.6395 5.35859 43.5905 5.39981C43.561 5.42469 43.3754 5.41227 43.3279 5.41704C43.1907 5.43107 43.3807 5.53295 43.2238 5.527C43.0652 5.52585 42.8498 5.40401 42.7313 5.48154C42.9779 5.53436 43.2306 5.5911 43.479 5.64225C43.443 5.78366 43.356 5.91967 43.3858 6.0665C43.3898 6.08425 43.5218 6.04855 43.5294 6.06538C43.5609 6.13284 43.4821 6.22292 43.5451 6.29516C43.595 6.35213 43.7548 6.36692 43.8162 6.41429C43.5715 6.5744 43.7145 6.6417 43.7377 6.73223C43.7463 6.7648 43.679 6.80243 43.6697 6.83554C43.6378 6.96115 43.8321 6.79008 43.8786 6.78861C44.0771 6.77994 43.602 7.10875 43.6955 7.21426C43.7005 7.22051 43.9993 7.10658 44.0213 7.10353C44.1651 7.08576 43.9438 7.17862 43.9541 7.22904C43.973 7.32043 43.9559 7.41613 44.0916 7.43684C44.132 7.44317 44.3234 7.37153 44.2539 7.51631C44.2449 7.5354 44.1665 7.60031 44.1665 7.60924C44.1689 7.76122 44.44 7.57974 44.4831 7.47014C44.5393 7.37503 44.3926 7.5428 44.3691 7.60316C44.2951 7.7502 44.3289 7.66116 44.3207 7.67487C44.2094 7.83155 44.2453 7.81615 44.2576 7.84001C44.1215 8.12283 44.1859 8.12971 44.2723 7.86357C44.2826 7.83495 44.2554 7.85498 44.2576 7.84001C44.4141 7.57244 44.3804 7.52087 44.3561 7.81014C44.3478 7.94472 44.3132 8.1018 44.3938 8.04932C44.4392 8.0243 44.4297 7.80791 44.4874 7.74922C44.6267 7.61502 44.8078 7.81627 44.9514 7.78456C45.0036 7.77305 44.9528 7.65495 44.9884 7.64302C45.083 7.61097 45.1664 7.69958 45.2613 7.65419C45.2699 7.64992 45.2489 7.52631 45.2785 7.52473C45.5023 7.51037 45.6973 7.58955 45.931 7.59175C46.044 7.59275 46.2459 7.52457 46.3629 7.53828C46.5657 7.56131 46.8151 7.74107 46.9884 7.6974C47.1014 7.66945 47.0766 7.5458 47.125 7.46156C47.2184 7.29826 47.3838 7.59077 47.406 7.63606C47.4067 7.63756 47.3095 7.66671 47.3614 7.73017C47.3915 7.86242 47.4049 7.63663 47.406 7.63606C47.4207 7.66532 47.6149 7.69339 47.6534 7.66975C47.6744 7.65683 47.6627 7.53969 47.6736 7.53517C47.9333 7.43033 48.1934 7.40056 48.4568 7.45533C48.4615 7.4577 48.4545 7.58873 48.4654 7.59266C48.6179 7.65092 48.7155 7.49063 48.8413 7.39546C48.967 7.30033 49.0667 7.33219 49.1412 7.55714C49.2361 7.52882 49.3722 7.62827 49.4505 7.68861C49.5288 7.74895 49.5398 7.49388 49.5467 7.48884C49.7616 7.32745 49.8859 7.47345 50.1089 7.49617C50.2149 7.50741 50.4252 7.47041 50.54 7.44252C50.6308 7.42005 50.6854 7.47982 50.769 7.4416C50.7803 7.4365 50.7689 7.32293 50.7724 7.31856C50.8657 7.18268 50.8208 7.46031 50.8401 7.5099C50.9099 7.69022 50.9531 7.78625 51.0726 7.70143C51.1001 7.682 51.1804 7.28224 51.2306 7.25886C51.2959 7.2292 51.2713 7.37249 51.3397 7.33778C51.3455 7.33494 51.3443 7.24654 51.3865 7.25044C51.5824 7.26737 51.7961 7.31881 51.9997 7.30995C52.0275 7.30908 51.9918 7.16886 52.032 7.1653C52.2206 7.14868 52.4272 7.15386 52.6109 7.2195C52.6561 7.23609 52.6278 7.33427 52.6376 7.36342C52.6979 7.53979 52.7833 7.28352 52.7974 7.27864C53.1337 7.15549 53.3911 7.38741 53.7339 7.27699C53.7526 7.27051 53.8962 6.99578 53.9603 7.2314C53.9647 7.24707 54.0281 7.48813 54.0842 7.32332C54.0876 7.313 54.0481 7.1889 54.1171 7.20155C54.186 7.21417 54.297 7.1313 54.3917 7.26765C54.4218 7.31061 54.4927 7.55107 54.5822 7.35939C54.588 7.34601 54.7262 6.91258 54.7755 7.21162C54.7835 7.26085 54.7751 7.5773 54.8819 7.41505C54.9023 7.3836 54.8653 7.31301 54.919 7.26893C55.0014 7.201 55.1106 7.28576 55.2118 7.14479C55.2295 7.11983 55.3047 6.90504 55.365 7.06807C55.3744 7.0936 55.3565 7.19925 55.3883 7.21107C55.5398 7.26779 55.6983 7.19712 55.8521 7.27022C55.9066 7.2959 55.8787 7.46669 55.9355 7.51246C55.9923 7.55822 56.1067 7.60223 56.1661 7.52418C56.2255 7.4461 56.1606 7.17389 56.2496 7.15211C56.8653 7.05259 56.1934 7.22369 56.2201 7.39876C56.2235 7.40093 56.1343 7.35956 56.1703 7.29788C56.3164 7.05064 56.3983 6.68333 56.6544 6.57879C56.8628 6.48913 56.9146 6.71996 57.0201 6.62326C57.0712 6.57356 56.7867 6.41968 56.78 6.40653C56.7166 6.25957 56.8691 6.21157 56.8415 6.09894C56.8354 6.07655 56.7056 6.08045 56.7016 6.06278C56.6865 6.0038 56.7478 5.94865 56.7385 5.89286C56.734 5.86803 56.6359 5.87173 56.6435 5.85041C56.6602 5.7989 56.6993 5.75209 56.7855 5.68757C56.7933 5.68118 56.9182 5.70698 56.9183 5.66083C56.9183 5.58776 56.9922 5.47325 56.8807 5.40157C56.847 5.37998 56.6296 5.43175 56.7659 5.33911C56.7942 5.31974 57.0587 5.26627 56.8154 5.25724C56.7746 5.25336 56.4435 5.2382 56.6154 5.11831C56.6607 5.08656 56.8545 4.97383 56.8085 4.94923C56.8016 4.94639 56.6957 5.00685 56.6741 4.98215C56.6002 4.8961 56.5668 4.78235 56.4843 4.69128C56.462 4.6669 56.3679 4.76062 56.3383 4.72324C56.2568 4.62035 56.2165 4.46777 56.1885 4.33078C56.1781 4.27955 56.2851 4.26164 56.2934 4.25318C56.4264 4.11428 56.1925 4.19953 56.1703 4.18864C55.9997 4.05726 56.2115 4.19663 56.2041 4.21585C56.2082 4.23089 56.1214 4.31048 56.1165 4.32021C56.0769 4.42206 56.196 4.24589 56.2242 4.23917C56.3018 4.2169 56.3242 4.23715 56.3555 4.2622C56.3673 4.27128 56.315 4.39834 56.3306 4.40598C56.5512 4.45428 56.1401 4.4255 55.9231 4.35338C55.8775 4.339 55.9062 4.23414 55.8967 4.21019C55.8313 4.04264 55.7353 4.27118 55.7133 4.29296C55.6129 4.39236 55.5739 4.29964 55.4853 4.31694C55.0523 4.40311 54.5177 4.3417 54.1091 4.30376C53.5765 4.25493 53.1632 4.15518 52.6554 4.18108C52.6231 4.18259 52.6557 4.32209 52.6278 4.32518C52.2686 4.35881 51.9149 4.3043 51.555 4.34459C51.5254 4.34765 51.568 4.47989 51.5206 4.48924C51.4234 4.50936 51.3002 4.50217 51.2019 4.45995C51.1539 4.4396 51.2182 4.32613 51.17 4.30797C51.0576 4.26543 50.9371 4.25601 50.8216 4.27721C50.7725 4.28652 50.8466 4.42177 50.7828 4.42333C50.3477 4.43674 49.9205 4.46004 49.4809 4.2849C49.4508 4.27287 49.4243 3.998 49.3603 4.05071C49.3554 4.12699 49.3557 4.21673 49.3536 4.29827C48.7203 4.34219 48.0935 4.2469 47.4585 4.23217C47.4317 4.23158 47.478 4.37722 47.4261 4.37682C47.1261 4.37466 46.8348 4.41501 46.5279 4.27025C46.4974 4.25609 46.5131 3.99987 46.4233 4.03862C46.4075 4.04569 46.2724 4.07987 46.2374 4.13549C46.2327 4.14388 46.2573 4.26347 46.2138 4.26695C45.9607 4.28512 45.6955 4.25781 45.4429 4.18474C45.4021 4.17272 45.4455 4.04536 45.4165 4.03569C45.2105 3.96809 44.9864 4.0649 44.7896 3.94927C44.6578 3.87141 44.7066 3.65126 44.6366 3.43456C44.6267 3.40399 44.5451 3.39914 44.5408 3.27306C44.53 2.95602 44.5695 2.60886 44.5533 2.27093C44.5499 2.19814 44.4406 2.27654 44.5053 2.10064C44.5098 2.08887 44.5891 2.03049 44.6086 1.97082C44.6222 1.92956 44.5977 1.80134 44.6254 1.74853C44.6531 1.69577 44.6836 1.80325 44.7295 1.74121C44.7754 1.67839 44.7552 1.53252 44.847 1.51525ZM49.8032 7.95832C49.8757 8.08082 49.8864 7.63217 49.808 7.73951C49.8042 7.74523 49.7995 7.95231 49.8032 7.95832ZM43.0256 5.92692C42.8295 6.01062 43.125 6.042 43.2739 5.98421C43.4238 5.93469 43.0854 5.90548 43.0256 5.92692ZM43.0447 5.09458C42.862 5.13637 43.4579 5.36008 43.3697 5.22895C43.3648 5.22143 43.0553 5.09244 43.0447 5.09458ZM44.9613 3.37285C44.9603 3.3669 44.9016 3.36109 44.9002 3.36699C44.869 3.50948 44.9862 3.52099 44.9613 3.37285ZM43.3343 4.2043C43.2432 4.18694 43.2765 4.3218 43.3896 4.34256C43.4795 4.36055 43.447 4.22673 43.3343 4.2043ZM53.5866 8.43714C53.5877 8.44383 53.6298 8.44985 53.6289 8.41206C53.6261 8.29034 53.5676 8.32469 53.5866 8.43714ZM44.3719 3.16932C44.1959 3.16869 43.7748 2.7799 44.1407 2.71676C44.2012 2.71077 44.0656 2.91433 44.1506 2.93771C44.2824 2.98675 44.3315 2.64545 44.4824 2.8197C44.4987 2.85077 44.3746 3.16903 44.3716 3.17009C44.3717 3.16984 44.3718 3.16958 44.3719 3.16932ZM49.845 8.4972C49.8464 8.50313 49.9046 8.50876 49.906 8.50288C49.9375 8.36045 49.8203 8.34903 49.845 8.4972ZM56.0402 8.71455C56.0434 8.72719 56.1785 8.73901 56.1829 8.72736C56.2534 8.49445 55.9803 8.46986 56.0402 8.71455ZM45.9248 8.82551C45.8613 8.96879 45.7853 8.98567 45.7347 8.80573C45.7978 8.81528 45.8613 8.81669 45.9248 8.82551ZM30.9914 125.998C30.941 124.332 30.9679 122.148 31.014 120.489C31.0282 119.968 31.1095 120.231 31.1229 119.872C31.1491 119.17 31.1056 118.516 31.1377 117.822C31.1488 117.592 31.2767 117.877 31.2853 117.636C31.332 116.314 31.2914 115.064 31.3091 113.726C31.3963 107.132 31.3995 100.65 31.4115 93.9762C31.4154 91.7755 31.5115 89.0997 31.446 86.8271C31.4383 86.5618 31.3288 86.7208 31.3193 86.6704C31.1745 85.8795 31.3994 86.1413 31.4256 85.6241C31.5287 83.5714 31.5233 81.2897 31.4672 79.3153C31.4431 78.4754 31.2292 79.3192 31.3467 78.4724C31.3546 78.4136 31.4735 78.626 31.4844 78.3955C31.509 77.8729 31.4813 76.8818 31.4878 76.4768C31.5011 75.6963 31.499 75.5671 31.4953 74.829C31.4913 73.8199 31.5415 72.6193 31.5075 71.5369C31.4999 71.3058 31.3817 71.6126 31.3587 71.2442C31.3357 70.8755 31.3393 69.8995 31.3654 69.5704C31.3916 69.2411 31.4871 69.3806 31.5084 69.3222C31.6881 68.8418 31.427 67.7147 31.4197 67.5696C31.2949 64.9222 31.4239 62.6503 31.4065 60.1646C31.4643 58.4105 30.9817 55.7409 32.109 54.3139C33.1084 52.399 34.0567 50.8397 35.1485 49.0495C35.264 48.8611 35.0069 49.0069 35.1488 48.7758C36.6542 46.325 38.3366 44.0108 40.149 41.8142C40.3316 41.5931 40.2056 41.9601 40.3924 41.7459C41.4121 40.5344 43.9821 37.9676 43.3066 37.6207C43.3278 36.4432 43.3496 35.0137 43.4586 33.9602C43.5288 33.281 43.6641 33.9407 43.6064 33.1063C43.5935 32.9182 43.475 33.1629 43.4647 32.8807C43.4213 31.6925 43.4598 30.3944 43.3986 29.219C43.3858 28.98 43.2796 29.0452 43.2605 28.9775C43.1056 28.4082 43.3616 27.4605 43.3802 27.2539C43.519 25.6806 43.4644 24.5317 43.4678 23.0661C43.4686 22.7259 43.326 23.128 43.3216 22.8007C43.3012 21.1033 43.3135 19.3451 43.3768 17.683C43.3912 17.3134 43.5127 17.6533 43.5258 17.4767C43.5821 16.6977 43.3526 16.525 43.4022 15.778C43.4124 15.6204 43.5164 15.7092 43.5278 15.6804C43.7072 15.2308 43.4531 14.8401 43.4474 14.7245C43.3708 13.2615 43.6361 12.3265 43.5985 10.9132C43.5937 10.7441 43.4621 11.1254 43.4568 10.6501C43.2683 10.0749 44.0156 8.17385 45.1817 8.44307C45.9899 8.44299 46.8033 8.4474 47.6156 8.45623C49.2404 8.47388 50.8611 8.50924 52.4281 8.56188C52.9154 8.57807 52.5675 8.67695 52.5982 8.68914C53.098 8.87959 53.4213 8.62441 53.5802 8.6148C54.8523 8.67663 55.9044 8.19125 57.1664 8.98788C57.9742 15.0156 57.4836 19.7791 57.3372 25.143C57.3341 25.21 57.2084 25.09 57.2026 25.2236C57.1321 26.8316 57.3274 26.5228 57.5663 27.5868C57.6263 27.8548 57.3379 28.6702 57.3167 28.7423C57.2388 29.0051 57.0518 28.7325 57.0368 28.8206C56.9183 29.5488 57.5366 29.4302 57.5368 30.4127C57.5358 30.4434 57.422 30.3143 57.4107 30.3968C57.3751 30.653 57.4203 30.907 57.3812 31.1577C57.2905 31.7314 56.9901 31.9358 57.1649 32.8122C57.1876 32.9231 57.5384 32.7537 57.5218 33.6309C57.5149 33.9806 57.5209 35.5285 57.4982 35.9624C57.4755 36.3957 57.3624 36.0982 57.3576 36.1291C57.2081 37.2966 57.1461 36.8539 56.9249 37.4388C56.7051 38.0634 57.2669 37.8323 57.3693 37.9489C57.4359 38.0118 57.9977 38.7822 58.0884 38.9615C58.1947 39.1479 57.9681 38.9982 58.0728 39.1546C58.7688 40.1927 58.6275 39.3933 58.9579 39.6462C59.7408 40.2482 59.9324 41.0741 60.4664 41.7764C60.6111 41.9671 60.5551 41.7602 60.6975 41.9195C61.2573 42.5497 61.4826 43.0207 62.1592 43.7099C62.2704 43.8226 62.9306 44.2998 63.0904 44.8095C63.1126 44.8817 62.915 44.776 63.1098 45.0793C63.4015 45.5319 63.9389 46.336 64.2854 46.7997C64.5413 47.1416 64.4049 46.6444 64.6596 47.1223C64.7715 47.3346 64.4522 47.0153 64.6673 47.409C64.8837 47.8005 65.4858 48.7689 65.705 49.1405C65.9274 49.513 65.9121 49.2473 65.9369 49.2733C66.0851 49.4312 66.5465 50.1283 66.5811 50.1937C68.4454 53.3966 69.4805 56.8446 69.2239 60.4376C69.2271 60.7197 69.3565 60.5327 69.3583 60.5757C69.4054 61.5417 69.0701 60.778 68.9515 61.4518C69.2121 61.3561 69.1623 61.7539 69.1862 62.4343C69.1979 62.7622 69.2997 62.5843 69.3098 62.6143C69.4594 63.1014 69.2596 63.4385 69.2187 63.5254C69.0679 63.8463 69.2411 64.1978 69.1403 64.4162C69.0402 64.6345 68.8975 64.1297 68.895 64.782C68.9868 64.9656 69.2332 64.4829 69.2692 64.9785C69.4055 66.8481 69.191 70.335 69.161 71.8373C69.131 73.3367 69.1449 73.8211 69.1053 74.6947C69.0338 76.2725 69.2181 75.6954 69.294 76.6759C69.3699 77.6593 68.9293 77.1785 68.8329 77.3192C68.7366 77.4572 68.8338 77.6093 68.7802 77.7815C68.7266 77.9531 68.6643 77.5804 68.6418 77.9847C68.6194 78.3892 68.7815 79.4967 68.8803 79.6408C69.0896 79.9455 69.3148 79.4484 69.2296 80.5186C69.2245 80.5802 69.1092 80.3795 69.0958 80.6152C68.9932 82.4875 68.9744 84.4331 68.8822 86.3031C68.8694 86.5602 68.7411 86.3294 68.7322 86.479C68.6385 88.0375 68.8612 87.4817 69.0986 88.3379C68.7763 88.1438 68.5751 88.615 68.5651 89.7982C68.559 90.5095 68.7012 90.388 68.7977 90.8488C68.8268 90.987 68.7263 91.4897 68.7921 91.5813C69.0074 91.8835 69.2538 91.4111 69.1487 92.6304C69.1437 92.6839 69.0259 92.5127 69.0175 92.6976C68.9622 93.8927 69.1885 94.0373 69.2072 95.3298C69.2219 96.3428 69.0711 98.1433 69.0407 99.2965C68.677 99.2698 68.7529 100.36 69.0008 100.803C68.9854 101.552 68.9941 102.36 68.9545 103.084C68.941 103.332 68.8368 103.168 68.8252 103.199C68.6434 103.68 68.8852 104.007 68.8937 104.168C68.9747 105.92 68.7801 107.345 68.9495 109.018C68.9556 109.077 69.2076 109.175 69.0201 109.62C69.0072 109.649 68.8959 109.096 68.8817 109.883C68.8674 110.669 68.7219 112.15 68.8316 113.242C68.858 113.507 69.0586 114.176 68.8946 114.711C68.8724 114.783 68.8004 114.704 68.7594 114.807C68.6286 115.139 68.8828 115.323 68.6631 115.713C68.4435 116.104 68.2754 116.917 68.4176 118.019C68.4218 118.054 68.6224 118.316 68.6169 118.662C68.6078 119.215 68.5603 119.999 68.5577 120.576C68.5565 120.853 68.6835 120.677 68.6854 120.725C68.7433 122.583 68.6222 123.904 68.56 125.894C68.5484 126.258 68.7127 127.308 68.5723 128.013C68.3602 128.654 68.0565 128.57 67.755 129.171C67.4251 129.391 66.5968 130.507 65.2931 130.528C62.9476 131.432 60.6848 131.892 58.2603 132.562C58.1511 132.592 57.8475 132.879 57.5859 132.928C57.1937 133 56.9624 132.938 56.6856 132.981C55.5159 133.155 54.4569 133.383 53.3201 133.467C52.8877 133.497 53.0303 133.381 52.5179 133.409C52.004 133.434 51.667 133.591 50.9666 133.537C50.4378 133.494 49.9148 133.209 49.2265 133.151C49.1907 133.43 48.7117 133.414 47.856 133.424C47.691 133.426 47.8594 133.537 47.7808 133.543C47.459 133.568 47.1764 133.461 46.871 133.485C46.7967 133.49 46.7832 133.585 46.7215 133.595C46.1956 133.683 45.3862 133.354 45.2528 133.295C44.7306 133.073 44.4531 133.151 44.0489 133.023C43.6442 132.892 44.2764 132.936 43.7989 132.814C42.8107 132.56 41.532 132.285 40.5362 132.017C40.1351 131.91 40.3761 132.105 40.3179 132.093C39.4861 131.906 38.6974 131.53 38.1671 131.634C37.7881 130.827 37.6566 131.549 36.5307 131.038C36.4431 130.998 36.4284 130.665 36.7882 130.737C37.1523 130.809 37.6546 131.074 38.1622 131.156C38.2854 131.177 39.0302 131.096 39.1228 131.104C39.8674 131.177 39.8444 131.65 39.8751 131.685C40.2242 132.07 41.1342 131.979 41.3487 132.008C42.367 132.156 43.1839 132.395 44.0373 132.479C44.5893 132.531 44.6936 132.239 45.1176 132.315C46.5229 132.556 46.9905 133.033 48.3671 132.758C48.6605 132.695 48.3901 132.357 49.4087 132.656C49.4709 132.676 50.2385 132.932 50.6824 132.775C50.738 132.755 50.7353 132.658 50.8084 132.649C51.2981 132.59 51.6271 132.657 52.16 132.593C52.6932 132.528 53.328 132.424 53.937 132.392C54.3053 132.373 54.7962 132.494 54.9787 132.514C55.4962 132.573 55.9918 132.283 56.3262 132.382C56.6641 132.481 56.0952 132.822 56.9293 132.775C56.9143 132.521 56.9365 132.254 56.9378 131.996C58.7023 131.675 60.4449 131.318 62.1833 130.789C62.3985 130.723 62.139 130.66 62.3688 130.585C63.3406 130.269 64.2065 130.089 65.2004 129.708C65.9199 129.43 66.9183 128.915 67.4441 128.683C67.5511 129.15 67.5877 128.173 67.5967 127.158C67.608 126.832 67.6849 126.854 67.7117 126.622C67.8106 125.745 67.5528 126.154 67.5143 125.914C67.3501 124.881 67.9278 124.797 67.9219 123.58C67.9217 123.516 67.6194 122.726 67.601 122.618C67.4808 121.928 67.7089 122.504 67.7345 122.073C67.7814 121.286 67.8586 120.739 67.7748 119.815C67.7499 119.545 67.5626 118.897 67.7145 118.375C67.7344 118.306 67.8358 118.345 67.8421 118.29C67.9482 117.288 67.6289 117.259 67.5245 116.685C67.4202 116.111 67.6468 115.228 67.7116 115.048C67.8793 114.578 67.7795 115.41 67.7954 115.435C67.9855 115.736 67.9568 115.09 67.9764 114.597C68.2902 114.528 68.2761 113.838 67.9954 114.086C67.9648 114.114 67.9914 114.498 67.9764 114.597C67.6719 114.162 67.6377 113.404 67.9307 112.568C68.068 112.177 68.2224 112.549 68.1731 111.358C68.1509 110.817 67.9337 111.024 67.8781 110.547C67.7514 109.457 67.9622 108.042 67.9382 106.919C67.9294 106.511 67.8086 106.907 67.7986 106.628C67.7716 105.889 67.8646 105.237 67.8243 104.494C67.8205 104.427 67.6957 104.591 67.6957 104.36C67.6933 102.609 67.7828 101.085 67.7975 99.2574C67.8045 98.3743 67.747 96.7949 67.767 95.8802C67.8008 94.2947 67.9938 92.3453 67.9593 90.9905C67.9374 90.1068 67.8124 90.2998 67.7308 89.9207C67.5725 89.1891 67.8738 87.8981 67.9202 87.7243C67.9218 87.719 67.9457 88.4794 68.012 88.0742C68.1458 87.8392 67.9207 87.7329 67.9202 87.7243C67.9503 87.6101 67.9887 86.0917 67.9671 85.79C67.9553 85.626 67.8375 85.7169 67.8336 85.6314C67.7426 83.6 67.7266 81.5656 67.7954 79.5064C67.798 79.4702 67.9287 79.5257 67.9332 79.4404C67.9996 78.2485 67.8445 77.4839 67.756 76.4999C67.6675 75.516 67.7047 74.7365 67.9336 74.156C67.9103 73.4139 68.017 72.3502 68.0815 71.7381C68.146 71.1261 67.8916 71.0389 67.8869 70.985C67.7369 69.303 67.8895 68.3323 67.9241 66.5887C67.941 65.7597 67.9152 64.1149 67.8934 63.2171C67.8758 62.5075 67.9384 62.0805 67.9047 61.4265C67.9002 61.3381 67.786 61.4266 67.7818 61.3996C67.6509 60.6691 67.9261 61.0216 67.9767 60.8714C68.1608 60.3265 68.2591 59.9898 68.1806 59.0549C68.1627 58.8393 67.7672 58.2089 67.7465 57.8159C67.7203 57.305 67.8623 57.4987 67.8312 56.9637C67.8287 56.9179 67.7402 56.9269 67.7464 56.5968C67.9929 56.2706 66.7594 53.9827 66.157 52.7386C66.0595 52.5487 66.0584 52.8552 65.9158 52.5837C65.2469 51.311 64.4777 49.9367 63.7888 48.7194C63.6199 48.4201 63.8175 48.5497 63.8023 48.4711C63.7046 47.9854 63.1291 47.5814 63.0654 47.4964C61.5314 45.4435 60.4874 43.7607 58.6887 41.804C58.5903 41.6967 57.6581 41.031 57.5105 40.5039C57.5001 40.468 57.3591 39.939 56.9462 39.7185C56.9207 39.7052 57.0303 40.0178 56.6854 39.6062C56.3983 39.5548 55.4398 37.26 55.7677 36.8151C55.8106 36.5805 56.0511 36.026 55.8594 35.3262C55.846 35.2806 55.4126 34.2002 55.7116 33.8146C55.7608 33.7521 56.0773 33.8175 55.9151 32.9823C55.8836 32.8227 55.813 33.1124 55.7689 32.692C55.701 32.0478 55.7858 31.1943 55.6448 30.4025C55.6198 30.2644 55.405 29.6765 55.5681 29.205C55.5936 29.1311 55.6992 29.2714 55.7111 29.0224C55.7678 27.8382 55.6971 26.5983 55.7702 25.3959C55.7959 24.9701 55.9667 25.1878 56.0125 24.7439C56.0582 24.2999 56.1022 23.4054 56.0242 22.9409C55.9461 22.4762 55.6739 22.9838 55.6521 22.2877C55.5575 19.2615 55.7172 16.2637 55.7406 13.2419C55.744 12.7937 55.6466 13.1653 55.6448 12.5048C55.643 11.8961 55.6359 11.1767 55.6296 10.4072C55.3429 9.27919 56.7336 10.6582 55.5789 10.3813C53.9593 10.3792 52.3801 10.3503 51.3236 10.2468C49.6306 10.081 51.7611 9.95484 50.4674 9.88738C49.8432 9.8552 49.1678 10.1717 49.0171 10.1816C47.5449 10.2828 46.5218 10.1426 45.1967 10.1857C44.9346 10.1948 45.1423 10.322 44.9933 10.3296C45.365 10.3459 45.2976 9.79334 45.3045 10.8621C45.3095 11.2031 45.4075 11.1403 45.3999 11.4541C45.3829 12.2049 45.3417 12.8688 45.2499 13.6007C45.2416 13.6674 45.1197 13.2176 45.1152 13.7731C45.1082 14.6721 45.0176 15.788 45.1111 16.8224C45.1393 17.1293 45.3632 17.1413 45.2085 17.801C45.1762 17.9394 44.9074 17.7628 45.1397 18.5313C45.1783 18.6605 45.4916 19.9514 45.2897 20.5849C45.2365 20.752 45.0165 21.1786 45.0511 21.5477C45.0566 21.5977 45.1769 21.3972 45.1886 21.703C45.2278 22.7808 45.215 23.9104 45.2527 25.0176C45.263 25.3133 45.3874 24.8729 45.3988 25.3136C45.4302 26.5255 45.3986 28.0385 45.3596 29.2236C45.345 29.6605 45.2419 29.3585 45.2307 29.3903C45.0482 29.9015 45.2945 30.2038 45.3089 30.3734C45.3949 31.4287 45.2792 32.2323 45.3098 33.205C45.3179 33.4734 45.4354 33.2831 45.4458 33.3365C45.5482 33.8907 45.3373 33.4779 45.314 33.8287C45.2482 34.8114 45.2576 35.9069 45.2726 36.9006C45.2783 37.2657 45.4145 36.8554 45.418 37.183C44.6544 41.3495 43.0742 40.9863 41.9272 42.7905C41.701 43.0599 41.7531 42.8208 41.6894 42.8642C41.2444 43.1663 40.9796 43.894 40.8941 44.0444C40.5081 44.7237 40.2544 44.9113 39.8672 45.473C37.9607 48.2135 35.7569 51.6563 34.2664 54.4326C31.8583 57.4423 33.5206 61.0031 33.2418 64.9229C33.245 65.1753 33.3828 64.9198 33.3874 65.1374C33.4401 67.9461 33.4044 70.7119 33.4638 73.5262C33.4685 73.7572 33.5984 73.4234 33.6103 73.794C33.6356 74.5543 33.635 75.5175 33.598 76.2866C33.5802 76.6618 33.4633 76.1596 33.4477 76.5371C33.4111 77.4163 33.4081 78.3585 33.4355 79.2611C33.4474 79.6452 33.5787 79.0647 33.5837 79.564C33.6202 82.9654 33.6662 86.3059 33.5145 89.7445C33.5041 89.9802 33.2306 90.1888 33.2867 90.6895C33.3633 90.7267 33.453 90.7241 33.5346 90.74C33.6122 95.6914 33.5503 100.593 33.5693 105.559C33.5702 105.768 33.7133 105.406 33.7157 105.811C33.7295 108.157 33.7853 110.435 33.6569 112.835C33.6444 113.073 33.3873 112.953 33.4309 113.654C33.4388 113.778 33.4801 114.835 33.5376 115.108C33.5462 115.145 33.6645 114.951 33.6703 115.291C33.7019 117.27 33.6888 119.344 33.6291 121.32C33.6193 121.639 33.4896 121.3 33.4815 121.528C33.4248 123.139 33.5336 124.89 33.4284 126.43C33.3576 127.461 33.1348 127.081 32.9218 127.63C32.8918 127.708 32.8913 128.346 32.7654 128.38C32.449 128.466 32.0997 128.16 31.7627 128.289C31.6901 128.316 31.7743 129.17 31.5949 128.665C31.5829 128.63 31.5203 128.011 31.4596 127.859C31.4177 127.753 31.2907 127.945 31.2365 127.729C31.1822 127.512 31.2881 127.274 31.2236 126.915C31.1583 126.556 31.0135 126.715 30.9914 125.998ZM68.37 68.9822C68.4963 68.4159 68.0483 68.3292 68.1514 68.9433C68.157 68.973 68.3638 69.0114 68.37 68.9822ZM60.5184 131.621C61.2807 131.623 61.6854 131.203 61.1455 131.196C60.6107 131.187 60.2856 131.62 60.5184 131.621ZM53.0545 133.093C53.928 133.177 53.995 132.53 53.1003 132.737C53.0483 132.749 53.0038 133.088 53.0545 133.093ZM32.8429 125.092C32.837 125.099 32.8343 125.558 32.8403 125.569C32.9844 125.812 32.9897 124.895 32.8429 125.092ZM45.495 132.999C45.7522 133.125 46.533 133.12 46.2149 132.973C45.9601 132.857 45.18 132.846 45.495 132.999ZM60.313 41.9345C60.3128 41.9235 60.1077 41.668 60.0828 41.6972C60.0041 41.7925 60.3211 42.1202 60.313 41.9345ZM33.0881 129.543C34.8168 130.244 35.7757 131.119 33.8228 130.351C33.4738 130.211 34.6395 130.472 34.2086 130.264C33.5303 129.866 32.2777 130.103 32.3154 128.84C32.2684 128.729 32.9581 129.624 33.0909 129.543C33.09 129.543 33.089 129.543 33.0881 129.543ZM68.9111 68.6593C68.9171 68.648 68.9258 68.1929 68.92 68.1819C68.7793 67.9345 68.7616 68.8513 68.9111 68.6593ZM57.2145 23.9252C57.2272 23.9 57.239 22.8438 57.2274 22.8093C56.9945 22.2583 56.9699 24.3938 57.2145 23.9252ZM69.0309 99.3146C69.1708 99.8122 69.1836 100.406 69.001 100.801C69.0139 100.308 69.0187 99.8108 69.0309 99.3146Z" fill="black"/>
</svg>
