<svg width="102" height="136" viewBox="0 0 102 136" fill="none" xmlns="http://www.w3.org/2000/svg">
<path d="M32 126C43.5 130.5 40.5 135.5 68.0003 120C67.9993 125.178 67.9989 127.798 67.9988 128.801C67.9983 133.256 68.0048 105.803 68.0003 128.801C67.9998 128.801 67.9993 128.801 67.9988 128.801C54.3296 133.822 46.6524 134.05 32.9863 128.801L32 126Z" fill="#900639"/>
<path d="M68.4665 128.336C64.6565 131.725 60.1797 131.766 55.9929 132.677C55.4779 132.756 55.5093 132.715 55.3646 132.732C54.9655 132.777 54.7327 132.846 54.4444 132.877C53.0352 133.03 51.7108 133.106 50.3208 133.094C48.8894 133.069 49.569 132.967 49.0748 132.928C48.11 132.837 48.9267 133.009 48.5439 133.022C47.4338 132.955 46.3179 132.826 45.2186 132.649C45.4866 132.676 45.7611 132.701 46.0341 132.723C45.5531 132.66 44.8692 132.539 45.678 132.617C45.5007 132.583 45.3378 132.548 45.1581 132.512C45.1019 132.555 44.2523 132.422 44.1724 132.435C44.0904 132.451 44.5648 132.526 44.5626 132.527C44.5213 132.567 42.593 132.149 42.4529 132.104C42.0869 132.013 42.4227 132.024 42.1113 131.958C41.5759 131.842 41.9002 132.049 41.2154 131.711C40.9173 131.692 40.8993 131.659 40.5361 131.561C40.4882 131.548 40.5175 131.588 40.4961 131.583C39.9365 131.459 40.3772 131.515 40.3751 131.512C40.3355 131.446 39.7495 131.312 39.626 131.271C38.0968 130.772 36.9928 130.37 35.4003 129.795C35.0564 129.672 34.0048 129.312 33.6743 129.176C33.3477 129.043 33.5387 129.076 33.3715 128.99C33.0577 128.969 32.7332 128.654 32.6243 128.014C32.5139 127.769 32.49 127.766 32.6553 127.272C32.77 126.833 33.6334 126.392 34.0653 126.73C33.5538 126.556 33.5298 126.564 33.0242 126.864C32.484 126.871 32.8689 128.969 33.0195 128.698C32.9636 128.639 32.7162 128.059 32.7169 128.03C32.713 127.877 32.8548 128.226 32.9664 128.487C32.9226 128.428 32.8853 128.348 32.8497 128.27C33.0983 128.917 32.9839 128.406 33.2601 128.862C33.3063 128.912 33.2707 128.92 33.366 128.987C33.3899 128.988 33.2751 128.912 33.3829 128.957C33.4946 128.997 33.693 129.114 33.7364 129.094C33.8022 129.063 33.3294 128.914 33.3074 128.885C33.3069 128.885 33.3065 128.885 33.306 128.886C33.0466 128.709 33.6307 129.003 33.6749 128.999C33.884 129.043 33.7581 128.971 34.0628 129.056C34.238 129.106 34.6536 129.268 34.8195 129.323C34.9806 129.376 34.7409 129.263 34.8499 129.297C34.9588 129.331 35.0856 129.396 35.2125 129.435C35.2668 129.452 35.2731 129.426 35.2993 129.434C35.5791 129.523 35.3794 129.511 35.6302 129.596C35.7898 129.65 36.3602 129.791 35.9841 129.645C36.1693 129.704 36.3484 129.761 36.5302 129.818C36.419 129.772 36.3027 129.727 36.194 129.68C36.5315 129.809 36.6988 129.816 36.911 129.883C37.1211 129.95 37.3016 130.066 37.5454 130.117C38.0663 130.225 36.8101 129.846 36.664 129.784C36.6057 129.76 36.8482 129.796 36.8836 129.807C37.0404 129.853 37.2182 129.944 37.3417 129.983C37.7843 130.121 38.051 130.163 38.4779 130.285C39.899 130.695 41.6915 131.142 43.0642 131.413C43.5733 131.515 43.8759 131.616 44.1063 131.657C44.6438 131.749 44.7192 131.721 45.1902 131.791C45.8885 131.897 46.883 132.047 47.47 132.102C47.8793 132.143 48.252 132.127 48.358 132.133C49.8369 132.214 51.6388 132.18 52.8613 132.079C53.438 132.034 53.7128 132.046 53.832 132.033C54.3424 131.972 54.2016 131.951 54.6134 131.904C54.8361 131.877 54.8828 131.906 54.9128 131.904C55.1776 131.879 55.2245 131.826 55.4272 131.794C56.6012 131.61 57.7357 131.418 58.882 131.157C58.9657 131.138 58.9629 131.159 59.017 131.146C59.2486 131.086 59.1355 131.079 59.3753 131.019C59.8721 130.893 60.3942 130.764 60.9225 130.624C60.9751 130.61 61.0057 130.629 61.1264 130.595C61.2465 130.562 61.3357 130.511 61.5215 130.46C62.0087 130.325 62.5105 130.207 63.0246 130.05C63.1104 130.024 63.2073 129.961 63.3367 129.921C63.7481 129.793 64.3393 129.632 64.6899 129.516C65.7086 129.124 67.3332 128.839 67.5005 128.332C67.5733 128.182 67.5931 128.062 67.5947 127.881C67.5963 127.548 67.5685 127.797 67.5684 127.465C67.5682 124.937 67.5814 122.348 67.5795 119.685C69.6217 119.753 68.1715 121.681 68.4449 122.555C68.4414 122.96 68.403 123.038 68.4026 123.336C68.402 123.85 68.4511 123.951 68.4559 124.5C68.4596 124.936 68.4104 125.448 68.4133 125.895C68.4162 126.364 68.4638 126.549 68.4694 127.094C68.4739 127.513 68.4521 128.137 68.4554 128.596C65.7317 128.447 69.9897 117.663 64.5049 122.488C63.1194 123.235 61.6523 124.038 60.2415 124.729C60.1051 124.796 60.2874 124.648 59.8639 124.882C59.6375 125.006 59.3364 125.209 58.828 125.474C55.7124 127.088 52.2851 128.703 48.8865 129.87C43.7357 132.258 37.7711 129.549 34.0281 127.123C33.8268 127.005 33.9893 126.952 34.1294 126.98C34.2367 127.056 34.3316 127.13 34.4394 127.21C34.6519 127.151 34.6009 127.165 35.1599 127.451C35.4971 127.626 35.2527 127.437 35.4406 127.51C35.6814 127.601 36.8225 128.105 36.5657 128.081C36.6419 128.101 36.7121 128.12 36.7855 128.139C37.5859 128.535 38.367 128.921 39.1667 129.26C39.3056 129.319 39.3243 129.294 39.4664 129.352C39.8514 129.508 40.1484 129.651 40.5514 129.789C40.7698 129.863 40.8111 129.842 41.099 129.93C41.3877 130.014 41.3692 130.061 41.7816 130.102C41.5336 129.995 42.6844 130.262 43.1162 130.265C43.1781 130.27 43.6821 130.236 43.9458 130.232C44.2078 130.232 44.6218 130.24 45.033 130.169C45.2297 130.136 45.3407 130.078 45.5438 130.043C45.6876 130.018 45.8704 130.022 46.0623 129.986C46.2431 129.952 46.6295 129.834 46.7052 129.815C46.9731 129.747 46.6824 129.845 46.8673 129.801C47.7157 129.598 48.7387 129.283 49.5494 128.967C49.6522 128.927 49.4986 128.951 49.5121 128.945C50.2056 128.65 49.8469 128.823 50.0392 128.78C50.2151 128.747 51.5395 128.196 51.5191 128.143C51.5837 128.188 51.854 128.019 51.9301 127.984C52.2222 127.85 52.2022 127.921 52.4683 127.785C52.5661 127.735 52.3554 127.786 52.4635 127.739C52.7314 127.624 53.0002 127.573 53.3752 127.409C53.466 127.369 53.4835 127.331 53.6461 127.257C53.8055 127.185 54.4565 126.918 54.1356 127.004C54.5481 126.861 54.6165 126.801 55.0919 126.574C55.2155 126.515 55.3702 126.49 55.609 126.358C55.6893 126.314 55.6679 126.277 55.7926 126.215C56.0776 126.074 56.3738 125.977 56.7485 125.792C57.3948 125.472 58.161 125.046 58.8344 124.708C59.0241 124.613 58.9961 124.676 59.2736 124.532C59.3141 124.511 59.633 124.302 59.8313 124.201C59.9553 124.139 60.5587 123.849 60.676 123.788C60.8732 123.687 60.8892 123.631 61.0012 123.581C61.3265 123.433 61.102 123.623 61.4439 123.345C61.5915 123.318 61.8152 123.192 61.9153 123.203C62.0186 123.076 62.2165 123.038 62.4474 122.889C62.6804 122.739 62.8247 122.522 62.9473 122.604C63.0542 122.528 63.5391 122.232 63.6239 122.183C63.8718 122.041 63.755 122.146 63.9429 122.037C63.9762 122.018 63.9285 122.016 64.1462 121.899C64.2822 121.826 65.2706 121.281 65.3363 121.248C66.0442 120.899 64.9726 121.479 64.8424 121.581C64.8132 121.589 64.7842 121.597 64.7534 121.606C64.4502 121.76 64.6464 121.715 64.7878 121.652C64.9291 121.589 65.1718 121.426 65.295 121.379C65.3564 121.355 65.3533 121.433 65.1781 121.521C65.3714 121.437 65.1316 121.595 65.2135 121.572C65.3013 121.548 66.1403 121.089 66.1288 121.053C65.9701 121.14 65.7756 121.25 65.6175 121.336C65.3895 121.394 65.8603 120.856 66.5545 120.605C67.1125 120.588 66.2501 120.486 67.4708 120.712C67.2981 120.626 67.1336 120.584 66.9543 120.581C66.9355 120.529 67.2282 120.598 67.3688 120.645C67.4436 120.659 67.0152 120.49 67.4003 120.6C67.6736 120.796 67.989 120.882 68.1712 121.453C68.1189 121.298 68.035 121.157 67.9303 121.04C68.351 121.862 67.3426 120.046 68.067 121.597C68.0346 121.391 67.9448 121.199 67.8072 121.045C67.8507 121.136 67.6964 121.068 67.7374 121.141C67.845 121.329 67.9619 121.58 67.9388 121.88C67.9373 122.007 67.9173 121.928 67.9172 121.939C67.9149 122.111 67.9442 122.073 67.9461 122.222C67.9483 122.411 67.9198 122.927 67.923 123.006C67.9313 123.216 67.9891 122.866 67.9934 122.886C68.0214 123.022 67.9981 123.292 68.0347 123.277C68.0098 122.66 68.0418 120.554 68.1026 122.424C68.1618 121.917 68.2433 122.078 68.2496 122.782C68.2549 123.351 68.2223 122.985 68.1863 123.275C68.1818 123.312 68.1645 124.041 68.1898 124.105C68.1313 124.072 68.0795 124.339 68.0192 124.16C68.0103 124.135 68.0139 123.791 67.9653 123.911C67.9409 123.972 67.8879 124.142 67.8568 124.115C67.8784 124.184 67.9027 124.256 67.9252 124.325C67.9314 124.815 67.9081 124.873 67.8678 125.12C67.8846 125.109 67.9552 124.884 67.9337 125.226C67.9324 125.243 67.9071 125.26 67.8945 125.427C67.8692 125.791 67.8614 125.91 67.787 125.589C67.8293 126.456 67.7464 126.454 67.7705 127.346C67.8662 127.184 67.8425 126.889 67.8242 126.191C67.847 126.16 67.8695 126.145 67.8925 126.112C67.8408 127.077 67.8461 126.515 67.8922 127.132C67.9035 127.293 67.8913 127.952 67.9557 127.734C67.9708 127.69 67.9692 127.253 67.993 127.301C67.9976 127.32 68.0091 127.832 68.0029 127.864C67.9267 128.497 67.8737 127.453 67.9013 129.04C67.9021 129.066 67.9299 129.118 67.9338 129.208C67.8809 129.369 68.1355 129.232 68.0815 129.07C68.0741 128.953 68.0308 128.7 68.0709 128.505C68.0454 127.966 68.6054 129.629 67.8507 129.099C68.6618 130.206 68.1466 126.45 68.2372 126.404C68.2019 125.573 68.222 126.944 68.1955 127.027C68.1843 127.055 68.0424 127.048 68.1344 127.387C68.1617 127.487 68.1977 127.067 68.2127 127.318C68.2277 127.567 68.1859 127.467 68.183 127.485C68.173 127.55 68.1884 127.838 68.1825 127.871C68.0924 128.388 67.9565 128.373 68.1574 127.638C68.1122 127.306 68.0396 128.061 68.0089 127.655C67.9717 127.171 68.0365 126.83 68.0394 126.762C68.0741 126.058 67.9794 126.885 68.0099 125.997C68.0268 125.509 68.0725 126.727 68.0667 125.615C68.0617 124.678 68.0286 125.183 67.9539 125.115C67.9364 125.099 67.9151 124.585 67.9226 125.286C67.9421 125.306 67.9677 125.343 67.9857 125.388C67.9714 125.56 67.8738 125.842 67.8704 125.931C67.8541 126.384 67.9047 126.36 67.845 126.617C67.9102 126.437 67.8709 126.722 67.8846 126.848C67.9352 127.283 67.9542 126.72 67.8888 127.671C67.9194 127.539 67.9494 127.43 67.9799 127.314C67.9809 127.425 67.9819 127.535 67.9829 127.657C67.9156 127.842 67.924 128.413 67.8564 127.888C67.837 128.529 67.8515 128.829 67.9038 128.961C67.9138 128.982 67.9178 129.088 67.9187 129.209C67.9334 129.189 67.9789 129.159 67.9845 129.178C68.0076 129.461 68.0386 128.945 68.0812 129.076C68.0827 129.013 68.0846 128.957 68.0854 128.936C68.0904 128.801 68.1196 129.06 68.1297 128.955C68.1329 128.935 68.1266 128.483 68.1385 128.497C68.2148 128.427 68.1596 129.157 68.2042 127.77C68.1348 127.716 68.1499 128.389 68.0762 128.218C67.9971 128.027 68.1033 127.683 68.0062 127.617C68.0222 127.59 68.0355 127.578 68.0537 127.554C68.0114 127.027 68.0924 126.954 68.1103 126.81C68.1452 126.554 68.1402 125.008 68.0699 126.37C68.0629 126.18 68.0597 125.976 68.0536 125.767C68.1986 125.729 68.1409 125.799 68.1632 124.927C68.1681 124.727 68.232 124.66 68.1562 124.453C68.2305 124.488 68.1858 123.825 68.1948 123.78C68.2535 123.409 68.3349 124.825 68.2035 124.975C68.2546 125.193 68.187 125.193 68.1959 125.425C68.2088 125.782 68.2219 125.883 68.1719 126.311C68.2422 126.761 68.2032 124.545 68.2963 125.9C68.3195 126.235 68.3402 126.961 68.3582 127.811C68.3673 128.296 68.3756 128.789 68.3836 129.291C66.5163 128.77 67.8559 128.205 67.5929 127.642C67.5672 125.404 67.5513 123.093 67.5446 122.223C67.5385 121.447 67.5329 120.751 67.5281 120.092C67.5268 119.957 67.5257 119.743 67.5246 119.634C67.5243 119.58 67.5241 119.524 67.5238 119.508C67.5238 119.499 67.5233 119.518 67.5238 119.485C69.835 119.517 68.1615 119.5 68.4804 119.513C68.4805 119.527 68.4807 119.591 68.4808 119.592C68.4814 119.642 68.4819 119.712 68.4825 119.804C68.4846 120.095 68.4864 120.437 68.4881 120.678C68.4947 121.893 68.4976 122.941 68.4952 124.369C68.4948 124.615 68.5012 126.759 68.42 126.313C68.4083 126.249 68.3776 125.412 68.3136 126.132C68.3513 125.983 68.3757 126.414 68.3797 126.453C68.461 127.346 68.5283 126.671 68.4665 128.336ZM64.3959 129.811C66.1129 129.26 64.8386 129.626 65.153 129.392C64.9364 129.464 64.7189 129.537 64.4976 129.609C64.5579 129.598 64.6176 129.586 64.6781 129.574C64.6784 129.574 64.6786 129.574 64.6789 129.574C64.5846 129.653 64.4898 129.732 64.3959 129.811ZM35.7195 129.47C35.7905 129.478 35.8605 129.486 35.9364 129.495C36.1612 129.579 36.3853 129.661 36.6079 129.741C36.5776 129.742 36.5481 129.744 36.5178 129.745C36.253 129.655 35.9805 129.561 35.7195 129.47ZM67.8329 128.87C67.8779 128.477 67.7977 128.589 67.8343 128.109C67.7751 128.169 67.7173 128.233 67.6587 128.291C67.6674 128.6 67.6899 128.747 67.6754 129.052C67.6944 129.02 67.7136 128.983 67.7327 128.945C67.7286 128.889 67.724 128.821 67.7204 128.752C67.7736 128.666 67.7815 129.234 67.833 128.871C67.833 128.87 67.833 128.87 67.8329 128.87ZM67.8097 125.39C67.8174 125.232 67.8465 124.525 67.822 124.416C67.739 124.093 67.7913 126.088 67.7178 124.622C67.7061 124.629 67.6947 124.622 67.6832 124.622C67.679 124.898 67.6755 125.159 67.6721 125.409C67.7181 125.396 67.7635 125.405 67.8097 125.39ZM67.7627 125.818C67.7692 125.488 67.7304 124.172 67.6777 124.599C67.6623 124.719 67.7374 125.321 67.7341 125.569C67.7319 125.725 67.6907 125.558 67.7058 125.857C67.724 125.845 67.7442 125.84 67.7626 125.817C67.7626 125.817 67.7627 125.817 67.7627 125.818ZM68.0027 126.306C67.9954 126.033 67.9861 125.762 67.9784 125.441C67.9313 125.677 67.9614 126.082 67.8953 126.101C67.8903 126.026 67.8853 125.954 67.8803 125.881C67.8948 125.828 67.9093 125.759 67.9238 125.694C67.8879 125.426 67.87 125.581 67.8805 125.099C67.7805 125.371 67.7268 125.52 67.8278 126.239C67.7736 126.099 67.5968 126.225 67.723 126.656C67.7464 126.736 67.7622 126.401 67.7659 126.398C67.8123 126.347 67.8419 126.531 67.8858 126.476C67.9056 126.451 67.9053 126.25 67.9329 126.221C67.9463 126.207 67.9846 126.397 68.0027 126.306ZM67.7672 126.867C67.7391 126.778 67.6724 127.081 67.6858 127.357C67.7067 127.787 67.7703 127.106 67.7672 126.867ZM35.718 129.47C35.7185 129.47 35.719 129.47 35.7195 129.47C35.7192 129.47 35.719 129.47 35.7187 129.47C35.7185 129.47 35.7182 129.47 35.718 129.47ZM67.777 126.353C67.7531 126.146 67.7566 125.809 67.7186 125.833C67.7261 125.724 67.7335 125.597 67.741 125.495C67.7296 125.495 67.7181 125.497 67.7068 125.498C67.6996 125.839 67.6924 126.173 67.6851 126.471C67.7157 126.433 67.7464 126.398 67.777 126.353ZM67.8042 122.948C67.8081 122.556 67.7564 122.885 67.7314 122.799C67.7065 122.713 67.7268 122.352 67.691 122.394C67.6896 122.635 67.6881 122.879 67.6868 123.107C67.7258 123.047 67.7655 123.005 67.8042 122.947C67.8042 122.948 67.8042 122.948 67.8042 122.948ZM57.306 131.668C57.5667 131.628 57.468 131.69 57.9725 131.537C57.9722 131.537 57.9718 131.537 57.9714 131.537C57.4767 131.609 56.8402 131.703 56.3076 131.826C56.6436 131.81 56.8906 131.731 57.306 131.668ZM68.2813 128.806C68.0808 128.667 68.9433 129.331 67.7448 129.26C67.4664 129.258 68.5476 129.05 68.2813 128.806ZM46.6271 132.453C46.2106 132.502 46.9675 132.704 47.7801 132.717C47.8503 132.719 47.3306 132.646 47.4869 132.64C47.5027 132.64 47.7889 132.665 47.8606 132.657C47.9323 132.649 47.8603 132.612 47.9769 132.607C48.1813 132.6 48.6375 132.668 48.7915 132.644C48.8117 132.641 48.5288 132.585 48.511 132.583C48.2209 132.542 47.9369 132.576 47.8915 132.573C47.659 132.558 47.6974 132.517 47.6394 132.503C47.5299 132.475 47.3346 132.477 47.3211 132.475C46.974 132.406 47.7745 132.487 47.8847 132.478C48.1797 132.456 47.9119 132.404 48.612 132.419C48.6788 132.421 49.4733 132.462 48.4739 132.364C50.4422 132.356 47.4913 132.263 47.173 132.232C47.0251 132.228 47.2438 132.29 47.153 132.3C46.9454 132.322 46.5953 132.292 46.62 132.354C46.6742 132.485 47.1425 132.453 47.4554 132.499C47.42 132.523 47.4051 132.549 47.3413 132.569C47.4392 132.544 46.6577 132.45 46.6271 132.452C46.6271 132.452 46.6271 132.453 46.6271 132.453ZM51.6263 132.488C52.0702 132.507 52.0357 132.43 52.443 132.45C52.7947 132.357 52.0922 132.406 52.0097 132.405C51.6342 132.405 51.6407 132.329 51.2591 132.364C51.392 132.405 51.5005 132.448 51.6263 132.488ZM47.7797 132.385C48.078 132.367 47.5495 132.328 47.5285 132.318C47.3025 132.222 48.8806 132.351 47.7797 132.385ZM67.9206 124.075C67.9233 123.934 67.8854 124.036 67.8742 123.889C67.8629 123.737 67.8955 123.261 67.8718 123.276C67.8482 123.283 67.7866 124.159 67.7734 123.284C67.7601 123.313 67.7502 123.304 67.7382 123.318C67.7378 123.547 67.7372 123.829 67.7368 124.046C67.7751 123.942 67.8154 123.773 67.8524 123.648C67.8828 123.787 67.8437 123.868 67.8437 123.876C67.8438 123.876 67.8438 123.876 67.8438 123.876C67.8468 124.135 67.9146 124.382 67.9206 124.075ZM60.936 130.888C60.9175 130.992 61.2328 130.796 61.3714 130.744C61.5114 130.693 61.7094 130.673 61.627 130.654C61.3972 130.691 60.9366 130.878 60.9361 130.889C60.9361 130.888 60.9361 130.888 60.936 130.888ZM54.0254 132.309C54.3935 132.244 54.3301 132.227 54.7838 132.198C54.7634 132.177 54.743 132.156 54.7227 132.136C54.3658 132.181 54.4002 132.244 53.9812 132.264C53.9127 132.267 54.0524 132.199 53.7477 132.248C53.8397 132.267 53.9336 132.289 54.0254 132.309ZM55.8358 131.98C55.4165 132.049 55.1095 132.283 55.8729 132.081C55.9863 132.05 56.1521 131.926 55.8358 131.98ZM67.9246 128.032C67.9228 127.241 67.9316 128.172 67.8416 128.288C67.879 126.596 67.9289 128.559 67.6402 128.53C67.5809 128.685 67.3469 128.952 67.6392 128.705C67.7481 128.585 67.6845 128.612 67.6914 128.605C67.843 128.36 67.8999 128.408 67.9246 128.032ZM50.8571 132.514C50.8845 132.512 50.8412 132.481 50.928 132.473C51.0148 132.465 51.2124 132.483 51.2314 132.462C51.2502 132.442 50.8552 132.436 50.7343 132.452C50.6135 132.467 50.6099 132.53 50.8571 132.514ZM53.6425 132.433C54.0009 132.374 53.3998 132.315 53.3225 132.321C52.6325 132.387 53.6594 132.395 53.6425 132.433ZM66.9926 129.299C67.8076 128.942 67.1577 129.066 66.6195 129.19C66.5555 129.227 66.4899 129.263 66.427 129.299C66.7112 129.116 67.2254 128.856 66.0446 129.341C66.7087 129.128 66.1646 129.34 66.1622 129.346C66.1353 129.506 67.0939 129.098 66.9918 129.299C66.9921 129.299 66.9923 129.299 66.9926 129.299ZM49.6796 132.479C49.2993 132.475 48.3105 132.452 48.769 132.536C49.074 132.521 49.3758 132.502 49.6796 132.479ZM67.8839 123.648C67.8484 123.96 67.849 124.251 67.8512 124.636C67.9027 124.289 67.9086 124.517 67.9211 124.634C67.94 124.812 67.9386 124.382 67.9421 124.381C67.9909 124.388 67.9985 124.664 67.9975 124.037C68.0145 124.193 68.0316 124.345 68.0484 124.499C68.0508 124.024 68.0827 123.909 68.1217 123.608C68.0265 123.899 68.0862 123.522 68.0389 123.165C68.0153 122.988 67.902 123.492 67.8839 123.649C67.8839 123.649 67.8839 123.649 67.8839 123.648ZM67.8511 128.85C67.9041 128.76 67.9345 128.67 67.9592 128.577C68.0034 128.485 68.0361 128.387 68.0553 128.287C68.0727 128.277 68.0904 128.27 68.1074 128.257C68.1327 128.119 68.1019 128.169 68.104 128.128C68.104 128.128 68.1041 128.128 68.1042 128.128C68.0816 127.547 68.081 127.322 68.1287 126.9C68.0822 126.9 68.0358 126.9 67.9893 126.9C67.9937 126.994 67.998 127.091 68.0023 127.187C68.0273 127.238 68.0522 127.29 68.0772 127.342C68.0634 127.454 68.0497 127.568 68.0359 127.683C68.0449 127.776 68.0543 127.888 68.063 127.97C67.932 128.434 68.0218 127.378 67.9676 127.374C67.9287 127.368 67.9603 128.41 67.8505 128.512C67.8403 128.531 68.0424 128.39 67.8086 128.681C67.7548 128.722 67.6491 128.624 67.438 128.954C67.3956 128.999 67.6524 129.037 67.8511 128.85ZM68.2126 125.162C68.0787 125.721 68.2205 123.683 68.1103 124.548C68.0488 124.304 68.0496 124.348 67.995 124.595C67.9901 124.617 67.9733 124.446 67.9711 124.461C67.941 124.689 67.9569 124.981 67.9022 124.983C67.9051 125.049 67.9076 125.111 67.9105 125.178C67.9622 124.901 67.9967 125.341 68.0402 125.521C68.0599 125.601 68.066 125.416 68.0832 125.484C68.0895 125.508 68.0769 125.771 68.0949 125.782C68.1358 125.805 68.191 125.635 68.2211 125.363C68.2212 125.363 68.2212 125.363 68.2212 125.363C68.2186 125.295 68.2153 125.229 68.2126 125.162ZM59.8712 131.477C59.761 131.428 59.3858 131.502 60.088 131.287C60.0491 131.282 60.0093 131.277 59.9705 131.272C59.8509 131.304 59.7355 131.334 59.6147 131.365C59.3061 131.666 58.5695 131.583 59.0365 131.633C59.0873 131.639 59.3706 131.553 59.0972 131.664C59.0976 131.664 59.0979 131.664 59.0983 131.664C59.4927 131.556 59.5327 131.519 59.8712 131.477ZM62.4716 130.709C63.3259 130.293 61.2103 130.987 61.579 130.921C61.6102 130.917 62.519 130.617 62.4716 130.709ZM55.1894 132.489C55.6074 132.432 55.6193 132.344 55.5737 132.32C55.5275 132.297 55.2465 132.369 55.2078 132.369C55.0843 132.371 55.3401 132.324 55.1796 132.325C55.1259 132.327 54.4003 132.39 54.3683 132.396C54.1873 132.438 54.4635 132.475 54.412 132.489C54.2442 132.536 54.0042 132.526 53.9585 132.567C53.8587 132.657 54.2879 132.528 54.3609 132.517C54.5812 132.487 54.5674 132.533 54.7345 132.521C54.9016 132.508 55.0083 132.479 55.1556 132.461C55.2046 132.456 55.1682 132.492 55.1894 132.489ZM56.5303 132.098C56.1123 132.236 57.17 132.119 57.2942 132.077C57.6522 131.962 56.7287 132.034 56.5303 132.098ZM68.0104 126.56C68.0564 126.948 68.0939 126.047 68.0753 125.806C68.0562 125.855 67.9946 126.422 68.0104 126.56ZM66.7623 129.38C67.1044 129.244 66.6085 129.31 66.3233 129.412C66.1784 129.534 66.3313 129.467 66.5201 129.403C66.709 129.34 66.4963 129.486 66.7623 129.38ZM50.6457 132.759C50.7257 132.764 52.0028 132.669 51.2678 132.669C51.2117 132.671 50.3175 132.693 50.2496 132.701C50.113 132.722 50.4407 132.759 50.6457 132.759ZM65.1307 130.05C65.2945 129.933 65.4754 129.872 65.2844 129.864C65.2842 129.864 65.2839 129.864 65.2837 129.864C65.7407 129.687 65.8098 129.812 65.9097 129.775C66.2607 129.642 65.8913 129.663 66.103 129.555C65.5962 129.763 65.722 129.648 65.3319 129.776C65.2441 129.805 64.9119 129.959 64.8659 130.001C64.822 130.042 65.0282 130.053 65.1307 130.05ZM48.8363 132.743C49.2681 132.784 49.665 132.699 49.068 132.664C48.777 132.646 48.5729 132.717 48.8363 132.743ZM68.1464 124.799C68.1214 124.864 68.0964 124.93 68.0715 124.998C68.0655 124.845 68.0593 124.687 68.0532 124.524C68.0611 124.653 68.0689 124.779 68.0767 124.902C68.0855 124.609 68.1311 124.469 68.1464 124.798C68.1464 124.798 68.1464 124.799 68.1464 124.799ZM61.5619 123.364C61.431 123.407 61.2337 123.598 61.266 123.587C61.5084 123.507 61.7436 123.305 61.5619 123.364ZM68.2376 125.999C68.2482 125.537 68.1265 125.855 68.1181 126.138C68.1414 125.964 68.2316 126.262 68.2376 125.999ZM64.8424 121.581C64.8859 121.569 64.9298 121.556 64.9781 121.541C64.8352 121.604 64.8072 121.608 64.8424 121.581ZM50.851 132.864C50.9273 132.873 51.4921 132.866 51.5675 132.85C51.7242 132.82 51.2834 132.77 51.0255 132.796C50.997 132.799 50.7751 132.856 50.8522 132.864C50.8518 132.864 50.8514 132.864 50.851 132.864ZM68.1931 124.106C68.192 124.107 68.1909 124.107 68.1898 124.105C68.1909 124.106 68.192 124.105 68.1931 124.106ZM51.5131 128.14C51.5166 128.14 51.5188 128.142 51.5191 128.143C51.5174 128.142 51.5145 128.141 51.5131 128.14ZM54.8278 132.674C55.0294 132.765 55.4534 132.643 55.1045 132.634C55.085 132.633 54.8731 132.668 54.8278 132.674Z" fill="#900639"/>
<path d="M44.847 1.51525C45.06 1.47618 45.3393 1.51796 45.5515 1.57531C45.618 1.5931 45.5843 1.67261 45.6302 1.68847C45.72 1.71939 45.8037 1.68039 45.8924 1.71722C45.9218 1.72981 45.8852 1.85576 45.9161 1.86608C46.085 1.92175 46.2449 1.88966 46.4161 1.91644C47.2593 2.04853 48.0881 2.09581 48.9416 2.15319C49.223 2.17201 49.5651 2.28631 49.8558 2.23632C49.8897 2.23037 49.8695 2.11982 49.876 2.11071C49.9772 1.97122 49.9435 2.1944 50.0097 2.22405C50.2721 2.34113 50.5639 2.35131 50.8164 2.30865C50.9238 2.29017 50.8161 2.07059 50.9243 2.19384C50.9318 2.20217 50.9045 2.31956 50.934 2.33209C51.0008 2.36025 51.1276 2.33926 51.1794 2.34857C51.2792 2.36709 51.2957 2.3659 51.3901 2.36724C51.5191 2.37009 51.6726 2.42845 51.8111 2.40185C51.8406 2.39582 51.8015 2.27548 51.8486 2.255C51.8958 2.23455 52.0206 2.24476 52.0627 2.27313C52.1048 2.30151 52.0869 2.3961 52.0943 2.41778C52.1556 2.60077 52.2999 2.34733 52.3185 2.34106C52.6572 2.23426 52.9476 2.37864 53.2655 2.37823C53.5068 2.37761 53.7649 2.32994 53.9945 2.33648C54.2681 2.34473 54.4999 2.40995 54.7657 2.39874C54.7938 2.39769 54.7609 2.25619 54.7951 2.25463C55.1591 2.23817 55.5205 2.25359 55.8829 2.34911C55.9193 2.35882 55.8724 2.48305 55.9088 2.50018C56.1485 2.60856 56.4026 2.81997 56.741 2.3354C56.9878 2.39844 57.2715 2.55993 57.3698 2.77968C57.4297 2.91969 57.2451 2.93733 57.3951 2.99798C57.4287 3.01337 57.4795 2.89601 57.5262 2.92917C57.7341 3.08051 57.7985 3.3159 57.9206 3.41123C57.9469 3.4339 58.0367 3.37648 58.0579 3.37576C58.2312 3.37273 58.0638 3.6096 58.059 3.64227C58.0297 3.89704 58.1431 4.01407 58.2173 4.20374C58.2345 4.24844 58.3454 4.14207 58.3669 4.18391C58.4756 4.3996 58.5483 4.65246 58.5461 4.90727C58.5451 4.96365 58.4152 4.94403 58.4085 4.97187C58.3792 5.09268 58.6088 5.0694 58.5807 5.19025C58.5749 5.2153 58.4701 5.22021 58.4596 5.22638C58.294 5.31978 58.5527 5.33528 58.5608 5.35296C58.6661 5.56404 58.4096 5.72214 58.4443 5.9225C58.4484 5.94743 58.5815 5.8932 58.585 5.96495C58.6092 6.44728 58.4423 6.9468 58.1768 7.31142C58.136 7.36788 58.0632 7.28511 58.0502 7.28453C57.849 7.27243 58.0658 7.41267 58.0652 7.43767C58.0571 7.62552 57.7944 7.66861 58.0067 7.91523C57.798 8.50351 56.4146 9.24188 55.8844 8.83723C55.8759 8.83407 55.8912 8.7084 55.8741 8.70264C55.6685 8.63208 55.708 8.8274 55.5719 9.06629C55.5376 9.12628 55.4334 8.83786 55.4241 8.81672C55.3905 8.73881 55.4254 8.55184 55.4141 8.53675C55.321 8.41828 55.3362 9.03661 55.2105 9.03681C55.2066 9.03578 55.2231 8.92197 55.2126 8.91065C55.1798 8.87512 55.1473 8.92035 55.1153 8.88117C55.0419 8.79052 55.0157 8.49006 54.9037 8.66493C54.8895 8.68762 54.9111 9.03837 54.799 9.0218C54.7542 9.01489 54.5563 9.02091 54.5008 8.99818C54.4454 8.97547 54.4834 8.86245 54.4795 8.85755C54.3302 8.70809 54.3868 8.64615 54.312 8.42487C54.2372 8.20444 54.2579 8.7302 54.2274 8.78889C54.1969 8.8474 54.0874 8.72409 54.0605 8.68122C54.0336 8.63833 54.0672 8.56651 54.0433 8.54224C53.8847 8.38368 53.9737 8.80322 53.9215 8.88667C53.7983 9.08425 53.7024 8.69434 53.5896 8.65614C53.5591 8.64582 53.584 8.73462 53.5569 8.74293C53.4493 8.77464 53.3846 8.65298 53.2622 8.76453C53.2422 8.78271 53.1432 9.01714 53.0792 8.8451C53.0701 8.82029 53.0959 8.72313 53.05 8.70136C52.9815 8.6687 52.8581 8.64746 52.7845 8.67994C52.7301 8.70397 52.7925 8.86407 52.724 8.81434C52.6936 8.79213 52.75 8.69847 52.6928 8.66456C52.636 8.63066 52.4907 8.63477 52.4354 8.63801C52.3803 8.64131 52.4105 8.76276 52.406 8.77094C52.379 8.81781 52.2731 8.87637 52.2637 8.87623C51.7916 8.89105 51.3563 8.68634 50.8966 8.7541C50.8606 8.75924 50.8846 8.88731 50.8791 8.88941C50.7556 8.94307 50.853 8.60257 50.7667 8.4886C50.7792 8.74848 50.7282 8.70143 50.6413 8.72993C50.5993 8.74387 50.6222 8.8445 50.6184 8.85481C50.5562 9.00765 50.5129 8.81023 50.5018 8.76984C50.4606 8.62128 50.4158 8.79682 50.3878 8.69752C50.3598 8.59896 50.4242 8.45285 50.3408 8.45472C50.3174 8.54775 50.3793 8.79087 50.316 8.83027C50.077 8.97931 49.6309 8.78856 49.4388 8.76875C49.247 8.74895 49.1851 8.76611 49.0733 8.73249C48.8715 8.6717 48.9454 8.85208 48.8201 8.93464C48.6944 9.01719 48.7555 8.57338 48.7375 8.47798C48.7197 8.38261 48.7003 8.48078 48.6783 8.42835C48.6563 8.37594 48.7039 8.31107 48.6522 8.29139C48.6004 8.27173 48.4589 8.44139 48.4406 8.54115C48.4018 8.75249 48.4656 8.97431 48.3286 8.89637C48.3208 8.89174 48.3463 8.77505 48.3162 8.76325C48.0767 8.67341 47.8278 8.66785 47.5886 8.58839C47.5557 8.57728 47.5851 8.44746 47.566 8.43952C47.3666 8.35649 47.4379 8.57538 47.3286 8.81855C47.3531 8.49495 47.2927 8.29696 47.1414 8.29505C47.0504 8.29379 47.0661 8.43513 47.0072 8.53474C46.9896 8.56477 46.9252 8.46772 46.9135 8.53419C46.8751 8.75146 46.9357 8.99468 46.7797 8.89783C46.7728 8.89323 46.7946 8.7743 46.771 8.7671C46.6181 8.71995 46.5998 8.94722 46.4345 8.97474C46.305 8.99633 46.0746 8.85775 45.9271 8.83521C45.9302 8.47139 45.7909 8.5547 45.7344 8.80555C45.6387 8.79528 45.5353 8.80946 45.4428 8.77479C45.4109 8.76297 45.4318 8.65763 45.4278 8.64625C45.3663 8.4677 45.3246 8.71175 45.304 8.72132C45.08 8.81433 44.8976 8.62936 44.6839 8.81013C44.6763 8.81664 44.664 9.06936 44.6069 8.88483C44.6032 8.87211 44.6738 8.75713 44.5732 8.74824C44.4757 8.73797 44.2758 8.61297 44.0875 8.67641C44.0458 8.69525 43.8536 8.84604 43.8395 8.65846C43.8389 8.6337 43.8826 8.5747 43.8873 8.53172C43.9076 8.39726 43.7489 8.60005 43.8222 8.38751C43.8926 8.17103 43.976 8.03301 43.7646 8.02028C43.7585 8.01999 43.5863 8.13146 43.5594 8.09631C43.5178 8.0415 43.4812 7.93429 43.4347 7.88004C43.4121 7.85383 43.3298 7.95162 43.3242 7.94844C43.1137 7.80244 43.0964 7.59449 42.999 7.3538C42.9819 7.31082 42.7615 7.27869 42.8362 7.13177C42.9209 6.97452 43.5066 6.76977 43.2944 6.66764C43.2141 6.63452 42.435 6.80539 42.7701 6.51725C42.5827 6.2416 42.7598 5.94586 42.6545 5.63592C42.6497 5.62236 42.4394 5.5464 42.4485 5.51006C42.4622 5.45733 42.568 5.4494 42.5821 5.41542C42.6436 5.27479 42.6014 5.11538 42.6666 4.98078C42.6913 4.92993 42.7829 4.98549 42.8124 4.92843C42.8421 4.87209 42.7332 4.77323 42.8321 4.72077C42.908 4.68022 43.1906 4.75038 43.2586 4.69305C43.0129 4.55824 43.045 4.50878 43.0353 4.3769C43.0334 4.35132 42.9374 4.32244 42.9323 4.30772C42.9099 4.24576 42.9982 4.25539 42.9714 4.19358C42.9651 4.17863 42.8833 4.12879 42.8736 4.11361C42.7888 3.98105 43.0306 4.00166 43.0721 4.00664C43.2309 4.0229 43.1442 3.92835 43.2213 3.91379C43.2981 3.89989 43.3114 4.00597 43.3746 3.97278C43.5058 3.90376 43.5863 3.76281 43.6682 3.65815C43.7005 3.61598 43.5763 3.56926 43.5786 3.56145C43.6183 3.45339 43.7839 3.45416 43.6329 3.24006C44.1751 3.62354 43.6292 3.13693 43.8611 3.12245C43.8799 3.12218 44.064 3.37282 44.0655 3.42857C44.0689 3.48266 43.9643 3.4452 43.9861 3.52766C43.9906 3.54686 44.1873 3.76874 44.1906 3.79417C44.245 3.9519 43.8652 3.68349 43.8416 3.6724C43.5873 3.55238 43.7758 3.82752 43.778 3.86183C43.7857 4.02181 43.672 4.0711 43.672 4.19867C43.672 4.28128 43.9243 4.4524 43.8883 4.49067C43.7728 4.61344 43.3743 4.45057 43.616 4.77156C43.6684 4.83937 43.9761 4.9691 43.6922 4.94472C43.6746 4.94237 43.4216 4.90983 43.5364 5.02114C43.551 5.03492 43.6386 5.0768 43.6426 5.08723C43.6684 5.1557 43.5842 5.15416 43.5969 5.21865C43.61 5.28236 43.6395 5.35859 43.5905 5.39981C43.561 5.42469 43.3754 5.41227 43.3279 5.41704C43.1907 5.43107 43.3807 5.53295 43.2238 5.527C43.0652 5.52585 42.8498 5.40401 42.7313 5.48154C42.9779 5.53436 43.2306 5.5911 43.479 5.64225C43.443 5.78366 43.356 5.91967 43.3858 6.0665C43.3898 6.08425 43.5218 6.04855 43.5294 6.06538C43.5609 6.13284 43.4821 6.22292 43.5451 6.29516C43.595 6.35213 43.7548 6.36692 43.8162 6.41429C43.5715 6.5744 43.7145 6.6417 43.7377 6.73223C43.7463 6.7648 43.679 6.80243 43.6697 6.83554C43.6378 6.96115 43.8321 6.79008 43.8786 6.78861C44.0771 6.77994 43.602 7.10875 43.6955 7.21426C43.7005 7.22051 43.9993 7.10658 44.0213 7.10353C44.1651 7.08576 43.9438 7.17862 43.9541 7.22904C43.973 7.32043 43.9559 7.41613 44.0916 7.43684C44.132 7.44317 44.3234 7.37153 44.2539 7.51631C44.2449 7.5354 44.1665 7.60031 44.1665 7.60924C44.1689 7.76122 44.44 7.57974 44.4831 7.47014C44.5393 7.37503 44.3926 7.5428 44.3691 7.60316C44.2951 7.7502 44.3289 7.66116 44.3207 7.67487C44.2094 7.83155 44.2453 7.81615 44.2576 7.84001C44.1215 8.12283 44.1859 8.12971 44.2723 7.86357C44.2826 7.83495 44.2554 7.85498 44.2576 7.84001C44.4141 7.57244 44.3804 7.52087 44.3561 7.81014C44.3478 7.94472 44.3132 8.1018 44.3938 8.04932C44.4392 8.0243 44.4297 7.80791 44.4874 7.74922C44.6267 7.61502 44.8078 7.81627 44.9514 7.78456C45.0036 7.77305 44.9528 7.65495 44.9884 7.64302C45.083 7.61097 45.1664 7.69958 45.2613 7.65419C45.2699 7.64992 45.2489 7.52631 45.2785 7.52473C45.5023 7.51037 45.6973 7.58955 45.931 7.59175C46.044 7.59275 46.2459 7.52457 46.3629 7.53828C46.5657 7.56131 46.8151 7.74107 46.9884 7.6974C47.1014 7.66945 47.0766 7.5458 47.125 7.46156C47.2184 7.29826 47.3838 7.59077 47.406 7.63606C47.4067 7.63756 47.3095 7.66671 47.3614 7.73017C47.3915 7.86242 47.4049 7.63663 47.406 7.63606C47.4207 7.66532 47.6149 7.69339 47.6534 7.66975C47.6744 7.65683 47.6627 7.53969 47.6736 7.53517C47.9333 7.43033 48.1934 7.40056 48.4568 7.45533C48.4615 7.4577 48.4545 7.58873 48.4654 7.59266C48.6179 7.65092 48.7155 7.49063 48.8413 7.39546C48.967 7.30033 49.0667 7.33219 49.1412 7.55714C49.2361 7.52882 49.3722 7.62827 49.4505 7.68861C49.5288 7.74895 49.5398 7.49388 49.5467 7.48884C49.7616 7.32745 49.8859 7.47345 50.1089 7.49617C50.2149 7.50741 50.4252 7.47041 50.54 7.44252C50.6308 7.42005 50.6854 7.47982 50.769 7.4416C50.7803 7.4365 50.7689 7.32293 50.7724 7.31856C50.8657 7.18268 50.8208 7.46031 50.8401 7.5099C50.9099 7.69022 50.9531 7.78625 51.0726 7.70143C51.1001 7.682 51.1804 7.28224 51.2306 7.25886C51.2959 7.2292 51.2713 7.37249 51.3397 7.33778C51.3455 7.33494 51.3443 7.24654 51.3865 7.25044C51.5824 7.26737 51.7961 7.31881 51.9997 7.30995C52.0275 7.30908 51.9918 7.16886 52.032 7.1653C52.2206 7.14868 52.4272 7.15386 52.6109 7.2195C52.6561 7.23609 52.6278 7.33427 52.6376 7.36342C52.6979 7.53979 52.7833 7.28352 52.7974 7.27864C53.1337 7.15549 53.3911 7.38741 53.7339 7.27699C53.7526 7.27051 53.8962 6.99578 53.9603 7.2314C53.9647 7.24707 54.0281 7.48813 54.0842 7.32332C54.0876 7.313 54.0481 7.1889 54.1171 7.20155C54.186 7.21417 54.297 7.1313 54.3917 7.26765C54.4218 7.31061 54.4927 7.55107 54.5822 7.35939C54.588 7.34601 54.7262 6.91258 54.7755 7.21162C54.7835 7.26085 54.7751 7.5773 54.8819 7.41505C54.9023 7.3836 54.8653 7.31301 54.919 7.26893C55.0014 7.201 55.1106 7.28576 55.2118 7.14479C55.2295 7.11983 55.3047 6.90504 55.365 7.06807C55.3744 7.0936 55.3565 7.19925 55.3883 7.21107C55.5398 7.26779 55.6983 7.19712 55.8521 7.27022C55.9066 7.2959 55.8787 7.46669 55.9355 7.51246C55.9923 7.55822 56.1067 7.60223 56.1661 7.52418C56.2255 7.4461 56.1606 7.17389 56.2496 7.15211C56.8653 7.05259 56.1934 7.22369 56.2201 7.39876C56.2235 7.40093 56.1343 7.35956 56.1703 7.29788C56.3164 7.05064 56.3983 6.68333 56.6544 6.57879C56.8628 6.48913 56.9146 6.71996 57.0201 6.62326C57.0712 6.57356 56.7867 6.41968 56.78 6.40653C56.7166 6.25957 56.8691 6.21157 56.8415 6.09894C56.8354 6.07655 56.7056 6.08045 56.7016 6.06278C56.6865 6.0038 56.7478 5.94865 56.7385 5.89286C56.734 5.86803 56.6359 5.87173 56.6435 5.85041C56.6602 5.7989 56.6993 5.75209 56.7855 5.68757C56.7933 5.68118 56.9182 5.70698 56.9183 5.66083C56.9183 5.58776 56.9922 5.47325 56.8807 5.40157C56.847 5.37998 56.6296 5.43175 56.7659 5.33911C56.7942 5.31974 57.0587 5.26627 56.8154 5.25724C56.7746 5.25336 56.4435 5.2382 56.6154 5.11831C56.6607 5.08656 56.8545 4.97383 56.8085 4.94923C56.8016 4.94639 56.6957 5.00685 56.6741 4.98215C56.6002 4.8961 56.5668 4.78235 56.4843 4.69128C56.462 4.6669 56.3679 4.76062 56.3383 4.72324C56.2568 4.62035 56.2165 4.46777 56.1885 4.33078C56.1781 4.27955 56.2851 4.26164 56.2934 4.25318C56.4264 4.11428 56.1925 4.19953 56.1703 4.18864C55.9997 4.05726 56.2115 4.19663 56.2041 4.21585C56.2082 4.23089 56.1214 4.31048 56.1165 4.32021C56.0769 4.42206 56.196 4.24589 56.2242 4.23917C56.3018 4.2169 56.3242 4.23715 56.3555 4.2622C56.3673 4.27128 56.315 4.39834 56.3306 4.40598C56.5512 4.45428 56.1401 4.4255 55.9231 4.35338C55.8775 4.339 55.9062 4.23414 55.8967 4.21019C55.8313 4.04264 55.7353 4.27118 55.7133 4.29296C55.6129 4.39236 55.5739 4.29964 55.4853 4.31694C55.0523 4.40311 54.5177 4.3417 54.1091 4.30376C53.5765 4.25493 53.1632 4.15518 52.6554 4.18108C52.6231 4.18259 52.6557 4.32209 52.6278 4.32518C52.2686 4.35881 51.9149 4.3043 51.555 4.34459C51.5254 4.34765 51.568 4.47989 51.5206 4.48924C51.4234 4.50936 51.3002 4.50217 51.2019 4.45995C51.1539 4.4396 51.2182 4.32613 51.17 4.30797C51.0576 4.26543 50.9371 4.25601 50.8216 4.27721C50.7725 4.28652 50.8466 4.42177 50.7828 4.42333C50.3477 4.43674 49.9205 4.46004 49.4809 4.2849C49.4508 4.27287 49.4243 3.998 49.3603 4.05071C49.3554 4.12699 49.3557 4.21673 49.3536 4.29827C48.7203 4.34219 48.0935 4.2469 47.4585 4.23217C47.4317 4.23158 47.478 4.37722 47.4261 4.37682C47.1261 4.37466 46.8348 4.41501 46.5279 4.27025C46.4974 4.25609 46.5131 3.99987 46.4233 4.03862C46.4075 4.04569 46.2724 4.07987 46.2374 4.13549C46.2327 4.14388 46.2573 4.26347 46.2138 4.26695C45.9607 4.28512 45.6955 4.25781 45.4429 4.18474C45.4021 4.17272 45.4455 4.04536 45.4165 4.03569C45.2105 3.96809 44.9864 4.0649 44.7896 3.94927C44.6578 3.87141 44.7066 3.65126 44.6366 3.43456C44.6267 3.40399 44.5451 3.39914 44.5408 3.27306C44.53 2.95602 44.5695 2.60886 44.5533 2.27093C44.5499 2.19814 44.4406 2.27654 44.5053 2.10064C44.5098 2.08887 44.5891 2.03049 44.6086 1.97082C44.6222 1.92956 44.5977 1.80134 44.6254 1.74853C44.6531 1.69577 44.6836 1.80325 44.7295 1.74121C44.7754 1.67839 44.7552 1.53252 44.847 1.51525ZM49.8032 7.95832C49.8757 8.08082 49.8864 7.63217 49.808 7.73951C49.8042 7.74523 49.7995 7.95231 49.8032 7.95832ZM43.0256 5.92692C42.8295 6.01062 43.125 6.042 43.2739 5.98421C43.4238 5.93469 43.0854 5.90548 43.0256 5.92692ZM43.0447 5.09458C42.862 5.13637 43.4579 5.36008 43.3697 5.22895C43.3648 5.22143 43.0553 5.09244 43.0447 5.09458ZM44.9613 3.37285C44.9603 3.3669 44.9016 3.36109 44.9002 3.36699C44.869 3.50948 44.9862 3.52099 44.9613 3.37285ZM43.3343 4.2043C43.2432 4.18694 43.2765 4.3218 43.3896 4.34256C43.4795 4.36055 43.447 4.22673 43.3343 4.2043ZM53.5866 8.43714C53.5877 8.44383 53.6298 8.44985 53.6289 8.41206C53.6261 8.29034 53.5676 8.32469 53.5866 8.43714ZM44.3719 3.16932C44.1959 3.16869 43.7748 2.7799 44.1407 2.71676C44.2012 2.71077 44.0656 2.91433 44.1506 2.93771C44.2824 2.98675 44.3315 2.64545 44.4824 2.8197C44.4987 2.85077 44.3746 3.16903 44.3716 3.17009C44.3717 3.16984 44.3718 3.16958 44.3719 3.16932ZM49.845 8.4972C49.8464 8.50313 49.9046 8.50876 49.906 8.50288C49.9375 8.36045 49.8203 8.34903 49.845 8.4972ZM56.0402 8.71455C56.0434 8.72719 56.1785 8.73901 56.1829 8.72736C56.2534 8.49445 55.9803 8.46986 56.0402 8.71455ZM45.9248 8.82551C45.8613 8.96879 45.7853 8.98567 45.7347 8.80573C45.7978 8.81528 45.8613 8.81669 45.9248 8.82551ZM30.9914 125.998C30.941 124.332 30.9679 122.148 31.014 120.489C31.0282 119.968 31.1095 120.231 31.1229 119.872C31.1491 119.17 31.1056 118.516 31.1377 117.822C31.1488 117.592 31.2767 117.877 31.2853 117.636C31.332 116.314 31.2914 115.064 31.3091 113.726C31.3963 107.132 31.3995 100.65 31.4115 93.9762C31.4154 91.7755 31.5115 89.0997 31.446 86.8271C31.4383 86.5618 31.3288 86.7208 31.3193 86.6704C31.1745 85.8795 31.3994 86.1413 31.4256 85.6241C31.5287 83.5714 31.5233 81.2897 31.4672 79.3153C31.4431 78.4754 31.2292 79.3192 31.3467 78.4724C31.3546 78.4136 31.4735 78.626 31.4844 78.3955C31.509 77.8729 31.4813 76.8818 31.4878 76.4768C31.5011 75.6963 31.499 75.5671 31.4953 74.829C31.4913 73.8199 31.5415 72.6193 31.5075 71.5369C31.4999 71.3058 31.3817 71.6126 31.3587 71.2442C31.3357 70.8755 31.3393 69.8995 31.3654 69.5704C31.3916 69.2411 31.4871 69.3806 31.5084 69.3222C31.6881 68.8418 31.427 67.7147 31.4197 67.5696C31.2949 64.9222 31.4239 62.6503 31.4065 60.1646C31.4643 58.4105 30.9817 55.7409 32.109 54.3139C33.1084 52.399 34.0567 50.8397 35.1485 49.0495C35.264 48.8611 35.0069 49.0069 35.1488 48.7758C36.6542 46.325 38.3366 44.0108 40.149 41.8142C40.3316 41.5931 40.2056 41.9601 40.3924 41.7459C41.4121 40.5344 43.9821 37.9676 43.3066 37.6207C43.3278 36.4432 43.3496 35.0137 43.4586 33.9602C43.5288 33.281 43.6641 33.9407 43.6064 33.1063C43.5935 32.9182 43.475 33.1629 43.4647 32.8807C43.4213 31.6925 43.4598 30.3944 43.3986 29.219C43.3858 28.98 43.2796 29.0452 43.2605 28.9775C43.1056 28.4082 43.3616 27.4605 43.3802 27.2539C43.519 25.6806 43.4644 24.5317 43.4678 23.0661C43.4686 22.7259 43.326 23.128 43.3216 22.8007C43.3012 21.1033 43.3135 19.3451 43.3768 17.683C43.3912 17.3134 43.5127 17.6533 43.5258 17.4767C43.5821 16.6977 43.3526 16.525 43.4022 15.778C43.4124 15.6204 43.5164 15.7092 43.5278 15.6804C43.7072 15.2308 43.4531 14.8401 43.4474 14.7245C43.3708 13.2615 43.6361 12.3265 43.5985 10.9132C43.5937 10.7441 43.4621 11.1254 43.4568 10.6501C43.2683 10.0749 44.0156 8.17385 45.1817 8.44307C45.9899 8.44299 46.8033 8.4474 47.6156 8.45623C49.2404 8.47388 50.8611 8.50924 52.4281 8.56188C52.9154 8.57807 52.5675 8.67695 52.5982 8.68914C53.098 8.87959 53.4213 8.62441 53.5802 8.6148C54.8523 8.67663 55.9044 8.19125 57.1664 8.98788C57.9742 15.0156 57.4836 19.7791 57.3372 25.143C57.3341 25.21 57.2084 25.09 57.2026 25.2236C57.1321 26.8316 57.3274 26.5228 57.5663 27.5868C57.6263 27.8548 57.3379 28.6702 57.3167 28.7423C57.2388 29.0051 57.0518 28.7325 57.0368 28.8206C56.9183 29.5488 57.5366 29.4302 57.5368 30.4127C57.5358 30.4434 57.422 30.3143 57.4107 30.3968C57.3751 30.653 57.4203 30.907 57.3812 31.1577C57.2905 31.7314 56.9901 31.9358 57.1649 32.8122C57.1876 32.9231 57.5384 32.7537 57.5218 33.6309C57.5149 33.9806 57.5209 35.5285 57.4982 35.9624C57.4755 36.3957 57.3624 36.0982 57.3576 36.1291C57.2081 37.2966 57.1461 36.8539 56.9249 37.4388C56.7051 38.0634 57.2669 37.8323 57.3693 37.9489C57.4359 38.0118 57.9977 38.7822 58.0884 38.9615C58.1947 39.1479 57.9681 38.9982 58.0728 39.1546C58.7688 40.1927 58.6275 39.3933 58.9579 39.6462C59.7408 40.2482 59.9324 41.0741 60.4664 41.7764C60.6111 41.9671 60.5551 41.7602 60.6975 41.9195C61.2573 42.5497 61.4826 43.0207 62.1592 43.7099C62.2704 43.8226 62.9306 44.2998 63.0904 44.8095C63.1126 44.8817 62.915 44.776 63.1098 45.0793C63.4015 45.5319 63.9389 46.336 64.2854 46.7997C64.5413 47.1416 64.4049 46.6444 64.6596 47.1223C64.7715 47.3346 64.4522 47.0153 64.6673 47.409C64.8837 47.8005 65.4858 48.7689 65.705 49.1405C65.9274 49.513 65.9121 49.2473 65.9369 49.2733C66.0851 49.4312 66.5465 50.1283 66.5811 50.1937C68.4454 53.3966 69.4805 56.8446 69.2239 60.4376C69.2271 60.7197 69.3565 60.5327 69.3583 60.5757C69.4054 61.5417 69.0701 60.778 68.9515 61.4518C69.2121 61.3561 69.1623 61.7539 69.1862 62.4343C69.1979 62.7622 69.2997 62.5843 69.3098 62.6143C69.4594 63.1014 69.2596 63.4385 69.2187 63.5254C69.0679 63.8463 69.2411 64.1978 69.1403 64.4162C69.0402 64.6345 68.8975 64.1297 68.895 64.782C68.9868 64.9656 69.2332 64.4829 69.2692 64.9785C69.4055 66.8481 69.191 70.335 69.161 71.8373C69.131 73.3367 69.1449 73.8211 69.1053 74.6947C69.0338 76.2725 69.2181 75.6954 69.294 76.6759C69.3699 77.6593 68.9293 77.1785 68.8329 77.3192C68.7366 77.4572 68.8338 77.6093 68.7802 77.7815C68.7266 77.9531 68.6643 77.5804 68.6418 77.9847C68.6194 78.3892 68.7815 79.4967 68.8803 79.6408C69.0896 79.9455 69.3148 79.4484 69.2296 80.5186C69.2245 80.5802 69.1092 80.3795 69.0958 80.6152C68.9932 82.4875 68.9744 84.4331 68.8822 86.3031C68.8694 86.5602 68.7411 86.3294 68.7322 86.479C68.6385 88.0375 68.8612 87.4817 69.0986 88.3379C68.7763 88.1438 68.5751 88.615 68.5651 89.7982C68.559 90.5095 68.7012 90.388 68.7977 90.8488C68.8268 90.987 68.7263 91.4897 68.7921 91.5813C69.0074 91.8835 69.2538 91.4111 69.1487 92.6304C69.1437 92.6839 69.0259 92.5127 69.0175 92.6976C68.9622 93.8927 69.1885 94.0373 69.2072 95.3298C69.2219 96.3428 69.0711 98.1433 69.0407 99.2965C68.677 99.2698 68.7529 100.36 69.0008 100.803C68.9854 101.552 68.9941 102.36 68.9545 103.084C68.941 103.332 68.8368 103.168 68.8252 103.199C68.6434 103.68 68.8852 104.007 68.8937 104.168C68.9747 105.92 68.7801 107.345 68.9495 109.018C68.9556 109.077 69.2076 109.175 69.0201 109.62C69.0072 109.649 68.8959 109.096 68.8817 109.883C68.8674 110.669 68.7219 112.15 68.8316 113.242C68.858 113.507 69.0586 114.176 68.8946 114.711C68.8724 114.783 68.8004 114.704 68.7594 114.807C68.6286 115.139 68.8828 115.323 68.6631 115.713C68.4435 116.104 68.2754 116.917 68.4176 118.019C68.4218 118.054 68.6224 118.316 68.6169 118.662C68.6078 119.215 68.5603 119.999 68.5577 120.576C68.5565 120.853 68.6835 120.677 68.6854 120.725C68.7433 122.583 68.6222 123.904 68.56 125.894C68.5484 126.258 68.7127 127.308 68.5723 128.013C68.3602 128.654 68.0565 128.57 67.755 129.171C67.4251 129.391 66.5968 130.507 65.2931 130.528C62.9476 131.432 60.6848 131.892 58.2603 132.562C58.1511 132.592 57.8475 132.879 57.5859 132.928C57.1937 133 56.9624 132.938 56.6856 132.981C55.5159 133.155 54.4569 133.383 53.3201 133.467C52.8877 133.497 53.0303 133.381 52.5179 133.409C52.004 133.434 51.667 133.591 50.9666 133.537C50.4378 133.494 49.9148 133.209 49.2265 133.151C49.1907 133.43 48.7117 133.414 47.856 133.424C47.691 133.426 47.8594 133.537 47.7808 133.543C47.459 133.568 47.1764 133.461 46.871 133.485C46.7967 133.49 46.7832 133.585 46.7215 133.595C46.1956 133.683 45.3862 133.354 45.2528 133.295C44.7306 133.073 44.4531 133.151 44.0489 133.023C43.6442 132.892 44.2764 132.936 43.7989 132.814C42.8107 132.56 41.532 132.285 40.5362 132.017C40.1351 131.91 40.3761 132.105 40.3179 132.093C39.4861 131.906 38.6974 131.53 38.1671 131.634C37.7881 130.827 37.6566 131.549 36.5307 131.038C36.4431 130.998 36.4284 130.665 36.7882 130.737C37.1523 130.809 37.6546 131.074 38.1622 131.156C38.2854 131.177 39.0302 131.096 39.1228 131.104C39.8674 131.177 39.8444 131.65 39.8751 131.685C40.2242 132.07 41.1342 131.979 41.3487 132.008C42.367 132.156 43.1839 132.395 44.0373 132.479C44.5893 132.531 44.6936 132.239 45.1176 132.315C46.5229 132.556 46.9905 133.033 48.3671 132.758C48.6605 132.695 48.3901 132.357 49.4087 132.656C49.4709 132.676 50.2385 132.932 50.6824 132.775C50.738 132.755 50.7353 132.658 50.8084 132.649C51.2981 132.59 51.6271 132.657 52.16 132.593C52.6932 132.528 53.328 132.424 53.937 132.392C54.3053 132.373 54.7962 132.494 54.9787 132.514C55.4962 132.573 55.9918 132.283 56.3262 132.382C56.6641 132.481 56.0952 132.822 56.9293 132.775C56.9143 132.521 56.9365 132.254 56.9378 131.996C58.7023 131.675 60.4449 131.318 62.1833 130.789C62.3985 130.723 62.139 130.66 62.3688 130.585C63.3406 130.269 64.2065 130.089 65.2004 129.708C65.9199 129.43 66.9183 128.915 67.4441 128.683C67.5511 129.15 67.5877 128.173 67.5967 127.158C67.608 126.832 67.6849 126.854 67.7117 126.622C67.8106 125.745 67.5528 126.154 67.5143 125.914C67.3501 124.881 67.9278 124.797 67.9219 123.58C67.9217 123.516 67.6194 122.726 67.601 122.618C67.4808 121.928 67.7089 122.504 67.7345 122.073C67.7814 121.286 67.8586 120.739 67.7748 119.815C67.7499 119.545 67.5626 118.897 67.7145 118.375C67.7344 118.306 67.8358 118.345 67.8421 118.29C67.9482 117.288 67.6289 117.259 67.5245 116.685C67.4202 116.111 67.6468 115.228 67.7116 115.048C67.8793 114.578 67.7795 115.41 67.7954 115.435C67.9855 115.736 67.9568 115.09 67.9764 114.597C68.2902 114.528 68.2761 113.838 67.9954 114.086C67.9648 114.114 67.9914 114.498 67.9764 114.597C67.6719 114.162 67.6377 113.404 67.9307 112.568C68.068 112.177 68.2224 112.549 68.1731 111.358C68.1509 110.817 67.9337 111.024 67.8781 110.547C67.7514 109.457 67.9622 108.042 67.9382 106.919C67.9294 106.511 67.8086 106.907 67.7986 106.628C67.7716 105.889 67.8646 105.237 67.8243 104.494C67.8205 104.427 67.6957 104.591 67.6957 104.36C67.6933 102.609 67.7828 101.085 67.7975 99.2574C67.8045 98.3743 67.747 96.7949 67.767 95.8802C67.8008 94.2947 67.9938 92.3453 67.9593 90.9905C67.9374 90.1068 67.8124 90.2998 67.7308 89.9207C67.5725 89.1891 67.8738 87.8981 67.9202 87.7243C67.9218 87.719 67.9457 88.4794 68.012 88.0742C68.1458 87.8392 67.9207 87.7329 67.9202 87.7243C67.9503 87.6101 67.9887 86.0917 67.9671 85.79C67.9553 85.626 67.8375 85.7169 67.8336 85.6314C67.7426 83.6 67.7266 81.5656 67.7954 79.5064C67.798 79.4702 67.9287 79.5257 67.9332 79.4404C67.9996 78.2485 67.8445 77.4839 67.756 76.4999C67.6675 75.516 67.7047 74.7365 67.9336 74.156C67.9103 73.4139 68.017 72.3502 68.0815 71.7381C68.146 71.1261 67.8916 71.0389 67.8869 70.985C67.7369 69.303 67.8895 68.3323 67.9241 66.5887C67.941 65.7597 67.9152 64.1149 67.8934 63.2171C67.8758 62.5075 67.9384 62.0805 67.9047 61.4265C67.9002 61.3381 67.786 61.4266 67.7818 61.3996C67.6509 60.6691 67.9261 61.0216 67.9767 60.8714C68.1608 60.3265 68.2591 59.9898 68.1806 59.0549C68.1627 58.8393 67.7672 58.2089 67.7465 57.8159C67.7203 57.305 67.8623 57.4987 67.8312 56.9637C67.8287 56.9179 67.7402 56.9269 67.7464 56.5968C67.9929 56.2706 66.7594 53.9827 66.157 52.7386C66.0595 52.5487 66.0584 52.8552 65.9158 52.5837C65.2469 51.311 64.4777 49.9367 63.7888 48.7194C63.6199 48.4201 63.8175 48.5497 63.8023 48.4711C63.7046 47.9854 63.1291 47.5814 63.0654 47.4964C61.5314 45.4435 60.4874 43.7607 58.6887 41.804C58.5903 41.6967 57.6581 41.031 57.5105 40.5039C57.5001 40.468 57.3591 39.939 56.9462 39.7185C56.9207 39.7052 57.0303 40.0178 56.6854 39.6062C56.3983 39.5548 55.4398 37.26 55.7677 36.8151C55.8106 36.5805 56.0511 36.026 55.8594 35.3262C55.846 35.2806 55.4126 34.2002 55.7116 33.8146C55.7608 33.7521 56.0773 33.8175 55.9151 32.9823C55.8836 32.8227 55.813 33.1124 55.7689 32.692C55.701 32.0478 55.7858 31.1943 55.6448 30.4025C55.6198 30.2644 55.405 29.6765 55.5681 29.205C55.5936 29.1311 55.6992 29.2714 55.7111 29.0224C55.7678 27.8382 55.6971 26.5983 55.7702 25.3959C55.7959 24.9701 55.9667 25.1878 56.0125 24.7439C56.0582 24.2999 56.1022 23.4054 56.0242 22.9409C55.9461 22.4762 55.6739 22.9838 55.6521 22.2877C55.5575 19.2615 55.7172 16.2637 55.7406 13.2419C55.744 12.7937 55.6466 13.1653 55.6448 12.5048C55.643 11.8961 55.6359 11.1767 55.6296 10.4072C55.3429 9.27919 56.7336 10.6582 55.5789 10.3813C53.9593 10.3792 52.3801 10.3503 51.3236 10.2468C49.6306 10.081 51.7611 9.95484 50.4674 9.88738C49.8432 9.8552 49.1678 10.1717 49.0171 10.1816C47.5449 10.2828 46.5218 10.1426 45.1967 10.1857C44.9346 10.1948 45.1423 10.322 44.9933 10.3296C45.365 10.3459 45.2976 9.79334 45.3045 10.8621C45.3095 11.2031 45.4075 11.1403 45.3999 11.4541C45.3829 12.2049 45.3417 12.8688 45.2499 13.6007C45.2416 13.6674 45.1197 13.2176 45.1152 13.7731C45.1082 14.6721 45.0176 15.788 45.1111 16.8224C45.1393 17.1293 45.3632 17.1413 45.2085 17.801C45.1762 17.9394 44.9074 17.7628 45.1397 18.5313C45.1783 18.6605 45.4916 19.9514 45.2897 20.5849C45.2365 20.752 45.0165 21.1786 45.0511 21.5477C45.0566 21.5977 45.1769 21.3972 45.1886 21.703C45.2278 22.7808 45.215 23.9104 45.2527 25.0176C45.263 25.3133 45.3874 24.8729 45.3988 25.3136C45.4302 26.5255 45.3986 28.0385 45.3596 29.2236C45.345 29.6605 45.2419 29.3585 45.2307 29.3903C45.0482 29.9015 45.2945 30.2038 45.3089 30.3734C45.3949 31.4287 45.2792 32.2323 45.3098 33.205C45.3179 33.4734 45.4354 33.2831 45.4458 33.3365C45.5482 33.8907 45.3373 33.4779 45.314 33.8287C45.2482 34.8114 45.2576 35.9069 45.2726 36.9006C45.2783 37.2657 45.4145 36.8554 45.418 37.183C44.6544 41.3495 43.0742 40.9863 41.9272 42.7905C41.701 43.0599 41.7531 42.8208 41.6894 42.8642C41.2444 43.1663 40.9796 43.894 40.8941 44.0444C40.5081 44.7237 40.2544 44.9113 39.8672 45.473C37.9607 48.2135 35.7569 51.6563 34.2664 54.4326C31.8583 57.4423 33.5206 61.0031 33.2418 64.9229C33.245 65.1753 33.3828 64.9198 33.3874 65.1374C33.4401 67.9461 33.4044 70.7119 33.4638 73.5262C33.4685 73.7572 33.5984 73.4234 33.6103 73.794C33.6356 74.5543 33.635 75.5175 33.598 76.2866C33.5802 76.6618 33.4633 76.1596 33.4477 76.5371C33.4111 77.4163 33.4081 78.3585 33.4355 79.2611C33.4474 79.6452 33.5787 79.0647 33.5837 79.564C33.6202 82.9654 33.6662 86.3059 33.5145 89.7445C33.5041 89.9802 33.2306 90.1888 33.2867 90.6895C33.3633 90.7267 33.453 90.7241 33.5346 90.74C33.6122 95.6914 33.5503 100.593 33.5693 105.559C33.5702 105.768 33.7133 105.406 33.7157 105.811C33.7295 108.157 33.7853 110.435 33.6569 112.835C33.6444 113.073 33.3873 112.953 33.4309 113.654C33.4388 113.778 33.4801 114.835 33.5376 115.108C33.5462 115.145 33.6645 114.951 33.6703 115.291C33.7019 117.27 33.6888 119.344 33.6291 121.32C33.6193 121.639 33.4896 121.3 33.4815 121.528C33.4248 123.139 33.5336 124.89 33.4284 126.43C33.3576 127.461 33.1348 127.081 32.9218 127.63C32.8918 127.708 32.8913 128.346 32.7654 128.38C32.449 128.466 32.0997 128.16 31.7627 128.289C31.6901 128.316 31.7743 129.17 31.5949 128.665C31.5829 128.63 31.5203 128.011 31.4596 127.859C31.4177 127.753 31.2907 127.945 31.2365 127.729C31.1822 127.512 31.2881 127.274 31.2236 126.915C31.1583 126.556 31.0135 126.715 30.9914 125.998ZM68.37 68.9822C68.4963 68.4159 68.0483 68.3292 68.1514 68.9433C68.157 68.973 68.3638 69.0114 68.37 68.9822ZM60.5184 131.621C61.2807 131.623 61.6854 131.203 61.1455 131.196C60.6107 131.187 60.2856 131.62 60.5184 131.621ZM53.0545 133.093C53.928 133.177 53.995 132.53 53.1003 132.737C53.0483 132.749 53.0038 133.088 53.0545 133.093ZM32.8429 125.092C32.837 125.099 32.8343 125.558 32.8403 125.569C32.9844 125.812 32.9897 124.895 32.8429 125.092ZM45.495 132.999C45.7522 133.125 46.533 133.12 46.2149 132.973C45.9601 132.857 45.18 132.846 45.495 132.999ZM60.313 41.9345C60.3128 41.9235 60.1077 41.668 60.0828 41.6972C60.0041 41.7925 60.3211 42.1202 60.313 41.9345ZM33.0881 129.543C34.8168 130.244 35.7757 131.119 33.8228 130.351C33.4738 130.211 34.6395 130.472 34.2086 130.264C33.5303 129.866 32.2777 130.103 32.3154 128.84C32.2684 128.729 32.9581 129.624 33.0909 129.543C33.09 129.543 33.089 129.543 33.0881 129.543ZM68.9111 68.6593C68.9171 68.648 68.9258 68.1929 68.92 68.1819C68.7793 67.9345 68.7616 68.8513 68.9111 68.6593ZM57.2145 23.9252C57.2272 23.9 57.239 22.8438 57.2274 22.8093C56.9945 22.2583 56.9699 24.3938 57.2145 23.9252ZM69.0309 99.3146C69.1708 99.8122 69.1836 100.406 69.001 100.801C69.0139 100.308 69.0187 99.8108 69.0309 99.3146Z" fill="black"/>
</svg>
