<svg width="102" height="136" viewBox="0 0 102 136" fill="none" xmlns="http://www.w3.org/2000/svg">
<path fill-rule="evenodd" clip-rule="evenodd" d="M32 57.8181C40.1807 36.0863 55.2931 27.5778 68 56.5748V129.177C54.3299 134.16 46.6666 134.387 33 129.177L32 57.8181Z" fill="#900639"/>
<path d="M51.0597 133.484C46.2166 133.615 41.1877 132.535 36.4359 130.939C35.1887 130.425 34.2555 130.6 32.7517 129.327C32.1229 127.502 32.5485 126.678 32.4475 125.362C32.4142 122.89 32.3827 120.443 32.3542 118.051C32.3402 116.877 32.3749 116.956 32.3747 116.627C32.3743 115.726 32.3271 115.184 32.3208 114.527C32.2901 111.335 32.2539 108.348 32.2227 105.217C32.1906 101.99 32.3164 103.515 32.3261 102.394C32.3452 100.203 32.2352 102.068 32.1926 101.207C32.1655 98.6963 32.1448 96.163 32.1245 93.6476C32.1458 94.2615 32.1668 94.8755 32.1873 95.496C32.1747 94.3998 32.1738 92.8304 32.2351 94.6658C32.2392 94.2599 32.2453 93.8809 32.249 93.4638C32.1979 93.3502 32.1667 91.4093 32.1348 91.2323C32.1029 91.0556 32.125 92.1467 32.1223 92.14C32.0847 92.0682 32.072 87.591 32.0716 87.2682C32.0705 86.4146 32.1424 87.162 32.1283 86.436C32.104 85.1874 31.9906 86.021 32.1332 84.3283C32.0697 83.6566 32.097 83.5976 32.0888 82.746C32.0877 82.6339 32.0576 82.7213 32.0561 82.672C32.0148 81.3835 32.0869 82.3734 32.0899 82.3666C32.1418 82.2488 32.0986 80.866 32.0997 80.5746C32.1123 76.9174 32.1181 74.2378 32.0788 70.3795C32.0703 69.5454 32.013 67.0056 32.0108 66.1984C32.0086 65.4023 32.0531 65.8288 32.0658 65.412C31.9637 64.7455 31.9445 64.1087 31.9846 62.6087C31.9092 62.0514 31.9647 62.1225 31.9362 61.0533C31.9389 60.1498 31.6978 58.6714 31.9441 57.5919C31.7627 58.8141 31.9325 58.6257 31.9439 59.9034C31.9565 60.3242 32.0194 64.7133 32.0839 64.3857C32.1176 64.2149 32.0641 62.7606 32.07 62.7043C32.1041 62.3765 32.1631 63.1877 32.1565 63.9076C32.1461 63.7284 32.1352 63.5124 32.1247 63.3197C32.0989 64.9367 32.2693 63.8226 32.124 65.0533C32.1062 65.2055 32.0846 65.1469 32.0669 65.3976C32.0764 65.449 32.0938 65.1423 32.1014 65.4061C32.1091 65.6752 32.075 66.1868 32.1109 66.2625C32.163 66.3757 32.1274 65.261 32.1292 65.177C32.1289 65.1761 32.1286 65.1752 32.1283 65.1743C32.1447 64.4321 32.1695 65.9814 32.1753 66.0553C32.2135 66.5341 32.2331 66.207 32.2692 66.9257C32.2898 67.3358 32.2957 68.3809 32.3059 68.7664C32.3161 69.1495 32.3317 68.5531 32.3404 68.8108C32.3492 69.0685 32.3355 69.3898 32.3457 69.6923C32.3501 69.8218 32.3767 69.8148 32.3785 69.8775C32.3982 70.5498 32.3366 70.1095 32.3485 70.7192C32.3563 71.1142 32.4265 72.4393 32.4291 71.5252C32.4407 71.9644 32.4506 72.3927 32.4609 72.8297C32.465 72.5539 32.4664 72.269 32.4719 71.9999C32.4708 72.8226 32.5216 73.194 32.5322 73.7094C32.5428 74.225 32.4945 74.6879 32.5292 75.2547C32.603 76.4645 32.5347 73.4672 32.5396 73.0949C32.5416 72.9498 32.5923 73.5062 32.5947 73.5919C32.6054 73.9728 32.5811 74.4239 32.5866 74.7176C32.6064 75.7689 32.6559 76.4121 32.6781 77.414C32.7537 80.8257 32.8355 85.0581 32.8897 88.2908C32.9098 89.4946 32.8745 90.2196 32.8833 90.7599C32.9041 92.0239 32.9459 92.1782 32.9635 93.2807C32.9897 94.9217 32.9875 97.234 32.9992 98.6039C33.0074 99.5522 33.0578 100.41 33.0622 100.657C33.124 104.084 33.1816 108.254 33.2218 111.095C33.2408 112.431 33.2066 113.066 33.2117 113.342C33.2337 114.527 33.2661 114.209 33.2758 115.17C33.2811 115.69 33.2471 115.787 33.2467 115.857C33.2436 116.469 33.2915 116.59 33.2997 117.068C33.347 119.814 33.3538 122.459 33.3875 125.178C33.3899 125.376 33.3692 125.359 33.372 125.486C33.3847 126.035 33.4134 125.779 33.4238 126.353C33.5572 127.522 32.9557 128.939 34.1284 129.111C34.2461 129.154 34.2904 129.199 34.5579 129.297C34.825 129.394 35.0355 129.444 35.4609 129.595C36.5547 129.984 37.649 130.378 38.8348 130.733C39.0322 130.792 39.2817 130.832 39.5759 130.916C40.5067 131.184 41.8822 131.556 42.6832 131.726C45.3454 132.302 47.8404 132.569 50.3919 132.564C50.9909 132.563 51.5235 132.573 51.8351 132.56C52.5381 132.525 52.0081 132.529 52.7176 132.481C55.6244 132.274 58.5002 131.691 61.3377 130.902C62.7497 130.51 64.1678 130.063 65.5603 129.589C67.1655 129.11 67.7232 128.707 67.5776 126.967C67.5767 124.625 67.548 121.773 67.5559 119.508C67.5593 118.567 67.5977 118.396 67.5981 117.73C67.5985 116.542 67.5493 116.327 67.5444 115.074C67.5406 114.074 67.5897 112.928 67.5866 111.888C67.5836 110.847 67.5359 110.367 67.5302 109.172C67.5255 108.188 67.5472 106.814 67.5437 105.742C67.5115 95.9219 67.4919 86.2519 67.5292 76.3712C67.5424 72.8848 67.5355 69.0167 67.5824 65.4137C67.5869 65.0753 67.6329 65.593 67.6233 64.508C67.618 63.9251 67.5783 63.1112 67.5763 61.7639C67.8824 57.6455 66.6012 53.9949 64.486 50.3746C62.469 46.7997 60.0506 43.3164 56.8759 40.8975C52.1345 36.818 44.9676 38.5506 41.1416 43.0278C37.0802 47.3411 34.5342 52.6269 32.3965 57.4523C32.1873 57.9338 32.1805 57.6268 32.2628 57.3215C32.3895 57.0579 32.5132 56.8186 32.6496 56.5485C32.66 56.1407 32.6527 56.2273 33.2232 54.9202C33.5764 54.1258 33.2431 54.7374 33.4127 54.3074C33.6135 53.7563 34.7934 51.1716 34.6413 51.7053C34.7061 51.5397 34.7658 51.3874 34.8298 51.2277C35.7471 49.417 36.7373 47.6873 37.8805 46.0213C38.0766 45.737 38.0554 45.7148 38.2676 45.4182C38.8391 44.6266 39.3281 44.0476 39.9838 43.3045C40.3363 42.9112 40.369 42.8191 40.8657 42.3171C41.3648 41.8271 41.3857 41.8582 42.076 41.1851C41.5474 41.5423 43.755 39.7688 44.6502 39.3231C44.7752 39.2418 45.8105 38.6408 46.4248 38.4288C47.0239 38.2052 47.97 37.9525 48.9587 37.8195C49.4211 37.7583 49.7021 37.6993 50.2093 37.6988C50.5673 37.7002 50.9893 37.7615 51.4338 37.8232C51.8852 37.8743 52.8277 38.0717 53.002 38.1313C53.6248 38.3222 52.9373 38.1324 53.3518 38.2676C55.3775 38.9323 57.3935 40.3728 58.8863 41.7781C59.0712 41.951 58.838 41.6878 58.8631 41.7104C60.1362 42.8957 59.4443 42.2871 59.7451 42.6296C60.0534 42.9279 62.1519 45.4856 62.1826 45.4908C62.1877 45.6061 62.6469 46.1574 62.7572 46.3148C63.1817 46.9153 63.074 46.8591 63.4658 47.4227C63.6103 47.6329 63.3715 47.196 63.5202 47.4261C63.8845 47.9921 64.1811 48.5817 64.6399 49.3748C64.7483 49.5633 64.8079 49.6095 65.002 49.9514C65.1969 50.2841 65.9808 51.8078 65.6567 51.084C66.0939 51.9996 66.1957 52.1364 66.7277 53.208C66.863 53.4832 66.9909 53.8443 67.2673 54.397C67.3613 54.5856 67.3976 54.5615 67.5328 54.8518C67.7809 55.5077 68.3556 56.2061 68.237 57.1966C68.2336 58.9365 68.2647 60.7885 68.2536 62.6023C68.2506 63.0953 68.2076 62.9723 68.2068 63.6892C68.2068 63.7946 68.244 64.6581 68.2405 65.1536C68.2384 65.4518 68.2122 66.9969 68.2101 67.3085C68.2068 67.8238 68.2483 67.9159 68.2402 68.1981C68.2168 69.0142 68.1555 68.3595 68.2393 69.3415C68.1929 69.6644 68.1975 70.2383 68.1404 70.4221C68.203 70.7562 68.1428 71.1893 68.1638 71.8372C68.1848 72.4852 68.3061 73.0164 68.1756 73.1734C68.1914 73.4761 68.2185 74.7656 68.2205 74.983C68.2261 75.624 68.19 75.2813 68.1949 75.765C68.1957 75.8502 68.2204 75.761 68.2179 76.3076C68.2163 76.6663 68.2148 79.2947 68.2114 79.4516C68.1727 81.2423 68.1869 78.4758 68.1602 78.0885C68.1672 78.0202 68.1743 77.9525 68.1812 77.8796C68.1928 77.0883 68.1371 77.5388 68.1241 77.8975C68.1112 78.2563 68.136 78.9266 68.1177 79.2247C68.1085 79.3733 68.0416 79.2812 68.0497 78.832C68.0291 79.3127 68.0074 78.6562 67.988 78.8463C67.9668 79.0553 67.9603 81.2157 67.9971 81.2272C67.9984 80.8237 67.9971 80.3215 67.9986 79.9134C68.0627 79.3798 68.2814 81.0007 68.194 82.4872C68.1308 83.5654 68.0805 81.7879 68.1336 84.339C68.1362 83.9467 68.1421 83.6148 68.1448 83.2584C68.1928 83.2204 68.14 83.7987 68.1553 84.0968C68.1628 84.2401 68.1968 83.3574 68.2081 84.1238C68.1394 84.7828 68.2085 85.29 68.2093 86.3953C68.1971 86.0881 68.1849 85.7805 68.1726 85.4734C68.1228 87.341 68.1064 83.0031 68.0785 86.6347C68.0763 86.1977 68.0769 85.7629 68.0735 85.3236C68.0483 85.5365 67.9743 85.1958 67.9587 85.3864C67.9177 85.8863 67.9424 86.6258 67.9388 87.2355C67.9373 87.5023 67.9173 87.3369 67.9172 87.3593C67.915 87.7247 67.9443 87.644 67.9461 87.9646C67.9485 88.368 67.92 89.5333 67.9233 89.7222C67.9315 90.211 67.9893 89.3972 67.9936 89.4442C68.0216 89.7559 67.9984 90.3924 68.035 90.3589C68.0098 88.8274 68.0422 84.4137 68.1027 88.4067C68.1618 87.3058 68.2434 87.6238 68.2498 89.2066C68.2552 90.516 68.2225 89.6711 68.1866 90.3527C68.1821 90.4408 68.1649 92.1945 68.1903 92.2843C68.1318 92.214 68.08 92.7847 68.0196 92.4018C68.0108 92.3457 68.0143 91.6261 67.9657 91.8772C67.9414 92.0027 67.8883 92.363 67.8573 92.3049C67.8789 92.4529 67.9031 92.6076 67.9256 92.7578C67.9319 93.8362 67.9087 93.9894 67.8684 94.5791C67.8852 94.5522 67.9558 94.0074 67.9344 94.8347C67.9331 94.8772 67.9077 94.9139 67.8952 95.3342C67.87 96.1838 67.8622 96.3612 67.7878 95.709C67.8302 97.4686 67.7473 97.8477 67.7715 99.6521C67.8672 99.2934 67.8435 98.659 67.825 97.0066C67.8478 96.9349 67.8703 96.9013 67.8933 96.8273C67.8417 99.0266 67.847 97.9398 67.8932 99.1858C67.9045 99.4907 67.8924 101.117 67.9568 100.574C67.9719 100.446 67.9702 99.4358 67.9941 99.5517C67.9986 99.5741 68.0102 100.802 68.004 100.91C67.9278 102.269 67.8747 99.841 67.9025 103.583C67.9033 103.686 67.9312 103.722 67.935 103.923C67.9423 104.302 67.91 104.307 67.9175 104.645C67.9249 104.984 67.9683 105.453 67.9282 105.962C67.8552 106.892 67.8132 104.697 67.8519 103.72C67.7565 103.323 67.7544 110.307 67.7625 110.74C67.7981 112.629 67.7776 109.485 67.8041 109.323C67.8153 109.256 67.9572 109.289 67.8651 108.493C67.8378 108.258 67.8018 109.242 67.7868 108.655C67.7717 108.067 67.8135 108.3 67.8164 108.257C67.8264 108.111 67.8109 107.487 67.8169 107.406C67.9068 106.159 68.0427 106.273 67.842 107.926C67.8873 108.645 67.9597 106.993 67.9905 107.888C68.0279 108.975 67.9632 109.769 67.9602 109.906C67.9257 111.544 68.0202 109.655 67.99 111.656C67.9732 112.77 67.9271 109.989 67.9333 112.533C67.9386 114.663 67.9715 113.513 68.0462 113.668C68.0637 113.704 68.0852 114.871 68.0775 113.282C68.058 113.237 68.0323 113.152 68.0144 113.052C68.0286 112.662 68.1261 112.012 68.1295 111.805C68.1457 110.794 68.0951 110.843 68.1547 110.246C68.0895 110.672 68.1288 109.979 68.115 109.719C68.0643 108.753 68.0454 110.02 68.1106 107.852C68.0801 108.135 68.0501 108.39 68.0196 108.664C68.0186 108.404 68.0175 108.143 68.0165 107.883C68.0838 107.496 68.0752 106.114 68.1429 107.365C68.1622 105.861 68.1475 105.253 68.0951 104.923C68.0851 104.861 68.0811 104.635 68.0802 104.369C68.0655 104.419 68.02 104.484 68.0144 104.442C67.9653 104.067 68.0501 103.487 68.0824 103.685C68.084 103.499 68.0858 103.352 68.0866 103.3C68.0916 102.971 68.1209 103.616 68.1309 103.349C68.1342 103.262 68.1278 102.334 68.1397 102.316C68.2159 102.205 68.1609 103.73 68.2052 100.666C68.1358 100.592 68.1511 102.016 68.0774 101.65C67.9982 101.258 68.1044 100.457 68.0072 100.283C68.0232 100.218 68.0365 100.189 68.0547 100.133C68.0124 98.8931 68.0933 98.8767 68.1112 98.498C68.1461 97.7626 68.1408 94.3816 68.0707 97.4174C68.0637 96.9734 68.0605 96.5202 68.0543 96.0785C68.1994 95.9776 68.1416 96.2466 68.1638 94.1191C68.1687 93.6505 68.2325 93.498 68.1567 93.0385C68.2311 93.1009 68.1861 91.715 68.1952 91.5857C68.2538 90.7562 68.3355 93.8363 68.2041 94.2312C68.2553 94.7511 68.1876 94.7492 68.1966 95.3297C68.2095 96.1682 68.2227 96.2847 68.1728 97.2802C68.2431 98.26 68.2037 93.4445 68.297 96.3637C68.3903 99.2837 68.4424 116.286 68.4564 120.253C68.3323 123.933 69.0608 126.213 68.076 129.5C65.2483 130.929 63.0518 131.389 59.8414 132.247C59.229 132.456 54.4445 133.3 55.4271 133.043C55.5668 133.018 57.6246 132.645 55.8463 132.873C56.2112 132.855 55.1772 133.037 55.0881 133.05C53.0868 133.371 54.2608 133.349 51.0597 133.484ZM41.8228 131.725C45.8277 132.605 42.8923 131.92 43.7488 131.971C43.2371 131.875 42.7204 131.766 42.2127 131.651C42.3452 131.689 42.4757 131.726 42.6075 131.762C42.608 131.762 42.6086 131.763 42.6092 131.763C42.3499 131.753 42.0866 131.74 41.8228 131.725ZM32.4974 70.8149C32.5158 70.9755 32.5342 71.1342 32.5524 71.3082C32.5551 71.853 32.5577 72.3956 32.5604 72.9404C32.5485 72.8755 32.5365 72.8129 32.5246 72.7481C32.5161 72.1037 32.5076 71.4614 32.4974 70.8149ZM67.8341 103.143C67.879 102.372 67.7989 102.442 67.8354 101.417C67.7763 101.542 67.7184 101.682 67.6599 101.814C67.6686 102.594 67.6911 102.771 67.6767 103.618C67.6957 103.52 67.7148 103.419 67.7339 103.323C67.7298 103.181 67.7252 103.031 67.7216 102.895C67.7748 102.677 67.7827 104.031 67.8343 103.146C67.8342 103.145 67.8342 103.144 67.8341 103.143ZM67.8103 95.24C67.818 94.8252 67.847 93.182 67.8225 92.9578C67.7394 92.1977 67.7921 96.8338 67.7183 93.4169C67.7066 93.4326 67.6952 93.4169 67.6837 93.4169C67.6796 94.0402 67.6761 94.6616 67.6728 95.2893C67.7188 95.2557 67.7642 95.2781 67.8103 95.24ZM56.5212 132.203C57.1508 132.122 60.0931 131.41 59.1177 131.581C58.8306 131.636 57.5354 131.995 57.0261 132.082C56.699 132.14 57.0562 132.035 56.4172 132.163C56.4486 132.176 56.4696 132.193 56.5229 132.202C56.5223 132.202 56.5218 132.202 56.5212 132.203ZM55.3834 132.628C56.0313 132.527 56.6876 132.405 57.3412 132.27C56.8534 132.32 55.9238 132.506 55.857 132.447C56.0349 132.414 56.2126 132.38 56.39 132.345C56.528 132.336 56.6643 132.326 56.8011 132.316C57.3537 132.176 57.014 132.23 58.0509 132.027C57.4019 132.054 57.2885 132.052 55.5164 132.431C55.844 132.325 55.5041 132.21 54.5307 132.46C54.3483 132.507 55.124 132.423 55.1341 132.424C55.2601 132.454 54.8326 132.542 54.9667 132.568C55.0271 132.58 55.5022 132.513 55.5759 132.529C55.6109 132.537 55.166 132.641 55.3834 132.628ZM54.0535 132.56C54.2512 132.509 53.5594 132.522 52.9608 132.581C52.0294 132.67 53.5067 132.629 54.0535 132.56ZM32.4973 70.8113C32.4973 70.8125 32.4973 70.8137 32.4974 70.8149C32.4973 70.8142 32.4972 70.8137 32.4972 70.8131C32.4972 70.8125 32.4972 70.8119 32.4973 70.8113ZM67.7778 97.3788C67.7539 96.8901 67.7574 96.1668 67.7194 96.2202C67.7269 95.9825 67.7342 95.7422 67.7417 95.5046C67.7303 95.5068 67.7188 95.5113 67.7075 95.5135C67.7004 96.2287 67.6932 96.9417 67.686 97.6568C67.7166 97.5671 67.7472 97.4842 67.7778 97.3788ZM67.8044 89.5877C67.8083 88.6888 67.7566 89.4424 67.7316 89.2452C67.7066 89.0479 67.7269 88.2471 67.6911 88.3412C67.6897 88.8704 67.6883 89.4222 67.687 89.9581C67.726 89.8168 67.7657 89.7182 67.8044 89.5859C67.8044 89.5865 67.8044 89.5871 67.8044 89.5877ZM33.1646 121.383C33.1619 121.993 33.119 121.745 33.1821 122.948C33.182 122.947 33.182 122.946 33.182 122.945C33.1983 121.8 33.2064 120.324 33.1574 119.061C33.1266 119.835 33.1686 120.424 33.1646 121.383ZM67.7177 105.276C67.749 105.533 67.7751 104.334 67.7461 104.07C67.6991 103.641 67.6703 104.883 67.7177 105.276ZM32.5426 96.7601C32.4334 95.8339 32.35 97.5929 32.4225 99.4326C32.4288 99.5917 32.4427 98.4032 32.4664 98.7549C32.4688 98.7904 32.4756 99.4427 32.4913 99.6038C32.507 99.7651 32.5357 99.5951 32.5525 99.8595C32.5818 100.323 32.5542 101.373 32.5891 101.72C32.5937 101.766 32.6262 101.115 32.6273 101.074C32.6431 100.405 32.5796 99.7624 32.5778 99.6591C32.5685 99.1278 32.6123 99.2075 32.6205 99.0729C32.6358 98.8193 32.6107 98.3735 32.6116 98.3421C32.6377 97.5352 32.6529 99.3778 32.6717 99.6264C32.7227 100.296 32.7526 99.675 32.7985 101.282C32.8029 101.435 32.826 103.262 32.8415 100.959C33.0044 105.478 32.8663 98.6861 32.834 97.9488C32.8191 97.609 32.7856 98.1243 32.7645 97.9184C32.716 97.4482 32.6974 96.6458 32.6393 96.7184C32.5174 96.8749 32.6135 97.9277 32.6028 98.6543C32.5748 98.5785 32.5481 98.5497 32.5198 98.4088C32.5583 98.6258 32.5508 96.8273 32.5429 96.7601C32.5428 96.7601 32.5427 96.7601 32.5426 96.7601ZM32.8448 108.203C32.8216 109.219 32.8989 109.146 32.8671 110.077C32.949 110.897 32.9216 109.279 32.9229 109.09C32.9286 108.229 33.0053 108.248 32.9694 107.367C32.9284 107.671 32.8862 107.918 32.8448 108.203ZM32.7533 99.3697C32.8025 100.048 32.7848 98.8329 32.7917 98.7835C32.8646 98.2457 32.8999 101.885 32.7533 99.3697ZM60.4061 131.512C60.7405 131.427 60.5184 131.446 60.8077 131.358C61.098 131.27 62.1084 131.018 62.0761 131.001C62.044 130.988 60.1994 131.445 62.0298 130.912C61.964 130.917 61.9822 130.902 61.9489 130.899C61.4502 131.042 60.9301 131.185 60.4297 131.316C60.7148 131.281 61.0095 131.243 61.2885 131.204C61.0102 131.313 60.8407 131.317 60.8256 131.321C60.8256 131.321 60.8256 131.321 60.8257 131.321C60.3029 131.465 59.6487 131.7 60.4061 131.512ZM33.9153 129.308C33.7853 129.361 34.5893 129.545 34.9008 129.643C35.2221 129.747 35.6427 129.931 35.494 129.835C34.9897 129.63 33.9328 129.304 33.9153 129.308C33.9153 129.308 33.9153 129.308 33.9153 129.308ZM32.9223 113.721C32.9573 114.571 32.9801 114.436 32.9665 115.478C32.9889 115.437 33.0118 115.396 33.0339 115.356C33.0228 114.529 32.9569 114.588 32.9703 113.63C32.9725 113.473 33.0305 113.808 33.0035 113.101C32.9779 113.307 32.9493 113.516 32.9223 113.721ZM33.0666 117.938C33.0494 116.961 32.8526 116.188 32.9617 117.987C32.978 118.254 33.0796 118.673 33.0666 117.938ZM51.5331 132.902C53.19 132.831 51.3065 132.896 50.8748 132.866C54.7271 132.692 50.4381 132.915 50.0557 132.783C49.5858 132.807 48.7025 132.841 49.6813 132.883C50.0902 132.897 49.9412 132.865 49.9657 132.866C50.718 132.876 50.6272 132.927 51.5331 132.902ZM32.8155 106.439C32.8178 106.501 32.8485 106.403 32.8577 106.602C32.8669 106.802 32.8507 107.254 32.8711 107.299C32.8915 107.343 32.8942 106.436 32.8758 106.158C32.8574 105.88 32.7952 105.872 32.8155 106.439ZM32.8258 112.821C32.8605 113.651 32.9598 112.291 32.9567 112.11C32.9283 110.523 32.8639 112.867 32.8258 112.821ZM47.6679 133.02C49.6792 133.089 48.2107 132.915 46.974 132.731C46.8082 132.727 46.6362 132.722 46.474 132.716C47.2317 132.713 48.5423 132.806 45.6297 132.523C47.2188 132.745 45.8844 132.597 45.8731 132.599C45.6786 132.731 48.0519 132.906 47.6661 133.02C47.6667 133.02 47.6673 133.02 47.6679 133.02ZM32.8114 103.737C32.7987 102.864 32.7425 100.597 32.6955 101.656C32.7341 102.35 32.7728 103.042 32.8114 103.737ZM68.1167 117.011C68.152 116.298 68.1514 115.641 68.1491 114.762C68.0976 115.553 68.0917 115.033 68.0791 114.766C68.0602 114.361 68.0617 115.342 68.0583 115.345C68.0094 115.327 68.0018 114.701 68.003 116.125C67.9859 115.773 67.9688 115.426 67.9519 115.074C67.9497 116.159 67.9178 116.414 67.8788 117.102C67.974 116.434 67.9144 117.314 67.9618 118.112C67.9855 118.51 68.0986 117.373 68.1167 117.008C68.1167 117.009 68.1167 117.01 68.1167 117.011ZM49.7439 133.139C49.9514 133.126 50.141 133.104 50.3409 133.084C50.5589 133.082 50.7771 133.078 50.995 133.072C51.0223 133.087 51.0451 133.102 51.0769 133.116C51.3647 133.113 51.252 133.095 51.3374 133.09C51.3374 133.09 51.3374 133.09 51.3374 133.091C52.5596 133.02 53.0605 132.978 54.0185 132.927C54.0135 132.881 54.0086 132.835 54.0036 132.789C53.79 132.816 53.5752 132.841 53.3616 132.865C53.2496 132.9 53.1369 132.934 53.0246 132.968C52.7744 132.974 52.5291 132.978 52.2785 132.978C52.0795 132.999 51.8403 133.02 51.6681 133.036C50.6712 132.946 52.9291 132.934 52.9444 132.865C52.9558 132.843 50.6905 132.951 50.3632 132.958C50.3161 132.961 50.8075 133.061 49.9759 133.006C49.8453 132.995 49.8054 132.795 48.9059 132.93C48.7772 132.948 49.2171 133.1 49.7439 133.139ZM57.9825 132.38C56.7046 132.528 61.3435 131.613 59.3356 131.974C59.886 131.778 59.7847 131.804 59.1992 131.888C59.1477 131.895 59.5394 131.784 59.5044 131.79C58.962 131.891 58.3293 132.046 58.3107 131.993C58.1658 132.028 58.0299 132.059 57.886 132.092C58.4988 132.016 57.5517 132.252 57.1844 132.364C57.0174 132.415 57.411 132.346 57.2705 132.391C57.218 132.408 56.6695 132.496 56.6507 132.517C56.6109 132.565 56.9652 132.562 57.5529 132.476C57.5529 132.476 57.5529 132.476 57.5529 132.476C57.6971 132.445 57.8375 132.413 57.9825 132.38ZM32.8721 127.217C32.943 126.999 32.952 126.127 33.0116 127.801C33.025 127.718 33.0383 127.632 33.0517 127.549C33.0464 127.267 33.0413 126.993 33.0361 126.706C32.8062 125.848 33.0301 124.274 32.8897 125.282C32.8744 125.392 32.9026 126.062 32.8477 125.401C32.8476 125.402 32.8476 125.403 32.8476 125.404C32.8745 126.327 32.9024 126.443 32.8721 127.217ZM37.119 130.69C39.1984 131.205 34.3615 129.671 35.1517 129.973C35.2232 130.009 37.3011 130.676 37.119 130.69ZM32.6354 116.309C32.6461 117.264 32.731 117.326 32.7598 117.229C32.7888 117.133 32.7489 116.472 32.7525 116.387C32.7643 116.108 32.783 116.698 32.7995 116.337C32.8048 116.217 32.8115 114.553 32.8068 114.477C32.7808 114.054 32.7202 114.674 32.7105 114.553C32.679 114.159 32.7076 113.623 32.6691 113.509C32.5871 113.263 32.6836 114.261 32.6873 114.43C32.6981 114.938 32.6533 114.895 32.6497 115.276C32.6462 115.657 32.6649 115.906 32.6665 116.242C32.667 116.353 32.635 116.261 32.6354 116.309ZM32.857 119.464C32.7794 118.468 32.7443 120.897 32.7633 121.185C32.8193 122.031 32.894 119.941 32.857 119.464ZM54.7877 132.717C53.889 132.879 56.0034 132.643 56.5988 132.506C56.4881 132.511 55.097 132.667 54.7877 132.717ZM47.1129 132.972C47.9516 133.032 46.8465 132.837 46.1567 132.751C45.7407 132.768 46.1268 132.806 46.5793 132.858C47.0356 132.91 46.4579 132.919 47.1129 132.972ZM32.5661 105.952C32.5676 106.133 32.6648 109.047 32.6648 107.372C32.6647 107.244 32.6262 105.203 32.6136 105.049C32.588 104.738 32.5626 105.485 32.5661 105.952ZM43.1053 132.474C43.5519 132.505 43.9851 132.584 43.593 132.44C43.5924 132.44 43.5918 132.44 43.5912 132.44C44.7067 132.626 44.7304 132.76 44.973 132.797C45.8157 132.912 45.0347 132.695 45.5642 132.737C44.3382 132.59 44.6988 132.574 43.7728 132.404C43.5616 132.366 42.7326 132.24 42.603 132.236C42.476 132.235 42.8863 132.401 43.1053 132.474ZM32.4937 101.833C32.4849 102.818 32.5932 103.717 32.5892 102.352C32.5873 101.686 32.4991 101.232 32.4937 101.833ZM68.147 93.8204C68.1219 93.9706 68.097 94.1254 68.0721 94.2868C68.0661 93.9237 68.0599 93.5603 68.0537 93.1972C68.0616 93.4842 68.0694 93.7716 68.0772 94.0608C68.086 93.3792 68.1316 93.0676 68.147 93.8187C68.147 93.8193 68.147 93.8198 68.147 93.8204ZM68.1661 69.5549C68.1903 69.25 68.1155 68.6492 68.1097 68.7254C68.0662 69.2992 68.1326 69.9781 68.1661 69.5549ZM56.1583 132.746C57.2836 132.564 56.492 132.582 55.8011 132.682C56.2262 132.638 55.5176 132.843 56.1583 132.746ZM68.1602 78.0885C68.1497 78.1903 68.1393 78.2929 68.1288 78.4069C68.1434 78.0483 68.1531 77.9862 68.1602 78.0885ZM32.4653 106.417C32.4584 106.59 32.4686 107.87 32.4826 108.042C32.5119 108.401 32.565 107.402 32.5361 106.815C32.533 106.75 32.4722 106.244 32.4653 106.419C32.4653 106.418 32.4653 106.418 32.4653 106.417ZM68.1936 92.287C68.1924 92.289 68.1913 92.2879 68.1903 92.2843C68.1914 92.2856 68.1925 92.2852 68.1936 92.287ZM62.1814 45.4798C62.1839 45.4864 62.1846 45.4904 62.1826 45.4908C62.1825 45.4877 62.1808 45.4823 62.1814 45.4798ZM32.4886 115.444C32.3787 115.872 32.4541 116.853 32.5005 116.076C32.5029 116.033 32.4898 115.547 32.4886 115.444Z" fill="#900639"/>
<path d="M44.847 1.51525C45.06 1.47618 45.3393 1.51796 45.5515 1.57531C45.618 1.5931 45.5843 1.67261 45.6302 1.68847C45.72 1.71939 45.8037 1.68039 45.8924 1.71722C45.9218 1.72981 45.8852 1.85576 45.9161 1.86608C46.085 1.92175 46.2449 1.88966 46.4161 1.91644C47.2593 2.04853 48.0881 2.09581 48.9416 2.15319C49.223 2.17201 49.5651 2.28631 49.8558 2.23632C49.8897 2.23037 49.8695 2.11982 49.876 2.11071C49.9772 1.97122 49.9435 2.1944 50.0097 2.22405C50.2721 2.34113 50.5639 2.35131 50.8164 2.30865C50.9238 2.29017 50.8161 2.07059 50.9243 2.19384C50.9318 2.20217 50.9045 2.31956 50.934 2.33209C51.0008 2.36025 51.1276 2.33926 51.1794 2.34857C51.2792 2.36709 51.2957 2.3659 51.3901 2.36724C51.5191 2.37009 51.6726 2.42845 51.8111 2.40185C51.8406 2.39582 51.8015 2.27548 51.8486 2.255C51.8958 2.23455 52.0206 2.24476 52.0627 2.27313C52.1048 2.30151 52.0869 2.3961 52.0943 2.41778C52.1556 2.60077 52.2999 2.34733 52.3185 2.34106C52.6572 2.23426 52.9476 2.37864 53.2655 2.37823C53.5068 2.37761 53.7649 2.32994 53.9945 2.33648C54.2681 2.34473 54.4999 2.40995 54.7657 2.39874C54.7938 2.39769 54.7609 2.25619 54.7951 2.25463C55.1591 2.23817 55.5205 2.25359 55.8829 2.34911C55.9193 2.35882 55.8724 2.48305 55.9088 2.50018C56.1485 2.60856 56.4026 2.81997 56.741 2.3354C56.9878 2.39844 57.2715 2.55993 57.3698 2.77968C57.4297 2.91969 57.2451 2.93733 57.3951 2.99798C57.4287 3.01337 57.4795 2.89601 57.5262 2.92917C57.7341 3.08051 57.7985 3.3159 57.9206 3.41123C57.9469 3.4339 58.0367 3.37648 58.0579 3.37576C58.2312 3.37273 58.0638 3.6096 58.059 3.64227C58.0297 3.89704 58.1431 4.01407 58.2173 4.20374C58.2345 4.24844 58.3454 4.14207 58.3669 4.18391C58.4756 4.3996 58.5483 4.65246 58.5461 4.90727C58.5451 4.96365 58.4152 4.94403 58.4085 4.97187C58.3792 5.09268 58.6088 5.0694 58.5807 5.19025C58.5749 5.2153 58.4701 5.22021 58.4596 5.22638C58.294 5.31978 58.5527 5.33528 58.5608 5.35296C58.6661 5.56404 58.4096 5.72214 58.4443 5.9225C58.4484 5.94743 58.5815 5.8932 58.585 5.96495C58.6092 6.44728 58.4423 6.9468 58.1768 7.31142C58.136 7.36788 58.0632 7.28511 58.0502 7.28453C57.849 7.27243 58.0658 7.41267 58.0652 7.43767C58.0571 7.62552 57.7944 7.66861 58.0067 7.91523C57.798 8.50351 56.4146 9.24188 55.8844 8.83723C55.8759 8.83407 55.8912 8.7084 55.8741 8.70264C55.6685 8.63208 55.708 8.8274 55.5719 9.06629C55.5376 9.12628 55.4334 8.83786 55.4241 8.81672C55.3905 8.73881 55.4254 8.55184 55.4141 8.53675C55.321 8.41828 55.3362 9.03661 55.2105 9.03681C55.2066 9.03578 55.2231 8.92197 55.2126 8.91065C55.1798 8.87512 55.1473 8.92035 55.1153 8.88117C55.0419 8.79052 55.0157 8.49006 54.9037 8.66493C54.8895 8.68762 54.9111 9.03837 54.799 9.0218C54.7542 9.01489 54.5563 9.02091 54.5008 8.99818C54.4454 8.97547 54.4834 8.86245 54.4795 8.85755C54.3302 8.70809 54.3868 8.64615 54.312 8.42487C54.2372 8.20444 54.2579 8.7302 54.2274 8.78889C54.1969 8.8474 54.0874 8.72409 54.0605 8.68122C54.0336 8.63833 54.0672 8.56651 54.0433 8.54224C53.8847 8.38368 53.9737 8.80322 53.9215 8.88667C53.7983 9.08425 53.7024 8.69434 53.5896 8.65614C53.5591 8.64582 53.584 8.73462 53.5569 8.74293C53.4493 8.77464 53.3846 8.65298 53.2622 8.76453C53.2422 8.78271 53.1432 9.01714 53.0792 8.8451C53.0701 8.82029 53.0959 8.72313 53.05 8.70136C52.9815 8.6687 52.8581 8.64746 52.7845 8.67994C52.7301 8.70397 52.7925 8.86407 52.724 8.81434C52.6936 8.79213 52.75 8.69847 52.6928 8.66456C52.636 8.63066 52.4907 8.63477 52.4354 8.63801C52.3803 8.64131 52.4105 8.76276 52.406 8.77094C52.379 8.81781 52.2731 8.87637 52.2637 8.87623C51.7916 8.89105 51.3563 8.68634 50.8966 8.7541C50.8606 8.75924 50.8846 8.88731 50.8791 8.88941C50.7556 8.94307 50.853 8.60257 50.7667 8.4886C50.7792 8.74848 50.7282 8.70143 50.6413 8.72993C50.5993 8.74387 50.6222 8.8445 50.6184 8.85481C50.5562 9.00765 50.5129 8.81023 50.5018 8.76984C50.4606 8.62128 50.4158 8.79682 50.3878 8.69752C50.3598 8.59896 50.4242 8.45285 50.3408 8.45472C50.3174 8.54775 50.3793 8.79087 50.316 8.83027C50.077 8.97931 49.6309 8.78856 49.4388 8.76875C49.247 8.74895 49.1851 8.76611 49.0733 8.73249C48.8715 8.6717 48.9454 8.85208 48.8201 8.93464C48.6944 9.01719 48.7555 8.57338 48.7375 8.47798C48.7197 8.38261 48.7003 8.48078 48.6783 8.42835C48.6563 8.37594 48.7039 8.31107 48.6522 8.29139C48.6004 8.27173 48.4589 8.44139 48.4406 8.54115C48.4018 8.75249 48.4656 8.97431 48.3286 8.89637C48.3208 8.89174 48.3463 8.77505 48.3162 8.76325C48.0767 8.67341 47.8278 8.66785 47.5886 8.58839C47.5557 8.57728 47.5851 8.44746 47.566 8.43952C47.3666 8.35649 47.4379 8.57538 47.3286 8.81855C47.3531 8.49495 47.2927 8.29696 47.1414 8.29505C47.0504 8.29379 47.0661 8.43513 47.0072 8.53474C46.9896 8.56477 46.9252 8.46772 46.9135 8.53419C46.8751 8.75146 46.9357 8.99468 46.7797 8.89783C46.7728 8.89323 46.7946 8.7743 46.771 8.7671C46.6181 8.71995 46.5998 8.94722 46.4345 8.97474C46.305 8.99633 46.0746 8.85775 45.9271 8.83521C45.9302 8.47139 45.7909 8.5547 45.7344 8.80555C45.6387 8.79528 45.5353 8.80946 45.4428 8.77479C45.4109 8.76297 45.4318 8.65763 45.4278 8.64625C45.3663 8.4677 45.3246 8.71175 45.304 8.72132C45.08 8.81433 44.8976 8.62936 44.6839 8.81013C44.6763 8.81664 44.664 9.06936 44.6069 8.88483C44.6032 8.87211 44.6738 8.75713 44.5732 8.74824C44.4757 8.73797 44.2758 8.61297 44.0875 8.67641C44.0458 8.69525 43.8536 8.84604 43.8395 8.65846C43.8389 8.6337 43.8826 8.5747 43.8873 8.53172C43.9076 8.39726 43.7489 8.60005 43.8222 8.38751C43.8926 8.17103 43.976 8.03301 43.7646 8.02028C43.7585 8.01999 43.5863 8.13146 43.5594 8.09631C43.5178 8.0415 43.4812 7.93429 43.4347 7.88004C43.4121 7.85383 43.3298 7.95162 43.3242 7.94844C43.1137 7.80244 43.0964 7.59449 42.999 7.3538C42.9819 7.31082 42.7615 7.27869 42.8362 7.13177C42.9209 6.97452 43.5066 6.76977 43.2944 6.66764C43.2141 6.63452 42.435 6.80539 42.7701 6.51725C42.5827 6.2416 42.7598 5.94586 42.6545 5.63592C42.6497 5.62236 42.4394 5.5464 42.4485 5.51006C42.4622 5.45733 42.568 5.4494 42.5821 5.41542C42.6436 5.27479 42.6014 5.11538 42.6666 4.98078C42.6913 4.92993 42.7829 4.98549 42.8124 4.92843C42.8421 4.87209 42.7332 4.77323 42.8321 4.72077C42.908 4.68022 43.1906 4.75038 43.2586 4.69305C43.0129 4.55824 43.045 4.50878 43.0353 4.3769C43.0334 4.35132 42.9374 4.32244 42.9323 4.30772C42.9099 4.24576 42.9982 4.25539 42.9714 4.19358C42.9651 4.17863 42.8833 4.12879 42.8736 4.11361C42.7888 3.98105 43.0306 4.00166 43.0721 4.00664C43.2309 4.0229 43.1442 3.92835 43.2213 3.91379C43.2981 3.89989 43.3114 4.00597 43.3746 3.97278C43.5058 3.90376 43.5863 3.76281 43.6682 3.65815C43.7005 3.61598 43.5763 3.56926 43.5786 3.56145C43.6183 3.45339 43.7839 3.45416 43.6329 3.24006C44.1751 3.62354 43.6292 3.13693 43.8611 3.12245C43.8799 3.12218 44.064 3.37282 44.0655 3.42857C44.0689 3.48266 43.9643 3.4452 43.9861 3.52766C43.9906 3.54686 44.1873 3.76874 44.1906 3.79417C44.245 3.9519 43.8652 3.68349 43.8416 3.6724C43.5873 3.55238 43.7758 3.82752 43.778 3.86183C43.7857 4.02181 43.672 4.0711 43.672 4.19867C43.672 4.28128 43.9243 4.4524 43.8883 4.49067C43.7728 4.61344 43.3743 4.45057 43.616 4.77156C43.6684 4.83937 43.9761 4.9691 43.6922 4.94472C43.6746 4.94237 43.4216 4.90983 43.5364 5.02114C43.551 5.03492 43.6386 5.0768 43.6426 5.08723C43.6684 5.1557 43.5842 5.15416 43.5969 5.21865C43.61 5.28236 43.6395 5.35859 43.5905 5.39981C43.561 5.42469 43.3754 5.41227 43.3279 5.41704C43.1907 5.43107 43.3807 5.53295 43.2238 5.527C43.0652 5.52585 42.8498 5.40401 42.7313 5.48154C42.9779 5.53436 43.2306 5.5911 43.479 5.64225C43.443 5.78366 43.356 5.91967 43.3858 6.0665C43.3898 6.08425 43.5218 6.04855 43.5294 6.06538C43.5609 6.13284 43.4821 6.22292 43.5451 6.29516C43.595 6.35213 43.7548 6.36692 43.8162 6.41429C43.5715 6.5744 43.7145 6.6417 43.7377 6.73223C43.7463 6.7648 43.679 6.80243 43.6697 6.83554C43.6378 6.96115 43.8321 6.79008 43.8786 6.78861C44.0771 6.77994 43.602 7.10875 43.6955 7.21426C43.7005 7.22051 43.9993 7.10658 44.0213 7.10353C44.1651 7.08576 43.9438 7.17862 43.9541 7.22904C43.973 7.32043 43.9559 7.41613 44.0916 7.43684C44.132 7.44317 44.3234 7.37153 44.2539 7.51631C44.2449 7.5354 44.1665 7.60031 44.1665 7.60924C44.1689 7.76122 44.44 7.57974 44.4831 7.47014C44.5393 7.37503 44.3926 7.5428 44.3691 7.60316C44.2951 7.7502 44.3289 7.66116 44.3207 7.67487C44.2094 7.83155 44.2453 7.81615 44.2576 7.84001C44.1215 8.12283 44.1859 8.12971 44.2723 7.86357C44.2826 7.83495 44.2554 7.85498 44.2576 7.84001C44.4141 7.57244 44.3804 7.52087 44.3561 7.81014C44.3478 7.94472 44.3132 8.1018 44.3938 8.04932C44.4392 8.0243 44.4297 7.80791 44.4874 7.74922C44.6267 7.61502 44.8078 7.81627 44.9514 7.78456C45.0036 7.77305 44.9528 7.65495 44.9884 7.64302C45.083 7.61097 45.1664 7.69958 45.2613 7.65419C45.2699 7.64992 45.2489 7.52631 45.2785 7.52473C45.5023 7.51037 45.6973 7.58955 45.931 7.59175C46.044 7.59275 46.2459 7.52457 46.3629 7.53828C46.5657 7.56131 46.8151 7.74107 46.9884 7.6974C47.1014 7.66945 47.0766 7.5458 47.125 7.46156C47.2184 7.29826 47.3838 7.59077 47.406 7.63606C47.4067 7.63756 47.3095 7.66671 47.3614 7.73017C47.3915 7.86242 47.4049 7.63663 47.406 7.63606C47.4207 7.66532 47.6149 7.69339 47.6534 7.66975C47.6744 7.65683 47.6627 7.53969 47.6736 7.53517C47.9333 7.43033 48.1934 7.40056 48.4568 7.45533C48.4615 7.4577 48.4545 7.58873 48.4654 7.59266C48.6179 7.65092 48.7155 7.49063 48.8413 7.39546C48.967 7.30033 49.0667 7.33219 49.1412 7.55714C49.2361 7.52882 49.3722 7.62827 49.4505 7.68861C49.5288 7.74895 49.5398 7.49388 49.5467 7.48884C49.7616 7.32745 49.8859 7.47345 50.1089 7.49617C50.2149 7.50741 50.4252 7.47041 50.54 7.44252C50.6308 7.42005 50.6854 7.47982 50.769 7.4416C50.7803 7.4365 50.7689 7.32293 50.7724 7.31856C50.8657 7.18268 50.8208 7.46031 50.8401 7.5099C50.9099 7.69022 50.9531 7.78625 51.0726 7.70143C51.1001 7.682 51.1804 7.28224 51.2306 7.25886C51.2959 7.2292 51.2713 7.37249 51.3397 7.33778C51.3455 7.33494 51.3443 7.24654 51.3865 7.25044C51.5824 7.26737 51.7961 7.31881 51.9997 7.30995C52.0275 7.30908 51.9918 7.16886 52.032 7.1653C52.2206 7.14868 52.4272 7.15386 52.6109 7.2195C52.6561 7.23609 52.6278 7.33427 52.6376 7.36342C52.6979 7.53979 52.7833 7.28352 52.7974 7.27864C53.1337 7.15549 53.3911 7.38741 53.7339 7.27699C53.7526 7.27051 53.8962 6.99578 53.9603 7.2314C53.9647 7.24707 54.0281 7.48813 54.0842 7.32332C54.0876 7.313 54.0481 7.1889 54.1171 7.20155C54.186 7.21417 54.297 7.1313 54.3917 7.26765C54.4218 7.31061 54.4927 7.55107 54.5822 7.35939C54.588 7.34601 54.7262 6.91258 54.7755 7.21162C54.7835 7.26085 54.7751 7.5773 54.8819 7.41505C54.9023 7.3836 54.8653 7.31301 54.919 7.26893C55.0014 7.201 55.1106 7.28576 55.2118 7.14479C55.2295 7.11983 55.3047 6.90504 55.365 7.06807C55.3744 7.0936 55.3565 7.19925 55.3883 7.21107C55.5398 7.26779 55.6983 7.19712 55.8521 7.27022C55.9066 7.2959 55.8787 7.46669 55.9355 7.51246C55.9923 7.55822 56.1067 7.60223 56.1661 7.52418C56.2255 7.4461 56.1606 7.17389 56.2496 7.15211C56.8653 7.05259 56.1934 7.22369 56.2201 7.39876C56.2235 7.40093 56.1343 7.35956 56.1703 7.29788C56.3164 7.05064 56.3983 6.68333 56.6544 6.57879C56.8628 6.48913 56.9146 6.71996 57.0201 6.62326C57.0712 6.57356 56.7867 6.41968 56.78 6.40653C56.7166 6.25957 56.8691 6.21157 56.8415 6.09894C56.8354 6.07655 56.7056 6.08045 56.7016 6.06278C56.6865 6.0038 56.7478 5.94865 56.7385 5.89286C56.734 5.86803 56.6359 5.87173 56.6435 5.85041C56.6602 5.7989 56.6993 5.75209 56.7855 5.68757C56.7933 5.68118 56.9182 5.70698 56.9183 5.66083C56.9183 5.58776 56.9922 5.47325 56.8807 5.40157C56.847 5.37998 56.6296 5.43175 56.7659 5.33911C56.7942 5.31974 57.0587 5.26627 56.8154 5.25724C56.7746 5.25336 56.4435 5.2382 56.6154 5.11831C56.6607 5.08656 56.8545 4.97383 56.8085 4.94923C56.8016 4.94639 56.6957 5.00685 56.6741 4.98215C56.6002 4.8961 56.5668 4.78235 56.4843 4.69128C56.462 4.6669 56.3679 4.76062 56.3383 4.72324C56.2568 4.62035 56.2165 4.46777 56.1885 4.33078C56.1781 4.27955 56.2851 4.26164 56.2934 4.25318C56.4264 4.11428 56.1925 4.19953 56.1703 4.18864C55.9997 4.05726 56.2115 4.19663 56.2041 4.21585C56.2082 4.23089 56.1214 4.31048 56.1165 4.32021C56.0769 4.42206 56.196 4.24589 56.2242 4.23917C56.3018 4.2169 56.3242 4.23715 56.3555 4.2622C56.3673 4.27128 56.315 4.39834 56.3306 4.40598C56.5512 4.45428 56.1401 4.4255 55.9231 4.35338C55.8775 4.339 55.9062 4.23414 55.8967 4.21019C55.8313 4.04264 55.7353 4.27118 55.7133 4.29296C55.6129 4.39236 55.5739 4.29964 55.4853 4.31694C55.0523 4.40311 54.5177 4.3417 54.1091 4.30376C53.5765 4.25493 53.1632 4.15518 52.6554 4.18108C52.6231 4.18259 52.6557 4.32209 52.6278 4.32518C52.2686 4.35881 51.9149 4.3043 51.555 4.34459C51.5254 4.34765 51.568 4.47989 51.5206 4.48924C51.4234 4.50936 51.3002 4.50217 51.2019 4.45995C51.1539 4.4396 51.2182 4.32613 51.17 4.30797C51.0576 4.26543 50.9371 4.25601 50.8216 4.27721C50.7725 4.28652 50.8466 4.42177 50.7828 4.42333C50.3477 4.43674 49.9205 4.46004 49.4809 4.2849C49.4508 4.27287 49.4243 3.998 49.3603 4.05071C49.3554 4.12699 49.3557 4.21673 49.3536 4.29827C48.7203 4.34219 48.0935 4.2469 47.4585 4.23217C47.4317 4.23158 47.478 4.37722 47.4261 4.37682C47.1261 4.37466 46.8348 4.41501 46.5279 4.27025C46.4974 4.25609 46.5131 3.99987 46.4233 4.03862C46.4075 4.04569 46.2724 4.07987 46.2374 4.13549C46.2327 4.14388 46.2573 4.26347 46.2138 4.26695C45.9607 4.28512 45.6955 4.25781 45.4429 4.18474C45.4021 4.17272 45.4455 4.04536 45.4165 4.03569C45.2105 3.96809 44.9864 4.0649 44.7896 3.94927C44.6578 3.87141 44.7066 3.65126 44.6366 3.43456C44.6267 3.40399 44.5451 3.39914 44.5408 3.27306C44.53 2.95602 44.5695 2.60886 44.5533 2.27093C44.5499 2.19814 44.4406 2.27654 44.5053 2.10064C44.5098 2.08887 44.5891 2.03049 44.6086 1.97082C44.6222 1.92956 44.5977 1.80134 44.6254 1.74853C44.6531 1.69577 44.6836 1.80325 44.7295 1.74121C44.7754 1.67839 44.7552 1.53252 44.847 1.51525ZM49.8032 7.95832C49.8757 8.08082 49.8864 7.63217 49.808 7.73951C49.8042 7.74523 49.7995 7.95231 49.8032 7.95832ZM43.0256 5.92692C42.8295 6.01062 43.125 6.042 43.2739 5.98421C43.4238 5.93469 43.0854 5.90548 43.0256 5.92692ZM43.0447 5.09458C42.862 5.13637 43.4579 5.36008 43.3697 5.22895C43.3648 5.22143 43.0553 5.09244 43.0447 5.09458ZM44.9613 3.37285C44.9603 3.3669 44.9016 3.36109 44.9002 3.36699C44.869 3.50948 44.9862 3.52099 44.9613 3.37285ZM43.3343 4.2043C43.2432 4.18694 43.2765 4.3218 43.3896 4.34256C43.4795 4.36055 43.447 4.22673 43.3343 4.2043ZM53.5866 8.43714C53.5877 8.44383 53.6298 8.44985 53.6289 8.41206C53.6261 8.29034 53.5676 8.32469 53.5866 8.43714ZM44.3719 3.16932C44.1959 3.16869 43.7748 2.7799 44.1407 2.71676C44.2012 2.71077 44.0656 2.91433 44.1506 2.93771C44.2824 2.98675 44.3315 2.64545 44.4824 2.8197C44.4987 2.85077 44.3746 3.16903 44.3716 3.17009C44.3717 3.16984 44.3718 3.16958 44.3719 3.16932ZM49.845 8.4972C49.8464 8.50313 49.9046 8.50876 49.906 8.50288C49.9375 8.36045 49.8203 8.34903 49.845 8.4972ZM56.0402 8.71455C56.0434 8.72719 56.1785 8.73901 56.1829 8.72736C56.2534 8.49445 55.9803 8.46986 56.0402 8.71455ZM45.9248 8.82551C45.8613 8.96879 45.7853 8.98567 45.7347 8.80573C45.7978 8.81528 45.8613 8.81669 45.9248 8.82551ZM30.9914 125.998C30.941 124.332 30.9679 122.148 31.014 120.489C31.0282 119.968 31.1095 120.231 31.1229 119.872C31.1491 119.17 31.1056 118.516 31.1377 117.822C31.1488 117.592 31.2767 117.877 31.2853 117.636C31.332 116.314 31.2914 115.064 31.3091 113.726C31.3963 107.132 31.3995 100.65 31.4115 93.9762C31.4154 91.7755 31.5115 89.0997 31.446 86.8271C31.4383 86.5618 31.3288 86.7208 31.3193 86.6704C31.1745 85.8795 31.3994 86.1413 31.4256 85.6241C31.5287 83.5714 31.5233 81.2897 31.4672 79.3153C31.4431 78.4754 31.2292 79.3192 31.3467 78.4724C31.3546 78.4136 31.4735 78.626 31.4844 78.3955C31.509 77.8729 31.4813 76.8818 31.4878 76.4768C31.5011 75.6963 31.499 75.5671 31.4953 74.829C31.4913 73.8199 31.5415 72.6193 31.5075 71.5369C31.4999 71.3058 31.3817 71.6126 31.3587 71.2442C31.3357 70.8755 31.3393 69.8995 31.3654 69.5704C31.3916 69.2411 31.4871 69.3806 31.5084 69.3222C31.6881 68.8418 31.427 67.7147 31.4197 67.5696C31.2949 64.9222 31.4239 62.6503 31.4065 60.1646C31.4643 58.4105 30.9817 55.7409 32.109 54.3139C33.1084 52.399 34.0567 50.8397 35.1485 49.0495C35.264 48.8611 35.0069 49.0069 35.1488 48.7758C36.6542 46.325 38.3366 44.0108 40.149 41.8142C40.3316 41.5931 40.2056 41.9601 40.3924 41.7459C41.4121 40.5344 43.9821 37.9676 43.3066 37.6207C43.3278 36.4432 43.3496 35.0137 43.4586 33.9602C43.5288 33.281 43.6641 33.9407 43.6064 33.1063C43.5935 32.9182 43.475 33.1629 43.4647 32.8807C43.4213 31.6925 43.4598 30.3944 43.3986 29.219C43.3858 28.98 43.2796 29.0452 43.2605 28.9775C43.1056 28.4082 43.3616 27.4605 43.3802 27.2539C43.519 25.6806 43.4644 24.5317 43.4678 23.0661C43.4686 22.7259 43.326 23.128 43.3216 22.8007C43.3012 21.1033 43.3135 19.3451 43.3768 17.683C43.3912 17.3134 43.5127 17.6533 43.5258 17.4767C43.5821 16.6977 43.3526 16.525 43.4022 15.778C43.4124 15.6204 43.5164 15.7092 43.5278 15.6804C43.7072 15.2308 43.4531 14.8401 43.4474 14.7245C43.3708 13.2615 43.6361 12.3265 43.5985 10.9132C43.5937 10.7441 43.4621 11.1254 43.4568 10.6501C43.2683 10.0749 44.0156 8.17385 45.1817 8.44307C45.9899 8.44299 46.8033 8.4474 47.6156 8.45623C49.2404 8.47388 50.8611 8.50924 52.4281 8.56188C52.9154 8.57807 52.5675 8.67695 52.5982 8.68914C53.098 8.87959 53.4213 8.62441 53.5802 8.6148C54.8523 8.67663 55.9044 8.19125 57.1664 8.98788C57.9742 15.0156 57.4836 19.7791 57.3372 25.143C57.3341 25.21 57.2084 25.09 57.2026 25.2236C57.1321 26.8316 57.3274 26.5228 57.5663 27.5868C57.6263 27.8548 57.3379 28.6702 57.3167 28.7423C57.2388 29.0051 57.0518 28.7325 57.0368 28.8206C56.9183 29.5488 57.5366 29.4302 57.5368 30.4127C57.5358 30.4434 57.422 30.3143 57.4107 30.3968C57.3751 30.653 57.4203 30.907 57.3812 31.1577C57.2905 31.7314 56.9901 31.9358 57.1649 32.8122C57.1876 32.9231 57.5384 32.7537 57.5218 33.6309C57.5149 33.9806 57.5209 35.5285 57.4982 35.9624C57.4755 36.3957 57.3624 36.0982 57.3576 36.1291C57.2081 37.2966 57.1461 36.8539 56.9249 37.4388C56.7051 38.0634 57.2669 37.8323 57.3693 37.9489C57.4359 38.0118 57.9977 38.7822 58.0884 38.9615C58.1947 39.1479 57.9681 38.9982 58.0728 39.1546C58.7688 40.1927 58.6275 39.3933 58.9579 39.6462C59.7408 40.2482 59.9324 41.0741 60.4664 41.7764C60.6111 41.9671 60.5551 41.7602 60.6975 41.9195C61.2573 42.5497 61.4826 43.0207 62.1592 43.7099C62.2704 43.8226 62.9306 44.2998 63.0904 44.8095C63.1126 44.8817 62.915 44.776 63.1098 45.0793C63.4015 45.5319 63.9389 46.336 64.2854 46.7997C64.5413 47.1416 64.4049 46.6444 64.6596 47.1223C64.7715 47.3346 64.4522 47.0153 64.6673 47.409C64.8837 47.8005 65.4858 48.7689 65.705 49.1405C65.9274 49.513 65.9121 49.2473 65.9369 49.2733C66.0851 49.4312 66.5465 50.1283 66.5811 50.1937C68.4454 53.3966 69.4805 56.8446 69.2239 60.4376C69.2271 60.7197 69.3565 60.5327 69.3583 60.5757C69.4054 61.5417 69.0701 60.778 68.9515 61.4518C69.2121 61.3561 69.1623 61.7539 69.1862 62.4343C69.1979 62.7622 69.2997 62.5843 69.3098 62.6143C69.4594 63.1014 69.2596 63.4385 69.2187 63.5254C69.0679 63.8463 69.2411 64.1978 69.1403 64.4162C69.0402 64.6345 68.8975 64.1297 68.895 64.782C68.9868 64.9656 69.2332 64.4829 69.2692 64.9785C69.4055 66.8481 69.191 70.335 69.161 71.8373C69.131 73.3367 69.1449 73.8211 69.1053 74.6947C69.0338 76.2725 69.2181 75.6954 69.294 76.6759C69.3699 77.6593 68.9293 77.1785 68.8329 77.3192C68.7366 77.4572 68.8338 77.6093 68.7802 77.7815C68.7266 77.9531 68.6643 77.5804 68.6418 77.9847C68.6194 78.3892 68.7815 79.4967 68.8803 79.6408C69.0896 79.9455 69.3148 79.4484 69.2296 80.5186C69.2245 80.5802 69.1092 80.3795 69.0958 80.6152C68.9932 82.4875 68.9744 84.4331 68.8822 86.3031C68.8694 86.5602 68.7411 86.3294 68.7322 86.479C68.6385 88.0375 68.8612 87.4817 69.0986 88.3379C68.7763 88.1438 68.5751 88.615 68.5651 89.7982C68.559 90.5095 68.7012 90.388 68.7977 90.8488C68.8268 90.987 68.7263 91.4897 68.7921 91.5813C69.0074 91.8835 69.2538 91.4111 69.1487 92.6304C69.1437 92.6839 69.0259 92.5127 69.0175 92.6976C68.9622 93.8927 69.1885 94.0373 69.2072 95.3298C69.2219 96.3428 69.0711 98.1433 69.0407 99.2965C68.677 99.2698 68.7529 100.36 69.0008 100.803C68.9854 101.552 68.9941 102.36 68.9545 103.084C68.941 103.332 68.8368 103.168 68.8252 103.199C68.6434 103.68 68.8852 104.007 68.8937 104.168C68.9747 105.92 68.7801 107.345 68.9495 109.018C68.9556 109.077 69.2076 109.175 69.0201 109.62C69.0072 109.649 68.8959 109.096 68.8817 109.883C68.8674 110.669 68.7219 112.15 68.8316 113.242C68.858 113.507 69.0586 114.176 68.8946 114.711C68.8724 114.783 68.8004 114.704 68.7594 114.807C68.6286 115.139 68.8828 115.323 68.6631 115.713C68.4435 116.104 68.2754 116.917 68.4176 118.019C68.4218 118.054 68.6224 118.316 68.6169 118.662C68.6078 119.215 68.5603 119.999 68.5577 120.576C68.5565 120.853 68.6835 120.677 68.6854 120.725C68.7433 122.583 68.6222 123.904 68.56 125.894C68.5484 126.258 68.7127 127.308 68.5723 128.013C68.3602 128.654 68.0565 128.57 67.755 129.171C67.4251 129.391 66.5968 130.507 65.2931 130.528C62.9476 131.432 60.6848 131.892 58.2603 132.562C58.1511 132.592 57.8475 132.879 57.5859 132.928C57.1937 133 56.9624 132.938 56.6856 132.981C55.5159 133.155 54.4569 133.383 53.3201 133.467C52.8877 133.497 53.0303 133.381 52.5179 133.409C52.004 133.434 51.667 133.591 50.9666 133.537C50.4378 133.494 49.9148 133.209 49.2265 133.151C49.1907 133.43 48.7117 133.414 47.856 133.424C47.691 133.426 47.8594 133.537 47.7808 133.543C47.459 133.568 47.1764 133.461 46.871 133.485C46.7967 133.49 46.7832 133.585 46.7215 133.595C46.1956 133.683 45.3862 133.354 45.2528 133.295C44.7306 133.073 44.4531 133.151 44.0489 133.023C43.6442 132.892 44.2764 132.936 43.7989 132.814C42.8107 132.56 41.532 132.285 40.5362 132.017C40.1351 131.91 40.3761 132.105 40.3179 132.093C39.4861 131.906 38.6974 131.53 38.1671 131.634C37.7881 130.827 37.6566 131.549 36.5307 131.038C36.4431 130.998 36.4284 130.665 36.7882 130.737C37.1523 130.809 37.6546 131.074 38.1622 131.156C38.2854 131.177 39.0302 131.096 39.1228 131.104C39.8674 131.177 39.8444 131.65 39.8751 131.685C40.2242 132.07 41.1342 131.979 41.3487 132.008C42.367 132.156 43.1839 132.395 44.0373 132.479C44.5893 132.531 44.6936 132.239 45.1176 132.315C46.5229 132.556 46.9905 133.033 48.3671 132.758C48.6605 132.695 48.3901 132.357 49.4087 132.656C49.4709 132.676 50.2385 132.932 50.6824 132.775C50.738 132.755 50.7353 132.658 50.8084 132.649C51.2981 132.59 51.6271 132.657 52.16 132.593C52.6932 132.528 53.328 132.424 53.937 132.392C54.3053 132.373 54.7962 132.494 54.9787 132.514C55.4962 132.573 55.9918 132.283 56.3262 132.382C56.6641 132.481 56.0952 132.822 56.9293 132.775C56.9143 132.521 56.9365 132.254 56.9378 131.996C58.7023 131.675 60.4449 131.318 62.1833 130.789C62.3985 130.723 62.139 130.66 62.3688 130.585C63.3406 130.269 64.2065 130.089 65.2004 129.708C65.9199 129.43 66.9183 128.915 67.4441 128.683C67.5511 129.15 67.5877 128.173 67.5967 127.158C67.608 126.832 67.6849 126.854 67.7117 126.622C67.8106 125.745 67.5528 126.154 67.5143 125.914C67.3501 124.881 67.9278 124.797 67.9219 123.58C67.9217 123.516 67.6194 122.726 67.601 122.618C67.4808 121.928 67.7089 122.504 67.7345 122.073C67.7814 121.286 67.8586 120.739 67.7748 119.815C67.7499 119.545 67.5626 118.897 67.7145 118.375C67.7344 118.306 67.8358 118.345 67.8421 118.29C67.9482 117.288 67.6289 117.259 67.5245 116.685C67.4202 116.111 67.6468 115.228 67.7116 115.048C67.8793 114.578 67.7795 115.41 67.7954 115.435C67.9855 115.736 67.9568 115.09 67.9764 114.597C68.2902 114.528 68.2761 113.838 67.9954 114.086C67.9648 114.114 67.9914 114.498 67.9764 114.597C67.6719 114.162 67.6377 113.404 67.9307 112.568C68.068 112.177 68.2224 112.549 68.1731 111.358C68.1509 110.817 67.9337 111.024 67.8781 110.547C67.7514 109.457 67.9622 108.042 67.9382 106.919C67.9294 106.511 67.8086 106.907 67.7986 106.628C67.7716 105.889 67.8646 105.237 67.8243 104.494C67.8205 104.427 67.6957 104.591 67.6957 104.36C67.6933 102.609 67.7828 101.085 67.7975 99.2574C67.8045 98.3743 67.747 96.7949 67.767 95.8802C67.8008 94.2947 67.9938 92.3453 67.9593 90.9905C67.9374 90.1068 67.8124 90.2998 67.7308 89.9207C67.5725 89.1891 67.8738 87.8981 67.9202 87.7243C67.9218 87.719 67.9457 88.4794 68.012 88.0742C68.1458 87.8392 67.9207 87.7329 67.9202 87.7243C67.9503 87.6101 67.9887 86.0917 67.9671 85.79C67.9553 85.626 67.8375 85.7169 67.8336 85.6314C67.7426 83.6 67.7266 81.5656 67.7954 79.5064C67.798 79.4702 67.9287 79.5257 67.9332 79.4404C67.9996 78.2485 67.8445 77.4839 67.756 76.4999C67.6675 75.516 67.7047 74.7365 67.9336 74.156C67.9103 73.4139 68.017 72.3502 68.0815 71.7381C68.146 71.1261 67.8916 71.0389 67.8869 70.985C67.7369 69.303 67.8895 68.3323 67.9241 66.5887C67.941 65.7597 67.9152 64.1149 67.8934 63.2171C67.8758 62.5075 67.9384 62.0805 67.9047 61.4265C67.9002 61.3381 67.786 61.4266 67.7818 61.3996C67.6509 60.6691 67.9261 61.0216 67.9767 60.8714C68.1608 60.3265 68.2591 59.9898 68.1806 59.0549C68.1627 58.8393 67.7672 58.2089 67.7465 57.8159C67.7203 57.305 67.8623 57.4987 67.8312 56.9637C67.8287 56.9179 67.7402 56.9269 67.7464 56.5968C67.9929 56.2706 66.7594 53.9827 66.157 52.7386C66.0595 52.5487 66.0584 52.8552 65.9158 52.5837C65.2469 51.311 64.4777 49.9367 63.7888 48.7194C63.6199 48.4201 63.8175 48.5497 63.8023 48.4711C63.7046 47.9854 63.1291 47.5814 63.0654 47.4964C61.5314 45.4435 60.4874 43.7607 58.6887 41.804C58.5903 41.6967 57.6581 41.031 57.5105 40.5039C57.5001 40.468 57.3591 39.939 56.9462 39.7185C56.9207 39.7052 57.0303 40.0178 56.6854 39.6062C56.3983 39.5548 55.4398 37.26 55.7677 36.8151C55.8106 36.5805 56.0511 36.026 55.8594 35.3262C55.846 35.2806 55.4126 34.2002 55.7116 33.8146C55.7608 33.7521 56.0773 33.8175 55.9151 32.9823C55.8836 32.8227 55.813 33.1124 55.7689 32.692C55.701 32.0478 55.7858 31.1943 55.6448 30.4025C55.6198 30.2644 55.405 29.6765 55.5681 29.205C55.5936 29.1311 55.6992 29.2714 55.7111 29.0224C55.7678 27.8382 55.6971 26.5983 55.7702 25.3959C55.7959 24.9701 55.9667 25.1878 56.0125 24.7439C56.0582 24.2999 56.1022 23.4054 56.0242 22.9409C55.9461 22.4762 55.6739 22.9838 55.6521 22.2877C55.5575 19.2615 55.7172 16.2637 55.7406 13.2419C55.744 12.7937 55.6466 13.1653 55.6448 12.5048C55.643 11.8961 55.6359 11.1767 55.6296 10.4072C55.3429 9.27919 56.7336 10.6582 55.5789 10.3813C53.9593 10.3792 52.3801 10.3503 51.3236 10.2468C49.6306 10.081 51.7611 9.95484 50.4674 9.88738C49.8432 9.8552 49.1678 10.1717 49.0171 10.1816C47.5449 10.2828 46.5218 10.1426 45.1967 10.1857C44.9346 10.1948 45.1423 10.322 44.9933 10.3296C45.365 10.3459 45.2976 9.79334 45.3045 10.8621C45.3095 11.2031 45.4075 11.1403 45.3999 11.4541C45.3829 12.2049 45.3417 12.8688 45.2499 13.6007C45.2416 13.6674 45.1197 13.2176 45.1152 13.7731C45.1082 14.6721 45.0176 15.788 45.1111 16.8224C45.1393 17.1293 45.3632 17.1413 45.2085 17.801C45.1762 17.9394 44.9074 17.7628 45.1397 18.5313C45.1783 18.6605 45.4916 19.9514 45.2897 20.5849C45.2365 20.752 45.0165 21.1786 45.0511 21.5477C45.0566 21.5977 45.1769 21.3972 45.1886 21.703C45.2278 22.7808 45.215 23.9104 45.2527 25.0176C45.263 25.3133 45.3874 24.8729 45.3988 25.3136C45.4302 26.5255 45.3986 28.0385 45.3596 29.2236C45.345 29.6605 45.2419 29.3585 45.2307 29.3903C45.0482 29.9015 45.2945 30.2038 45.3089 30.3734C45.3949 31.4287 45.2792 32.2323 45.3098 33.205C45.3179 33.4734 45.4354 33.2831 45.4458 33.3365C45.5482 33.8907 45.3373 33.4779 45.314 33.8287C45.2482 34.8114 45.2576 35.9069 45.2726 36.9006C45.2783 37.2657 45.4145 36.8554 45.418 37.183C44.6544 41.3495 43.0742 40.9863 41.9272 42.7905C41.701 43.0599 41.7531 42.8208 41.6894 42.8642C41.2444 43.1663 40.9796 43.894 40.8941 44.0444C40.5081 44.7237 40.2544 44.9113 39.8672 45.473C37.9607 48.2135 35.7569 51.6563 34.2664 54.4326C31.8583 57.4423 33.5206 61.0031 33.2418 64.9229C33.245 65.1753 33.3828 64.9198 33.3874 65.1374C33.4401 67.9461 33.4044 70.7119 33.4638 73.5262C33.4685 73.7572 33.5984 73.4234 33.6103 73.794C33.6356 74.5543 33.635 75.5175 33.598 76.2866C33.5802 76.6618 33.4633 76.1596 33.4477 76.5371C33.4111 77.4163 33.4081 78.3585 33.4355 79.2611C33.4474 79.6452 33.5787 79.0647 33.5837 79.564C33.6202 82.9654 33.6662 86.3059 33.5145 89.7445C33.5041 89.9802 33.2306 90.1888 33.2867 90.6895C33.3633 90.7267 33.453 90.7241 33.5346 90.74C33.6122 95.6914 33.5503 100.593 33.5693 105.559C33.5702 105.768 33.7133 105.406 33.7157 105.811C33.7295 108.157 33.7853 110.435 33.6569 112.835C33.6444 113.073 33.3873 112.953 33.4309 113.654C33.4388 113.778 33.4801 114.835 33.5376 115.108C33.5462 115.145 33.6645 114.951 33.6703 115.291C33.7019 117.27 33.6888 119.344 33.6291 121.32C33.6193 121.639 33.4896 121.3 33.4815 121.528C33.4248 123.139 33.5336 124.89 33.4284 126.43C33.3576 127.461 33.1348 127.081 32.9218 127.63C32.8918 127.708 32.8913 128.346 32.7654 128.38C32.449 128.466 32.0997 128.16 31.7627 128.289C31.6901 128.316 31.7743 129.17 31.5949 128.665C31.5829 128.63 31.5203 128.011 31.4596 127.859C31.4177 127.753 31.2907 127.945 31.2365 127.729C31.1822 127.512 31.2881 127.274 31.2236 126.915C31.1583 126.556 31.0135 126.715 30.9914 125.998ZM68.37 68.9822C68.4963 68.4159 68.0483 68.3292 68.1514 68.9433C68.157 68.973 68.3638 69.0114 68.37 68.9822ZM60.5184 131.621C61.2807 131.623 61.6854 131.203 61.1455 131.196C60.6107 131.187 60.2856 131.62 60.5184 131.621ZM53.0545 133.093C53.928 133.177 53.995 132.53 53.1003 132.737C53.0483 132.749 53.0038 133.088 53.0545 133.093ZM32.8429 125.092C32.837 125.099 32.8343 125.558 32.8403 125.569C32.9844 125.812 32.9897 124.895 32.8429 125.092ZM45.495 132.999C45.7522 133.125 46.533 133.12 46.2149 132.973C45.9601 132.857 45.18 132.846 45.495 132.999ZM60.313 41.9345C60.3128 41.9235 60.1077 41.668 60.0828 41.6972C60.0041 41.7925 60.3211 42.1202 60.313 41.9345ZM33.0881 129.543C34.8168 130.244 35.7757 131.119 33.8228 130.351C33.4738 130.211 34.6395 130.472 34.2086 130.264C33.5303 129.866 32.2777 130.103 32.3154 128.84C32.2684 128.729 32.9581 129.624 33.0909 129.543C33.09 129.543 33.089 129.543 33.0881 129.543ZM68.9111 68.6593C68.9171 68.648 68.9258 68.1929 68.92 68.1819C68.7793 67.9345 68.7616 68.8513 68.9111 68.6593ZM57.2145 23.9252C57.2272 23.9 57.239 22.8438 57.2274 22.8093C56.9945 22.2583 56.9699 24.3938 57.2145 23.9252ZM69.0309 99.3146C69.1708 99.8122 69.1836 100.406 69.001 100.801C69.0139 100.308 69.0187 99.8108 69.0309 99.3146Z" fill="black"/>
</svg>
