<svg width="102" height="136" viewBox="0 0 102 136" fill="none" xmlns="http://www.w3.org/2000/svg">
<path d="M67.9984 70C46.5085 82.2106 34.7563 66.8552 33 75.8792L33.0003 129.516C46.6607 134.264 54.3345 134.057 67.9984 129.516C68.0039 104.031 67.993 95.4845 67.9984 70Z" fill="#900639"/>
<path d="M49.8095 133.488C46.0037 133.447 42.0593 132.751 38.2431 131.69C36.3172 130.933 34.52 131.527 32.5608 129.221C32.4184 126.946 32.5252 125.259 32.5104 123.331C32.5129 122.406 32.5465 122.469 32.5509 122.21C32.5631 121.501 32.5235 121.074 32.5264 120.557C32.5404 118.044 32.5461 115.694 32.5588 113.228C32.5718 110.689 32.6762 111.89 32.7016 111.008C32.7514 109.284 32.6153 110.75 32.5848 110.073C32.5929 108.097 32.6076 106.103 32.6226 104.123C32.6353 104.606 32.6477 105.09 32.6595 105.578C32.6623 104.715 32.6833 103.48 32.7189 104.925C32.7287 104.606 32.7401 104.308 32.7497 103.98C32.7001 103.89 32.6961 102.362 32.6667 102.222C32.6373 102.083 32.6441 102.942 32.6415 102.936C32.6049 102.879 32.6549 99.3558 32.659 99.1017C32.6699 98.43 32.7313 99.0189 32.7274 98.4474C32.7206 97.4645 32.5956 98.1194 32.7618 96.7888C32.7078 96.2595 32.7358 96.2133 32.7396 95.543C32.74 95.4548 32.7088 95.5233 32.708 95.4845C32.6847 94.47 32.7429 95.2498 32.746 95.2445C32.7995 95.1524 32.7758 94.0637 32.7809 93.8343C32.8448 90.9563 32.8881 88.8475 32.9029 85.8106C32.906 85.1542 32.8843 83.1547 32.8934 82.5195C32.9023 81.8929 32.9409 82.2291 32.9594 81.9012C32.8667 81.3756 32.8564 80.8742 32.9175 79.6941C32.8499 79.2547 32.9044 79.3113 32.8909 78.4695C32.8874 77.7605 32.7659 76.5841 32.8907 75.7514C32.8288 76.6971 32.9023 76.5609 32.9147 77.5647C32.9214 77.896 32.9228 81.3508 32.9919 81.0937C33.028 80.9596 32.9949 79.8146 33.0015 79.7703C33.0402 79.5127 33.0878 80.1518 33.0712 80.7182C33.0633 80.5771 33.0554 80.407 33.0476 80.2552C32.9992 81.5275 33.1851 80.6526 33.0226 81.6196C33.0027 81.7391 32.9819 81.6928 32.9608 81.8899C32.9695 81.9304 32.9912 81.6893 32.9951 81.8969C32.999 82.1088 32.9578 82.511 32.9926 82.571C33.0431 82.6606 33.0232 81.783 33.0261 81.717C33.0258 81.7163 33.0255 81.7156 33.0252 81.7148C33.052 81.1309 33.0551 82.3504 33.0599 82.4087C33.0914 82.7859 33.1156 82.5287 33.1416 83.0947C33.1564 83.4176 33.1477 84.2402 33.1525 84.5437C33.1574 84.8453 33.1813 84.3761 33.1864 84.579C33.1915 84.782 33.1734 85.0346 33.1793 85.2728C33.182 85.3748 33.2086 85.3696 33.2096 85.4189C33.2198 85.9482 33.1644 85.601 33.1677 86.081C33.17 86.3919 33.2217 87.4355 33.2371 86.7162C33.2425 87.062 33.2464 87.3991 33.2506 87.7432C33.2585 87.5262 33.2639 87.302 33.2732 87.0903C33.2605 87.7377 33.3061 88.0305 33.3095 88.4363C33.3129 88.8421 33.2582 89.2059 33.2849 89.6524C33.3417 90.6053 33.3154 88.2457 33.3256 87.9528C33.3296 87.8386 33.3725 88.277 33.3737 88.3445C33.3791 88.6444 33.3484 88.9991 33.3498 89.2303C33.3549 90.0579 33.3954 90.5646 33.4036 91.3534C33.4313 94.0391 33.4539 97.3709 33.4627 99.9155C33.466 100.863 33.4205 101.433 33.4218 101.859C33.4248 102.854 33.4645 102.975 33.4666 103.843C33.4699 105.135 33.4353 106.955 33.4278 108.033C33.4227 108.779 33.4611 109.455 33.462 109.649C33.4758 112.347 33.4749 115.63 33.4754 117.866C33.4757 118.917 33.4325 119.417 33.4338 119.634C33.4392 120.567 33.4761 120.317 33.4723 121.074C33.4704 121.482 33.435 121.559 33.4336 121.613C33.4219 122.095 33.4681 122.191 33.4697 122.567C33.4804 124.707 33.4398 126.904 33.4497 128.885C33.4644 128.969 33.4458 128.968 33.4671 129.021C33.5902 129.235 33.5478 129.139 33.7443 129.274C34.4555 129.532 35.4954 129.866 36.4118 130.155C36.506 130.185 36.5409 130.223 36.7554 130.288C36.9712 130.354 37.134 130.377 37.4754 130.478C38.3642 130.742 39.221 131.008 40.1731 131.245C40.33 131.284 40.5257 131.299 40.7644 131.356C41.5054 131.534 42.5901 131.79 43.2327 131.907C45.3353 132.296 47.3038 132.494 49.312 132.55C49.7834 132.563 50.2027 132.594 50.4485 132.594C51.0028 132.591 50.5843 132.569 51.1457 132.558C55.7359 132.461 60.2851 131.453 64.7611 130.101C65.5651 129.843 66.8854 129.504 67.3719 129.212C67.7814 128.916 67.4983 127.519 67.5549 126.713C67.5584 125.972 67.5968 125.828 67.5973 125.306C67.5979 124.38 67.5487 124.203 67.5439 123.216C67.5402 122.439 67.5894 121.521 67.5864 120.712C67.5834 119.909 67.5358 119.503 67.5301 118.578C67.5255 117.797 67.5472 116.73 67.5437 115.874C67.5116 108.161 67.4903 100.537 67.5266 92.7668C67.5395 90.0238 67.5324 86.9777 67.5793 84.144C67.5837 83.878 67.6298 84.2743 67.6201 83.4315C67.6149 82.9816 67.5752 82.3184 67.5732 81.2745C67.5653 78.1379 67.596 74.8025 67.5977 71.6344C67.3288 70.3387 65.4317 71.9176 63.9739 72.4317C62.4845 73.0735 60.8934 73.6469 59.3657 74.0845C54.6916 75.4557 49.6213 75.7444 44.9036 74.9676C40.4698 74.5954 34.4426 70.8694 33.3063 75.601C33.1921 76.0016 33.1259 75.7552 33.153 75.504C33.2324 75.2841 33.3091 75.1199 33.4201 74.8952C33.415 74.5835 33.3089 74.5523 34.0087 73.7232C34.4978 73.2787 34.0614 73.5833 34.3395 73.3474C34.6641 72.8874 36.9613 72.7371 36.5182 72.8586C36.6585 72.8474 36.7923 72.8405 36.9225 72.8354C38.5296 72.9763 40.0619 73.3735 41.598 73.6792C41.8722 73.7353 41.8805 73.7065 42.1546 73.7613C42.8947 73.9084 43.484 74.0494 44.235 74.1826C44.644 74.254 44.7263 74.2342 45.2558 74.3206C45.7902 74.4046 45.7945 74.4554 46.5292 74.4974C46.0516 74.3847 48.2088 74.6745 48.9825 74.6927C49.0893 74.6999 50.0237 74.6828 50.5014 74.6869C50.9905 74.695 51.7334 74.7162 52.493 74.6497C52.8539 74.618 53.0587 74.5613 53.4377 74.5243C53.7039 74.498 54.0329 74.5003 54.3767 74.4592C54.7072 74.4221 55.433 74.2831 55.5689 74.2586C56.0568 74.1751 55.5218 74.2912 55.8569 74.2354C57.4308 73.9736 59.2531 73.5181 60.7685 72.9848C60.957 72.9189 60.6857 72.9786 60.7105 72.9691C61.9424 72.5065 61.2888 72.7705 61.6338 72.6767C61.9778 72.5994 64.3117 71.6099 64.311 71.5356C64.418 71.5602 64.8951 71.2833 65.0266 71.2175C65.5353 70.9645 65.4601 71.0648 65.9543 70.7967C66.1361 70.6973 65.759 70.8453 65.9579 70.7458C66.3633 70.5111 67.2464 70.1943 67.8831 70.8609C68.0209 71.0209 68.1211 71.0549 68.2287 71.4361C68.3088 71.8873 68.2161 73.104 68.2855 72.5174C68.2388 73.3156 68.2643 73.4447 68.2629 74.3832C68.2625 74.6185 68.2181 74.9212 68.2318 75.4133C68.2364 75.5794 68.2792 75.5748 68.2795 75.8236C68.2803 76.3931 68.236 76.9567 68.2342 77.6785C68.2306 79.0444 68.2617 80.5189 68.2505 81.9276C68.2475 82.3193 68.2045 82.2238 68.2036 82.7898C68.2036 82.8749 68.2408 83.5445 68.2373 83.9372C68.2352 84.1781 68.2091 85.3893 68.207 85.632C68.2036 86.0424 68.2452 86.1144 68.2371 86.3372C68.2137 86.9787 68.1524 86.4665 68.2362 87.2323C68.1898 87.4853 68.1945 87.943 68.1373 88.0869C68.2 88.3514 68.1398 88.6842 68.1608 89.1974C68.1819 89.7117 68.3032 90.1276 68.1727 90.2505C68.1886 90.4843 68.2158 91.5057 68.2178 91.675C68.2234 92.1777 68.1873 91.909 68.1922 92.2871C68.193 92.3545 68.2177 92.2845 68.2153 92.7165C68.2137 93.0003 68.2125 95.0677 68.2091 95.1898C68.1707 96.5972 68.1845 94.4248 68.1578 94.117C68.1648 94.063 68.1718 94.0095 68.1787 93.9518C68.1903 93.331 68.1346 93.6832 68.1217 93.966C68.1088 94.2501 68.1337 94.778 68.1154 95.0118C68.1062 95.1284 68.0393 95.0565 68.0474 94.7032C68.0268 95.0812 68.005 94.5649 67.9857 94.7145C67.9645 94.8782 67.9582 96.579 67.995 96.5873C67.9963 96.2704 67.9949 95.8749 67.9964 95.5525C68.0604 95.132 68.2793 96.4078 68.1921 97.5786C68.129 98.4273 68.0785 97.0284 68.1319 99.0355C68.1344 98.7266 68.1403 98.4654 68.143 98.1854C68.191 98.1556 68.1383 98.6098 68.1536 98.8448C68.1611 98.9576 68.195 98.2626 68.2064 98.866C68.1378 99.3849 68.2069 99.784 68.2079 100.653C68.1956 100.412 68.1834 100.17 68.1711 99.9281C68.1215 101.397 68.1045 97.9849 68.0771 100.842C68.0749 100.498 68.0754 100.156 68.072 99.8103C68.0468 99.9778 67.9728 99.7098 67.9572 99.8597C67.9162 100.253 67.941 100.834 67.9375 101.315C67.936 101.525 67.916 101.394 67.9159 101.412C67.9137 101.7 67.943 101.636 67.9449 101.888C67.9473 102.205 67.919 103.124 67.9222 103.272C67.9306 103.655 67.9883 103.017 67.9926 103.053C68.0206 103.3 67.9975 103.797 68.0341 103.772C68.0087 102.568 68.0405 99.0943 68.1015 102.236C68.1605 101.371 68.2421 101.619 68.2487 102.866C68.2542 103.897 68.2215 103.231 68.1856 103.767C68.1811 103.835 68.1641 105.217 68.1896 105.286C68.131 105.231 68.0793 105.68 68.0189 105.379C68.01 105.334 68.0135 104.77 67.965 104.967C67.9406 105.065 67.8876 105.348 67.8565 105.303C67.8781 105.419 67.9024 105.541 67.925 105.659C67.9314 106.511 67.9081 106.628 67.8679 107.092C67.8847 107.071 67.9553 106.642 67.9339 107.293C67.9326 107.326 67.9073 107.355 67.8947 107.687C67.8696 108.36 67.8618 108.492 67.7874 107.984C67.8299 109.361 67.747 109.66 67.7714 111.086C67.867 110.798 67.8433 110.31 67.8247 109.002C67.8475 108.945 67.87 108.919 67.893 108.86C67.8416 110.601 67.8467 109.732 67.893 110.717C67.9043 110.961 67.8923 112.234 67.9567 111.808C67.9718 111.709 67.97 110.916 67.9939 111.006C67.9985 111.027 68.0101 111.986 68.0039 112.073C67.9278 113.14 67.8747 111.244 67.9025 114.176C67.9033 114.258 67.9312 114.286 67.935 114.446C67.9423 114.748 67.91 114.75 67.9175 115.014C67.9249 115.278 67.9683 115.645 67.9282 116.048C67.8552 116.782 67.8132 115.061 67.8519 114.285C67.7565 113.986 67.7543 119.461 67.7624 119.808C67.7978 121.312 67.7775 118.811 67.804 118.695C67.8152 118.64 67.9571 118.678 67.865 118.042C67.8377 117.854 67.8017 118.638 67.7867 118.17C67.7717 117.703 67.8135 117.888 67.8164 117.854C67.8264 117.738 67.8109 117.246 67.8168 117.183C67.9068 116.212 68.0427 116.294 67.8419 117.592C67.8873 118.16 67.9596 116.858 67.9904 117.562C68.0278 118.426 67.963 119.042 67.9601 119.15C67.9255 120.44 68.0201 118.952 67.9898 120.532C67.9729 121.4 67.927 119.232 67.933 121.217C67.9381 122.901 67.9711 121.994 68.0459 122.115C68.0634 122.145 68.0847 123.075 68.0772 121.808C68.0577 121.773 68.032 121.706 68.0141 121.626C68.0283 121.317 68.1258 120.808 68.1293 120.648C68.1455 119.863 68.0949 119.885 68.1546 119.418C68.0894 119.754 68.1287 119.207 68.1149 119.004C68.0642 118.247 68.0453 119.254 68.1106 117.534C68.08 117.757 68.05 117.959 68.0196 118.177C68.0185 117.97 68.0175 117.764 68.0164 117.559C68.0837 117.252 68.0752 116.176 68.1429 117.152C68.1622 115.986 68.1475 115.483 68.0951 115.231C68.0851 115.182 68.0811 115.005 68.0802 114.799C68.0655 114.838 68.02 114.888 68.0144 114.856C67.9653 114.565 68.0501 114.099 68.0824 114.257C68.084 114.11 68.0858 113.994 68.0866 113.953C68.0916 113.693 68.1209 114.202 68.1309 113.992C68.1341 113.921 68.1278 113.195 68.1397 113.182C68.2159 113.09 68.1609 114.305 68.2051 111.881C68.1357 111.821 68.1511 112.946 68.0773 112.657C67.9981 112.345 68.1043 111.717 68.0071 111.581C68.0231 111.53 68.0364 111.507 68.0546 111.464C68.0122 110.488 68.0931 110.472 68.111 110.175C68.1458 109.606 68.1403 106.932 68.0704 109.327C68.0634 108.975 68.0601 108.618 68.0539 108.272C68.199 108.194 68.1413 108.404 68.1632 106.73C68.1681 106.364 68.2319 106.243 68.1561 105.88C68.2304 105.928 68.1854 104.839 68.1944 104.739C68.2529 104.085 68.3349 106.513 68.2035 106.818C68.2548 107.227 68.1871 107.225 68.1961 107.684C68.2092 108.348 68.2223 108.43 68.1725 109.218C68.2429 109.988 68.2031 106.204 68.2967 108.496C68.3905 110.794 68.4422 124.193 68.4553 127.292C68.4037 128.016 68.6955 128.562 68.271 129.513C67.7357 130.382 66.9303 130.3 66.4324 130.522C65.3242 130.878 64.3168 131.185 63.2975 131.473C61.2789 132.04 59.3091 132.538 56.7748 132.953C56.2812 133.072 52.4728 133.468 53.2578 133.304C53.3731 133.288 55.0014 133.102 53.5955 133.17C53.8837 133.183 53.061 133.276 52.9914 133.283C51.4056 133.462 52.3276 133.485 49.8095 133.488ZM42.5453 131.967C45.7191 132.568 43.3947 132.088 44.075 132.084C43.6648 132.016 43.2651 131.944 42.8566 131.865C42.9624 131.894 43.0665 131.921 43.1718 131.948C43.1723 131.948 43.1727 131.948 43.1732 131.949C42.9659 131.956 42.7519 131.962 42.5453 131.967ZM33.3153 86.1579C33.3314 86.2845 33.3476 86.4096 33.3634 86.5468C33.3584 86.9755 33.3535 87.4027 33.3485 87.8314C33.3375 87.7802 33.3264 87.7308 33.3155 87.6796C33.3159 87.1724 33.3164 86.6668 33.3153 86.1579ZM67.8341 113.829C67.879 113.222 67.7989 113.288 67.8354 112.472C67.7762 112.572 67.7184 112.682 67.6598 112.787C67.6686 113.404 67.6911 113.534 67.6767 114.204C67.6957 114.126 67.7148 114.047 67.7339 113.971C67.7298 113.859 67.7252 113.741 67.7216 113.634C67.7748 113.463 67.7827 114.529 67.8343 113.831C67.8342 113.831 67.8342 113.83 67.8341 113.829ZM67.8099 107.613C67.8176 107.283 67.8463 105.996 67.8218 105.816C67.7387 105.22 67.7918 108.862 67.7177 106.179C67.706 106.192 67.6946 106.179 67.6831 106.179C67.6791 106.671 67.6756 107.154 67.6724 107.652C67.7183 107.625 67.7637 107.643 67.8099 107.613ZM54.1505 132.564C54.6484 132.535 56.9986 132.151 56.2227 132.213C55.9938 132.235 54.9542 132.453 54.5532 132.492C54.2941 132.518 54.5816 132.447 54.0693 132.515C54.0938 132.531 54.1098 132.549 54.1519 132.563C54.1514 132.564 54.151 132.564 54.1505 132.564ZM53.2381 132.887C53.7543 132.839 54.2784 132.778 54.7937 132.71C54.412 132.709 53.6677 132.811 53.6188 132.748C53.7599 132.73 53.8996 132.712 54.0411 132.693C54.1512 132.697 54.2599 132.7 54.3687 132.703C54.8078 132.617 54.5355 132.635 55.3654 132.54C54.8504 132.502 54.7575 132.479 53.3509 132.703C53.6137 132.625 53.3479 132.477 52.5733 132.653C52.4279 132.686 53.0419 132.662 53.0494 132.664C53.1474 132.703 52.8083 132.757 52.9129 132.794C52.9598 132.811 53.3359 132.782 53.3947 132.804C53.4219 132.816 53.0662 132.882 53.2381 132.887ZM52.1943 132.719C52.3521 132.682 51.8049 132.645 51.3338 132.671C50.5975 132.71 51.7611 132.748 52.1943 132.719ZM33.3152 86.1551C33.3152 86.156 33.3152 86.157 33.3153 86.1579C33.3152 86.1574 33.3151 86.157 33.3151 86.1565C33.3151 86.156 33.3152 86.1556 33.3152 86.1551ZM67.7775 109.296C67.7536 108.909 67.757 108.341 67.719 108.383C67.7265 108.197 67.7338 108.012 67.7413 107.822C67.7298 107.824 67.7184 107.828 67.7071 107.829C67.7 108.391 67.6929 108.948 67.6858 109.517C67.7163 109.445 67.747 109.38 67.7775 109.296ZM67.8034 103.166C67.8071 102.457 67.7555 103.052 67.7305 102.896C67.7055 102.74 67.7257 102.11 67.6899 102.184C67.6886 102.6 67.6873 103.038 67.6861 103.457C67.725 103.346 67.7647 103.269 67.8034 103.165C67.8034 103.165 67.8034 103.166 67.8034 103.166ZM33.2741 125.962C33.2629 126.442 33.2234 126.246 33.2696 127.194C33.2696 127.193 33.2696 127.192 33.2696 127.191C33.3019 126.29 33.3307 125.129 33.2994 124.134C33.2578 124.743 33.2915 125.207 33.2741 125.962ZM67.7178 115.507C67.749 115.707 67.7751 114.776 67.7461 114.562C67.6991 114.225 67.6703 115.2 67.7178 115.507ZM32.9971 106.577C32.9009 105.847 32.7928 107.23 32.8395 108.679C32.8436 108.804 32.8742 107.869 32.893 108.146C32.8948 108.174 32.8925 108.687 32.9059 108.814C32.9193 108.941 32.9505 108.808 32.9635 109.016C32.9864 109.382 32.9441 110.207 32.974 110.481C32.9781 110.517 33.0197 110.005 33.0213 109.973C33.0465 109.447 32.992 108.94 32.9917 108.859C32.9898 108.441 33.0325 108.504 33.0425 108.398C33.0614 108.198 33.0425 107.847 33.0439 107.823C33.0813 107.188 33.0706 108.638 33.086 108.834C33.1276 109.362 33.1662 108.873 33.1896 110.138C33.1918 110.259 33.1893 111.697 33.2371 109.884C33.3367 113.443 33.2937 108.096 33.2718 107.516C33.2616 107.248 33.221 107.653 33.2027 107.491C33.1608 107.12 33.1534 106.489 33.0944 106.545C32.9703 106.667 33.0516 107.497 33.0307 108.068C33.0038 108.008 32.9775 107.985 32.9511 107.874C32.9866 108.045 33.0043 106.63 32.9973 106.577C32.9973 106.577 32.9972 106.577 32.9971 106.577ZM33.1389 115.586C33.1015 116.385 33.1798 116.329 33.135 117.061C33.2054 117.707 33.2006 116.433 33.2046 116.285C33.2223 115.607 33.2988 115.623 33.2753 114.929C33.23 115.168 33.1843 115.362 33.1389 115.586ZM33.1712 108.633C33.2108 109.168 33.2102 108.211 33.2177 108.172C33.2982 107.75 33.2826 110.614 33.1712 108.633ZM57.2444 132.291C57.514 132.247 57.336 132.24 57.5683 132.186C57.7997 132.134 58.6127 132.008 58.586 131.988C58.5638 131.97 57.0776 132.198 58.5514 131.894C58.4992 131.891 58.5139 131.878 58.4876 131.871C58.0846 131.952 57.6721 132.03 57.2684 132.101C57.4982 132.099 57.7313 132.097 57.9532 132.093C57.7303 132.166 57.5956 132.15 57.5835 132.153C57.5835 132.153 57.5835 132.153 57.5835 132.153C57.1635 132.233 56.6396 132.389 57.2444 132.291ZM36.2364 130.372C36.1302 130.439 36.7771 130.527 37.0283 130.589C37.2782 130.652 37.62 130.788 37.5 130.71C37.0958 130.564 36.2514 130.366 36.2363 130.372C36.2363 130.372 36.2363 130.372 36.2364 130.372ZM33.1391 119.929C33.1622 120.599 33.1869 120.492 33.1587 121.312C33.1817 121.28 33.2052 121.249 33.2278 121.217C33.2283 120.566 33.1616 120.611 33.1884 119.858C33.1928 119.735 33.2461 119.999 33.229 119.442C33.2005 119.604 33.169 119.768 33.1391 119.929ZM33.2244 123.25C33.2208 122.48 33.0349 121.87 33.1188 123.287C33.1313 123.497 33.227 123.828 33.2244 123.25ZM50.1997 132.924C51.5053 132.924 50.0218 132.904 49.6829 132.865C52.7186 132.845 49.3379 132.886 49.0409 132.761C48.6701 132.776 47.9732 132.802 48.7431 132.855C49.0649 132.875 48.9483 132.842 48.9677 132.843C49.5594 132.869 49.4865 132.916 50.1997 132.924ZM33.1343 114.197C33.1357 114.246 33.1678 114.169 33.1743 114.326C33.1806 114.483 33.1582 114.839 33.1779 114.874C33.1977 114.91 33.2131 114.196 33.1986 113.977C33.184 113.758 33.122 113.75 33.1343 114.197ZM33.0553 119.219C33.0784 119.873 33.1966 118.804 33.1961 118.662C33.1899 117.412 33.0927 119.256 33.0553 119.219ZM47.1544 132.99C48.7354 133.047 47.5882 132.871 46.6118 132.711C46.4817 132.711 46.348 132.71 46.219 132.709C46.8133 132.69 47.8496 132.739 45.5551 132.543C46.8068 132.712 45.7546 132.607 45.7453 132.61C45.5899 132.742 47.461 132.866 47.153 132.989C47.1535 132.99 47.1539 132.99 47.1544 132.99ZM33.1681 112.07C33.1677 111.384 33.1432 109.599 33.0813 110.431C33.1103 110.978 33.1392 111.523 33.1681 112.07ZM68.116 124.744C68.1514 124.2 68.1509 123.655 68.1486 122.972C68.0971 123.592 68.0912 123.184 68.0787 122.975C68.0597 122.659 68.0612 123.426 68.0577 123.429C68.0089 123.416 68.0013 122.918 68.0024 124.047C67.9854 123.767 67.9683 123.492 67.9514 123.216C67.9491 124.068 67.9171 124.286 67.8781 124.815C67.9734 124.297 67.9137 124.976 67.9609 125.607C67.9846 125.921 68.0979 125.024 68.116 124.742C68.116 124.743 68.116 124.744 68.116 124.744ZM48.7853 133.112C48.949 133.102 49.0988 133.084 49.2566 133.069C49.4279 133.072 49.5996 133.074 49.7713 133.075C49.7923 133.09 49.8098 133.106 49.8344 133.121C50.0607 133.128 49.9726 133.106 50.0399 133.105C50.0399 133.105 50.0399 133.105 50.0399 133.105C51.0039 133.081 51.3968 133.07 52.154 133.083C52.1517 133.036 52.1494 132.99 52.1471 132.943C51.9781 132.956 51.8075 132.968 51.6387 132.978C51.5498 133.006 51.4604 133.034 51.3709 133.062C51.1741 133.053 50.9795 133.044 50.7834 133.032C50.6265 133.043 50.4378 133.054 50.3017 133.063C49.5202 132.933 51.2965 133.016 51.3113 132.954C51.3206 132.927 49.5352 132.936 49.2778 132.943C49.2406 132.945 49.6243 133.055 48.9717 132.983C48.8694 132.97 48.8425 132.765 48.1315 132.895C48.0301 132.912 48.371 133.065 48.7853 133.112ZM55.2993 132.883C54.2825 132.893 57.9832 132.492 56.383 132.626C56.8228 132.494 56.7404 132.509 56.2776 132.525C56.2372 132.527 56.548 132.461 56.5209 132.463C56.0928 132.501 55.5795 132.588 55.5695 132.534C55.4553 132.553 55.3483 132.57 55.2326 132.587C55.7209 132.576 54.9586 132.711 54.6679 132.787C54.5353 132.822 54.8459 132.792 54.7345 132.822C54.6931 132.834 54.2589 132.869 54.2422 132.888C54.2096 132.932 54.4879 132.961 54.9545 132.935C54.9545 132.935 54.9545 132.935 54.9545 132.935C55.0704 132.919 55.1831 132.901 55.2993 132.883ZM34.1283 130.007C33.9879 129.882 33.3463 129.646 34.6065 130.028C34.5497 129.994 34.4909 129.959 34.4338 129.925C34.2232 129.856 34.0179 129.789 33.8011 129.716C32.878 129.796 33.0426 128.149 32.9709 129.038C32.9582 129.136 33.2319 129.643 32.9559 129.146C32.9561 129.147 32.9563 129.148 32.9565 129.149C33.2992 129.884 33.5978 129.752 34.1283 130.007ZM38.8005 131.375C40.4554 131.663 36.5926 130.669 37.2217 130.882C37.2821 130.908 38.944 131.34 38.8005 131.375ZM32.816 121.963C32.8133 122.714 32.8973 122.764 32.9275 122.688C32.9579 122.613 32.9272 122.092 32.932 122.025C32.9477 121.806 32.9581 122.27 32.9797 121.986C32.9867 121.892 33.0167 120.583 33.013 120.523C32.993 120.19 32.9237 120.677 32.9157 120.582C32.8897 120.271 32.9258 119.849 32.8889 119.759C32.8104 119.565 32.8929 120.351 32.8942 120.484C32.8979 120.885 32.8537 120.85 32.8448 121.15C32.836 121.45 32.8511 121.645 32.848 121.91C32.847 121.998 32.8163 121.925 32.816 121.963ZM32.9933 124.448C32.9298 123.663 32.8607 125.574 32.8756 125.801C32.9198 126.468 33.0237 124.824 32.9933 124.448ZM52.7667 132.929C52.0533 133.021 53.7257 132.949 54.2013 132.873C54.11 132.866 53.0121 132.9 52.7667 132.929ZM46.7166 132.95C47.3783 132.996 46.5128 132.816 45.967 132.753C45.6373 132.782 45.9422 132.806 46.2996 132.848C46.6567 132.888 46.2013 132.91 46.7166 132.95ZM32.8918 113.811C32.8908 113.953 32.9472 116.248 32.9706 114.929C32.9723 114.829 32.9624 113.223 32.9519 113.101C32.9307 112.856 32.8949 113.444 32.8918 113.811ZM43.5536 132.621C43.9118 132.624 44.2516 132.678 43.9447 132.558C43.9442 132.558 43.9438 132.558 43.9433 132.558C44.8198 132.679 44.8403 132.817 45.0306 132.842C45.695 132.921 45.0811 132.738 45.4994 132.759C44.5326 132.662 44.8148 132.631 44.0871 132.512C43.9227 132.486 43.2615 132.412 43.1618 132.418C43.0618 132.426 43.3821 132.562 43.5536 132.621ZM32.8771 110.569C32.8545 111.344 32.9502 112.053 32.9653 110.978C32.9728 110.454 32.8909 110.096 32.8771 110.569ZM68.1464 106.497C68.1214 106.614 68.0964 106.735 68.0716 106.862C68.0655 106.577 68.0593 106.293 68.053 106.005C68.061 106.233 68.0688 106.459 68.0767 106.685C68.0854 106.152 68.131 105.905 68.1464 106.495C68.1464 106.496 68.1464 106.496 68.1464 106.497ZM68.163 87.4003C68.1872 87.1588 68.1124 86.6927 68.1066 86.7515C68.0631 87.1987 68.1296 87.7362 68.163 87.4003ZM53.8451 133.071C54.7407 132.993 54.1116 132.937 53.5666 132.976C53.9023 132.969 53.3383 133.111 53.8451 133.071ZM68.1578 94.117C68.1473 94.1974 68.1369 94.2784 68.1264 94.3684C68.1409 94.0855 68.1507 94.036 68.1578 94.117ZM32.7845 114.176C32.7752 114.312 32.7675 115.319 32.779 115.455C32.8033 115.738 32.8704 114.952 32.8497 114.49C32.8475 114.439 32.7938 114.04 32.7845 114.178C32.7845 114.177 32.7845 114.176 32.7845 114.176ZM68.1928 105.289C68.1917 105.29 68.1906 105.289 68.1896 105.286C68.1906 105.287 68.1918 105.287 68.1928 105.289ZM64.3015 71.5339C64.3073 71.5333 64.3108 71.5337 64.311 71.5356C64.3083 71.5349 64.3035 71.535 64.3015 71.5339ZM32.6813 121.28C32.5655 121.616 32.6271 122.389 32.6844 121.778C32.6874 121.744 32.6811 121.362 32.6813 121.28Z" fill="#900639"/>
<path d="M44.847 1.51525C45.06 1.47618 45.3393 1.51796 45.5515 1.57531C45.618 1.5931 45.5843 1.67261 45.6302 1.68847C45.72 1.71939 45.8037 1.68039 45.8924 1.71722C45.9218 1.72981 45.8852 1.85576 45.9161 1.86608C46.085 1.92175 46.2449 1.88966 46.4161 1.91644C47.2593 2.04853 48.0881 2.09581 48.9416 2.15319C49.223 2.17201 49.5651 2.28631 49.8558 2.23632C49.8897 2.23037 49.8695 2.11982 49.876 2.11071C49.9772 1.97122 49.9435 2.1944 50.0097 2.22405C50.2721 2.34113 50.5639 2.35131 50.8164 2.30865C50.9238 2.29017 50.8161 2.07059 50.9243 2.19384C50.9318 2.20217 50.9045 2.31956 50.934 2.33209C51.0008 2.36025 51.1276 2.33926 51.1794 2.34857C51.2792 2.36709 51.2957 2.3659 51.3901 2.36724C51.5191 2.37009 51.6726 2.42845 51.8111 2.40185C51.8406 2.39582 51.8015 2.27548 51.8486 2.255C51.8958 2.23455 52.0206 2.24476 52.0627 2.27313C52.1048 2.30151 52.0869 2.3961 52.0943 2.41778C52.1556 2.60077 52.2999 2.34733 52.3185 2.34106C52.6572 2.23426 52.9476 2.37864 53.2655 2.37823C53.5068 2.37761 53.7649 2.32994 53.9945 2.33648C54.2681 2.34473 54.4999 2.40995 54.7657 2.39874C54.7938 2.39769 54.7609 2.25619 54.7951 2.25463C55.1591 2.23817 55.5205 2.25359 55.8829 2.34911C55.9193 2.35882 55.8724 2.48305 55.9088 2.50018C56.1485 2.60856 56.4026 2.81997 56.741 2.3354C56.9878 2.39844 57.2715 2.55993 57.3698 2.77968C57.4297 2.91969 57.2451 2.93733 57.3951 2.99798C57.4287 3.01337 57.4795 2.89601 57.5262 2.92917C57.7341 3.08051 57.7985 3.3159 57.9206 3.41123C57.9469 3.4339 58.0367 3.37648 58.0579 3.37576C58.2312 3.37273 58.0638 3.6096 58.059 3.64227C58.0297 3.89704 58.1431 4.01407 58.2173 4.20374C58.2345 4.24844 58.3454 4.14207 58.3669 4.18391C58.4756 4.3996 58.5483 4.65246 58.5461 4.90727C58.5451 4.96365 58.4152 4.94403 58.4085 4.97187C58.3792 5.09268 58.6088 5.0694 58.5807 5.19025C58.5749 5.2153 58.4701 5.22021 58.4596 5.22638C58.294 5.31978 58.5527 5.33528 58.5608 5.35296C58.6661 5.56404 58.4096 5.72214 58.4443 5.9225C58.4484 5.94743 58.5815 5.8932 58.585 5.96495C58.6092 6.44728 58.4423 6.9468 58.1768 7.31142C58.136 7.36788 58.0632 7.28511 58.0502 7.28453C57.849 7.27243 58.0658 7.41267 58.0652 7.43767C58.0571 7.62552 57.7944 7.66861 58.0067 7.91523C57.798 8.50351 56.4146 9.24188 55.8844 8.83723C55.8759 8.83407 55.8912 8.7084 55.8741 8.70264C55.6685 8.63208 55.708 8.8274 55.5719 9.06629C55.5376 9.12628 55.4334 8.83786 55.4241 8.81672C55.3905 8.73881 55.4254 8.55184 55.4141 8.53675C55.321 8.41828 55.3362 9.03661 55.2105 9.03681C55.2066 9.03578 55.2231 8.92197 55.2126 8.91065C55.1798 8.87512 55.1473 8.92035 55.1153 8.88117C55.0419 8.79052 55.0157 8.49006 54.9037 8.66493C54.8895 8.68762 54.9111 9.03837 54.799 9.0218C54.7542 9.01489 54.5563 9.02091 54.5008 8.99818C54.4454 8.97547 54.4834 8.86245 54.4795 8.85755C54.3302 8.70809 54.3868 8.64615 54.312 8.42487C54.2372 8.20444 54.2579 8.7302 54.2274 8.78889C54.1969 8.8474 54.0874 8.72409 54.0605 8.68122C54.0336 8.63833 54.0672 8.56651 54.0433 8.54224C53.8847 8.38368 53.9737 8.80322 53.9215 8.88667C53.7983 9.08425 53.7024 8.69434 53.5896 8.65614C53.5591 8.64582 53.584 8.73462 53.5569 8.74293C53.4493 8.77464 53.3846 8.65298 53.2622 8.76453C53.2422 8.78271 53.1432 9.01714 53.0792 8.8451C53.0701 8.82029 53.0959 8.72313 53.05 8.70136C52.9815 8.6687 52.8581 8.64746 52.7845 8.67994C52.7301 8.70397 52.7925 8.86407 52.724 8.81434C52.6936 8.79213 52.75 8.69847 52.6928 8.66456C52.636 8.63066 52.4907 8.63477 52.4354 8.63801C52.3803 8.64131 52.4105 8.76276 52.406 8.77094C52.379 8.81781 52.2731 8.87637 52.2637 8.87623C51.7916 8.89105 51.3563 8.68634 50.8966 8.7541C50.8606 8.75924 50.8846 8.88731 50.8791 8.88941C50.7556 8.94307 50.853 8.60257 50.7667 8.4886C50.7792 8.74848 50.7282 8.70143 50.6413 8.72993C50.5993 8.74387 50.6222 8.8445 50.6184 8.85481C50.5562 9.00765 50.5129 8.81023 50.5018 8.76984C50.4606 8.62128 50.4158 8.79682 50.3878 8.69752C50.3598 8.59896 50.4242 8.45285 50.3408 8.45472C50.3174 8.54775 50.3793 8.79087 50.316 8.83027C50.077 8.97931 49.6309 8.78856 49.4388 8.76875C49.247 8.74895 49.1851 8.76611 49.0733 8.73249C48.8715 8.6717 48.9454 8.85208 48.8201 8.93464C48.6944 9.01719 48.7555 8.57338 48.7375 8.47798C48.7197 8.38261 48.7003 8.48078 48.6783 8.42835C48.6563 8.37594 48.7039 8.31107 48.6522 8.29139C48.6004 8.27173 48.4589 8.44139 48.4406 8.54115C48.4018 8.75249 48.4656 8.97431 48.3286 8.89637C48.3208 8.89174 48.3463 8.77505 48.3162 8.76325C48.0767 8.67341 47.8278 8.66785 47.5886 8.58839C47.5557 8.57728 47.5851 8.44746 47.566 8.43952C47.3666 8.35649 47.4379 8.57538 47.3286 8.81855C47.3531 8.49495 47.2927 8.29696 47.1414 8.29505C47.0504 8.29379 47.0661 8.43513 47.0072 8.53474C46.9896 8.56477 46.9252 8.46772 46.9135 8.53419C46.8751 8.75146 46.9357 8.99468 46.7797 8.89783C46.7728 8.89323 46.7946 8.7743 46.771 8.7671C46.6181 8.71995 46.5998 8.94722 46.4345 8.97474C46.305 8.99633 46.0746 8.85775 45.9271 8.83521C45.9302 8.47139 45.7909 8.5547 45.7344 8.80555C45.6387 8.79528 45.5353 8.80946 45.4428 8.77479C45.4109 8.76297 45.4318 8.65763 45.4278 8.64625C45.3663 8.4677 45.3246 8.71175 45.304 8.72132C45.08 8.81433 44.8976 8.62936 44.6839 8.81013C44.6763 8.81664 44.664 9.06936 44.6069 8.88483C44.6032 8.87211 44.6738 8.75713 44.5732 8.74824C44.4757 8.73797 44.2758 8.61297 44.0875 8.67641C44.0458 8.69525 43.8536 8.84604 43.8395 8.65846C43.8389 8.6337 43.8826 8.5747 43.8873 8.53172C43.9076 8.39726 43.7489 8.60005 43.8222 8.38751C43.8926 8.17103 43.976 8.03301 43.7646 8.02028C43.7585 8.01999 43.5863 8.13146 43.5594 8.09631C43.5178 8.0415 43.4812 7.93429 43.4347 7.88004C43.4121 7.85383 43.3298 7.95162 43.3242 7.94844C43.1137 7.80244 43.0964 7.59449 42.999 7.3538C42.9819 7.31082 42.7615 7.27869 42.8362 7.13177C42.9209 6.97452 43.5066 6.76977 43.2944 6.66764C43.2141 6.63452 42.435 6.80539 42.7701 6.51725C42.5827 6.2416 42.7598 5.94586 42.6545 5.63592C42.6497 5.62236 42.4394 5.5464 42.4485 5.51006C42.4622 5.45733 42.568 5.4494 42.5821 5.41542C42.6436 5.27479 42.6014 5.11538 42.6666 4.98078C42.6913 4.92993 42.7829 4.98549 42.8124 4.92843C42.8421 4.87209 42.7332 4.77323 42.8321 4.72077C42.908 4.68022 43.1906 4.75038 43.2586 4.69305C43.0129 4.55824 43.045 4.50878 43.0353 4.3769C43.0334 4.35132 42.9374 4.32244 42.9323 4.30772C42.9099 4.24576 42.9982 4.25539 42.9714 4.19358C42.9651 4.17863 42.8833 4.12879 42.8736 4.11361C42.7888 3.98105 43.0306 4.00166 43.0721 4.00664C43.2309 4.0229 43.1442 3.92835 43.2213 3.91379C43.2981 3.89989 43.3114 4.00597 43.3746 3.97278C43.5058 3.90376 43.5863 3.76281 43.6682 3.65815C43.7005 3.61598 43.5763 3.56926 43.5786 3.56145C43.6183 3.45339 43.7839 3.45416 43.6329 3.24006C44.1751 3.62354 43.6292 3.13693 43.8611 3.12245C43.8799 3.12218 44.064 3.37282 44.0655 3.42857C44.0689 3.48266 43.9643 3.4452 43.9861 3.52766C43.9906 3.54686 44.1873 3.76874 44.1906 3.79417C44.245 3.9519 43.8652 3.68349 43.8416 3.6724C43.5873 3.55238 43.7758 3.82752 43.778 3.86183C43.7857 4.02181 43.672 4.0711 43.672 4.19867C43.672 4.28128 43.9243 4.4524 43.8883 4.49067C43.7728 4.61344 43.3743 4.45057 43.616 4.77156C43.6684 4.83937 43.9761 4.9691 43.6922 4.94472C43.6746 4.94237 43.4216 4.90983 43.5364 5.02114C43.551 5.03492 43.6386 5.0768 43.6426 5.08723C43.6684 5.1557 43.5842 5.15416 43.5969 5.21865C43.61 5.28236 43.6395 5.35859 43.5905 5.39981C43.561 5.42469 43.3754 5.41227 43.3279 5.41704C43.1907 5.43107 43.3807 5.53295 43.2238 5.527C43.0652 5.52585 42.8498 5.40401 42.7313 5.48154C42.9779 5.53436 43.2306 5.5911 43.479 5.64225C43.443 5.78366 43.356 5.91967 43.3858 6.0665C43.3898 6.08425 43.5218 6.04855 43.5294 6.06538C43.5609 6.13284 43.4821 6.22292 43.5451 6.29516C43.595 6.35213 43.7548 6.36692 43.8162 6.41429C43.5715 6.5744 43.7145 6.6417 43.7377 6.73223C43.7463 6.7648 43.679 6.80243 43.6697 6.83554C43.6378 6.96115 43.8321 6.79008 43.8786 6.78861C44.0771 6.77994 43.602 7.10875 43.6955 7.21426C43.7005 7.22051 43.9993 7.10658 44.0213 7.10353C44.1651 7.08576 43.9438 7.17862 43.9541 7.22904C43.973 7.32043 43.9559 7.41613 44.0916 7.43684C44.132 7.44317 44.3234 7.37153 44.2539 7.51631C44.2449 7.5354 44.1665 7.60031 44.1665 7.60924C44.1689 7.76122 44.44 7.57974 44.4831 7.47014C44.5393 7.37503 44.3926 7.5428 44.3691 7.60316C44.2951 7.7502 44.3289 7.66116 44.3207 7.67487C44.2094 7.83155 44.2453 7.81615 44.2576 7.84001C44.1215 8.12283 44.1859 8.12971 44.2723 7.86357C44.2826 7.83495 44.2554 7.85498 44.2576 7.84001C44.4141 7.57244 44.3804 7.52087 44.3561 7.81014C44.3478 7.94472 44.3132 8.1018 44.3938 8.04932C44.4392 8.0243 44.4297 7.80791 44.4874 7.74922C44.6267 7.61502 44.8078 7.81627 44.9514 7.78456C45.0036 7.77305 44.9528 7.65495 44.9884 7.64302C45.083 7.61097 45.1664 7.69958 45.2613 7.65419C45.2699 7.64992 45.2489 7.52631 45.2785 7.52473C45.5023 7.51037 45.6973 7.58955 45.931 7.59175C46.044 7.59275 46.2459 7.52457 46.3629 7.53828C46.5657 7.56131 46.8151 7.74107 46.9884 7.6974C47.1014 7.66945 47.0766 7.5458 47.125 7.46156C47.2184 7.29826 47.3838 7.59077 47.406 7.63606C47.4067 7.63756 47.3095 7.66671 47.3614 7.73017C47.3915 7.86242 47.4049 7.63663 47.406 7.63606C47.4207 7.66532 47.6149 7.69339 47.6534 7.66975C47.6744 7.65683 47.6627 7.53969 47.6736 7.53517C47.9333 7.43033 48.1934 7.40056 48.4568 7.45533C48.4615 7.4577 48.4545 7.58873 48.4654 7.59266C48.6179 7.65092 48.7155 7.49063 48.8413 7.39546C48.967 7.30033 49.0667 7.33219 49.1412 7.55714C49.2361 7.52882 49.3722 7.62827 49.4505 7.68861C49.5288 7.74895 49.5398 7.49388 49.5467 7.48884C49.7616 7.32745 49.8859 7.47345 50.1089 7.49617C50.2149 7.50741 50.4252 7.47041 50.54 7.44252C50.6308 7.42005 50.6854 7.47982 50.769 7.4416C50.7803 7.4365 50.7689 7.32293 50.7724 7.31856C50.8657 7.18268 50.8208 7.46031 50.8401 7.5099C50.9099 7.69022 50.9531 7.78625 51.0726 7.70143C51.1001 7.682 51.1804 7.28224 51.2306 7.25886C51.2959 7.2292 51.2713 7.37249 51.3397 7.33778C51.3455 7.33494 51.3443 7.24654 51.3865 7.25044C51.5824 7.26737 51.7961 7.31881 51.9997 7.30995C52.0275 7.30908 51.9918 7.16886 52.032 7.1653C52.2206 7.14868 52.4272 7.15386 52.6109 7.2195C52.6561 7.23609 52.6278 7.33427 52.6376 7.36342C52.6979 7.53979 52.7833 7.28352 52.7974 7.27864C53.1337 7.15549 53.3911 7.38741 53.7339 7.27699C53.7526 7.27051 53.8962 6.99578 53.9603 7.2314C53.9647 7.24707 54.0281 7.48813 54.0842 7.32332C54.0876 7.313 54.0481 7.1889 54.1171 7.20155C54.186 7.21417 54.297 7.1313 54.3917 7.26765C54.4218 7.31061 54.4927 7.55107 54.5822 7.35939C54.588 7.34601 54.7262 6.91258 54.7755 7.21162C54.7835 7.26085 54.7751 7.5773 54.8819 7.41505C54.9023 7.3836 54.8653 7.31301 54.919 7.26893C55.0014 7.201 55.1106 7.28576 55.2118 7.14479C55.2295 7.11983 55.3047 6.90504 55.365 7.06807C55.3744 7.0936 55.3565 7.19925 55.3883 7.21107C55.5398 7.26779 55.6983 7.19712 55.8521 7.27022C55.9066 7.2959 55.8787 7.46669 55.9355 7.51246C55.9923 7.55822 56.1067 7.60223 56.1661 7.52418C56.2255 7.4461 56.1606 7.17389 56.2496 7.15211C56.8653 7.05259 56.1934 7.22369 56.2201 7.39876C56.2235 7.40093 56.1343 7.35956 56.1703 7.29788C56.3164 7.05064 56.3983 6.68333 56.6544 6.57879C56.8628 6.48913 56.9146 6.71996 57.0201 6.62326C57.0712 6.57356 56.7867 6.41968 56.78 6.40653C56.7166 6.25957 56.8691 6.21157 56.8415 6.09894C56.8354 6.07655 56.7056 6.08045 56.7016 6.06278C56.6865 6.0038 56.7478 5.94865 56.7385 5.89286C56.734 5.86803 56.6359 5.87173 56.6435 5.85041C56.6602 5.7989 56.6993 5.75209 56.7855 5.68757C56.7933 5.68118 56.9182 5.70698 56.9183 5.66083C56.9183 5.58776 56.9922 5.47325 56.8807 5.40157C56.847 5.37998 56.6296 5.43175 56.7659 5.33911C56.7942 5.31974 57.0587 5.26627 56.8154 5.25724C56.7746 5.25336 56.4435 5.2382 56.6154 5.11831C56.6607 5.08656 56.8545 4.97383 56.8085 4.94923C56.8016 4.94639 56.6957 5.00685 56.6741 4.98215C56.6002 4.8961 56.5668 4.78235 56.4843 4.69128C56.462 4.6669 56.3679 4.76062 56.3383 4.72324C56.2568 4.62035 56.2165 4.46777 56.1885 4.33078C56.1781 4.27955 56.2851 4.26164 56.2934 4.25318C56.4264 4.11428 56.1925 4.19953 56.1703 4.18864C55.9997 4.05726 56.2115 4.19663 56.2041 4.21585C56.2082 4.23089 56.1214 4.31048 56.1165 4.32021C56.0769 4.42206 56.196 4.24589 56.2242 4.23917C56.3018 4.2169 56.3242 4.23715 56.3555 4.2622C56.3673 4.27128 56.315 4.39834 56.3306 4.40598C56.5512 4.45428 56.1401 4.4255 55.9231 4.35338C55.8775 4.339 55.9062 4.23414 55.8967 4.21019C55.8313 4.04264 55.7353 4.27118 55.7133 4.29296C55.6129 4.39236 55.5739 4.29964 55.4853 4.31694C55.0523 4.40311 54.5177 4.3417 54.1091 4.30376C53.5765 4.25493 53.1632 4.15518 52.6554 4.18108C52.6231 4.18259 52.6557 4.32209 52.6278 4.32518C52.2686 4.35881 51.9149 4.3043 51.555 4.34459C51.5254 4.34765 51.568 4.47989 51.5206 4.48924C51.4234 4.50936 51.3002 4.50217 51.2019 4.45995C51.1539 4.4396 51.2182 4.32613 51.17 4.30797C51.0576 4.26543 50.9371 4.25601 50.8216 4.27721C50.7725 4.28652 50.8466 4.42177 50.7828 4.42333C50.3477 4.43674 49.9205 4.46004 49.4809 4.2849C49.4508 4.27287 49.4243 3.998 49.3603 4.05071C49.3554 4.12699 49.3557 4.21673 49.3536 4.29827C48.7203 4.34219 48.0935 4.2469 47.4585 4.23217C47.4317 4.23158 47.478 4.37722 47.4261 4.37682C47.1261 4.37466 46.8348 4.41501 46.5279 4.27025C46.4974 4.25609 46.5131 3.99987 46.4233 4.03862C46.4075 4.04569 46.2724 4.07987 46.2374 4.13549C46.2327 4.14388 46.2573 4.26347 46.2138 4.26695C45.9607 4.28512 45.6955 4.25781 45.4429 4.18474C45.4021 4.17272 45.4455 4.04536 45.4165 4.03569C45.2105 3.96809 44.9864 4.0649 44.7896 3.94927C44.6578 3.87141 44.7066 3.65126 44.6366 3.43456C44.6267 3.40399 44.5451 3.39914 44.5408 3.27306C44.53 2.95602 44.5695 2.60886 44.5533 2.27093C44.5499 2.19814 44.4406 2.27654 44.5053 2.10064C44.5098 2.08887 44.5891 2.03049 44.6086 1.97082C44.6222 1.92956 44.5977 1.80134 44.6254 1.74853C44.6531 1.69577 44.6836 1.80325 44.7295 1.74121C44.7754 1.67839 44.7552 1.53252 44.847 1.51525ZM49.8032 7.95832C49.8757 8.08082 49.8864 7.63217 49.808 7.73951C49.8042 7.74523 49.7995 7.95231 49.8032 7.95832ZM43.0256 5.92692C42.8295 6.01062 43.125 6.042 43.2739 5.98421C43.4238 5.93469 43.0854 5.90548 43.0256 5.92692ZM43.0447 5.09458C42.862 5.13637 43.4579 5.36008 43.3697 5.22895C43.3648 5.22143 43.0553 5.09244 43.0447 5.09458ZM44.9613 3.37285C44.9603 3.3669 44.9016 3.36109 44.9002 3.36699C44.869 3.50948 44.9862 3.52099 44.9613 3.37285ZM43.3343 4.2043C43.2432 4.18694 43.2765 4.3218 43.3896 4.34256C43.4795 4.36055 43.447 4.22673 43.3343 4.2043ZM53.5866 8.43714C53.5877 8.44383 53.6298 8.44985 53.6289 8.41206C53.6261 8.29034 53.5676 8.32469 53.5866 8.43714ZM44.3719 3.16932C44.1959 3.16869 43.7748 2.7799 44.1407 2.71676C44.2012 2.71077 44.0656 2.91433 44.1506 2.93771C44.2824 2.98675 44.3315 2.64545 44.4824 2.8197C44.4987 2.85077 44.3746 3.16903 44.3716 3.17009C44.3717 3.16984 44.3718 3.16958 44.3719 3.16932ZM49.845 8.4972C49.8464 8.50313 49.9046 8.50876 49.906 8.50288C49.9375 8.36045 49.8203 8.34903 49.845 8.4972ZM56.0402 8.71455C56.0434 8.72719 56.1785 8.73901 56.1829 8.72736C56.2534 8.49445 55.9803 8.46986 56.0402 8.71455ZM45.9248 8.82551C45.8613 8.96879 45.7853 8.98567 45.7347 8.80573C45.7978 8.81528 45.8613 8.81669 45.9248 8.82551ZM30.9914 125.998C30.941 124.332 30.9679 122.148 31.014 120.489C31.0282 119.968 31.1095 120.231 31.1229 119.872C31.1491 119.17 31.1056 118.516 31.1377 117.822C31.1488 117.592 31.2767 117.877 31.2853 117.636C31.332 116.314 31.2914 115.064 31.3091 113.726C31.3963 107.132 31.3995 100.65 31.4115 93.9762C31.4154 91.7755 31.5115 89.0997 31.446 86.8271C31.4383 86.5618 31.3288 86.7208 31.3193 86.6704C31.1745 85.8795 31.3994 86.1413 31.4256 85.6241C31.5287 83.5714 31.5233 81.2897 31.4672 79.3153C31.4431 78.4754 31.2292 79.3192 31.3467 78.4724C31.3546 78.4136 31.4735 78.626 31.4844 78.3955C31.509 77.8729 31.4813 76.8818 31.4878 76.4768C31.5011 75.6963 31.499 75.5671 31.4953 74.829C31.4913 73.8199 31.5415 72.6193 31.5075 71.5369C31.4999 71.3058 31.3817 71.6126 31.3587 71.2442C31.3357 70.8755 31.3393 69.8995 31.3654 69.5704C31.3916 69.2411 31.4871 69.3806 31.5084 69.3222C31.6881 68.8418 31.427 67.7147 31.4197 67.5696C31.2949 64.9222 31.4239 62.6503 31.4065 60.1646C31.4643 58.4105 30.9817 55.7409 32.109 54.3139C33.1084 52.399 34.0567 50.8397 35.1485 49.0495C35.264 48.8611 35.0069 49.0069 35.1488 48.7758C36.6542 46.325 38.3366 44.0108 40.149 41.8142C40.3316 41.5931 40.2056 41.9601 40.3924 41.7459C41.4121 40.5344 43.9821 37.9676 43.3066 37.6207C43.3278 36.4432 43.3496 35.0137 43.4586 33.9602C43.5288 33.281 43.6641 33.9407 43.6064 33.1063C43.5935 32.9182 43.475 33.1629 43.4647 32.8807C43.4213 31.6925 43.4598 30.3944 43.3986 29.219C43.3858 28.98 43.2796 29.0452 43.2605 28.9775C43.1056 28.4082 43.3616 27.4605 43.3802 27.2539C43.519 25.6806 43.4644 24.5317 43.4678 23.0661C43.4686 22.7259 43.326 23.128 43.3216 22.8007C43.3012 21.1033 43.3135 19.3451 43.3768 17.683C43.3912 17.3134 43.5127 17.6533 43.5258 17.4767C43.5821 16.6977 43.3526 16.525 43.4022 15.778C43.4124 15.6204 43.5164 15.7092 43.5278 15.6804C43.7072 15.2308 43.4531 14.8401 43.4474 14.7245C43.3708 13.2615 43.6361 12.3265 43.5985 10.9132C43.5937 10.7441 43.4621 11.1254 43.4568 10.6501C43.2683 10.0749 44.0156 8.17385 45.1817 8.44307C45.9899 8.44299 46.8033 8.4474 47.6156 8.45623C49.2404 8.47388 50.8611 8.50924 52.4281 8.56188C52.9154 8.57807 52.5675 8.67695 52.5982 8.68914C53.098 8.87959 53.4213 8.62441 53.5802 8.6148C54.8523 8.67663 55.9044 8.19125 57.1664 8.98788C57.9742 15.0156 57.4836 19.7791 57.3372 25.143C57.3341 25.21 57.2084 25.09 57.2026 25.2236C57.1321 26.8316 57.3274 26.5228 57.5663 27.5868C57.6263 27.8548 57.3379 28.6702 57.3167 28.7423C57.2388 29.0051 57.0518 28.7325 57.0368 28.8206C56.9183 29.5488 57.5366 29.4302 57.5368 30.4127C57.5358 30.4434 57.422 30.3143 57.4107 30.3968C57.3751 30.653 57.4203 30.907 57.3812 31.1577C57.2905 31.7314 56.9901 31.9358 57.1649 32.8122C57.1876 32.9231 57.5384 32.7537 57.5218 33.6309C57.5149 33.9806 57.5209 35.5285 57.4982 35.9624C57.4755 36.3957 57.3624 36.0982 57.3576 36.1291C57.2081 37.2966 57.1461 36.8539 56.9249 37.4388C56.7051 38.0634 57.2669 37.8323 57.3693 37.9489C57.4359 38.0118 57.9977 38.7822 58.0884 38.9615C58.1947 39.1479 57.9681 38.9982 58.0728 39.1546C58.7688 40.1927 58.6275 39.3933 58.9579 39.6462C59.7408 40.2482 59.9324 41.0741 60.4664 41.7764C60.6111 41.9671 60.5551 41.7602 60.6975 41.9195C61.2573 42.5497 61.4826 43.0207 62.1592 43.7099C62.2704 43.8226 62.9306 44.2998 63.0904 44.8095C63.1126 44.8817 62.915 44.776 63.1098 45.0793C63.4015 45.5319 63.9389 46.336 64.2854 46.7997C64.5413 47.1416 64.4049 46.6444 64.6596 47.1223C64.7715 47.3346 64.4522 47.0153 64.6673 47.409C64.8837 47.8005 65.4858 48.7689 65.705 49.1405C65.9274 49.513 65.9121 49.2473 65.9369 49.2733C66.0851 49.4312 66.5465 50.1283 66.5811 50.1937C68.4454 53.3966 69.4805 56.8446 69.2239 60.4376C69.2271 60.7197 69.3565 60.5327 69.3583 60.5757C69.4054 61.5417 69.0701 60.778 68.9515 61.4518C69.2121 61.3561 69.1623 61.7539 69.1862 62.4343C69.1979 62.7622 69.2997 62.5843 69.3098 62.6143C69.4594 63.1014 69.2596 63.4385 69.2187 63.5254C69.0679 63.8463 69.2411 64.1978 69.1403 64.4162C69.0402 64.6345 68.8975 64.1297 68.895 64.782C68.9868 64.9656 69.2332 64.4829 69.2692 64.9785C69.4055 66.8481 69.191 70.335 69.161 71.8373C69.131 73.3367 69.1449 73.8211 69.1053 74.6947C69.0338 76.2725 69.2181 75.6954 69.294 76.6759C69.3699 77.6593 68.9293 77.1785 68.8329 77.3192C68.7366 77.4572 68.8338 77.6093 68.7802 77.7815C68.7266 77.9531 68.6643 77.5804 68.6418 77.9847C68.6194 78.3892 68.7815 79.4967 68.8803 79.6408C69.0896 79.9455 69.3148 79.4484 69.2296 80.5186C69.2245 80.5802 69.1092 80.3795 69.0958 80.6152C68.9932 82.4875 68.9744 84.4331 68.8822 86.3031C68.8694 86.5602 68.7411 86.3294 68.7322 86.479C68.6385 88.0375 68.8612 87.4817 69.0986 88.3379C68.7763 88.1438 68.5751 88.615 68.5651 89.7982C68.559 90.5095 68.7012 90.388 68.7977 90.8488C68.8268 90.987 68.7263 91.4897 68.7921 91.5813C69.0074 91.8835 69.2538 91.4111 69.1487 92.6304C69.1437 92.6839 69.0259 92.5127 69.0175 92.6976C68.9622 93.8927 69.1885 94.0373 69.2072 95.3298C69.2219 96.3428 69.0711 98.1433 69.0407 99.2965C68.677 99.2698 68.7529 100.36 69.0008 100.803C68.9854 101.552 68.9941 102.36 68.9545 103.084C68.941 103.332 68.8368 103.168 68.8252 103.199C68.6434 103.68 68.8852 104.007 68.8937 104.168C68.9747 105.92 68.7801 107.345 68.9495 109.018C68.9556 109.077 69.2076 109.175 69.0201 109.62C69.0072 109.649 68.8959 109.096 68.8817 109.883C68.8674 110.669 68.7219 112.15 68.8316 113.242C68.858 113.507 69.0586 114.176 68.8946 114.711C68.8724 114.783 68.8004 114.704 68.7594 114.807C68.6286 115.139 68.8828 115.323 68.6631 115.713C68.4435 116.104 68.2754 116.917 68.4176 118.019C68.4218 118.054 68.6224 118.316 68.6169 118.662C68.6078 119.215 68.5603 119.999 68.5577 120.576C68.5565 120.853 68.6835 120.677 68.6854 120.725C68.7433 122.583 68.6222 123.904 68.56 125.894C68.5484 126.258 68.7127 127.308 68.5723 128.013C68.3602 128.654 68.0565 128.57 67.755 129.171C67.4251 129.391 66.5968 130.507 65.2931 130.528C62.9476 131.432 60.6848 131.892 58.2603 132.562C58.1511 132.592 57.8475 132.879 57.5859 132.928C57.1937 133 56.9624 132.938 56.6856 132.981C55.5159 133.155 54.4569 133.383 53.3201 133.467C52.8877 133.497 53.0303 133.381 52.5179 133.409C52.004 133.434 51.667 133.591 50.9666 133.537C50.4378 133.494 49.9148 133.209 49.2265 133.151C49.1907 133.43 48.7117 133.414 47.856 133.424C47.691 133.426 47.8594 133.537 47.7808 133.543C47.459 133.568 47.1764 133.461 46.871 133.485C46.7967 133.49 46.7832 133.585 46.7215 133.595C46.1956 133.683 45.3862 133.354 45.2528 133.295C44.7306 133.073 44.4531 133.151 44.0489 133.023C43.6442 132.892 44.2764 132.936 43.7989 132.814C42.8107 132.56 41.532 132.285 40.5362 132.017C40.1351 131.91 40.3761 132.105 40.3179 132.093C39.4861 131.906 38.6974 131.53 38.1671 131.634C37.7881 130.827 37.6566 131.549 36.5307 131.038C36.4431 130.998 36.4284 130.665 36.7882 130.737C37.1523 130.809 37.6546 131.074 38.1622 131.156C38.2854 131.177 39.0302 131.096 39.1228 131.104C39.8674 131.177 39.8444 131.65 39.8751 131.685C40.2242 132.07 41.1342 131.979 41.3487 132.008C42.367 132.156 43.1839 132.395 44.0373 132.479C44.5893 132.531 44.6936 132.239 45.1176 132.315C46.5229 132.556 46.9905 133.033 48.3671 132.758C48.6605 132.695 48.3901 132.357 49.4087 132.656C49.4709 132.676 50.2385 132.932 50.6824 132.775C50.738 132.755 50.7353 132.658 50.8084 132.649C51.2981 132.59 51.6271 132.657 52.16 132.593C52.6932 132.528 53.328 132.424 53.937 132.392C54.3053 132.373 54.7962 132.494 54.9787 132.514C55.4962 132.573 55.9918 132.283 56.3262 132.382C56.6641 132.481 56.0952 132.822 56.9293 132.775C56.9143 132.521 56.9365 132.254 56.9378 131.996C58.7023 131.675 60.4449 131.318 62.1833 130.789C62.3985 130.723 62.139 130.66 62.3688 130.585C63.3406 130.269 64.2065 130.089 65.2004 129.708C65.9199 129.43 66.9183 128.915 67.4441 128.683C67.5511 129.15 67.5877 128.173 67.5967 127.158C67.608 126.832 67.6849 126.854 67.7117 126.622C67.8106 125.745 67.5528 126.154 67.5143 125.914C67.3501 124.881 67.9278 124.797 67.9219 123.58C67.9217 123.516 67.6194 122.726 67.601 122.618C67.4808 121.928 67.7089 122.504 67.7345 122.073C67.7814 121.286 67.8586 120.739 67.7748 119.815C67.7499 119.545 67.5626 118.897 67.7145 118.375C67.7344 118.306 67.8358 118.345 67.8421 118.29C67.9482 117.288 67.6289 117.259 67.5245 116.685C67.4202 116.111 67.6468 115.228 67.7116 115.048C67.8793 114.578 67.7795 115.41 67.7954 115.435C67.9855 115.736 67.9568 115.09 67.9764 114.597C68.2902 114.528 68.2761 113.838 67.9954 114.086C67.9648 114.114 67.9914 114.498 67.9764 114.597C67.6719 114.162 67.6377 113.404 67.9307 112.568C68.068 112.177 68.2224 112.549 68.1731 111.358C68.1509 110.817 67.9337 111.024 67.8781 110.547C67.7514 109.457 67.9622 108.042 67.9382 106.919C67.9294 106.511 67.8086 106.907 67.7986 106.628C67.7716 105.889 67.8646 105.237 67.8243 104.494C67.8205 104.427 67.6957 104.591 67.6957 104.36C67.6933 102.609 67.7828 101.085 67.7975 99.2574C67.8045 98.3743 67.747 96.7949 67.767 95.8802C67.8008 94.2947 67.9938 92.3453 67.9593 90.9905C67.9374 90.1068 67.8124 90.2998 67.7308 89.9207C67.5725 89.1891 67.8738 87.8981 67.9202 87.7243C67.9218 87.719 67.9457 88.4794 68.012 88.0742C68.1458 87.8392 67.9207 87.7329 67.9202 87.7243C67.9503 87.6101 67.9887 86.0917 67.9671 85.79C67.9553 85.626 67.8375 85.7169 67.8336 85.6314C67.7426 83.6 67.7266 81.5656 67.7954 79.5064C67.798 79.4702 67.9287 79.5257 67.9332 79.4404C67.9996 78.2485 67.8445 77.4839 67.756 76.4999C67.6675 75.516 67.7047 74.7365 67.9336 74.156C67.9103 73.4139 68.017 72.3502 68.0815 71.7381C68.146 71.1261 67.8916 71.0389 67.8869 70.985C67.7369 69.303 67.8895 68.3323 67.9241 66.5887C67.941 65.7597 67.9152 64.1149 67.8934 63.2171C67.8758 62.5075 67.9384 62.0805 67.9047 61.4265C67.9002 61.3381 67.786 61.4266 67.7818 61.3996C67.6509 60.6691 67.9261 61.0216 67.9767 60.8714C68.1608 60.3265 68.2591 59.9898 68.1806 59.0549C68.1627 58.8393 67.7672 58.2089 67.7465 57.8159C67.7203 57.305 67.8623 57.4987 67.8312 56.9637C67.8287 56.9179 67.7402 56.9269 67.7464 56.5968C67.9929 56.2706 66.7594 53.9827 66.157 52.7386C66.0595 52.5487 66.0584 52.8552 65.9158 52.5837C65.2469 51.311 64.4777 49.9367 63.7888 48.7194C63.6199 48.4201 63.8175 48.5497 63.8023 48.4711C63.7046 47.9854 63.1291 47.5814 63.0654 47.4964C61.5314 45.4435 60.4874 43.7607 58.6887 41.804C58.5903 41.6967 57.6581 41.031 57.5105 40.5039C57.5001 40.468 57.3591 39.939 56.9462 39.7185C56.9207 39.7052 57.0303 40.0178 56.6854 39.6062C56.3983 39.5548 55.4398 37.26 55.7677 36.8151C55.8106 36.5805 56.0511 36.026 55.8594 35.3262C55.846 35.2806 55.4126 34.2002 55.7116 33.8146C55.7608 33.7521 56.0773 33.8175 55.9151 32.9823C55.8836 32.8227 55.813 33.1124 55.7689 32.692C55.701 32.0478 55.7858 31.1943 55.6448 30.4025C55.6198 30.2644 55.405 29.6765 55.5681 29.205C55.5936 29.1311 55.6992 29.2714 55.7111 29.0224C55.7678 27.8382 55.6971 26.5983 55.7702 25.3959C55.7959 24.9701 55.9667 25.1878 56.0125 24.7439C56.0582 24.2999 56.1022 23.4054 56.0242 22.9409C55.9461 22.4762 55.6739 22.9838 55.6521 22.2877C55.5575 19.2615 55.7172 16.2637 55.7406 13.2419C55.744 12.7937 55.6466 13.1653 55.6448 12.5048C55.643 11.8961 55.6359 11.1767 55.6296 10.4072C55.3429 9.27919 56.7336 10.6582 55.5789 10.3813C53.9593 10.3792 52.3801 10.3503 51.3236 10.2468C49.6306 10.081 51.7611 9.95484 50.4674 9.88738C49.8432 9.8552 49.1678 10.1717 49.0171 10.1816C47.5449 10.2828 46.5218 10.1426 45.1967 10.1857C44.9346 10.1948 45.1423 10.322 44.9933 10.3296C45.365 10.3459 45.2976 9.79334 45.3045 10.8621C45.3095 11.2031 45.4075 11.1403 45.3999 11.4541C45.3829 12.2049 45.3417 12.8688 45.2499 13.6007C45.2416 13.6674 45.1197 13.2176 45.1152 13.7731C45.1082 14.6721 45.0176 15.788 45.1111 16.8224C45.1393 17.1293 45.3632 17.1413 45.2085 17.801C45.1762 17.9394 44.9074 17.7628 45.1397 18.5313C45.1783 18.6605 45.4916 19.9514 45.2897 20.5849C45.2365 20.752 45.0165 21.1786 45.0511 21.5477C45.0566 21.5977 45.1769 21.3972 45.1886 21.703C45.2278 22.7808 45.215 23.9104 45.2527 25.0176C45.263 25.3133 45.3874 24.8729 45.3988 25.3136C45.4302 26.5255 45.3986 28.0385 45.3596 29.2236C45.345 29.6605 45.2419 29.3585 45.2307 29.3903C45.0482 29.9015 45.2945 30.2038 45.3089 30.3734C45.3949 31.4287 45.2792 32.2323 45.3098 33.205C45.3179 33.4734 45.4354 33.2831 45.4458 33.3365C45.5482 33.8907 45.3373 33.4779 45.314 33.8287C45.2482 34.8114 45.2576 35.9069 45.2726 36.9006C45.2783 37.2657 45.4145 36.8554 45.418 37.183C44.6544 41.3495 43.0742 40.9863 41.9272 42.7905C41.701 43.0599 41.7531 42.8208 41.6894 42.8642C41.2444 43.1663 40.9796 43.894 40.8941 44.0444C40.5081 44.7237 40.2544 44.9113 39.8672 45.473C37.9607 48.2135 35.7569 51.6563 34.2664 54.4326C31.8583 57.4423 33.5206 61.0031 33.2418 64.9229C33.245 65.1753 33.3828 64.9198 33.3874 65.1374C33.4401 67.9461 33.4044 70.7119 33.4638 73.5262C33.4685 73.7572 33.5984 73.4234 33.6103 73.794C33.6356 74.5543 33.635 75.5175 33.598 76.2866C33.5802 76.6618 33.4633 76.1596 33.4477 76.5371C33.4111 77.4163 33.4081 78.3585 33.4355 79.2611C33.4474 79.6452 33.5787 79.0647 33.5837 79.564C33.6202 82.9654 33.6662 86.3059 33.5145 89.7445C33.5041 89.9802 33.2306 90.1888 33.2867 90.6895C33.3633 90.7267 33.453 90.7241 33.5346 90.74C33.6122 95.6914 33.5503 100.593 33.5693 105.559C33.5702 105.768 33.7133 105.406 33.7157 105.811C33.7295 108.157 33.7853 110.435 33.6569 112.835C33.6444 113.073 33.3873 112.953 33.4309 113.654C33.4388 113.778 33.4801 114.835 33.5376 115.108C33.5462 115.145 33.6645 114.951 33.6703 115.291C33.7019 117.27 33.6888 119.344 33.6291 121.32C33.6193 121.639 33.4896 121.3 33.4815 121.528C33.4248 123.139 33.5336 124.89 33.4284 126.43C33.3576 127.461 33.1348 127.081 32.9218 127.63C32.8918 127.708 32.8913 128.346 32.7654 128.38C32.449 128.466 32.0997 128.16 31.7627 128.289C31.6901 128.316 31.7743 129.17 31.5949 128.665C31.5829 128.63 31.5203 128.011 31.4596 127.859C31.4177 127.753 31.2907 127.945 31.2365 127.729C31.1822 127.512 31.2881 127.274 31.2236 126.915C31.1583 126.556 31.0135 126.715 30.9914 125.998ZM68.37 68.9822C68.4963 68.4159 68.0483 68.3292 68.1514 68.9433C68.157 68.973 68.3638 69.0114 68.37 68.9822ZM60.5184 131.621C61.2807 131.623 61.6854 131.203 61.1455 131.196C60.6107 131.187 60.2856 131.62 60.5184 131.621ZM53.0545 133.093C53.928 133.177 53.995 132.53 53.1003 132.737C53.0483 132.749 53.0038 133.088 53.0545 133.093ZM32.8429 125.092C32.837 125.099 32.8343 125.558 32.8403 125.569C32.9844 125.812 32.9897 124.895 32.8429 125.092ZM45.495 132.999C45.7522 133.125 46.533 133.12 46.2149 132.973C45.9601 132.857 45.18 132.846 45.495 132.999ZM60.313 41.9345C60.3128 41.9235 60.1077 41.668 60.0828 41.6972C60.0041 41.7925 60.3211 42.1202 60.313 41.9345ZM33.0881 129.543C34.8168 130.244 35.7757 131.119 33.8228 130.351C33.4738 130.211 34.6395 130.472 34.2086 130.264C33.5303 129.866 32.2777 130.103 32.3154 128.84C32.2684 128.729 32.9581 129.624 33.0909 129.543C33.09 129.543 33.089 129.543 33.0881 129.543ZM68.9111 68.6593C68.9171 68.648 68.9258 68.1929 68.92 68.1819C68.7793 67.9345 68.7616 68.8513 68.9111 68.6593ZM57.2145 23.9252C57.2272 23.9 57.239 22.8438 57.2274 22.8093C56.9945 22.2583 56.9699 24.3938 57.2145 23.9252ZM69.0309 99.3146C69.1708 99.8122 69.1836 100.406 69.001 100.801C69.0139 100.308 69.0187 99.8108 69.0309 99.3146Z" fill="black"/>
</svg>
